<svg xmlns="http://www.w3.org/2000/svg">
<defs>
<font id="GTAmerica-Md" horiz-adv-x="620" >
  <font-face 
    font-family="GT America Md"
    font-weight="500"
    font-stretch="normal"
    units-per-em="1000"
    panose-1="0 0 6 0 0 0 0 0 0 0"
    ascent="785"
    descent="-215"
    x-height="500"
    cap-height="710"
    bbox="-437 -240 1201 959"
    underline-thickness="50"
    underline-position="-150"
    unicode-range="U+000D-FEFF"
  />
<missing-glyph horiz-adv-x="1018" 
d="M998 710v-47h-552v-47h552v-48h-552v-47h552v-48h-552v-47h552v-47h-552v-48h552v-47h-978v426h978zM72 652l-5 15l13 9h-16l-5 15l-4 -15h-16l13 -9l-5 -15l12 9zM146 691l-4 -15h-16l13 -9l-5 -15l12 10l13 -10l-5 15l12 9h-15zM233 691l-4 -15h-16l13 -9l-5 -15l12 10
l13 -10l-5 15l12 9h-15zM320 691l-5 -15h-15l13 -9l-5 -15l12 10l13 -10l-5 15l12 9h-15zM420 652l-5 15l12 9h-15l-5 15l-5 -15h-15l12 -9l-4 -15l12 10zM103 647l-5 -15h-15l12 -9l-4 -14l12 9l12 -9l-4 14l12 9h-15zM376 609l-5 14l13 9h-16l-4 15l-5 -15h-15l12 -9
l-5 -14l13 9zM193 364h80v93h94v80h-94v94h-80v-94h-93v-80h93v-93zM72 565l-5 15l13 9h-16l-5 14l-4 -14h-16l13 -9l-5 -15l12 9zM146 603l-4 -14h-16l13 -9l-5 -15l12 9l13 -9l-5 15l12 9h-15zM320 603l-5 -14h-15l13 -9l-5 -15l12 9l13 -9l-5 15l12 9h-15zM420 565l-5 15
l12 9h-15l-5 14l-5 -14h-15l12 -9l-4 -15l12 9zM72 478l-5 14l13 10h-16l-5 14l-4 -14h-16l13 -10l-5 -14l12 9zM420 478l-5 14l12 10h-15l-5 14l-5 -14h-15l12 -10l-4 -14l12 9zM72 391l-5 14l13 9h-16l-5 15l-4 -15h-16l13 -9l-5 -14l12 9zM159 391l-5 14l12 9h-15l-5 15
l-4 -15h-16l13 -9l-5 -14l12 9zM333 391l-5 14l12 9h-15l-5 15l-5 -15h-15l13 -9l-5 -14l12 9zM420 391l-5 14l12 9h-15l-5 15l-5 -15h-15l12 -9l-4 -14l12 9zM103 356l12 -9l-4 15l12 9h-15l-5 14l-5 -14h-15l12 -9l-4 -15zM364 356l12 -9l-5 15l13 9h-16l-4 14l-5 -14h-15
l12 -9l-5 -15zM59 312l13 -9l-5 15l13 9h-16l-5 15l-4 -15h-16l13 -9l-5 -15zM146 312l13 -9l-5 15l12 9h-15l-5 15l-4 -15h-16l13 -9l-5 -15zM233 312l13 -9l-5 15l12 9h-15l-5 15l-4 -15h-16l13 -9l-5 -15zM320 312l13 -9l-5 15l12 9h-15l-5 15l-5 -15h-15l13 -9l-5 -15z

<glyph glyph-name="fi" unicode="fi" horiz-adv-x="622" 
d="M346 500v-87h-121v-413h-120v413h-86v87h86v64q0 78 45 122.5t125 44.5q36 0 71 -8v-93q-30 5 -51 5q-36 0 -53 -19.5t-17 -59.5v-56h121zM553 0h-120v500h120v-500zM558 583h-130v125h130v-125z" />
    <glyph glyph-name="fl" unicode="fl" horiz-adv-x="622" 
d="M346 500v-87h-121v-413h-120v413h-86v87h86v64q0 78 45 122.5t125 44.5q36 0 71 -8v-93q-30 5 -51 5q-36 0 -53 -19.5t-17 -59.5v-56h121zM433 725h120v-725h-120v725z" />
    <glyph glyph-name="g_g.liga" unicode="gg" horiz-adv-x="1039" 
d="M411 559q32 25 83 25q15 0 28 -3v-89q-27 5 -43 5q-44 0 -64 -33q54 -46 54 -121q0 -77 -56.5 -123t-149.5 -46q-57 0 -100 18q-26 -15 -26 -38q0 -47 77 -47h99q93 0 136 -39.5t43 -106.5q0 -75 -62 -121.5t-182 -46.5q-99 0 -163 31t-64 92q0 36 24.5 62t66.5 39
q-36 13 -54 37.5t-18 56.5q0 36 21.5 63.5t59.5 40.5q-30 23 -46.5 55.5t-16.5 72.5q0 77 56.5 123t148.5 46q58 0 105 -19q11 41 43 66zM921 464q26 -22 40 -53t14 -68q0 -77 -56.5 -123.5t-149.5 -46.5q-53 0 -93 15q-10 -6 -15.5 -15t-5.5 -19q0 -48 84 -48h105
q93 0 136.5 -39t43.5 -106q0 -75 -65 -121.5t-186 -46.5q-100 0 -163.5 30.5t-63.5 92.5q0 35 23.5 61t63.5 39q-76 24 -76 94q0 34 19.5 61t53.5 41q-32 23 -49 56t-17 75q0 77 56.5 123t148.5 46q59 0 105 -20q12 42 44.5 66.5t84.5 24.5q14 0 28 -3v-86q-27 5 -43 5
q-45 0 -67 -35zM329.5 273q25.5 26 25.5 70t-25.5 70t-66.5 26t-66.5 -26t-25.5 -70t26 -70t66 -26q41 0 66.5 26zM836 272.5q26 26.5 26 70.5t-26 70t-67 26q-40 0 -66 -26t-26 -70t26 -70.5t66 -26.5q41 0 67 26.5zM197 4q-23 0 -41 3q-36 -23 -36 -60q0 -40 35.5 -58
t103.5 -18q67 0 96 18t29 54q0 32 -21 46.5t-64 14.5h-102zM722 4q-15 0 -39 2q-38 -22 -38 -60q0 -40 35.5 -57.5t103.5 -17.5q132 0 132 72q0 32 -21 46t-65 14z" />
    <glyph glyph-name=".notdef" horiz-adv-x="1018" 
d="M998 710v-47h-552v-47h552v-48h-552v-47h552v-48h-552v-47h552v-47h-552v-48h552v-47h-978v426h978zM72 652l-5 15l13 9h-16l-5 15l-4 -15h-16l13 -9l-5 -15l12 9zM146 691l-4 -15h-16l13 -9l-5 -15l12 10l13 -10l-5 15l12 9h-15zM233 691l-4 -15h-16l13 -9l-5 -15l12 10
l13 -10l-5 15l12 9h-15zM320 691l-5 -15h-15l13 -9l-5 -15l12 10l13 -10l-5 15l12 9h-15zM420 652l-5 15l12 9h-15l-5 15l-5 -15h-15l12 -9l-4 -15l12 10zM103 647l-5 -15h-15l12 -9l-4 -14l12 9l12 -9l-4 14l12 9h-15zM376 609l-5 14l13 9h-16l-4 15l-5 -15h-15l12 -9
l-5 -14l13 9zM193 364h80v93h94v80h-94v94h-80v-94h-93v-80h93v-93zM72 565l-5 15l13 9h-16l-5 14l-4 -14h-16l13 -9l-5 -15l12 9zM146 603l-4 -14h-16l13 -9l-5 -15l12 9l13 -9l-5 15l12 9h-15zM320 603l-5 -14h-15l13 -9l-5 -15l12 9l13 -9l-5 15l12 9h-15zM420 565l-5 15
l12 9h-15l-5 14l-5 -14h-15l12 -9l-4 -15l12 9zM72 478l-5 14l13 10h-16l-5 14l-4 -14h-16l13 -10l-5 -14l12 9zM420 478l-5 14l12 10h-15l-5 14l-5 -14h-15l12 -10l-4 -14l12 9zM72 391l-5 14l13 9h-16l-5 15l-4 -15h-16l13 -9l-5 -14l12 9zM159 391l-5 14l12 9h-15l-5 15
l-4 -15h-16l13 -9l-5 -14l12 9zM333 391l-5 14l12 9h-15l-5 15l-5 -15h-15l13 -9l-5 -14l12 9zM420 391l-5 14l12 9h-15l-5 15l-5 -15h-15l12 -9l-4 -14l12 9zM103 356l12 -9l-4 15l12 9h-15l-5 14l-5 -14h-15l12 -9l-4 -15zM364 356l12 -9l-5 15l13 9h-16l-4 14l-5 -14h-15
l12 -9l-5 -15zM59 312l13 -9l-5 15l13 9h-16l-5 15l-4 -15h-16l13 -9l-5 -15zM146 312l13 -9l-5 15l12 9h-15l-5 15l-4 -15h-16l13 -9l-5 -15zM233 312l13 -9l-5 15l12 9h-15l-5 15l-4 -15h-16l13 -9l-5 -15zM320 312l13 -9l-5 15l12 9h-15l-5 15l-5 -15h-15l13 -9l-5 -15z
M407 312l13 -9l-5 15l12 9h-15l-5 15l-5 -15h-15l12 -9l-4 -15zM997 189h-977v48h977v-48zM998 95h-978v47h978v-47zM998 0h-978v47h978v-47z" />
    <glyph glyph-name=".null" horiz-adv-x="0" 
 />
    <glyph glyph-name=".null" horiz-adv-x="0" 
 />
    <glyph glyph-name="nonmarkingreturn" unicode="&#xd;" horiz-adv-x="0" 
 />
    <glyph glyph-name="space" unicode=" " horiz-adv-x="254" 
 />
    <glyph glyph-name="exclam" unicode="!" horiz-adv-x="296" 
d="M194 205h-92l-25 505h142zM79 128h138v-128h-138v128z" />
    <glyph glyph-name="quotedbl" unicode="&#x22;" horiz-adv-x="429" 
d="M348 430h-82l-18 280h118zM164 430h-82l-18 280h118z" />
    <glyph glyph-name="numbersign" unicode="#" horiz-adv-x="604" 
d="M594 504v-87h-121l-26 -139h113v-87h-129l-36 -191h-99l36 191h-121l-36 -191h-99l36 191h-102v87h118l26 139h-104v87h120l35 190h99l-35 -190h121l35 190h99l-35 -190h105zM227 278h121l26 139h-121z" />
    <glyph glyph-name="dollar" unicode="$" horiz-adv-x="618" 
d="M523 49q-66 -56 -178 -63v-93h-62v93q-99 6 -167 52t-95 128l105 49q46 -116 157 -130v231l-27 6q-103 22 -151.5 71t-48.5 129q0 79 61.5 130t165.5 57v91h62v-91q83 -7 141.5 -46.5t86.5 -108.5l-99 -55q-37 97 -129 114v-200l25 -6q114 -24 166.5 -74.5t52.5 -141.5
q0 -86 -66 -142zM199 465.5q25 -22.5 84 -38.5v189q-51 -3 -80 -26.5t-29 -64.5q0 -37 25 -59.5zM345 83q59 5 91.5 31.5t32.5 72.5q0 47 -28 72.5t-96 42.5v-219z" />
    <glyph glyph-name="percent" unicode="%" horiz-adv-x="823" 
d="M66 401q-50 50 -50 134t49.5 135t132.5 51q82 0 132.5 -51t50.5 -135q0 -83 -50 -133.5t-132 -50.5q-83 0 -133 50zM232 -15h-94l452 731h92zM263.5 455q23.5 28 23.5 80t-24 80.5t-65 28.5t-65.5 -28t-24.5 -79q0 -54 24.5 -82t66.5 -28q41 0 64.5 28zM492 35
q-50 50 -50 134q0 85 49.5 135.5t133.5 50.5q81 0 131.5 -50.5t50.5 -133.5q0 -84 -50 -135t-132 -51q-83 0 -133 50zM689 89q24 28 24 80t-24 81t-64 29q-42 0 -66.5 -28t-24.5 -80q0 -53 24.5 -81.5t66.5 -28.5q40 0 64 28z" />
    <glyph glyph-name="ampersand" unicode="&#x26;" horiz-adv-x="670" 
d="M657 97v-96q-31 -7 -55 -7q-78 0 -140 57q-85 -68 -197 -68q-74 0 -130 24.5t-86 69t-30 104.5q0 62 33 108t112 91q-45 53 -65 96t-20 85q0 81 52 128.5t140 47.5t140 -44.5t52 -120.5q0 -53 -30.5 -99.5t-86.5 -79.5l-31 -20l152 -167q40 77 49 188l99 -19
q-10 -142 -79 -245q38 -35 86 -35q28 0 35 2zM215 632q-20 -22 -21 -65q0 -30 14.5 -59t51.5 -73l25 14q69 40 69 118q0 41 -21 64t-60 23q-38 0 -58 -22zM181.5 109q39.5 -32 99.5 -32q65 0 118 42l-177 195q-46 -30 -63 -57t-17 -68q0 -48 39.5 -80z" />
    <glyph glyph-name="quotesingle" unicode="'" horiz-adv-x="246" 
d="M164 430h-82l-18 280h118z" />
    <glyph glyph-name="parenleft" unicode="(" horiz-adv-x="329" 
d="M233 -140q-83 97 -129.5 218t-46.5 250q0 130 46.5 246t130.5 208l88 -40q-78 -101 -113.5 -200t-35.5 -216t36 -219.5t113 -204.5z" />
    <glyph glyph-name="parenright" unicode=")" horiz-adv-x="329" 
d="M7 -98q77 102 113 204.5t36 219.5t-35.5 216t-113.5 200l88 40q84 -92 130.5 -208t46.5 -246q0 -129 -46.5 -250t-129.5 -218z" />
    <glyph glyph-name="asterisk" unicode="*" horiz-adv-x="352" 
d="M309 663l31 -89l-120 -21l87 -84l-76 -56l-55 108l-55 -108l-75 56l86 85l-119 20l30 89l106 -57l-20 119h94l-20 -119z" />
    <glyph glyph-name="plus" unicode="+" 
d="M360 373h188v-92h-188v-189h-100v189h-188v92h188v189h100v-189z" />
    <glyph glyph-name="comma" unicode="," horiz-adv-x="270" 
d="M70 -93q39 15 52 34t13 56v3h-71v139h142v-131q0 -62 -24.5 -98t-84.5 -57z" />
    <glyph glyph-name="hyphen" unicode="-" horiz-adv-x="401" 
d="M47 225v106h307v-106h-307z" />
    <glyph glyph-name="period" unicode="." horiz-adv-x="270" 
d="M64 139h142v-139h-142v139z" />
    <glyph glyph-name="slash" unicode="/" horiz-adv-x="477" 
d="M433 760l-282 -877h-107l282 877h107z" />
    <glyph glyph-name="zero" unicode="0" horiz-adv-x="650" 
d="M116.5 81q-73.5 96 -73.5 266q0 171 73.5 267t208.5 96t209 -96t74 -267q0 -170 -74 -266t-209 -96t-208.5 96zM442.5 152q40.5 69 40.5 195q0 127 -40.5 196t-117.5 69t-117 -69t-40 -196q0 -126 40 -195t117 -69t117.5 69z" />
    <glyph glyph-name="one" unicode="1" horiz-adv-x="417" 
d="M185 514q-17 -20 -50 -31t-67 -11h-32v111h20q57 1 95.5 29t54.5 83h102v-695h-123v514z" />
    <glyph glyph-name="two" unicode="2" horiz-adv-x="563" 
d="M32 94q136 89 243 191q59 55 83 102t24 104t-28 87.5t-81 30.5t-83 -30.5t-30 -82.5q0 -29 7 -61l-124 12q-7 27 -7 55q0 96 65.5 152t177.5 56q111 0 172.5 -55.5t61.5 -157.5q0 -72 -34.5 -136t-107.5 -130q-75 -68 -172 -128h321v-103h-488v94z" />
    <glyph glyph-name="three" unicode="3" horiz-adv-x="584" 
d="M154 12q-58 27 -90 76.5t-33 115.5l122 13q2 -63 39.5 -98.5t99.5 -35.5q60 0 91.5 30t31.5 87q0 55 -35 83.5t-104 28.5h-39v91h36q60 0 91 28t31 79q0 49 -29.5 76t-83.5 27q-59 0 -90.5 -37t-31.5 -105l-120 20q0 101 67 160t182 59q110 0 170.5 -49.5t60.5 -136.5
q0 -59 -35.5 -102.5t-96.5 -57.5q76 -12 115 -54.5t39 -113.5q0 -98 -68 -154.5t-185 -56.5q-77 0 -135 27z" />
    <glyph glyph-name="four" unicode="4" horiz-adv-x="612" 
d="M577 258v-92h-109v-166h-120v166h-323v83l307 446h136v-437h109zM351 487q0 62 2 92h-2q-12 -31 -45 -81l-110 -164q-16 -24 -30 -43.5t-27 -32.5h212v229z" />
    <glyph glyph-name="five" unicode="5" horiz-adv-x="579" 
d="M121 36q-66 51 -80 138l123 17q10 -49 41.5 -77.5t82.5 -28.5q61 0 95 38t34 106q0 70 -33 111t-93 41q-48 0 -79.5 -26t-44.5 -75l-113 11l42 404h409v-101h-318l-23 -200q50 81 160 81q100 0 158 -64.5t58 -176.5q0 -75 -31 -131t-88.5 -87t-134.5 -31q-99 0 -165 51z
" />
    <glyph glyph-name="six" unicode="6" horiz-adv-x="587" 
d="M493 402.5q58 -63.5 58 -171.5q0 -72 -30.5 -128t-85.5 -87t-126 -31q-129 0 -197.5 90t-68.5 259q0 178 71.5 277t200.5 99q96 0 153.5 -45t73.5 -132l-119 -22q-21 102 -110 102q-71 0 -110 -61.5t-41 -178.5q25 45 70 69t105 24q98 0 156 -63.5zM398.5 121.5
q33.5 39.5 33.5 106.5q0 66 -34.5 105t-92.5 39q-50 0 -87.5 -31.5t-53.5 -89.5q8 -78 46.5 -123.5t97.5 -45.5q57 0 90.5 39.5z" />
    <glyph glyph-name="seven" unicode="7" horiz-adv-x="512" 
d="M124 11q0 149 63.5 295.5t180.5 281.5h-344v107h473v-95q-118 -127 -178 -274t-60 -305v-21h-135v11z" />
    <glyph glyph-name="eight" unicode="8" horiz-adv-x="602" 
d="M533 305q34 -45 34 -116q0 -61 -33 -107t-93 -71.5t-139 -25.5q-80 0 -140 24t-93 68.5t-33 103.5q0 68 34 111.5t104 64.5q-60 26 -87.5 66.5t-27.5 100.5q0 55 30 97.5t84 65.5t125 23q110 0 175 -48t65 -129q0 -114 -114 -155q75 -28 109 -73zM210.5 597
q-31.5 -26 -31.5 -72q0 -40 27 -66t87 -43l38 -10q48 20 68 46.5t20 67.5q0 49 -32 76t-90 27q-55 0 -86.5 -26zM405 108q37 30 37 83q0 43 -27.5 71t-89.5 47l-61 18q-55 -22 -79 -52t-24 -77q0 -54 39 -87t103 -33q65 0 102 30z" />
    <glyph glyph-name="nine" unicode="9" horiz-adv-x="588" 
d="M479.5 621.5q66.5 -88.5 66.5 -261.5q0 -174 -65 -274.5t-199 -100.5q-100 0 -160.5 47.5t-76.5 136.5l119 23q21 -109 122 -109q71 0 105 66.5t35 187.5q-24 -42 -66.5 -63t-96.5 -21q-67 0 -118 27t-80 77.5t-29 120.5q0 67 30 119.5t86 82.5t130 30q131 0 197.5 -88.5
zM371 379q40 31 54 79q-6 68 -40 112.5t-102 44.5q-58 0 -93 -37t-35 -98q0 -59 35.5 -95.5t91.5 -36.5q49 0 89 31z" />
    <glyph glyph-name="colon" unicode=":" horiz-adv-x="270" 
d="M64 470h142v-139h-142v139zM64 139h142v-139h-142v139z" />
    <glyph glyph-name="semicolon" unicode=";" horiz-adv-x="270" 
d="M64 470h142v-139h-142v139zM70 -93q39 15 52 34t13 56v3h-71v139h142v-131q0 -62 -24.5 -98t-84.5 -57z" />
    <glyph glyph-name="less" unicode="&#x3c;" 
d="M546 179v-100l-472 202v90l472 202v-98l-359 -149z" />
    <glyph glyph-name="equal" unicode="=" 
d="M548 378h-476v93h476v-93zM548 187h-476v93h476v-93z" />
    <glyph glyph-name="greater" unicode="&#x3e;" 
d="M546 281l-472 -202v100l359 147l-359 149v98l472 -202v-90z" />
    <glyph glyph-name="question" unicode="?" horiz-adv-x="497" 
d="M180 244q0 32 12.5 61.5t47.5 60.5l50 43q31 26 48 55t17 68q0 45 -29 71.5t-79 26.5q-53 0 -85 -30.5t-32 -85.5q0 -24 6 -52l-120 12q-6 29 -6 56q0 89 63 143t176 54q110 0 171.5 -49t61.5 -139q0 -50 -26 -95t-68 -82l-48 -42q-23 -20 -32.5 -40.5t-9.5 -51.5v-29
h-118v45zM308 0h-136v128h136v-128z" />
    <glyph glyph-name="at" unicode="@" horiz-adv-x="837" 
d="M223.5 -55.5q-88.5 46.5 -136.5 132t-48 199.5q0 111 48 198.5t137 136.5t206 49q114 0 197 -45.5t127 -127.5t44 -191q0 -104 -45 -165.5t-121 -61.5q-46 0 -76.5 20t-41.5 57q-19 -38 -56 -59.5t-84 -21.5q-63 0 -103 34t-40 87q0 56 39.5 87.5t125.5 44.5l109 16v12
q0 47 -17 66t-58 19q-76 0 -82 -70h-102q3 66 53.5 105.5t131.5 39.5q88 0 129 -40.5t41 -127.5v-125q0 -43 11 -61.5t37 -18.5q36 0 57 43.5t21 117.5q0 143 -76 223.5t-219 80.5q-100 0 -172 -40t-109.5 -112.5t-37.5 -169.5q0 -94 40.5 -165t114 -110t170.5 -39
q47 0 95.5 10.5t89.5 28.5l28 -56q-94 -47 -222 -47q-117 0 -205.5 46.5zM477 169q29 30 29 79v23l-78 -11q-48 -8 -69.5 -24t-21.5 -44q0 -23 18 -38t46 -15q47 0 76 30z" />
    <glyph glyph-name="A" unicode="A" horiz-adv-x="692" 
d="M680 0h-131l-64 187h-278l-64 -187h-131l264 710h140zM241 285h210l-83 240q-12 35 -21 76h-2q-9 -41 -21 -76z" />
    <glyph glyph-name="B" unicode="B" horiz-adv-x="658" 
d="M576 313q38 -45 38 -116q0 -53 -25 -97.5t-78.5 -72t-134.5 -27.5h-298v710h280q122 0 179 -53.5t57 -132.5q0 -55 -31.5 -97t-91.5 -58q67 -11 105 -56zM207 612v-202h130q69 0 97 28.5t28 71.5q0 45 -29 73.5t-96 28.5h-130zM351 98q67 0 98.5 31t31.5 80q0 48 -31 77
t-92 29h-151v-217h144z" />
    <glyph glyph-name="C" unicode="C" horiz-adv-x="703" 
d="M188.5 30.5q-74.5 47.5 -112 132t-37.5 193.5q0 111 39.5 194.5t115 130t180.5 46.5q129 0 205.5 -68t90.5 -184l-131 -19q-9 77 -53 121t-117 44q-92 0 -144 -71.5t-52 -192.5q0 -120 52.5 -193t147.5 -73q67 0 112 43t58 118l129 -26q-24 -112 -99.5 -177.5
t-201.5 -65.5q-108 0 -182.5 47.5z" />
    <glyph glyph-name="D" unicode="D" horiz-adv-x="716" 
d="M78 0v710h256q103 0 180.5 -44t120 -124t42.5 -184q0 -105 -42.5 -186t-120.5 -126.5t-182 -45.5h-254zM327 101q67 0 115.5 34t74 92.5t25.5 130.5q0 112 -56 181.5t-157 69.5h-122v-508h120z" />
    <glyph glyph-name="E" unicode="E" horiz-adv-x="595" 
d="M207 314v-213h339v-101h-468v710h461v-101h-332v-195h315v-100h-315z" />
    <glyph glyph-name="F" unicode="F" horiz-adv-x="564" 
d="M539 710v-102h-332v-197h315v-102h-315v-309h-129v710h461z" />
    <glyph glyph-name="G" unicode="G" horiz-adv-x="730" 
d="M185.5 30q-70.5 47 -108.5 131t-38 193q0 110 40.5 194.5t117 131.5t181.5 47q90 0 151.5 -32t94.5 -81t42 -103l-128 -22q-10 56 -49 96t-113 40q-96 0 -150.5 -73.5t-54.5 -196.5q0 -121 53 -194.5t153 -73.5q66 0 107 30t57.5 72t16.5 81v13h-193v99h310v-382h-93
l-10 109q-25 -58 -83.5 -92t-136.5 -34q-96 0 -166.5 47z" />
    <glyph glyph-name="H" unicode="H" horiz-adv-x="732" 
d="M525 710h130v-710h-130v310h-318v-310h-129v710h129v-297h318v297z" />
    <glyph glyph-name="I" unicode="I" horiz-adv-x="284" 
d="M207 710v-710h-129v710h129z" />
    <glyph glyph-name="J" unicode="J" horiz-adv-x="394" 
d="M323 200q0 -111 -59.5 -161.5t-159.5 -50.5q-63 0 -94 8v111q31 -5 77 -5q51 0 79 26t28 91v491h129v-510z" />
    <glyph glyph-name="K" unicode="K" horiz-adv-x="674" 
d="M662 0h-149l-212 333l-94 -107v-226h-129v710h129v-331l284 331h153l-256 -286z" />
    <glyph glyph-name="L" unicode="L" horiz-adv-x="528" 
d="M516 0h-438v710h129v-604h309v-106z" />
    <glyph glyph-name="M" unicode="M" horiz-adv-x="874" 
d="M78 0v710h180l161 -494q12 -39 18 -76h2q2 21 5.5 36.5t12.5 40.5l158 493h182v-710h-118v518q0 41 3 78h-3q-2 -14 -7 -37t-11 -38l-167 -521h-116l-169 521q-6 15 -11.5 38.5t-7.5 36.5h-3q4 -32 4 -78v-518h-113z" />
    <glyph glyph-name="N" unicode="N" horiz-adv-x="731" 
d="M78 0v710h148l267 -465q27 -49 44 -91h2q-2 26 -2 92v464h117v-710h-145l-271 467q-29 51 -43 89h-2q2 -54 2 -94v-462h-117z" />
    <glyph glyph-name="O" unicode="O" horiz-adv-x="751" 
d="M198 28.5q-76 45.5 -117.5 130t-41.5 196.5q0 114 41.5 198t117.5 129t178 45t177.5 -45t117 -129t41.5 -198q0 -113 -41.5 -197t-117.5 -129.5t-177 -45.5q-102 0 -178 45.5zM524.5 158q53.5 71 53.5 197t-53.5 197t-148.5 71q-96 0 -149.5 -71t-53.5 -197
q0 -124 54 -196t149 -72t148.5 71z" />
    <glyph glyph-name="P" unicode="P" 
d="M359 710q74 0 130 -26.5t86.5 -75.5t30.5 -114q0 -101 -67 -160t-182 -59h-150v-275h-129v710h281zM334 373q63 0 100 32t37 87t-36.5 87t-100.5 32h-127v-238h127z" />
    <glyph glyph-name="Q" unicode="Q" horiz-adv-x="751" 
d="M567.5 -28.5q29.5 -8.5 62.5 -8.5q23 0 54 7v-105q-39 -6 -72 -6q-77 0 -130 32.5t-79 92.5q-9 -1 -27 -1q-102 0 -178 45.5t-117.5 130t-41.5 196.5q0 114 41.5 198t117.5 129t178 45t177.5 -45t117 -129t41.5 -198q0 -128 -52.5 -218t-146.5 -129q25 -28 54.5 -36.5z
M227 159q54 -72 149 -72t148.5 71t53.5 197t-53.5 197t-148.5 71q-96 0 -149.5 -71t-53.5 -197q0 -124 54 -196z" />
    <glyph glyph-name="R" unicode="R" horiz-adv-x="652" 
d="M488 0l-156 285h-125v-285h-129v710h285q130 0 188.5 -58.5t58.5 -154.5q0 -67 -37.5 -120.5t-111.5 -74.5l169 -302h-142zM207 612v-231h135q69 0 100.5 31t31.5 85q0 115 -132 115h-135z" />
    <glyph glyph-name="S" unicode="S" horiz-adv-x="623" 
d="M120 37q-76 54 -99 145l110 48q19 -65 66 -104.5t126 -39.5q60 0 100.5 25.5t40.5 77.5q0 49 -28.5 72.5t-91.5 36.5l-99 21q-187 38 -187 204q0 61 32 107t91 71.5t138 25.5q104 0 176.5 -43.5t95.5 -129.5l-102 -54q-17 62 -61.5 95.5t-114.5 33.5q-59 0 -94.5 -25.5
t-35.5 -70.5q0 -43 26 -67.5t84 -37.5l104 -22q95 -20 145 -67.5t50 -137.5q0 -62 -31 -111.5t-93 -78t-150 -28.5q-122 0 -198 54z" />
    <glyph glyph-name="T" unicode="T" horiz-adv-x="577" 
d="M9 710h559v-105h-215v-605h-129v605h-215v105z" />
    <glyph glyph-name="U" unicode="U" horiz-adv-x="714" 
d="M71 710h129v-455q0 -76 41.5 -119.5t115.5 -43.5t115.5 43.5t41.5 119.5v455h129v-462q0 -80 -33.5 -140t-98 -92.5t-154.5 -32.5t-154.5 32.5t-98 92.5t-33.5 140v462z" />
    <glyph glyph-name="V" unicode="V" horiz-adv-x="639" 
d="M246 0l-242 710h137l152 -492q18 -57 25 -97h4q6 37 24 97l152 492h138l-243 -710h-147z" />
    <glyph glyph-name="W" unicode="W" horiz-adv-x="929" 
d="M188 0l-169 710h131l107 -520q6 -30 7 -48h3q1 21 8 48l124 520h131l124 -520q7 -27 8 -48h3q1 18 7 48l107 520h132l-169 -710h-150l-120 520q-3 17 -5 42h-4q-1 -18 -6 -42l-120 -520h-149z" />
    <glyph glyph-name="X" unicode="X" horiz-adv-x="661" 
d="M9 0l242 372l-224 338h147l134 -217q15 -22 22 -44h2q8 21 22 43l135 218h141l-221 -347l243 -363h-148l-147 232q-3 5 -13.5 22t-16.5 33h-2q-8 -18 -30 -55l-144 -232h-142z" />
    <glyph glyph-name="Y" unicode="Y" horiz-adv-x="608" 
d="M239 0v271l-239 439h140l145 -283q14 -27 18 -46h2q4 19 18 46l145 283h140l-239 -439v-271h-130z" />
    <glyph glyph-name="Z" unicode="Z" horiz-adv-x="580" 
d="M28 0v104l372 502h-358v104h502v-104l-372 -503h387v-103h-531z" />
    <glyph glyph-name="bracketleft" unicode="[" horiz-adv-x="335" 
d="M304 -114h-226v871h226v-89h-117v-692h117v-90z" />
    <glyph glyph-name="backslash" unicode="\" horiz-adv-x="477" 
d="M433 -117h-107l-282 877h107z" />
    <glyph glyph-name="bracketright" unicode="]" horiz-adv-x="335" 
d="M257 757v-871h-226v90h117v692h-117v89h226z" />
    <glyph glyph-name="asciicircum" unicode="^" horiz-adv-x="431" 
d="M20 447l148 262h95l148 -262h-102l-93 178l-94 -178h-102z" />
    <glyph glyph-name="underscore" unicode="_" horiz-adv-x="447" 
d="M0 -167v74h447v-74h-447z" />
    <glyph glyph-name="grave" unicode="`" horiz-adv-x="600" 
d="M144 723l101 -149h-99l-128 149h126z" />
    <glyph glyph-name="a" unicode="a" horiz-adv-x="551" 
d="M83 28.5q-47 40.5 -47 107.5q0 36 15.5 65t45.5 48q27 16 65 26.5t98 18.5l106 13v13q0 56 -22.5 81.5t-70.5 25.5q-44 0 -69.5 -22.5t-28.5 -65.5h-123q6 80 65 126.5t156 46.5q111 0 162.5 -49.5t51.5 -158.5v-149q0 -102 15 -155h-120q-7 41 -8 86q-18 -46 -62.5 -72
t-104.5 -26q-77 0 -124 40.5zM335 109.5q34 36.5 34 95.5v32l-113 -17q-50 -8 -73 -27t-23 -51t22.5 -50.5t62.5 -18.5q56 0 90 36.5z" />
    <glyph glyph-name="b" unicode="b" horiz-adv-x="580" 
d="M243.5 13q-40.5 25 -60.5 68l-13 -81h-101v725h120v-303q20 41 60.5 65.5t93.5 24.5q61 0 106.5 -33t70 -92.5t24.5 -136.5q0 -78 -25.5 -137.5t-72 -92t-108.5 -32.5q-54 0 -94.5 25zM388 125q31 45 31 125q0 79 -31 124.5t-87 45.5q-54 0 -84 -41t-30 -113v-34
q0 -71 30 -111.5t84 -40.5q56 0 87 45z" />
    <glyph glyph-name="c" unicode="c" horiz-adv-x="538" 
d="M155.5 20.5q-55.5 32.5 -86 91.5t-30.5 138q0 122 66 192t181 70q92 0 150 -47.5t70 -132.5l-117 -19q-7 51 -34.5 78t-71.5 27q-56 0 -88 -44t-32 -121q0 -81 32 -125.5t90 -44.5q44 0 71.5 27.5t35.5 79.5l113 -23q-14 -83 -72.5 -131t-147.5 -48q-74 0 -129.5 32.5z
" />
    <glyph glyph-name="d" unicode="d" horiz-adv-x="580" 
d="M132 20.5q-46 32.5 -71 92t-25 136.5q0 78 26.5 137.5t74.5 92.5t110 33q101 0 144 -83v296h120v-725h-114v90q-20 -48 -61.5 -75t-98.5 -27q-59 0 -105 32.5zM362.5 121.5q30.5 41.5 30.5 111.5v32q0 73 -30.5 114t-84.5 41q-56 0 -86.5 -44.5t-30.5 -124.5t31.5 -125.5
t86.5 -45.5q53 0 83.5 41.5z" />
    <glyph glyph-name="e" unicode="e" horiz-adv-x="546" 
d="M507 220h-351q1 -63 37.5 -100.5t95.5 -37.5q42 0 73.5 21.5t47.5 61.5l93 -42q-28 -65 -85 -100t-134 -35q-115 0 -180 67.5t-65 189.5q0 124 64 195.5t176 71.5q109 0 168.5 -61.5t59.5 -175.5v-55zM388 307q1 61 -28.5 93t-83.5 32q-56 0 -87 -35t-33 -98h232v8z" />
    <glyph glyph-name="f" unicode="f" horiz-adv-x="364" 
d="M346 500v-87h-121v-413h-120v413h-86v87h86v64q0 78 45 122.5t125 44.5q36 0 71 -8v-93q-30 5 -51 5q-36 0 -53 -19.5t-17 -59.5v-56h121z" />
    <glyph glyph-name="g" unicode="g" horiz-adv-x="537" 
d="M416 463q53 -45 53 -119q0 -50 -24.5 -88.5t-71 -60.5t-109.5 -22q-58 0 -100 18q-25 -13 -25 -38q0 -46 76 -46h130q88 0 132.5 -37t44.5 -107q0 -80 -67.5 -125t-199.5 -45q-121 0 -177.5 35.5t-56.5 93.5q0 33 21.5 59t61.5 39q-63 26 -63 90q0 38 20.5 64.5
t58.5 41.5q-29 23 -45 56t-16 72q0 75 55 121.5t150 46.5q60 0 106 -20q12 43 45.5 67.5t85.5 24.5q14 0 27 -3v-90q-22 5 -40 5q-49 0 -72 -33zM330.5 273q25.5 27 25.5 70t-25 69.5t-67 26.5t-67 -26.5t-25 -68.5q0 -43 25 -70.5t67 -27.5q41 0 66.5 27zM197 4
q-21 0 -41 3q-36 -23 -36 -63q0 -73 144 -73q150 0 150 72q0 61 -87 61h-130z" />
    <glyph glyph-name="h" unicode="h" horiz-adv-x="574" 
d="M69 0v725h120v-317q47 104 162 104q81 0 122.5 -51t41.5 -150v-311h-120v301q0 115 -93 115q-54 0 -83.5 -39.5t-29.5 -111.5v-265h-120z" />
    <glyph glyph-name="i" unicode="i" horiz-adv-x="258" 
d="M189 0h-120v500h120v-500zM194 583h-130v125h130v-125z" />
    <glyph glyph-name="j" unicode="j" horiz-adv-x="266" 
d="M-28 -196v92l47 -2q32 0 45 18t13 66v522h120v-531q0 -81 -35.5 -126t-121.5 -45q-44 0 -68 6zM202 583h-130v125h130v-125z" />
    <glyph glyph-name="k" unicode="k" horiz-adv-x="547" 
d="M539 0h-139l-137 225l-74 -77v-148h-120v725h120v-448l195 223h146l-182 -196z" />
    <glyph glyph-name="l" unicode="l" horiz-adv-x="258" 
d="M69 725h120v-725h-120v725z" />
    <glyph glyph-name="m" unicode="m" horiz-adv-x="841" 
d="M69 500h115v-88q43 100 147 100q105 0 143 -101q51 101 155 101q73 0 113 -48.5t40 -136.5v-327h-120v308q0 108 -82 108q-45 0 -69.5 -32t-24.5 -92v-292h-120v311q0 51 -21 78t-60 27q-45 0 -70.5 -33.5t-25.5 -93.5v-289h-120v500z" />
    <glyph glyph-name="n" unicode="n" horiz-adv-x="574" 
d="M69 0v500h115v-97q49 109 166 109q82 0 123.5 -51t41.5 -151v-310h-120v298q0 118 -94 118q-53 0 -82.5 -40t-29.5 -111v-265h-120z" />
    <glyph glyph-name="o" unicode="o" horiz-adv-x="569" 
d="M156.5 19q-55.5 31 -86.5 90.5t-31 141.5t31 141t86.5 89.5t127.5 30.5t128 -30.5t87 -89.5t31 -141t-31 -141.5t-87 -90.5t-128 -31t-127.5 31zM375 123q32 44 32 128t-32 127t-91 43t-90.5 -43t-31.5 -127q0 -85 32 -128.5t90 -43.5q59 0 91 44z" />
    <glyph glyph-name="p" unicode="p" horiz-adv-x="580" 
d="M69 -195v695h114v-87q24 48 65 73.5t95 25.5q60 0 105.5 -32.5t70.5 -91.5t25 -137q0 -79 -26 -138.5t-72.5 -92t-107.5 -32.5q-51 0 -89 22.5t-60 61.5v-267h-120zM388 125.5q31 45.5 31 125.5t-30 124.5t-85 44.5t-86 -41.5t-31 -116.5v-25q0 -72 31 -114.5t84 -42.5
q55 0 86 45.5z" />
    <glyph glyph-name="q" unicode="q" horiz-adv-x="580" 
d="M391 82q-22 -44 -61 -69t-92 -25q-60 0 -105.5 32.5t-71 91.5t-25.5 137q0 79 27 138.5t75 92t109 32.5q107 0 150 -89l16 77h98v-695h-120v277zM361.5 120.5q31.5 40.5 31.5 110.5v37q0 70 -31 111t-85 41t-85 -44.5t-31 -124.5q0 -81 30.5 -126t85.5 -45
q53 0 84.5 40.5z" />
    <glyph glyph-name="r" unicode="r" horiz-adv-x="369" 
d="M181 379q19 62 60 97.5t99 35.5q10 0 15 -1v-115l-16 1q-68 0 -104 -36q-28 -26 -37 -63.5t-9 -87.5v-210h-120v500h112v-121z" />
    <glyph glyph-name="s" unicode="s" horiz-adv-x="493" 
d="M108.5 23.5q-60.5 35.5 -83.5 100.5l89 40q17 -42 53.5 -65t89.5 -23q45 0 69.5 17t24.5 45q0 26 -16.5 39t-55.5 19l-89 16q-70 13 -106.5 49.5t-36.5 96.5q0 69 55 111.5t149 42.5q80 0 136.5 -30.5t74.5 -84.5l-83 -45q-19 35 -52.5 54t-81.5 19q-42 0 -65 -15.5
t-23 -44.5q0 -25 16.5 -38t50.5 -19l98 -18q71 -13 104.5 -48.5t33.5 -95.5q0 -72 -54.5 -115t-150.5 -43q-86 0 -146.5 35.5z" />
    <glyph glyph-name="t" unicode="t" horiz-adv-x="371" 
d="M11 413v87h90v126l120 48v-174h122v-87h-122v-239q0 -40 18 -59.5t55 -19.5q17 0 49 6v-101q-44 -9 -82 -9q-86 0 -123 42t-37 122v258h-90z" />
    <glyph glyph-name="u" unicode="u" horiz-adv-x="567" 
d="M59 179v321h120v-303q0 -55 22.5 -84t65.5 -29q50 0 80.5 38t30.5 101v277h120v-500h-114v93q-17 -47 -59.5 -76t-95.5 -29q-170 0 -170 191z" />
    <glyph glyph-name="v" unicode="v" horiz-adv-x="493" 
d="M182 0l-178 500h126l97 -317q12 -38 18 -74h3q6 36 18 74l98 317h126l-178 -500h-130z" />
    <glyph glyph-name="w" unicode="w" horiz-adv-x="745" 
d="M154 0l-138 500h119l77 -333q8 -40 9 -54h2q2 17 11 54l82 333h113l82 -333q9 -37 11 -54h2q1 14 9 54l77 333h119l-138 -500h-122l-85 324q-8 30 -10 55h-3q-2 -25 -10 -55l-85 -324h-122z" />
    <glyph glyph-name="x" unicode="x" horiz-adv-x="516" 
d="M6 0l181 259l-168 241h136l77 -122q22 -36 27 -51h1q5 15 27 51l73 122h135l-167 -243l181 -257h-137l-89 135q-23 34 -27 52h-1q-5 -15 -29 -52l-89 -135h-131z" />
    <glyph glyph-name="y" unicode="y" horiz-adv-x="504" 
d="M38 -195v95q18 -4 42 -4q44 0 69.5 18.5t39.5 60.5l10 30l-195 495h132l109 -327q11 -31 14 -59h2q3 13 15 59l100 327h124l-187 -528q-33 -93 -85.5 -132.5t-134.5 -39.5q-20 0 -55 5z" />
    <glyph glyph-name="z" unicode="z" horiz-adv-x="461" 
d="M26 0v79l256 330h-245v91h387v-76l-252 -331h267v-93h-413z" />
    <glyph glyph-name="braceleft" unicode="{" horiz-adv-x="368" 
d="M279 -115q-77 0 -116.5 38.5t-39.5 109.5v149q0 54 -14.5 78.5t-60.5 25.5v86q33 1 48.5 12t20.5 31t5 57v147q0 67 44.5 107.5t122.5 40.5h45v-85h-22q-39 0 -59 -22.5t-20 -61.5v-119q0 -61 -18 -98t-66 -51q47 -16 65 -55.5t18 -100.5v-123q0 -39 19 -60t55 -21h31
v-85h-58z" />
    <glyph glyph-name="bar" unicode="|" horiz-adv-x="229" 
d="M160 -117h-91v877h91v-877z" />
    <glyph glyph-name="braceright" unicode="}" horiz-adv-x="368" 
d="M31 -115v85h30q36 0 55.5 21t19.5 60v123q0 61 18 100.5t65 55.5q-48 14 -66 51t-18 98v119q0 39 -20 61.5t-60 22.5h-21v85h45q78 0 122.5 -40.5t44.5 -107.5v-147q0 -37 5 -57t20.5 -31t48.5 -12v-86q-46 -1 -60.5 -25.5t-14.5 -78.5v-149q0 -71 -40 -109.5t-116 -38.5
h-58z" />
    <glyph glyph-name="asciitilde" unicode="~" horiz-adv-x="621" 
d="M349.5 233q-26.5 12 -60.5 34q-26 17 -42.5 25t-35.5 8q-58 0 -76 -69l-79 17q15 65 55.5 101t99.5 36q35 0 62 -12t59 -34q27 -18 43 -26t35 -8q57 0 75 69l80 -16q-15 -66 -55.5 -101.5t-98.5 -35.5q-35 0 -61.5 12z" />
    <glyph glyph-name="uni00A0" unicode="&#xa0;" horiz-adv-x="254" 
 />
    <glyph glyph-name="exclamdown" unicode="&#xa1;" horiz-adv-x="296" 
d="M217 485v-128h-138v128h138zM77 -225l25 505h92l25 -505h-142z" />
    <glyph glyph-name="cent" unicode="&#xa2;" horiz-adv-x="552" 
d="M317 77q42 6 67.5 33t31.5 71l103 -21q-14 -75 -67 -120t-135 -51v-83h-60v84q-102 10 -160 79t-58 181q0 114 57 181.5t161 78.5v84h60v-83q85 -5 138 -51t64 -123l-104 -17q-15 92 -98 105v-348zM177 132.5q28 -44.5 80 -54.5v346q-52 -10 -80 -55.5t-28 -117.5
q0 -74 28 -118.5z" />
    <glyph glyph-name="sterling" unicode="&#xa3;" horiz-adv-x="630" 
d="M621 164q-12 -84 -61.5 -131.5t-124.5 -47.5q-30 0 -53.5 3t-58.5 9q-36 7 -63.5 10.5t-64.5 3.5q-72 0 -156 -19l-25 77q141 44 141 177q0 38 -7 80h-106v69h92q-12 62 -12 100q0 100 60 157.5t165 57.5q94 0 151.5 -42t74.5 -122l-117 -27q-20 97 -108 97
q-52 0 -78 -30t-26 -88q0 -44 13 -103h183v-69h-170q4 -38 4 -62q0 -119 -100 -168q27 8 74 8q27 0 52.5 -3t33.5 -4q54 -8 87 -8q38 0 61.5 24.5t28.5 69.5z" />
    <glyph glyph-name="currency" unicode="&#xa4;" horiz-adv-x="560" 
d="M467 158l54 -59l-55 -51l-55 59q-56 -34 -127 -34q-75 0 -132 37l-58 -63l-55 51l59 65q-43 59 -43 140q0 80 43 141l-59 65l55 51l59 -63q57 37 131 37q70 0 125 -33l57 60l55 -51l-55 -60q47 -61 47 -147q0 -83 -46 -145zM377.5 202q36.5 39 36.5 101t-36.5 101
t-93.5 39t-94 -39t-37 -101t37 -101t94 -39t93.5 39z" />
    <glyph glyph-name="yen" unicode="&#xa5;" horiz-adv-x="565" 
d="M565 695l-214 -365h164v-65h-171v-50h171v-64h-171v-151h-123v151h-171v64h171v50h-171v65h164l-214 365h136l100 -183q31 -58 45 -100h3q14 42 45 100l100 183h136z" />
    <glyph glyph-name="brokenbar" unicode="&#xa6;" horiz-adv-x="228" 
d="M69 760h90v-376h-90v376zM69 263h90v-380h-90v380z" />
    <glyph glyph-name="section" unicode="&#xa7;" horiz-adv-x="501" 
d="M457 77q0 -77 -56.5 -120t-154.5 -43q-87 0 -145.5 36t-79.5 102l83 44q17 -46 54.5 -69.5t92.5 -23.5q45 0 69 17t24 49q0 25 -16.5 40.5t-60.5 32.5l-109 42q-68 25 -99 62.5t-31 91.5q0 75 69 109q-50 41 -50 110q0 74 54.5 116t147.5 42q77 0 131 -32t75 -90l-86 -47
q-13 40 -44.5 61.5t-77.5 21.5q-41 0 -64.5 -16.5t-23.5 -45.5q0 -28 17 -43.5t68 -34.5l104 -37q64 -23 94 -60t30 -94q0 -73 -56 -117q41 -40 41 -104zM331 231l23 -9q18 21 18 50q0 32 -21.5 51.5t-81.5 43.5l-100 40q-2 1 -5 2t-6 3q-25 -21 -25 -54q0 -22 9 -36.5
t32 -27.5t71 -32z" />
    <glyph glyph-name="dieresis" unicode="&#xa8;" horiz-adv-x="600" 
d="M167 585h-117v117h117v-117zM378 585h-117v117h117v-117z" />
    <glyph glyph-name="copyright" unicode="&#xa9;" horiz-adv-x="823" 
d="M225 29q-85 46 -135.5 130.5t-50.5 195.5q0 112 50.5 196.5t135.5 130t186 45.5q102 0 187 -45.5t135.5 -130t50.5 -196.5q0 -111 -50.5 -195.5t-135.5 -130.5t-187 -46q-101 0 -186 46zM568.5 75q71.5 39 113.5 111.5t42 168.5t-42 168.5t-113.5 111.5t-157.5 39
q-85 0 -156.5 -39t-113.5 -111.5t-42 -168.5t42 -168.5t113.5 -111.5t156.5 -39q86 0 157.5 39zM274.5 199.5q-51.5 57.5 -51.5 155.5t51.5 155.5t140.5 57.5q72 0 118 -38t51 -101l-86 -13q-4 37 -26 59t-59 22q-48 0 -76 -38.5t-28 -103.5t28.5 -103t77.5 -38
q33 0 56.5 21.5t28.5 57.5l85 -15q-12 -63 -58 -99.5t-113 -36.5q-88 0 -139.5 57.5z" />
    <glyph glyph-name="ordfeminine" unicode="&#xaa;" horiz-adv-x="448" 
d="M70 330.5q-35 29.5 -35 77.5q0 54 38 78.5t114 34.5l97 14v11q0 37 -15.5 54t-48.5 17q-65 0 -70 -62h-104q4 61 50 95t124 34q88 0 128.5 -36t40.5 -115v-116q0 -67 10 -107h-102q-5 29 -6 64q-14 -34 -48.5 -53.5t-80.5 -19.5q-57 0 -92 29.5zM264 388.5
q24 23.5 24 61.5v37l-72 -11q-40 -6 -59 -20.5t-19 -39.5q0 -23 17 -37t46 -14q39 0 63 23.5z" />
    <glyph glyph-name="guillemotleft" unicode="&#xab;" horiz-adv-x="534" 
d="M304 67h-113l-167 209l169 207h112l-164 -207zM514 67h-113l-167 209l169 207h112l-164 -207z" />
    <glyph glyph-name="logicalnot" unicode="&#xac;" 
d="M74 287v93h472v-253h-100v160h-372z" />
    <glyph glyph-name="registered" unicode="&#xae;" horiz-adv-x="823" 
d="M598 681.5q85 -45.5 135.5 -130t50.5 -196.5q0 -111 -50.5 -195.5t-135.5 -130.5t-187 -46q-101 0 -186 46t-135.5 130.5t-50.5 195.5q0 112 50.5 196.5t135.5 130t186 45.5q102 0 187 -45.5zM568.5 75q71.5 39 113.5 111.5t42 168.5t-42 168.5t-113.5 111.5t-157.5 39
q-85 0 -156.5 -39t-113.5 -111.5t-42 -168.5t42 -168.5t113.5 -111.5t156.5 -39q86 0 157.5 39zM550 370.5q-22 -29.5 -62 -42.5l98 -172h-92l-87 163h-56v-163h-83v406h159q70 0 107.5 -31.5t37.5 -90.5q0 -40 -22 -69.5zM351 497v-115h67q34 0 52 15t18 43q0 57 -70 57
h-67z" />
    <glyph glyph-name="macron" unicode="&#xaf;" horiz-adv-x="600" 
d="M369 603h-319v81h319v-81z" />
    <glyph glyph-name="degree" unicode="&#xb0;" horiz-adv-x="413" 
d="M113 379q-42 22 -66 63t-24 95t24 95t66 63t94 22t93.5 -22t65.5 -63t24 -95t-24 -95t-65.5 -63t-93.5 -22t-94 22zM276 464q27 28 27 73t-27 72.5t-69 27.5q-43 0 -70 -27.5t-27 -72.5t27.5 -73t69.5 -28t69 28z" />
    <glyph glyph-name="plusminus" unicode="&#xb1;" 
d="M360 568v-154h188v-92h-188v-154h-100v154h-189v92h189v154h100zM548 33h-477v92h477v-92z" />
    <glyph glyph-name="uni00B2" unicode="&#xb2;" horiz-adv-x="458" 
d="M35 387q88 54 143 95t89.5 86.5t34.5 94.5q0 40 -20.5 61.5t-57.5 21.5q-39 0 -60.5 -21.5t-21.5 -59.5q0 -16 5 -41l-107 9q-4 28 -4 41q0 71 52 112.5t141 41.5q88 0 136 -41t48 -116q0 -82 -65 -151.5t-170 -126.5h243v-83h-386v77z" />
    <glyph glyph-name="uni00B3" unicode="&#xb3;" horiz-adv-x="469" 
d="M86.5 343q-53.5 44 -55.5 120l106 10q2 -44 27 -68.5t68 -24.5t65.5 20.5t22.5 58.5q0 35 -25 54.5t-73 19.5h-32v70h29q42 0 65.5 19.5t23.5 54.5q0 34 -21 53t-59 19q-42 0 -64.5 -25t-22.5 -70l-104 12q0 75 52 118.5t143 43.5q88 0 135.5 -36.5t47.5 -103.5
q0 -43 -28.5 -74.5t-76.5 -40.5q57 -8 88.5 -39.5t31.5 -82.5q0 -70 -53.5 -111t-144.5 -41q-92 0 -145.5 44z" />
    <glyph glyph-name="acute" unicode="&#xb4;" horiz-adv-x="324" 
d="M147 574h-98l100 149h126z" />
    <glyph glyph-name="uni00B5" unicode="&#xb5;" horiz-adv-x="579" 
d="M402 0q-8 47 -10 89q-18 -45 -60 -73t-93 -28q-34 0 -63 8v-191h-107v695h120v-303q0 -55 22.5 -84t65.5 -29q50 0 80.5 38t30.5 101v277h120v-331q0 -114 17 -169h-123z" />
    <glyph glyph-name="paragraph" unicode="&#xb6;" horiz-adv-x="681" 
d="M281 355q-102 0 -166.5 41t-64.5 141q0 96 66.5 139.5t169.5 43.5h323v-65h-87v-754h-74v754h-93v-754h-74v454z" />
    <glyph glyph-name="periodcentered" unicode="&#xb7;" horiz-adv-x="270" 
d="M64 351h142v-139h-142v139z" />
    <glyph glyph-name="cedilla" unicode="&#xb8;" horiz-adv-x="600" 
d="M121 7h64l-34 -55q18 14 48 14q38 0 60 -21.5t22 -60.5q0 -42 -32 -65.5t-85 -23.5q-43 0 -72.5 16.5t-40.5 46.5l70 16q4 -13 15 -20t25 -7q19 0 30.5 11t11.5 29q0 17 -11 27.5t-29 10.5q-21 0 -34 -15l-49 13z" />
    <glyph glyph-name="uni00B9" unicode="&#xb9;" horiz-adv-x="338" 
d="M145 673q-15 -16 -41 -25t-55 -9h-18v95h12q47 0 76.5 20t44.5 63h84v-507h-103v363z" />
    <glyph glyph-name="ordmasculine" unicode="&#xba;" horiz-adv-x="452" 
d="M89 351.5q-53 50.5 -53 141.5t52.5 141t137.5 50q84 0 136.5 -50t52.5 -141t-52.5 -141.5t-136.5 -50.5t-137 50.5zM289.5 403.5q22.5 30.5 22.5 89.5t-22.5 89t-63.5 30t-63.5 -30t-22.5 -89t22.5 -89.5t63.5 -30.5t63.5 30.5z" />
    <glyph glyph-name="guillemotright" unicode="&#xbb;" horiz-adv-x="534" 
d="M300 276l-167 -209h-114l164 209l-164 207h112zM510 276l-167 -209h-113l163 209l-164 207h112z" />
    <glyph glyph-name="onequarter" unicode="&#xbc;" horiz-adv-x="790" 
d="M115 596q-13 -12 -32.5 -18.5t-41.5 -6.5h-15v76h10q72 0 94 64h67v-386h-82v271zM195 -17h-90l438 744h89zM769 148v-62h-61v-86h-82v86h-191v59l180 241h93v-238h61zM626 148v160l-118 -160h118z" />
    <glyph glyph-name="onehalf" unicode="&#xbd;" horiz-adv-x="832" 
d="M115 596q-13 -12 -32.5 -18.5t-41.5 -6.5h-15v76h10q72 0 94 64h67v-386h-82v271zM195 -17h-90l438 744h89zM497 62q69 40 111.5 70t69.5 64t27 72q0 29 -15 44t-44 15q-30 0 -46.5 -15.5t-16.5 -43.5q0 -12 5 -30l-87 7q-3 15 -3 31q0 55 40.5 87t111.5 32
q68 0 106 -31.5t38 -89.5q0 -65 -52.5 -117t-129.5 -90h187v-67h-302v62z" />
    <glyph glyph-name="threequarters" unicode="&#xbe;" horiz-adv-x="892" 
d="M70 350.5q-42 33.5 -43 91.5l85 8q0 -32 19.5 -50t53.5 -18q66 0 66 57q0 51 -75 51h-31v61h29q33 0 50 14t17 38q0 25 -16 38.5t-45 13.5q-31 0 -49 -18.5t-18 -51.5l-83 10q0 57 42 91t113 34q68 0 105.5 -28.5t37.5 -78.5q0 -33 -22 -57t-59 -31q44 -6 68.5 -30
t24.5 -63q0 -53 -42.5 -84t-113.5 -31q-72 0 -114 33.5zM297 -17h-90l438 744h89zM871 148v-62h-61v-86h-82v86h-191v59l180 241h93v-238h61zM728 148v160l-118 -160h118z" />
    <glyph glyph-name="questiondown" unicode="&#xbf;" horiz-adv-x="497" 
d="M189 500h136v-128h-136v128zM317 256q0 -32 -12.5 -61.5t-47.5 -60.5l-50 -43q-31 -26 -48 -55t-17 -68q0 -45 28.5 -71.5t79.5 -26.5q53 0 84.5 30.5t31.5 85.5q0 29 -6 52l121 -12q6 -29 6 -56q0 -89 -63 -143t-176 -54q-110 0 -171.5 49t-61.5 139q0 96 94 177l48 42
q23 20 32.5 40.5t9.5 52.5v28h118v-45z" />
    <glyph glyph-name="Agrave" unicode="&#xc0;" horiz-adv-x="692" 
d="M680 0h-131l-64 187h-278l-64 -187h-131l264 710h140zM241 285h210l-83 240q-12 35 -21 76h-2q-9 -41 -21 -76zM299 866l94 -113h-100l-109 113h115z" />
    <glyph glyph-name="Aacute" unicode="&#xc1;" horiz-adv-x="692" 
d="M680 0h-131l-64 187h-278l-64 -187h-131l264 710h140zM241 285h210l-83 240q-12 35 -21 76h-2q-9 -41 -21 -76zM396 753h-99l93 113h115z" />
    <glyph glyph-name="Acircumflex" unicode="&#xc2;" horiz-adv-x="692" 
d="M680 0h-131l-64 187h-278l-64 -187h-131l264 710h140zM241 285h210l-83 240q-12 35 -21 76h-2q-9 -41 -21 -76zM414 866l101 -113h-104l-65 73l-66 -73h-103l101 113h136z" />
    <glyph glyph-name="Atilde" unicode="&#xc3;" horiz-adv-x="692" 
d="M680 0h-131l-64 187h-278l-64 -187h-131l264 710h140zM241 285h210l-83 240q-12 35 -21 76h-2q-9 -41 -21 -76zM370 753.5q-18 8.5 -40 23.5q-17 12 -28 17.5t-24 5.5q-18 0 -29 -12t-19 -38l-67 19q9 51 39.5 79t76.5 28q26 0 44 -8.5t40 -23.5q17 -12 27.5 -17.5
t23.5 -5.5q18 0 29 12t19 38l67 -19q-9 -51 -39.5 -79t-76.5 -28q-25 0 -43 8.5z" />
    <glyph glyph-name="Adieresis" unicode="&#xc4;" horiz-adv-x="692" 
d="M680 0h-131l-64 187h-278l-64 -187h-131l264 710h140zM241 285h210l-83 240q-12 35 -21 76h-2q-9 -41 -21 -76zM291 753h-114v106h114v-106zM516 753h-114v106h114v-106z" />
    <glyph glyph-name="Aring" unicode="&#xc5;" horiz-adv-x="692" 
d="M680 0h-131l-64 187h-278l-64 -187h-131l264 710h140zM241 285h210l-83 240q-12 35 -21 76h-2q-9 -41 -21 -76zM260.5 771q-32.5 30 -32.5 79t32.5 79t84.5 30q53 0 85.5 -30t32.5 -79t-32.5 -79t-85.5 -30q-52 0 -84.5 30zM382.5 812q14.5 15 14.5 38q0 24 -14.5 39
t-37.5 15t-37.5 -15t-14.5 -39q0 -23 14.5 -38t37.5 -15t37.5 15z" />
    <glyph glyph-name="AE" unicode="&#xc6;" horiz-adv-x="948" 
d="M581 314v-213h318v-101h-447v166h-244l-90 -166h-132l412 710h494v-101h-311v-195h294v-100h-294zM452 614l-190 -350h190v350z" />
    <glyph glyph-name="Ccedilla" unicode="&#xc7;" horiz-adv-x="703" 
d="M672 226q-23 -106 -92.5 -171t-184.5 -71l-20 -32q18 14 48 14q38 0 60 -21.5t22 -60.5q0 -42 -32 -65.5t-85 -23.5q-43 0 -72.5 16.5t-40.5 46.5l70 16q4 -13 15 -20t25 -7q19 0 30.5 11t11.5 29q0 17 -11 27.5t-29 10.5q-20 0 -34 -15l-49 13l30 62q-143 12 -219 112.5
t-76 258.5q0 111 39.5 194.5t115 130t180.5 46.5q129 0 205.5 -68t90.5 -184l-131 -19q-9 77 -53 121t-117 44q-92 0 -144 -71.5t-52 -192.5q0 -120 52.5 -193t147.5 -73q67 0 112 43t58 118z" />
    <glyph glyph-name="Egrave" unicode="&#xc8;" horiz-adv-x="595" 
d="M207 314v-213h339v-101h-468v710h461v-101h-332v-195h315v-100h-315zM264 866l94 -113h-100l-109 113h115z" />
    <glyph glyph-name="Eacute" unicode="&#xc9;" horiz-adv-x="595" 
d="M207 314v-213h339v-101h-468v710h461v-101h-332v-195h315v-100h-315zM361 753h-99l93 113h115z" />
    <glyph glyph-name="Ecircumflex" unicode="&#xca;" horiz-adv-x="595" 
d="M207 314v-213h339v-101h-468v710h461v-101h-332v-195h315v-100h-315zM379 866l101 -113h-104l-65 73l-66 -73h-103l101 113h136z" />
    <glyph glyph-name="Edieresis" unicode="&#xcb;" horiz-adv-x="595" 
d="M207 314v-213h339v-101h-468v710h461v-101h-332v-195h315v-100h-315zM256 753h-114v106h114v-106zM481 753h-114v106h114v-106z" />
    <glyph glyph-name="Igrave" unicode="&#xcc;" horiz-adv-x="284" 
d="M207 710v-710h-129v710h129zM96 866l94 -113h-100l-109 113h115z" />
    <glyph glyph-name="Iacute" unicode="&#xcd;" horiz-adv-x="284" 
d="M207 710v-710h-129v710h129zM192 753h-99l93 113h115z" />
    <glyph glyph-name="Icircumflex" unicode="&#xce;" horiz-adv-x="284" 
d="M207 710v-710h-129v710h129zM211 866l101 -113h-104l-65 73l-66 -73h-103l101 113h136z" />
    <glyph glyph-name="Idieresis" unicode="&#xcf;" horiz-adv-x="284" 
d="M207 710v-710h-129v710h129zM87 753h-114v106h114v-106zM312 753h-114v106h114v-106z" />
    <glyph glyph-name="Eth" unicode="&#xd0;" horiz-adv-x="716" 
d="M334 710q103 0 180.5 -44t120 -124t42.5 -184q0 -105 -42.5 -186t-120.5 -126.5t-182 -45.5h-254v329h-71v82h71v299h256zM327 101q67 0 115.5 34t74 92.5t25.5 130.5q0 112 -56 181.5t-157 69.5h-122v-198h170v-82h-170v-228h120z" />
    <glyph glyph-name="Ntilde" unicode="&#xd1;" horiz-adv-x="731" 
d="M78 0v710h148l267 -465q27 -49 44 -91h2q-2 26 -2 92v464h117v-710h-145l-271 467q-29 51 -43 89h-2q2 -54 2 -94v-462h-117zM390 753.5q-18 8.5 -40 23.5q-17 12 -28 17.5t-24 5.5q-18 0 -29 -12t-19 -38l-67 19q9 51 39.5 79t76.5 28q26 0 44 -8.5t40 -23.5
q17 -12 27.5 -17.5t23.5 -5.5q18 0 29 12t19 38l67 -19q-9 -51 -39.5 -79t-76.5 -28q-25 0 -43 8.5z" />
    <glyph glyph-name="Ograve" unicode="&#xd2;" horiz-adv-x="751" 
d="M198 28.5q-76 45.5 -117.5 130t-41.5 196.5q0 114 41.5 198t117.5 129t178 45t177.5 -45t117 -129t41.5 -198q0 -113 -41.5 -197t-117.5 -129.5t-177 -45.5q-102 0 -178 45.5zM524.5 158q53.5 71 53.5 197t-53.5 197t-148.5 71q-96 0 -149.5 -71t-53.5 -197
q0 -124 54 -196t149 -72t148.5 71zM329 866l94 -113h-100l-109 113h115z" />
    <glyph glyph-name="Oacute" unicode="&#xd3;" horiz-adv-x="751" 
d="M198 28.5q-76 45.5 -117.5 130t-41.5 196.5q0 114 41.5 198t117.5 129t178 45t177.5 -45t117 -129t41.5 -198q0 -113 -41.5 -197t-117.5 -129.5t-177 -45.5q-102 0 -178 45.5zM524.5 158q53.5 71 53.5 197t-53.5 197t-148.5 71q-96 0 -149.5 -71t-53.5 -197
q0 -124 54 -196t149 -72t148.5 71zM425 753h-99l93 113h115z" />
    <glyph glyph-name="Ocircumflex" unicode="&#xd4;" horiz-adv-x="751" 
d="M198 28.5q-76 45.5 -117.5 130t-41.5 196.5q0 114 41.5 198t117.5 129t178 45t177.5 -45t117 -129t41.5 -198q0 -113 -41.5 -197t-117.5 -129.5t-177 -45.5q-102 0 -178 45.5zM524.5 158q53.5 71 53.5 197t-53.5 197t-148.5 71q-96 0 -149.5 -71t-53.5 -197
q0 -124 54 -196t149 -72t148.5 71zM444 866l101 -113h-104l-65 73l-66 -73h-103l101 113h136z" />
    <glyph glyph-name="Otilde" unicode="&#xd5;" horiz-adv-x="751" 
d="M198 28.5q-76 45.5 -117.5 130t-41.5 196.5q0 114 41.5 198t117.5 129t178 45t177.5 -45t117 -129t41.5 -198q0 -113 -41.5 -197t-117.5 -129.5t-177 -45.5q-102 0 -178 45.5zM524.5 158q53.5 71 53.5 197t-53.5 197t-148.5 71q-96 0 -149.5 -71t-53.5 -197
q0 -124 54 -196t149 -72t148.5 71zM400 753.5q-18 8.5 -40 23.5q-17 12 -28 17.5t-24 5.5q-18 0 -29 -12t-19 -38l-67 19q9 51 39.5 79t76.5 28q26 0 44 -8.5t40 -23.5q17 -12 27.5 -17.5t23.5 -5.5q18 0 29 12t19 38l67 -19q-9 -51 -39.5 -79t-76.5 -28q-25 0 -43 8.5z" />
    <glyph glyph-name="Odieresis" unicode="&#xd6;" horiz-adv-x="751" 
d="M198 28.5q-76 45.5 -117.5 130t-41.5 196.5q0 114 41.5 198t117.5 129t178 45t177.5 -45t117 -129t41.5 -198q0 -113 -41.5 -197t-117.5 -129.5t-177 -45.5q-102 0 -178 45.5zM524.5 158q53.5 71 53.5 197t-53.5 197t-148.5 71q-96 0 -149.5 -71t-53.5 -197
q0 -124 54 -196t149 -72t148.5 71zM320 753h-114v106h114v-106zM545 753h-114v106h114v-106z" />
    <glyph glyph-name="multiply" unicode="&#xd7;" 
d="M492 577l69 -68l-183 -182l183 -181l-68 -69l-183 182l-184 -182l-68 68l183 182l-183 182l68 68l183 -182z" />
    <glyph glyph-name="Oslash" unicode="&#xd8;" horiz-adv-x="751" 
d="M626 621q86 -100 86 -266q0 -113 -41.5 -197t-117.5 -129.5t-177 -45.5q-117 0 -200 60l-47 -60l-54 40l51 66q-42 48 -64.5 115.5t-22.5 150.5q0 114 41.5 198t117.5 129t178 45q119 0 201 -61l47 60l54 -39zM207 192l298 382q-51 49 -129 49q-96 0 -149.5 -71
t-53.5 -197q0 -97 34 -163zM524.5 158q53.5 71 53.5 197q0 96 -32 162l-298 -382q51 -48 128 -48q95 0 148.5 71z" />
    <glyph glyph-name="Ugrave" unicode="&#xd9;" horiz-adv-x="714" 
d="M71 710h129v-455q0 -76 41.5 -119.5t115.5 -43.5t115.5 43.5t41.5 119.5v455h129v-462q0 -80 -33.5 -140t-98 -92.5t-154.5 -32.5t-154.5 32.5t-98 92.5t-33.5 140v462zM310 866l94 -113h-100l-109 113h115z" />
    <glyph glyph-name="Uacute" unicode="&#xda;" horiz-adv-x="714" 
d="M71 710h129v-455q0 -76 41.5 -119.5t115.5 -43.5t115.5 43.5t41.5 119.5v455h129v-462q0 -80 -33.5 -140t-98 -92.5t-154.5 -32.5t-154.5 32.5t-98 92.5t-33.5 140v462zM407 753h-99l93 113h115z" />
    <glyph glyph-name="Ucircumflex" unicode="&#xdb;" horiz-adv-x="714" 
d="M71 710h129v-455q0 -76 41.5 -119.5t115.5 -43.5t115.5 43.5t41.5 119.5v455h129v-462q0 -80 -33.5 -140t-98 -92.5t-154.5 -32.5t-154.5 32.5t-98 92.5t-33.5 140v462zM425 866l101 -113h-104l-65 73l-66 -73h-103l101 113h136z" />
    <glyph glyph-name="Udieresis" unicode="&#xdc;" horiz-adv-x="714" 
d="M71 710h129v-455q0 -76 41.5 -119.5t115.5 -43.5t115.5 43.5t41.5 119.5v455h129v-462q0 -80 -33.5 -140t-98 -92.5t-154.5 -32.5t-154.5 32.5t-98 92.5t-33.5 140v462zM302 753h-114v106h114v-106zM527 753h-114v106h114v-106z" />
    <glyph glyph-name="Yacute" unicode="&#xdd;" horiz-adv-x="608" 
d="M239 0v271l-239 439h140l145 -283q14 -27 18 -46h2q4 19 18 46l145 283h140l-239 -439v-271h-130zM354 753h-99l93 113h115z" />
    <glyph glyph-name="Thorn" unicode="&#xde;" horiz-adv-x="586" 
d="M339 580q107 0 170.5 -56t63.5 -150q0 -62 -29 -109.5t-82.5 -73t-123.5 -25.5h-131v-166h-129v710h129v-130h132zM318 264q54 0 86.5 29.5t32.5 78.5q0 50 -32 79t-87 29h-111v-216h111z" />
    <glyph glyph-name="germandbls" unicode="&#xdf;" horiz-adv-x="590" 
d="M75 497q0 107 59 168.5t167 61.5q101 0 157 -41.5t56 -120.5q0 -67 -38 -111t-104 -52q91 -8 138.5 -56.5t47.5 -132.5q0 -106 -66 -165.5t-180 -59.5q-36 0 -66 9v90q24 -8 52 -8q63 0 100.5 36.5t37.5 102.5q0 64 -40 97.5t-118 35.5h-32v90h33q55 2 84 31.5t29 83.5
q0 40 -25.5 62.5t-70.5 22.5q-49 0 -74.5 -35.5t-25.5 -97.5v-508h-121v497z" />
    <glyph glyph-name="agrave" unicode="&#xe0;" horiz-adv-x="551" 
d="M83 28.5q-47 40.5 -47 107.5q0 36 15.5 65t45.5 48q27 16 65 26.5t98 18.5l106 13v13q0 56 -22.5 81.5t-70.5 25.5q-44 0 -69.5 -22.5t-28.5 -65.5h-123q6 80 65 126.5t156 46.5q111 0 162.5 -49.5t51.5 -158.5v-149q0 -102 15 -155h-120q-7 41 -8 86q-18 -46 -62.5 -72
t-104.5 -26q-77 0 -124 40.5zM335 109.5q34 36.5 34 95.5v32l-113 -17q-50 -8 -73 -27t-23 -51t22.5 -50.5t62.5 -18.5q56 0 90 36.5zM223 723l101 -149h-99l-128 149h126z" />
    <glyph glyph-name="aacute" unicode="&#xe1;" horiz-adv-x="551" 
d="M83 28.5q-47 40.5 -47 107.5q0 36 15.5 65t45.5 48q27 16 65 26.5t98 18.5l106 13v13q0 56 -22.5 81.5t-70.5 25.5q-44 0 -69.5 -22.5t-28.5 -65.5h-123q6 80 65 126.5t156 46.5q111 0 162.5 -49.5t51.5 -158.5v-149q0 -102 15 -155h-120q-7 41 -8 86q-18 -46 -62.5 -72
t-104.5 -26q-77 0 -124 40.5zM335 109.5q34 36.5 34 95.5v32l-113 -17q-50 -8 -73 -27t-23 -51t22.5 -50.5t62.5 -18.5q56 0 90 36.5zM326 574h-98l100 149h126z" />
    <glyph glyph-name="acircumflex" unicode="&#xe2;" horiz-adv-x="551" 
d="M83 28.5q-47 40.5 -47 107.5q0 36 15.5 65t45.5 48q27 16 65 26.5t98 18.5l106 13v13q0 56 -22.5 81.5t-70.5 25.5q-44 0 -69.5 -22.5t-28.5 -65.5h-123q6 80 65 126.5t156 46.5q111 0 162.5 -49.5t51.5 -158.5v-149q0 -102 15 -155h-120q-7 41 -8 86q-18 -46 -62.5 -72
t-104.5 -26q-77 0 -124 40.5zM335 109.5q34 36.5 34 95.5v32l-113 -17q-50 -8 -73 -27t-23 -51t22.5 -50.5t62.5 -18.5q56 0 90 36.5zM337 723l107 -149h-96l-72 102l-71 -102h-97l108 149h121z" />
    <glyph glyph-name="atilde" unicode="&#xe3;" horiz-adv-x="551" 
d="M83 28.5q-47 40.5 -47 107.5q0 36 15.5 65t45.5 48q27 16 65 26.5t98 18.5l106 13v13q0 56 -22.5 81.5t-70.5 25.5q-44 0 -69.5 -22.5t-28.5 -65.5h-123q6 80 65 126.5t156 46.5q111 0 162.5 -49.5t51.5 -158.5v-149q0 -102 15 -155h-120q-7 41 -8 86q-18 -46 -62.5 -72
t-104.5 -26q-77 0 -124 40.5zM335 109.5q34 36.5 34 95.5v32l-113 -17q-50 -8 -73 -27t-23 -51t22.5 -50.5t62.5 -18.5q56 0 90 36.5zM303 588q-20 10 -43 29q-18 14 -30.5 21t-27.5 7q-19 0 -30.5 -13.5t-19.5 -43.5l-67 18q9 56 40 88t79 32q27 0 47 -10t43 -28
q18 -14 30.5 -21t27.5 -7q19 0 30.5 13t19.5 44l67 -19q-9 -56 -40 -88t-79 -32q-27 0 -47 10z" />
    <glyph glyph-name="adieresis" unicode="&#xe4;" horiz-adv-x="551" 
d="M83 28.5q-47 40.5 -47 107.5q0 36 15.5 65t45.5 48q27 16 65 26.5t98 18.5l106 13v13q0 56 -22.5 81.5t-70.5 25.5q-44 0 -69.5 -22.5t-28.5 -65.5h-123q6 80 65 126.5t156 46.5q111 0 162.5 -49.5t51.5 -158.5v-149q0 -102 15 -155h-120q-7 41 -8 86q-18 -46 -62.5 -72
t-104.5 -26q-77 0 -124 40.5zM335 109.5q34 36.5 34 95.5v32l-113 -17q-50 -8 -73 -27t-23 -51t22.5 -50.5t62.5 -18.5q56 0 90 36.5zM229 585h-117v117h117v-117zM440 585h-117v117h117v-117z" />
    <glyph glyph-name="aring" unicode="&#xe5;" horiz-adv-x="551" 
d="M83 28.5q-47 40.5 -47 107.5q0 36 15.5 65t45.5 48q27 16 65 26.5t98 18.5l106 13v13q0 56 -22.5 81.5t-70.5 25.5q-44 0 -69.5 -22.5t-28.5 -65.5h-123q6 80 65 126.5t156 46.5q111 0 162.5 -49.5t51.5 -158.5v-149q0 -102 15 -155h-120q-7 41 -8 86q-18 -46 -62.5 -72
t-104.5 -26q-77 0 -124 40.5zM335 109.5q34 36.5 34 95.5v32l-113 -17q-50 -8 -73 -27t-23 -51t22.5 -50.5t62.5 -18.5q56 0 90 36.5zM191.5 582.5q-32.5 30.5 -32.5 78.5q0 49 32.5 79.5t84.5 30.5t85 -30.5t33 -79.5q0 -48 -33 -78.5t-85 -30.5t-84.5 30.5zM313.5 623
q14.5 15 14.5 38q0 24 -14.5 39t-37.5 15t-37.5 -15t-14.5 -39q0 -23 14.5 -38t37.5 -15t37.5 15z" />
    <glyph glyph-name="ae" unicode="&#xe6;" horiz-adv-x="850" 
d="M811 221h-332q1 -63 35 -101t89 -38q39 0 67.5 21.5t43.5 61.5l93 -42q-27 -65 -81 -100t-128 -35q-67 0 -116 27t-77 78q-26 -51 -77.5 -78t-118.5 -27q-79 0 -126 39t-47 108q0 128 180 150l144 17v16q0 55 -23.5 81t-71.5 26q-44 0 -68.5 -22t-26.5 -64h-120
q6 81 62 127t152 46q114 0 164 -71q59 71 166 71q103 0 160 -65t57 -182v-44zM691 300q1 62 -25.5 97t-74.5 35q-49 0 -80 -35.5t-32 -96.5h212zM363 231l-103 -13q-53 -7 -76.5 -26.5t-23.5 -54.5q0 -28 22.5 -46t57.5 -18q50 0 86.5 32.5t36.5 99.5v26z" />
    <glyph glyph-name="ccedilla" unicode="&#xe7;" horiz-adv-x="538" 
d="M356.5 110.5q27.5 27.5 35.5 79.5l113 -23q-13 -77 -65 -124.5t-131 -53.5l-23 -37q18 14 48 14q38 0 60 -21.5t22 -60.5q0 -42 -32 -65.5t-85 -23.5q-43 0 -72.5 16.5t-40.5 46.5l70 16q4 -13 15 -20t25 -7q19 0 30.5 11t11.5 29q0 17 -11 27.5t-29 10.5q-20 0 -34 -15
l-49 13l33 67q-96 12 -152.5 82t-56.5 178q0 122 66 192t181 70q92 0 150 -47.5t70 -132.5l-117 -19q-7 51 -34.5 78t-71.5 27q-56 0 -88 -44t-32 -121q0 -81 32 -125.5t90 -44.5q44 0 71.5 27.5z" />
    <glyph glyph-name="egrave" unicode="&#xe8;" horiz-adv-x="546" 
d="M507 220h-351q1 -63 37.5 -100.5t95.5 -37.5q42 0 73.5 21.5t47.5 61.5l93 -42q-28 -65 -85 -100t-134 -35q-115 0 -180 67.5t-65 189.5q0 124 64 195.5t176 71.5q109 0 168.5 -61.5t59.5 -175.5v-55zM388 307q1 61 -28.5 93t-83.5 32q-56 0 -87 -35t-33 -98h232v8z
M221 723l101 -149h-99l-128 149h126z" />
    <glyph glyph-name="eacute" unicode="&#xe9;" horiz-adv-x="546" 
d="M507 220h-351q1 -63 37.5 -100.5t95.5 -37.5q42 0 73.5 21.5t47.5 61.5l93 -42q-28 -65 -85 -100t-134 -35q-115 0 -180 67.5t-65 189.5q0 124 64 195.5t176 71.5q109 0 168.5 -61.5t59.5 -175.5v-55zM388 307q1 61 -28.5 93t-83.5 32q-56 0 -87 -35t-33 -98h232v8z
M324 574h-98l100 149h126z" />
    <glyph glyph-name="ecircumflex" unicode="&#xea;" horiz-adv-x="546" 
d="M507 220h-351q1 -63 37.5 -100.5t95.5 -37.5q42 0 73.5 21.5t47.5 61.5l93 -42q-28 -65 -85 -100t-134 -35q-115 0 -180 67.5t-65 189.5q0 124 64 195.5t176 71.5q109 0 168.5 -61.5t59.5 -175.5v-55zM388 307q1 61 -28.5 93t-83.5 32q-56 0 -87 -35t-33 -98h232v8z
M334 723l107 -149h-96l-72 102l-71 -102h-97l108 149h121z" />
    <glyph glyph-name="edieresis" unicode="&#xeb;" horiz-adv-x="546" 
d="M507 220h-351q1 -63 37.5 -100.5t95.5 -37.5q42 0 73.5 21.5t47.5 61.5l93 -42q-28 -65 -85 -100t-134 -35q-115 0 -180 67.5t-65 189.5q0 124 64 195.5t176 71.5q109 0 168.5 -61.5t59.5 -175.5v-55zM388 307q1 61 -28.5 93t-83.5 32q-56 0 -87 -35t-33 -98h232v8z
M227 585h-117v117h117v-117zM438 585h-117v117h117v-117z" />
    <glyph glyph-name="igrave" unicode="&#xec;" horiz-adv-x="258" 
d="M189 0h-120v500h120v-500zM77 723l101 -149h-99l-128 149h126z" />
    <glyph glyph-name="iacute" unicode="&#xed;" horiz-adv-x="258" 
d="M189 0h-120v500h120v-500zM180 574h-98l100 149h126z" />
    <glyph glyph-name="icircumflex" unicode="&#xee;" horiz-adv-x="258" 
d="M189 0h-120v500h120v-500zM190 723l107 -149h-96l-72 102l-71 -102h-97l108 149h121z" />
    <glyph glyph-name="idieresis" unicode="&#xef;" horiz-adv-x="258" 
d="M189 0h-120v500h120v-500zM83 585h-117v117h117v-117zM294 585h-117v117h117v-117z" />
    <glyph glyph-name="eth" unicode="&#xf0;" horiz-adv-x="549" 
d="M402 629q58 -71 89 -162.5t31 -194.5q0 -85 -31 -149.5t-87.5 -99.5t-130.5 -35q-111 0 -174 69.5t-63 192.5q0 80 26 139t74.5 91t113.5 32q88 0 129 -76h2q-21 80 -86 154l-114 -42l-18 44l94 34q-34 31 -84 58l94 56q59 -32 101 -74l78 29l17 -44zM369.5 125
q32.5 45 32.5 127q0 81 -32.5 126t-90.5 45q-56 0 -88 -45t-32 -126q0 -80 32 -126t87 -46q59 0 91.5 45z" />
    <glyph glyph-name="ntilde" unicode="&#xf1;" horiz-adv-x="574" 
d="M69 0v500h115v-97q49 109 166 109q82 0 123.5 -51t41.5 -151v-310h-120v298q0 118 -94 118q-53 0 -82.5 -40t-29.5 -111v-265h-120zM333 588q-20 10 -43 29q-18 14 -30.5 21t-27.5 7q-19 0 -30.5 -13.5t-19.5 -43.5l-67 18q9 56 40 88t79 32q27 0 47 -10t43 -28
q18 -14 30.5 -21t27.5 -7q19 0 30.5 13t19.5 44l67 -19q-9 -56 -40 -88t-79 -32q-27 0 -47 10z" />
    <glyph glyph-name="ograve" unicode="&#xf2;" horiz-adv-x="569" 
d="M156.5 19q-55.5 31 -86.5 90.5t-31 141.5t31 141t86.5 89.5t127.5 30.5t128 -30.5t87 -89.5t31 -141t-31 -141.5t-87 -90.5t-128 -31t-127.5 31zM375 123q32 44 32 128t-32 127t-91 43t-90.5 -43t-31.5 -127q0 -85 32 -128.5t90 -43.5q59 0 91 44zM232 723l101 -149h-99
l-128 149h126z" />
    <glyph glyph-name="oacute" unicode="&#xf3;" horiz-adv-x="569" 
d="M156.5 19q-55.5 31 -86.5 90.5t-31 141.5t31 141t86.5 89.5t127.5 30.5t128 -30.5t87 -89.5t31 -141t-31 -141.5t-87 -90.5t-128 -31t-127.5 31zM375 123q32 44 32 128t-32 127t-91 43t-90.5 -43t-31.5 -127q0 -85 32 -128.5t90 -43.5q59 0 91 44zM335 574h-98l100 149
h126z" />
    <glyph glyph-name="ocircumflex" unicode="&#xf4;" horiz-adv-x="569" 
d="M156.5 19q-55.5 31 -86.5 90.5t-31 141.5t31 141t86.5 89.5t127.5 30.5t128 -30.5t87 -89.5t31 -141t-31 -141.5t-87 -90.5t-128 -31t-127.5 31zM375 123q32 44 32 128t-32 127t-91 43t-90.5 -43t-31.5 -127q0 -85 32 -128.5t90 -43.5q59 0 91 44zM345 723l107 -149h-96
l-72 102l-71 -102h-97l108 149h121z" />
    <glyph glyph-name="otilde" unicode="&#xf5;" horiz-adv-x="569" 
d="M156.5 19q-55.5 31 -86.5 90.5t-31 141.5t31 141t86.5 89.5t127.5 30.5t128 -30.5t87 -89.5t31 -141t-31 -141.5t-87 -90.5t-128 -31t-127.5 31zM375 123q32 44 32 128t-32 127t-91 43t-90.5 -43t-31.5 -127q0 -85 32 -128.5t90 -43.5q59 0 91 44zM312 588q-20 10 -43 29
q-18 14 -30.5 21t-27.5 7q-19 0 -30.5 -13.5t-19.5 -43.5l-67 18q9 56 40 88t79 32q27 0 47 -10t43 -28q18 -14 30.5 -21t27.5 -7q19 0 30.5 13t19.5 44l67 -19q-9 -56 -40 -88t-79 -32q-27 0 -47 10z" />
    <glyph glyph-name="odieresis" unicode="&#xf6;" horiz-adv-x="569" 
d="M156.5 19q-55.5 31 -86.5 90.5t-31 141.5t31 141t86.5 89.5t127.5 30.5t128 -30.5t87 -89.5t31 -141t-31 -141.5t-87 -90.5t-128 -31t-127.5 31zM375 123q32 44 32 128t-32 127t-91 43t-90.5 -43t-31.5 -127q0 -85 32 -128.5t90 -43.5q59 0 91 44zM238 585h-117v117h117
v-117zM449 585h-117v117h117v-117z" />
    <glyph glyph-name="divide" unicode="&#xf7;" 
d="M264.5 466.5q-16.5 16.5 -16.5 43.5q0 26 16.5 43t42.5 17q27 0 44 -16.5t17 -43.5t-17 -43.5t-44 -16.5q-26 0 -42.5 16.5zM548 280h-476v92h476v-92zM264.5 99.5q-16.5 16.5 -16.5 43.5q0 26 16.5 42.5t42.5 16.5q27 0 44 -16t17 -43t-17 -43.5t-44 -16.5
q-26 0 -42.5 16.5z" />
    <glyph glyph-name="oslash" unicode="&#xf8;" horiz-adv-x="569" 
d="M467 438q63 -71 63 -187q0 -82 -31 -141.5t-87 -90.5t-128 -31q-84 0 -145 41l-36 -45l-40 29l39 49q-63 71 -63 189q0 82 31 141t86.5 89.5t127.5 30.5q84 0 145 -41l36 45l41 -30zM177 155l187 235q-30 31 -80 31q-59 0 -90.5 -43t-31.5 -127q0 -57 15 -96zM375 123
q32 44 32 128q0 55 -14 94l-189 -235q30 -31 80 -31q59 0 91 44z" />
    <glyph glyph-name="ugrave" unicode="&#xf9;" horiz-adv-x="567" 
d="M59 179v321h120v-303q0 -55 22.5 -84t65.5 -29q50 0 80.5 38t30.5 101v277h120v-500h-114v93q-17 -47 -59.5 -76t-95.5 -29q-170 0 -170 191zM226 723l101 -149h-99l-128 149h126z" />
    <glyph glyph-name="uacute" unicode="&#xfa;" horiz-adv-x="567" 
d="M59 179v321h120v-303q0 -55 22.5 -84t65.5 -29q50 0 80.5 38t30.5 101v277h120v-500h-114v93q-17 -47 -59.5 -76t-95.5 -29q-170 0 -170 191zM329 574h-98l100 149h126z" />
    <glyph glyph-name="ucircumflex" unicode="&#xfb;" horiz-adv-x="567" 
d="M59 179v321h120v-303q0 -55 22.5 -84t65.5 -29q50 0 80.5 38t30.5 101v277h120v-500h-114v93q-17 -47 -59.5 -76t-95.5 -29q-170 0 -170 191zM339 723l107 -149h-96l-72 102l-71 -102h-97l108 149h121z" />
    <glyph glyph-name="udieresis" unicode="&#xfc;" horiz-adv-x="567" 
d="M59 179v321h120v-303q0 -55 22.5 -84t65.5 -29q50 0 80.5 38t30.5 101v277h120v-500h-114v93q-17 -47 -59.5 -76t-95.5 -29q-170 0 -170 191zM232 585h-117v117h117v-117zM443 585h-117v117h117v-117z" />
    <glyph glyph-name="yacute" unicode="&#xfd;" horiz-adv-x="504" 
d="M38 -195v95q18 -4 42 -4q44 0 69.5 18.5t39.5 60.5l10 30l-195 495h132l109 -327q11 -31 14 -59h2q3 13 15 59l100 327h124l-187 -528q-33 -93 -85.5 -132.5t-134.5 -39.5q-20 0 -55 5zM306 574h-98l100 149h126z" />
    <glyph glyph-name="thorn" unicode="&#xfe;" horiz-adv-x="580" 
d="M69 -195v920h120v-300q25 43 64.5 65t90.5 22q61 0 106.5 -34t69.5 -93.5t24 -133.5q0 -75 -24.5 -134.5t-70.5 -94t-108 -34.5q-50 0 -89 20.5t-63 60.5v-264h-120zM387.5 128q31.5 48 31.5 123t-31 122t-85 47q-56 0 -86 -41.5t-30 -114.5v-28q0 -73 30.5 -114.5
t85.5 -41.5q53 0 84.5 48z" />
    <glyph glyph-name="ydieresis" unicode="&#xff;" horiz-adv-x="504" 
d="M38 -195v95q18 -4 42 -4q44 0 69.5 18.5t39.5 60.5l10 30l-195 495h132l109 -327q11 -31 14 -59h2q3 13 15 59l100 327h124l-187 -528q-33 -93 -85.5 -132.5t-134.5 -39.5q-20 0 -55 5zM208 585h-117v117h117v-117zM419 585h-117v117h117v-117z" />
    <glyph glyph-name="Amacron" unicode="&#x100;" horiz-adv-x="692" 
d="M680 0h-131l-64 187h-278l-64 -187h-131l264 710h140zM241 285h210l-83 240q-12 35 -21 76h-2q-9 -41 -21 -76zM510 763h-328v81h328v-81z" />
    <glyph glyph-name="amacron" unicode="&#x101;" horiz-adv-x="551" 
d="M83 28.5q-47 40.5 -47 107.5q0 36 15.5 65t45.5 48q27 16 65 26.5t98 18.5l106 13v13q0 56 -22.5 81.5t-70.5 25.5q-44 0 -69.5 -22.5t-28.5 -65.5h-123q6 80 65 126.5t156 46.5q111 0 162.5 -49.5t51.5 -158.5v-149q0 -102 15 -155h-120q-7 41 -8 86q-18 -46 -62.5 -72
t-104.5 -26q-77 0 -124 40.5zM335 109.5q34 36.5 34 95.5v32l-113 -17q-50 -8 -73 -27t-23 -51t22.5 -50.5t62.5 -18.5q56 0 90 36.5zM436 603h-319v81h319v-81z" />
    <glyph glyph-name="Abreve" unicode="&#x102;" horiz-adv-x="692" 
d="M680 0h-131l-64 187h-278l-64 -187h-131l264 710h140zM241 285h210l-83 240q-12 35 -21 76h-2q-9 -41 -21 -76zM271 866q4 -25 23.5 -38.5t52.5 -13.5t52 13.5t23 38.5h86q-5 -57 -46.5 -87.5t-114.5 -30.5q-74 0 -115.5 30.5t-46.5 87.5h86z" />
    <glyph glyph-name="abreve" unicode="&#x103;" horiz-adv-x="551" 
d="M83 28.5q-47 40.5 -47 107.5q0 36 15.5 65t45.5 48q27 16 65 26.5t98 18.5l106 13v13q0 56 -22.5 81.5t-70.5 25.5q-44 0 -69.5 -22.5t-28.5 -65.5h-123q6 80 65 126.5t156 46.5q111 0 162.5 -49.5t51.5 -158.5v-149q0 -102 15 -155h-120q-7 41 -8 86q-18 -46 -62.5 -72
t-104.5 -26q-77 0 -124 40.5zM335 109.5q34 36.5 34 95.5v32l-113 -17q-50 -8 -73 -27t-23 -51t22.5 -50.5t62.5 -18.5q56 0 90 36.5zM201 723q2 -41 22 -62.5t54 -21.5t53.5 21.5t21.5 62.5h86q-4 -78 -47.5 -116t-113.5 -38t-114 38t-48 116h86z" />
    <glyph glyph-name="Aogonek" unicode="&#x104;" horiz-adv-x="692" 
d="M680 0h-131l-64 187h-278l-64 -187h-131l264 710h140zM241 285h210l-83 240q-12 35 -21 76h-2q-9 -41 -21 -76zM691 -110q-7 -45 -38 -69t-82 -24q-53 0 -83.5 24t-30.5 66q0 71 92 113h113q-40 -2 -68.5 -18.5t-43.5 -39t-15 -44.5q0 -19 10.5 -29t29.5 -10q17 0 29 11
t16 31z" />
    <glyph glyph-name="aogonek" unicode="&#x105;" horiz-adv-x="551" 
d="M524 -110q-7 -45 -38 -69t-82 -24q-53 0 -83.5 24t-30.5 66q0 71 92 113q-7 41 -8 86q-18 -46 -62.5 -72t-104.5 -26q-77 0 -124 40.5t-47 107.5q0 36 15.5 65t45.5 48q27 16 65 26.5t98 18.5l106 13v13q0 56 -22.5 81.5t-70.5 25.5q-44 0 -69.5 -22.5t-28.5 -65.5h-123
q6 80 65 126.5t156 46.5q111 0 162.5 -49.5t51.5 -158.5v-149q0 -102 15 -155h-7q-40 -2 -68.5 -18.5t-43.5 -39t-15 -44.5q0 -19 10.5 -29t29.5 -10q17 0 29 11t16 31zM369 237l-113 -17q-50 -8 -73 -27t-23 -51t22.5 -50.5t62.5 -18.5q56 0 90 36.5t34 95.5v32z" />
    <glyph glyph-name="Cacute" unicode="&#x106;" horiz-adv-x="703" 
d="M188.5 30.5q-74.5 47.5 -112 132t-37.5 193.5q0 111 39.5 194.5t115 130t180.5 46.5q129 0 205.5 -68t90.5 -184l-131 -19q-9 77 -53 121t-117 44q-92 0 -144 -71.5t-52 -192.5q0 -120 52.5 -193t147.5 -73q67 0 112 43t58 118l129 -26q-24 -112 -99.5 -177.5
t-201.5 -65.5q-108 0 -182.5 47.5zM419 753h-99l93 113h115z" />
    <glyph glyph-name="cacute" unicode="&#x107;" horiz-adv-x="538" 
d="M155.5 20.5q-55.5 32.5 -86 91.5t-30.5 138q0 122 66 192t181 70q92 0 150 -47.5t70 -132.5l-117 -19q-7 51 -34.5 78t-71.5 27q-56 0 -88 -44t-32 -121q0 -81 32 -125.5t90 -44.5q44 0 71.5 27.5t35.5 79.5l113 -23q-14 -83 -72.5 -131t-147.5 -48q-74 0 -129.5 32.5z
M336 574h-98l100 149h126z" />
    <glyph glyph-name="Ccircumflex" unicode="&#x108;" horiz-adv-x="703" 
d="M188.5 30.5q-74.5 47.5 -112 132t-37.5 193.5q0 111 39.5 194.5t115 130t180.5 46.5q129 0 205.5 -68t90.5 -184l-131 -19q-9 77 -53 121t-117 44q-92 0 -144 -71.5t-52 -192.5q0 -120 52.5 -193t147.5 -73q67 0 112 43t58 118l129 -26q-24 -112 -99.5 -177.5
t-201.5 -65.5q-108 0 -182.5 47.5zM437 866l101 -113h-104l-65 73l-66 -73h-103l101 113h136z" />
    <glyph glyph-name="ccircumflex" unicode="&#x109;" horiz-adv-x="538" 
d="M155.5 20.5q-55.5 32.5 -86 91.5t-30.5 138q0 122 66 192t181 70q92 0 150 -47.5t70 -132.5l-117 -19q-7 51 -34.5 78t-71.5 27q-56 0 -88 -44t-32 -121q0 -81 32 -125.5t90 -44.5q44 0 71.5 27.5t35.5 79.5l113 -23q-14 -83 -72.5 -131t-147.5 -48q-74 0 -129.5 32.5z
M346 723l107 -149h-96l-72 102l-71 -102h-97l108 149h121z" />
    <glyph glyph-name="Cdotaccent" unicode="&#x10a;" horiz-adv-x="703" 
d="M188.5 30.5q-74.5 47.5 -112 132t-37.5 193.5q0 111 39.5 194.5t115 130t180.5 46.5q129 0 205.5 -68t90.5 -184l-131 -19q-9 77 -53 121t-117 44q-92 0 -144 -71.5t-52 -192.5q0 -120 52.5 -193t147.5 -73q67 0 112 43t58 118l129 -26q-24 -112 -99.5 -177.5
t-201.5 -65.5q-108 0 -182.5 47.5zM436 753h-133v112h133v-112z" />
    <glyph glyph-name="cdotaccent" unicode="&#x10b;" horiz-adv-x="538" 
d="M349 585h-127v124h127v-124zM155.5 20.5q-55.5 32.5 -86 91.5t-30.5 138q0 122 66 192t181 70q92 0 150 -47.5t70 -132.5l-117 -19q-7 51 -34.5 78t-71.5 27q-56 0 -88 -44t-32 -121q0 -81 32 -125.5t90 -44.5q44 0 71.5 27.5t35.5 79.5l113 -23q-14 -83 -72.5 -131
t-147.5 -48q-74 0 -129.5 32.5z" />
    <glyph glyph-name="Ccaron" unicode="&#x10c;" horiz-adv-x="703" 
d="M188.5 30.5q-74.5 47.5 -112 132t-37.5 193.5q0 111 39.5 194.5t115 130t180.5 46.5q129 0 205.5 -68t90.5 -184l-131 -19q-9 77 -53 121t-117 44q-92 0 -144 -71.5t-52 -192.5q0 -120 52.5 -193t147.5 -73q67 0 112 43t58 118l129 -26q-24 -112 -99.5 -177.5
t-201.5 -65.5q-108 0 -182.5 47.5zM435 865h103l-101 -113h-136l-101 113h104l65 -73z" />
    <glyph glyph-name="ccaron" unicode="&#x10d;" horiz-adv-x="538" 
d="M155.5 20.5q-55.5 32.5 -86 91.5t-30.5 138q0 122 66 192t181 70q92 0 150 -47.5t70 -132.5l-117 -19q-7 51 -34.5 78t-71.5 27q-56 0 -88 -44t-32 -121q0 -81 32 -125.5t90 -44.5q44 0 71.5 27.5t35.5 79.5l113 -23q-14 -83 -72.5 -131t-147.5 -48q-74 0 -129.5 32.5z
M224 574l-107 149h97l71 -102l71 102h97l-107 -149h-122z" />
    <glyph glyph-name="Dcaron" unicode="&#x10e;" horiz-adv-x="716" 
d="M78 0v710h256q103 0 180.5 -44t120 -124t42.5 -184q0 -105 -42.5 -186t-120.5 -126.5t-182 -45.5h-254zM327 101q67 0 115.5 34t74 92.5t25.5 130.5q0 112 -56 181.5t-157 69.5h-122v-508h120zM399 865h103l-101 -113h-136l-101 113h104l65 -73z" />
    <glyph glyph-name="dcaron" unicode="&#x10f;" horiz-adv-x="580" 
d="M132 20.5q-46 32.5 -71 92t-25 136.5q0 78 26.5 137.5t74.5 92.5t110 33q101 0 144 -83v296h120v-725h-114v90q-20 -48 -61.5 -75t-98.5 -27q-59 0 -105 32.5zM362.5 121.5q30.5 41.5 30.5 111.5v32q0 73 -30.5 114t-84.5 41q-56 0 -86.5 -44.5t-30.5 -124.5t31.5 -125.5
t86.5 -45.5q53 0 83.5 41.5zM697 727l-72 -167h-68l36 167h104z" />
    <glyph glyph-name="Dcroat" unicode="&#x110;" horiz-adv-x="716" 
d="M334 710q103 0 180.5 -44t120 -124t42.5 -184q0 -105 -42.5 -186t-120.5 -126.5t-182 -45.5h-254v329h-71v82h71v299h256zM327 101q67 0 115.5 34t74 92.5t25.5 130.5q0 112 -56 181.5t-157 69.5h-122v-198h170v-82h-170v-228h120z" />
    <glyph glyph-name="dcroat" unicode="&#x111;" horiz-adv-x="580" 
d="M600 636v-60h-89v-576h-114v90q-20 -48 -61.5 -75t-98.5 -27q-59 0 -105 32.5t-71 92t-25 136.5q0 78 26.5 137.5t74.5 92.5t110 33q101 0 144 -83v147h-168v60h168v89h120v-89h89zM393 265q0 73 -30.5 114t-84.5 41q-56 0 -86.5 -44.5t-30.5 -124.5t31.5 -125.5
t86.5 -45.5q53 0 83.5 41.5t30.5 111.5v32z" />
    <glyph glyph-name="Emacron" unicode="&#x112;" horiz-adv-x="595" 
d="M207 314v-213h339v-101h-468v710h461v-101h-332v-195h315v-100h-315zM475 763h-328v81h328v-81z" />
    <glyph glyph-name="emacron" unicode="&#x113;" horiz-adv-x="546" 
d="M507 220h-351q1 -63 37.5 -100.5t95.5 -37.5q42 0 73.5 21.5t47.5 61.5l93 -42q-28 -65 -85 -100t-134 -35q-115 0 -180 67.5t-65 189.5q0 124 64 195.5t176 71.5q109 0 168.5 -61.5t59.5 -175.5v-55zM388 307q1 61 -28.5 93t-83.5 32q-56 0 -87 -35t-33 -98h232v8z
M433 603h-319v81h319v-81z" />
    <glyph glyph-name="Ebreve" unicode="&#x114;" horiz-adv-x="595" 
d="M207 314v-213h339v-101h-468v710h461v-101h-332v-195h315v-100h-315zM236 866q4 -25 23.5 -38.5t52.5 -13.5t52 13.5t23 38.5h86q-5 -57 -46.5 -87.5t-114.5 -30.5q-74 0 -115.5 30.5t-46.5 87.5h86z" />
    <glyph glyph-name="ebreve" unicode="&#x115;" horiz-adv-x="546" 
d="M507 220h-351q1 -63 37.5 -100.5t95.5 -37.5q42 0 73.5 21.5t47.5 61.5l93 -42q-28 -65 -85 -100t-134 -35q-115 0 -180 67.5t-65 189.5q0 124 64 195.5t176 71.5q109 0 168.5 -61.5t59.5 -175.5v-55zM388 307q1 61 -28.5 93t-83.5 32q-56 0 -87 -35t-33 -98h232v8z
M198 723q2 -41 22 -62.5t54 -21.5t53.5 21.5t21.5 62.5h86q-4 -78 -47.5 -116t-113.5 -38t-114 38t-48 116h86z" />
    <glyph glyph-name="Edotaccent" unicode="&#x116;" horiz-adv-x="595" 
d="M207 314v-213h339v-101h-468v710h461v-101h-332v-195h315v-100h-315zM378 753h-133v112h133v-112z" />
    <glyph glyph-name="edotaccent" unicode="&#x117;" horiz-adv-x="546" 
d="M211 709h127v-124h-127v124zM507 220h-351q1 -63 37.5 -100.5t95.5 -37.5q42 0 73.5 21.5t47.5 61.5l93 -42q-28 -65 -85 -100t-134 -35q-115 0 -180 67.5t-65 189.5q0 124 64 195.5t176 71.5q109 0 168.5 -61.5t59.5 -175.5v-55zM388 307q1 61 -28.5 93t-83.5 32
q-56 0 -87 -35t-33 -98h232v8z" />
    <glyph glyph-name="Eogonek" unicode="&#x118;" horiz-adv-x="595" 
d="M207 314v-213h339v-101h-468v710h461v-101h-332v-195h315v-100h-315zM543 -110q-7 -45 -38 -69t-82 -24q-53 0 -83.5 24t-30.5 66q0 71 92 113h113q-40 -2 -68.5 -18.5t-43.5 -39t-15 -44.5q0 -19 10.5 -29t29.5 -10q17 0 29 11t16 31z" />
    <glyph glyph-name="eogonek" unicode="&#x119;" horiz-adv-x="553" 
d="M507 220h-351q1 -63 37.5 -100.5t95.5 -37.5q42 0 73.5 21.5t47.5 61.5l93 -42q-25 -58 -75 -94q-42 -35 -61 -67.5t-19 -59.5q0 -21 10.5 -32t29.5 -11q17 0 29 10.5t16 31.5l71 -11q-7 -45 -38.5 -69t-82.5 -24q-52 0 -82.5 25.5t-30.5 69.5q0 25 13 49t43 50
q-19 -3 -42 -3q-115 0 -180 67.5t-65 189.5q0 124 64 195.5t176 71.5q109 0 168.5 -61.5t59.5 -175.5v-55zM388 307q1 61 -28.5 93t-83.5 32q-56 0 -87 -35t-33 -98h232v8z" />
    <glyph glyph-name="Ecaron" unicode="&#x11a;" horiz-adv-x="595" 
d="M207 314v-213h339v-101h-468v710h461v-101h-332v-195h315v-100h-315zM377 865h103l-101 -113h-136l-101 113h104l65 -73z" />
    <glyph glyph-name="ecaron" unicode="&#x11b;" horiz-adv-x="546" 
d="M507 220h-351q1 -63 37.5 -100.5t95.5 -37.5q42 0 73.5 21.5t47.5 61.5l93 -42q-28 -65 -85 -100t-134 -35q-115 0 -180 67.5t-65 189.5q0 124 64 195.5t176 71.5q109 0 168.5 -61.5t59.5 -175.5v-55zM388 307q1 61 -28.5 93t-83.5 32q-56 0 -87 -35t-33 -98h232v8z
M213 574l-107 149h97l71 -102l71 102h97l-107 -149h-122z" />
    <glyph glyph-name="Gcircumflex" unicode="&#x11c;" horiz-adv-x="730" 
d="M185.5 30q-70.5 47 -108.5 131t-38 193q0 110 40.5 194.5t117 131.5t181.5 47q90 0 151.5 -32t94.5 -81t42 -103l-128 -22q-10 56 -49 96t-113 40q-96 0 -150.5 -73.5t-54.5 -196.5q0 -121 53 -194.5t153 -73.5q66 0 107 30t57.5 72t16.5 81v13h-193v99h310v-382h-93
l-10 109q-25 -58 -83.5 -92t-136.5 -34q-96 0 -166.5 47zM439 866l101 -113h-104l-65 73l-66 -73h-103l101 113h136z" />
    <glyph glyph-name="gcircumflex" unicode="&#x11d;" horiz-adv-x="537" 
d="M335 592l-72 87l-71 -87h-97l108 131h121l107 -131h-96zM416 463q53 -45 53 -119q0 -50 -24.5 -88.5t-71 -60.5t-109.5 -22q-58 0 -100 18q-25 -13 -25 -38q0 -46 76 -46h130q88 0 132.5 -37t44.5 -107q0 -80 -67.5 -125t-199.5 -45q-121 0 -177.5 35.5t-56.5 93.5
q0 33 21.5 59t61.5 39q-63 26 -63 90q0 38 20.5 64.5t58.5 41.5q-29 23 -45 56t-16 72q0 75 55 121.5t150 46.5q60 0 106 -20q12 43 45.5 67.5t85.5 24.5q14 0 27 -3v-90q-22 5 -40 5q-49 0 -72 -33zM330.5 273q25.5 27 25.5 70t-25 69.5t-67 26.5t-67 -26.5t-25 -68.5
q0 -43 25 -70.5t67 -27.5q41 0 66.5 27zM197 4q-21 0 -41 3q-36 -23 -36 -63q0 -73 144 -73q150 0 150 72q0 61 -87 61h-130z" />
    <glyph glyph-name="Gbreve" unicode="&#x11e;" horiz-adv-x="730" 
d="M185.5 30q-70.5 47 -108.5 131t-38 193q0 110 40.5 194.5t117 131.5t181.5 47q90 0 151.5 -32t94.5 -81t42 -103l-128 -22q-10 56 -49 96t-113 40q-96 0 -150.5 -73.5t-54.5 -196.5q0 -121 53 -194.5t153 -73.5q66 0 107 30t57.5 72t16.5 81v13h-193v99h310v-382h-93
l-10 109q-25 -58 -83.5 -92t-136.5 -34q-96 0 -166.5 47zM295 866q4 -25 23.5 -38.5t52.5 -13.5t52 13.5t23 38.5h86q-5 -57 -46.5 -87.5t-114.5 -30.5q-74 0 -115.5 30.5t-46.5 87.5h86z" />
    <glyph glyph-name="gbreve" unicode="&#x11f;" horiz-adv-x="537" 
d="M416 463q53 -45 53 -119q0 -50 -24.5 -88.5t-71 -60.5t-109.5 -22q-58 0 -100 18q-25 -13 -25 -38q0 -46 76 -46h130q88 0 132.5 -37t44.5 -107q0 -80 -67.5 -125t-199.5 -45q-121 0 -177.5 35.5t-56.5 93.5q0 33 21.5 59t61.5 39q-63 26 -63 90q0 38 20.5 64.5
t58.5 41.5q-29 23 -45 56t-16 72q0 75 55 121.5t150 46.5q60 0 106 -20q12 43 45.5 67.5t85.5 24.5q14 0 27 -3v-90q-22 5 -40 5q-49 0 -72 -33zM330.5 273q25.5 27 25.5 70t-25 69.5t-67 26.5t-67 -26.5t-25 -68.5q0 -43 25 -70.5t67 -27.5q41 0 66.5 27zM197 4
q-21 0 -41 3q-36 -23 -36 -63q0 -73 144 -73q150 0 150 72q0 61 -87 61h-130zM188 723q2 -41 22 -62.5t54 -21.5t53.5 21.5t21.5 62.5h86q-4 -78 -47.5 -116t-113.5 -38t-114 38t-48 116h86z" />
    <glyph glyph-name="Gdotaccent" unicode="&#x120;" horiz-adv-x="730" 
d="M185.5 30q-70.5 47 -108.5 131t-38 193q0 110 40.5 194.5t117 131.5t181.5 47q90 0 151.5 -32t94.5 -81t42 -103l-128 -22q-10 56 -49 96t-113 40q-96 0 -150.5 -73.5t-54.5 -196.5q0 -121 53 -194.5t153 -73.5q66 0 107 30t57.5 72t16.5 81v13h-193v99h310v-382h-93
l-10 109q-25 -58 -83.5 -92t-136.5 -34q-96 0 -166.5 47zM437 753h-133v112h133v-112z" />
    <glyph glyph-name="gdotaccent" unicode="&#x121;" horiz-adv-x="537" 
d="M200 709h127v-124h-127v124zM416 463q53 -45 53 -119q0 -50 -24.5 -88.5t-71 -60.5t-109.5 -22q-58 0 -100 18q-25 -13 -25 -38q0 -46 76 -46h130q88 0 132.5 -37t44.5 -107q0 -80 -67.5 -125t-199.5 -45q-121 0 -177.5 35.5t-56.5 93.5q0 33 21.5 59t61.5 39
q-63 26 -63 90q0 38 20.5 64.5t58.5 41.5q-29 23 -45 56t-16 72q0 75 55 121.5t150 46.5q60 0 106 -20q12 43 45.5 67.5t85.5 24.5q14 0 27 -3v-90q-22 5 -40 5q-49 0 -72 -33zM330.5 273q25.5 27 25.5 70t-25 69.5t-67 26.5t-67 -26.5t-25 -68.5q0 -43 25 -70.5t67 -27.5
q41 0 66.5 27zM197 4q-21 0 -41 3q-36 -23 -36 -63q0 -73 144 -73q150 0 150 72q0 61 -87 61h-130z" />
    <glyph glyph-name="uni0122" unicode="&#x122;" horiz-adv-x="730" 
d="M185.5 30q-70.5 47 -108.5 131t-38 193q0 110 40.5 194.5t117 131.5t181.5 47q90 0 151.5 -32t94.5 -81t42 -103l-128 -22q-10 56 -49 96t-113 40q-96 0 -150.5 -73.5t-54.5 -196.5q0 -121 53 -194.5t153 -73.5q66 0 107 30t57.5 72t16.5 81v13h-193v99h310v-382h-93
l-10 109q-25 -58 -83.5 -92t-136.5 -34q-96 0 -166.5 47zM323 -194q29 8 39 19.5t10 35.5h-58v96h113v-84q0 -43 -18 -71t-62 -41z" />
    <glyph glyph-name="uni0123" unicode="&#x123;" horiz-adv-x="537" 
d="M416 463q53 -45 53 -119q0 -50 -24.5 -88.5t-71 -60.5t-109.5 -22q-58 0 -100 18q-25 -13 -25 -38q0 -46 76 -46h130q88 0 132.5 -37t44.5 -107q0 -80 -67.5 -125t-199.5 -45q-121 0 -177.5 35.5t-56.5 93.5q0 33 21.5 59t61.5 39q-63 26 -63 90q0 38 20.5 64.5
t58.5 41.5q-29 23 -45 56t-16 72q0 75 55 121.5t150 46.5q60 0 106 -20q12 43 45.5 67.5t85.5 24.5q14 0 27 -3v-90q-22 5 -40 5q-49 0 -72 -33zM330.5 273q25.5 27 25.5 70t-25 69.5t-67 26.5t-67 -26.5t-25 -68.5q0 -43 25 -70.5t67 -27.5q41 0 66.5 27zM197 4
q-21 0 -41 3q-36 -23 -36 -63q0 -73 144 -73q150 0 150 72q0 61 -87 61h-130zM311 725q-29 -8 -38.5 -19.5t-9.5 -35.5h58v-96h-113v84q0 43 18 71t62 41z" />
    <glyph glyph-name="Hcircumflex" unicode="&#x124;" horiz-adv-x="732" 
d="M525 710h130v-710h-130v310h-318v-310h-129v710h129v-297h318v297zM434 866l101 -113h-104l-65 73l-66 -73h-103l101 113h136z" />
    <glyph glyph-name="hcircumflex" unicode="&#x125;" horiz-adv-x="574" 
d="M69 0v725h120v-317q47 104 162 104q81 0 122.5 -51t41.5 -150v-311h-120v301q0 115 -93 115q-54 0 -83.5 -39.5t-29.5 -111.5v-265h-120zM197 866l101 -113h-104l-65 73l-66 -73h-103l101 113h136z" />
    <glyph glyph-name="Hbar" unicode="&#x126;" horiz-adv-x="732" 
d="M655 587h71v-64h-71v-523h-130v310h-318v-310h-129v523h-72v64h72v123h129v-123h318v123h130v-123zM207 413h318v110h-318v-110z" />
    <glyph glyph-name="hbar" unicode="&#x127;" horiz-adv-x="574" 
d="M473.5 461q41.5 -51 41.5 -150v-311h-120v301q0 115 -93 115q-54 0 -83.5 -39.5t-29.5 -111.5v-265h-120v576h-90v60h90v89h120v-89h167v-60h-167v-168q47 104 162 104q81 0 122.5 -51z" />
    <glyph glyph-name="Itilde" unicode="&#x128;" horiz-adv-x="284" 
d="M207 710v-710h-129v710h129zM166 753.5q-18 8.5 -40 23.5q-17 12 -28 17.5t-24 5.5q-18 0 -29 -12t-19 -38l-67 19q9 51 39.5 79t76.5 28q26 0 44 -8.5t40 -23.5q17 -12 27.5 -17.5t23.5 -5.5q18 0 29 12t19 38l67 -19q-9 -51 -39.5 -79t-76.5 -28q-25 0 -43 8.5z" />
    <glyph glyph-name="itilde" unicode="&#x129;" horiz-adv-x="258" 
d="M189 0h-120v500h120v-500zM157 588q-20 10 -43 29q-18 14 -30.5 21t-27.5 7q-19 0 -30.5 -13.5t-19.5 -43.5l-67 18q9 56 40 88t79 32q27 0 47 -10t43 -28q18 -14 30.5 -21t27.5 -7q19 0 30.5 13t19.5 44l67 -19q-9 -56 -40 -88t-79 -32q-27 0 -47 10z" />
    <glyph glyph-name="Imacron" unicode="&#x12a;" horiz-adv-x="284" 
d="M207 710v-710h-129v710h129zM306 763h-328v81h328v-81z" />
    <glyph glyph-name="imacron" unicode="&#x12b;" horiz-adv-x="258" 
d="M189 0h-120v500h120v-500zM289 603h-319v81h319v-81z" />
    <glyph glyph-name="Ibreve" unicode="&#x12c;" horiz-adv-x="284" 
d="M207 710v-710h-129v710h129zM67 866q4 -25 23.5 -38.5t52.5 -13.5t52 13.5t23 38.5h86q-5 -57 -46.5 -87.5t-114.5 -30.5q-74 0 -115.5 30.5t-46.5 87.5h86z" />
    <glyph glyph-name="ibreve" unicode="&#x12d;" horiz-adv-x="258" 
d="M189 0h-120v500h120v-500zM54 723q2 -41 22 -62.5t54 -21.5t53.5 21.5t21.5 62.5h86q-4 -78 -47.5 -116t-113.5 -38t-114 38t-48 116h86z" />
    <glyph glyph-name="Iogonek" unicode="&#x12e;" horiz-adv-x="284" 
d="M207 710v-710h-129v710h129zM220 -110q-7 -45 -38 -69t-82 -24q-53 0 -83.5 24t-30.5 66q0 71 92 113h113q-40 -2 -68.5 -18.5t-43.5 -39t-15 -44.5q0 -19 10.5 -29t29.5 -10q17 0 29 11t16 31z" />
    <glyph glyph-name="iogonek" unicode="&#x12f;" horiz-adv-x="258" 
d="M189 0h-120v500h120v-500zM194 583h-130v125h130v-125zM211 -110q-7 -45 -38 -69t-82 -24q-53 0 -83.5 24t-30.5 66q0 71 92 113h113q-40 -2 -68.5 -18.5t-43.5 -39t-15 -44.5q0 -19 10.5 -29t29.5 -10q17 0 29 11t16 31z" />
    <glyph glyph-name="Idotaccent" unicode="&#x130;" horiz-adv-x="284" 
d="M207 710v-710h-129v710h129zM209 753h-133v112h133v-112z" />
    <glyph glyph-name="dotlessi" unicode="&#x131;" horiz-adv-x="258" 
d="M189 0h-120v500h120v-500z" />
    <glyph glyph-name="IJ" unicode="&#x132;" horiz-adv-x="678" 
d="M207 710v-710h-129v710h129zM607 200q0 -111 -59.5 -161.5t-159.5 -50.5q-63 0 -94 8v111q31 -5 77 -5q51 0 79 26t28 91v491h129v-510z" />
    <glyph glyph-name="ij" unicode="&#x133;" horiz-adv-x="524" 
d="M189 0h-120v500h120v-500zM194 583h-130v125h130v-125zM230 -196v92l47 -2q32 0 45 18t13 66v522h120v-531q0 -81 -35.5 -126t-121.5 -45q-44 0 -68 6zM460 583h-130v125h130v-125z" />
    <glyph glyph-name="Jcircumflex" unicode="&#x134;" horiz-adv-x="394" 
d="M323 200q0 -111 -59.5 -161.5t-159.5 -50.5q-63 0 -94 8v111q31 -5 77 -5q51 0 79 26t28 91v491h129v-510zM327 866l101 -113h-104l-65 73l-66 -73h-103l101 113h136z" />
    <glyph glyph-name="jcircumflex" unicode="&#x135;" horiz-adv-x="266" 
d="M-28 -196v92l47 -2q32 0 45 18t13 66v522h120v-531q0 -81 -35.5 -126t-121.5 -45q-44 0 -68 6zM198 723l107 -149h-96l-72 102l-71 -102h-97l108 149h121z" />
    <glyph glyph-name="uni0136" unicode="&#x136;" horiz-adv-x="674" 
d="M662 0h-149l-212 333l-94 -107v-226h-129v710h129v-331l284 331h153l-256 -286zM293 -194q29 8 39 19.5t10 35.5h-58v96h113v-84q0 -43 -18 -71t-62 -41z" />
    <glyph glyph-name="uni0137" unicode="&#x137;" horiz-adv-x="547" 
d="M539 0h-139l-137 225l-74 -77v-148h-120v725h120v-448l195 223h146l-182 -196zM228 -194q29 8 39 19.5t10 35.5h-58v96h113v-84q0 -43 -18 -71t-62 -41z" />
    <glyph glyph-name="kgreenlandic" unicode="&#x138;" horiz-adv-x="547" 
d="M539 0h-139l-137 225l-74 -77v-148h-120v500h120v-223l195 223h146l-182 -196z" />
    <glyph glyph-name="Lacute" unicode="&#x139;" horiz-adv-x="528" 
d="M516 0h-438v710h129v-604h309v-106zM192 753h-99l93 113h115z" />
    <glyph glyph-name="lacute" unicode="&#x13a;" horiz-adv-x="258" 
d="M69 725h120v-725h-120v725zM179 753h-99l93 113h115z" />
    <glyph glyph-name="uni013B" unicode="&#x13b;" horiz-adv-x="528" 
d="M516 0h-438v710h129v-604h309v-106zM249 -194q29 8 39 19.5t10 35.5h-58v96h113v-84q0 -43 -18 -71t-62 -41z" />
    <glyph glyph-name="uni013C" unicode="&#x13c;" horiz-adv-x="258" 
d="M69 725h120v-725h-120v725zM82 -194q29 8 39 19.5t10 35.5h-58v96h113v-84q0 -43 -18 -71t-62 -41z" />
    <glyph glyph-name="Lcaron" unicode="&#x13d;" horiz-adv-x="528" 
d="M516 0h-438v710h129v-604h309v-106zM434 727l-72 -167h-68l36 167h104z" />
    <glyph glyph-name="lcaron" unicode="&#x13e;" horiz-adv-x="258" 
d="M69 725h120v-725h-120v725zM375 727l-72 -167h-68l36 167h104z" />
    <glyph glyph-name="Ldot" unicode="&#x13f;" horiz-adv-x="528" 
d="M516 0h-438v710h129v-604h309v-106zM331 443h142v-139h-142v139z" />
    <glyph glyph-name="ldot" unicode="&#x140;" horiz-adv-x="314" 
d="M69 725h120v-725h-120v725zM215 437h142v-139h-142v139z" />
    <glyph glyph-name="Lslash" unicode="&#x141;" horiz-adv-x="528" 
d="M207 324v-218h309v-106h-438v257l-88 -46v84l88 46v369h129v-301l198 104v-85z" />
    <glyph glyph-name="lslash" unicode="&#x142;" horiz-adv-x="258" 
d="M189 486l52 48v-69l-52 -48v-417h-120v306l-52 -48v69l52 48v350h120v-239z" />
    <glyph glyph-name="Nacute" unicode="&#x143;" horiz-adv-x="731" 
d="M78 0v710h148l267 -465q27 -49 44 -91h2q-2 26 -2 92v464h117v-710h-145l-271 467q-29 51 -43 89h-2q2 -54 2 -94v-462h-117zM415 753h-99l93 113h115z" />
    <glyph glyph-name="nacute" unicode="&#x144;" horiz-adv-x="574" 
d="M69 0v500h115v-97q49 109 166 109q82 0 123.5 -51t41.5 -151v-310h-120v298q0 118 -94 118q-53 0 -82.5 -40t-29.5 -111v-265h-120zM356 574h-98l100 149h126z" />
    <glyph glyph-name="uni0145" unicode="&#x145;" horiz-adv-x="731" 
d="M78 0v710h148l267 -465q27 -49 44 -91h2q-2 26 -2 92v464h117v-710h-145l-271 467q-29 51 -43 89h-2q2 -54 2 -94v-462h-117zM318 -194q29 8 39 19.5t10 35.5h-58v96h113v-84q0 -43 -18 -71t-62 -41z" />
    <glyph glyph-name="uni0146" unicode="&#x146;" horiz-adv-x="574" 
d="M69 0v500h115v-97q49 109 166 109q82 0 123.5 -51t41.5 -151v-310h-120v298q0 118 -94 118q-53 0 -82.5 -40t-29.5 -111v-265h-120zM239 -194q29 8 39 19.5t10 35.5h-58v96h113v-84q0 -43 -18 -71t-62 -41z" />
    <glyph glyph-name="Ncaron" unicode="&#x147;" horiz-adv-x="731" 
d="M78 0v710h148l267 -465q27 -49 44 -91h2q-2 26 -2 92v464h117v-710h-145l-271 467q-29 51 -43 89h-2q2 -54 2 -94v-462h-117zM432 865h103l-101 -113h-136l-101 113h104l65 -73z" />
    <glyph glyph-name="ncaron" unicode="&#x148;" horiz-adv-x="574" 
d="M69 0v500h115v-97q49 109 166 109q82 0 123.5 -51t41.5 -151v-310h-120v298q0 118 -94 118q-53 0 -82.5 -40t-29.5 -111v-265h-120zM245 574l-107 149h97l71 -102l71 102h97l-107 -149h-122z" />
    <glyph glyph-name="napostrophe" unicode="&#x149;" horiz-adv-x="816" 
d="M70 478q39 15 52 34t13 56v3h-71v139h142v-131q0 -62 -24.5 -98t-84.5 -57zM311 0v500h115v-97q49 109 166 109q82 0 123.5 -51t41.5 -151v-310h-120v298q0 118 -94 118q-53 0 -82.5 -40t-29.5 -111v-265h-120z" />
    <glyph glyph-name="Eng" unicode="&#x14a;" horiz-adv-x="731" 
d="M537 710h117v-721q0 -108 -45 -152.5t-124 -44.5q-21 0 -71 6v104q39 -4 60 -4q31 0 46.5 18t15.5 65v19h-27l-271 467q-29 51 -43 89h-2q2 -54 2 -94v-462h-117v710h148l267 -465q27 -49 44 -91h2q-2 26 -2 92v464z" />
    <glyph glyph-name="eng" unicode="&#x14b;" horiz-adv-x="574" 
d="M473.5 461q41.5 -51 41.5 -151v-323q0 -93 -34.5 -141t-119.5 -48q-40 0 -70 6v92q32 -2 44 -2q33 0 46.5 19.5t13.5 67.5v317q0 118 -94 118q-53 0 -82.5 -40t-29.5 -111v-265h-120v500h115v-97q49 109 166 109q82 0 123.5 -51z" />
    <glyph glyph-name="Omacron" unicode="&#x14c;" horiz-adv-x="751" 
d="M198 28.5q-76 45.5 -117.5 130t-41.5 196.5q0 114 41.5 198t117.5 129t178 45t177.5 -45t117 -129t41.5 -198q0 -113 -41.5 -197t-117.5 -129.5t-177 -45.5q-102 0 -178 45.5zM524.5 158q53.5 71 53.5 197t-53.5 197t-148.5 71q-96 0 -149.5 -71t-53.5 -197
q0 -124 54 -196t149 -72t148.5 71zM540 763h-328v81h328v-81z" />
    <glyph glyph-name="omacron" unicode="&#x14d;" horiz-adv-x="569" 
d="M156.5 19q-55.5 31 -86.5 90.5t-31 141.5t31 141t86.5 89.5t127.5 30.5t128 -30.5t87 -89.5t31 -141t-31 -141.5t-87 -90.5t-128 -31t-127.5 31zM375 123q32 44 32 128t-32 127t-91 43t-90.5 -43t-31.5 -127q0 -85 32 -128.5t90 -43.5q59 0 91 44zM444 603h-319v81h319
v-81z" />
    <glyph glyph-name="Obreve" unicode="&#x14e;" horiz-adv-x="751" 
d="M198 28.5q-76 45.5 -117.5 130t-41.5 196.5q0 114 41.5 198t117.5 129t178 45t177.5 -45t117 -129t41.5 -198q0 -113 -41.5 -197t-117.5 -129.5t-177 -45.5q-102 0 -178 45.5zM524.5 158q53.5 71 53.5 197t-53.5 197t-148.5 71q-96 0 -149.5 -71t-53.5 -197
q0 -124 54 -196t149 -72t148.5 71zM300 866q4 -25 23.5 -38.5t52.5 -13.5t52 13.5t23 38.5h86q-5 -57 -46.5 -87.5t-114.5 -30.5q-74 0 -115.5 30.5t-46.5 87.5h86z" />
    <glyph glyph-name="obreve" unicode="&#x14f;" horiz-adv-x="569" 
d="M156.5 19q-55.5 31 -86.5 90.5t-31 141.5t31 141t86.5 89.5t127.5 30.5t128 -30.5t87 -89.5t31 -141t-31 -141.5t-87 -90.5t-128 -31t-127.5 31zM375 123q32 44 32 128t-32 127t-91 43t-90.5 -43t-31.5 -127q0 -85 32 -128.5t90 -43.5q59 0 91 44zM209 723
q2 -41 22 -62.5t54 -21.5t53.5 21.5t21.5 62.5h86q-4 -78 -47.5 -116t-113.5 -38t-114 38t-48 116h86z" />
    <glyph glyph-name="Ohungarumlaut" unicode="&#x150;" horiz-adv-x="751" 
d="M198 28.5q-76 45.5 -117.5 130t-41.5 196.5q0 114 41.5 198t117.5 129t178 45t177.5 -45t117 -129t41.5 -198q0 -113 -41.5 -197t-117.5 -129.5t-177 -45.5q-102 0 -178 45.5zM524.5 158q53.5 71 53.5 197t-53.5 197t-148.5 71q-96 0 -149.5 -71t-53.5 -197
q0 -124 54 -196t149 -72t148.5 71zM344 754h-104l96 112h110zM511 754h-103l96 112h109z" />
    <glyph glyph-name="ohungarumlaut" unicode="&#x151;" horiz-adv-x="569" 
d="M156.5 19q-55.5 31 -86.5 90.5t-31 141.5t31 141t86.5 89.5t127.5 30.5t128 -30.5t87 -89.5t31 -141t-31 -141.5t-87 -90.5t-128 -31t-127.5 31zM375 123q32 44 32 128t-32 127t-91 43t-90.5 -43t-31.5 -127q0 -85 32 -128.5t90 -43.5q59 0 91 44zM249 574h-91l86 149h98
zM411 574h-92l87 149h97z" />
    <glyph glyph-name="OE" unicode="&#x152;" horiz-adv-x="974" 
d="M586 101h339v-101h-532q-109 0 -189 44t-122.5 124.5t-42.5 187.5q0 108 42.5 188t122 123t187.5 43h527v-101h-332v-195h315v-100h-315v-213zM457 101v508h-58q-109 0 -167.5 -68.5t-58.5 -184.5q0 -74 27 -132t78.5 -90.5t122.5 -32.5h56z" />
    <glyph glyph-name="oe" unicode="&#x153;" horiz-adv-x="915" 
d="M876 220h-351q1 -63 37.5 -100.5t95.5 -37.5q43 0 74 21t48 62l92 -42q-28 -65 -84.5 -100t-133.5 -35q-62 0 -110.5 20.5t-80.5 58.5q-30 -38 -75.5 -58.5t-103.5 -20.5q-73 0 -128.5 32.5t-86 92t-30.5 137.5q0 79 30 138t85.5 91.5t129.5 32.5q118 0 180 -81
q65 81 184 81q109 0 168.5 -61.5t59.5 -175.5v-55zM758 299v8q0 61 -29.5 93t-83.5 32q-56 0 -87 -35t-33 -98h233zM374.5 124q32.5 45 32.5 126t-32.5 126t-90.5 45t-90 -45t-32 -126t32 -126t90 -45t90.5 45z" />
    <glyph glyph-name="Racute" unicode="&#x154;" horiz-adv-x="652" 
d="M488 0l-156 285h-125v-285h-129v710h285q130 0 188.5 -58.5t58.5 -154.5q0 -67 -37.5 -120.5t-111.5 -74.5l169 -302h-142zM207 612v-231h135q69 0 100.5 31t31.5 85q0 115 -132 115h-135zM365 753h-99l93 113h115z" />
    <glyph glyph-name="racute" unicode="&#x155;" horiz-adv-x="369" 
d="M181 379q19 62 60 97.5t99 35.5q10 0 15 -1v-115l-16 1q-68 0 -104 -36q-28 -26 -37 -63.5t-9 -87.5v-210h-120v500h112v-121zM256 574h-98l100 149h126z" />
    <glyph glyph-name="uni0156" unicode="&#x156;" horiz-adv-x="652" 
d="M488 0l-156 285h-125v-285h-129v710h285q130 0 188.5 -58.5t58.5 -154.5q0 -67 -37.5 -120.5t-111.5 -74.5l169 -302h-142zM207 612v-231h135q69 0 100.5 31t31.5 85q0 115 -132 115h-135zM284 -194q29 8 39 19.5t10 35.5h-58v96h113v-84q0 -43 -18 -71t-62 -41z" />
    <glyph glyph-name="uni0157" unicode="&#x157;" horiz-adv-x="369" 
d="M181 379q19 62 60 97.5t99 35.5q10 0 15 -1v-115l-16 1q-68 0 -104 -36q-28 -26 -37 -63.5t-9 -87.5v-210h-120v500h112v-121zM82 -194q29 8 39 19.5t10 35.5h-58v96h113v-84q0 -43 -18 -71t-62 -41z" />
    <glyph glyph-name="Rcaron" unicode="&#x158;" horiz-adv-x="652" 
d="M488 0l-156 285h-125v-285h-129v710h285q130 0 188.5 -58.5t58.5 -154.5q0 -67 -37.5 -120.5t-111.5 -74.5l169 -302h-142zM207 612v-231h135q69 0 100.5 31t31.5 85q0 115 -132 115h-135zM382 865h103l-101 -113h-136l-101 113h104l65 -73z" />
    <glyph glyph-name="rcaron" unicode="&#x159;" horiz-adv-x="369" 
d="M181 379q19 62 60 97.5t99 35.5q10 0 15 -1v-115l-16 1q-68 0 -104 -36q-28 -26 -37 -63.5t-9 -87.5v-210h-120v500h112v-121zM145 574l-107 149h97l71 -102l71 102h97l-107 -149h-122z" />
    <glyph glyph-name="Sacute" unicode="&#x15a;" horiz-adv-x="623" 
d="M120 37q-76 54 -99 145l110 48q19 -65 66 -104.5t126 -39.5q60 0 100.5 25.5t40.5 77.5q0 49 -28.5 72.5t-91.5 36.5l-99 21q-187 38 -187 204q0 61 32 107t91 71.5t138 25.5q104 0 176.5 -43.5t95.5 -129.5l-102 -54q-17 62 -61.5 95.5t-114.5 33.5q-59 0 -94.5 -25.5
t-35.5 -70.5q0 -43 26 -67.5t84 -37.5l104 -22q95 -20 145 -67.5t50 -137.5q0 -62 -31 -111.5t-93 -78t-150 -28.5q-122 0 -198 54zM368 753h-99l93 113h115z" />
    <glyph glyph-name="sacute" unicode="&#x15b;" horiz-adv-x="493" 
d="M108.5 23.5q-60.5 35.5 -83.5 100.5l89 40q17 -42 53.5 -65t89.5 -23q45 0 69.5 17t24.5 45q0 26 -16.5 39t-55.5 19l-89 16q-70 13 -106.5 49.5t-36.5 96.5q0 69 55 111.5t149 42.5q80 0 136.5 -30.5t74.5 -84.5l-83 -45q-19 35 -52.5 54t-81.5 19q-42 0 -65 -15.5
t-23 -44.5q0 -25 16.5 -38t50.5 -19l98 -18q71 -13 104.5 -48.5t33.5 -95.5q0 -72 -54.5 -115t-150.5 -43q-86 0 -146.5 35.5zM295 574h-98l100 149h126z" />
    <glyph glyph-name="Scircumflex" unicode="&#x15c;" horiz-adv-x="623" 
d="M120 37q-76 54 -99 145l110 48q19 -65 66 -104.5t126 -39.5q60 0 100.5 25.5t40.5 77.5q0 49 -28.5 72.5t-91.5 36.5l-99 21q-187 38 -187 204q0 61 32 107t91 71.5t138 25.5q104 0 176.5 -43.5t95.5 -129.5l-102 -54q-17 62 -61.5 95.5t-114.5 33.5q-59 0 -94.5 -25.5
t-35.5 -70.5q0 -43 26 -67.5t84 -37.5l104 -22q95 -20 145 -67.5t50 -137.5q0 -62 -31 -111.5t-93 -78t-150 -28.5q-122 0 -198 54zM386 866l101 -113h-104l-65 73l-66 -73h-103l101 113h136z" />
    <glyph glyph-name="scircumflex" unicode="&#x15d;" horiz-adv-x="493" 
d="M108.5 23.5q-60.5 35.5 -83.5 100.5l89 40q17 -42 53.5 -65t89.5 -23q45 0 69.5 17t24.5 45q0 26 -16.5 39t-55.5 19l-89 16q-70 13 -106.5 49.5t-36.5 96.5q0 69 55 111.5t149 42.5q80 0 136.5 -30.5t74.5 -84.5l-83 -45q-19 35 -52.5 54t-81.5 19q-42 0 -65 -15.5
t-23 -44.5q0 -25 16.5 -38t50.5 -19l98 -18q71 -13 104.5 -48.5t33.5 -95.5q0 -72 -54.5 -115t-150.5 -43q-86 0 -146.5 35.5zM305 723l107 -149h-96l-72 102l-71 -102h-97l108 149h121z" />
    <glyph glyph-name="Scedilla" unicode="&#x15e;" horiz-adv-x="623" 
d="M530.5 53q-61.5 -60 -175.5 -69l-20 -32q18 14 48 14q38 0 60 -21.5t22 -60.5q0 -42 -32 -65.5t-85 -23.5q-43 0 -72.5 16.5t-40.5 46.5l70 16q4 -13 15 -20t25 -7q19 0 30.5 11t11.5 29q0 17 -11 27.5t-29 10.5q-20 0 -34 -15l-49 13l30 61q-112 5 -181.5 58.5
t-91.5 139.5l110 48q19 -65 66 -104.5t126 -39.5q60 0 100.5 25.5t40.5 77.5q0 49 -28.5 72.5t-91.5 36.5l-99 21q-187 38 -187 204q0 61 32 107t91 71.5t138 25.5q104 0 176.5 -43.5t95.5 -129.5l-102 -54q-17 62 -61.5 95.5t-114.5 33.5q-59 0 -94.5 -25.5t-35.5 -70.5
q0 -43 26 -67.5t84 -37.5l104 -22q95 -20 145 -67.5t50 -137.5q0 -88 -61.5 -148z" />
    <glyph glyph-name="scedilla" unicode="&#x15f;" horiz-adv-x="493" 
d="M322 290q71 -13 104.5 -48.5t33.5 -95.5q0 -66 -46.5 -108t-129.5 -49l-23 -37q18 14 48 14q38 0 60 -21.5t22 -60.5q0 -42 -32 -65.5t-85 -23.5q-43 0 -72.5 16.5t-40.5 46.5l70 16q4 -13 15 -20t25 -7q19 0 30.5 11t11.5 29q0 17 -11 27.5t-29 10.5q-21 0 -34 -15
l-49 13l32 66q-73 7 -124.5 41.5t-72.5 93.5l89 40q17 -42 53.5 -65t89.5 -23q45 0 69.5 17t24.5 45q0 26 -16.5 39t-55.5 19l-89 16q-70 13 -106.5 49.5t-36.5 96.5q0 69 55 111.5t149 42.5q80 0 136.5 -30.5t74.5 -84.5l-83 -45q-19 35 -52.5 54t-81.5 19q-42 0 -65 -15.5
t-23 -44.5q0 -25 16.5 -38t50.5 -19z" />
    <glyph glyph-name="Scaron" unicode="&#x160;" horiz-adv-x="623" 
d="M120 37q-76 54 -99 145l110 48q19 -65 66 -104.5t126 -39.5q60 0 100.5 25.5t40.5 77.5q0 49 -28.5 72.5t-91.5 36.5l-99 21q-187 38 -187 204q0 61 32 107t91 71.5t138 25.5q104 0 176.5 -43.5t95.5 -129.5l-102 -54q-17 62 -61.5 95.5t-114.5 33.5q-59 0 -94.5 -25.5
t-35.5 -70.5q0 -43 26 -67.5t84 -37.5l104 -22q95 -20 145 -67.5t50 -137.5q0 -62 -31 -111.5t-93 -78t-150 -28.5q-122 0 -198 54zM384 865h103l-101 -113h-136l-101 113h104l65 -73z" />
    <glyph glyph-name="scaron" unicode="&#x161;" horiz-adv-x="493" 
d="M108.5 23.5q-60.5 35.5 -83.5 100.5l89 40q17 -42 53.5 -65t89.5 -23q45 0 69.5 17t24.5 45q0 26 -16.5 39t-55.5 19l-89 16q-70 13 -106.5 49.5t-36.5 96.5q0 69 55 111.5t149 42.5q80 0 136.5 -30.5t74.5 -84.5l-83 -45q-19 35 -52.5 54t-81.5 19q-42 0 -65 -15.5
t-23 -44.5q0 -25 16.5 -38t50.5 -19l98 -18q71 -13 104.5 -48.5t33.5 -95.5q0 -72 -54.5 -115t-150.5 -43q-86 0 -146.5 35.5zM183 574l-107 149h97l71 -102l71 102h97l-107 -149h-122z" />
    <glyph glyph-name="uni0162" unicode="&#x162;" horiz-adv-x="577" 
d="M353 0h-35l-30 -48q17 14 48 14q38 0 60 -21.5t22 -60.5q0 -42 -32 -65.5t-85 -23.5q-43 0 -72.5 16.5t-40.5 46.5l70 16q4 -13 15 -20t25 -7q19 0 30.5 11t11.5 29q0 17 -11 27.5t-29 10.5q-20 0 -34 -15l-49 13l38 77h-31v605h-215v105h559v-105h-215v-605z" />
    <glyph glyph-name="uni0163" unicode="&#x163;" horiz-adv-x="371" 
d="M351 -55.5q22 -21.5 22 -60.5q0 -42 -32 -65.5t-85 -23.5q-43 0 -72.5 16.5t-40.5 46.5l70 16q4 -13 15 -20t25 -7q19 0 30.5 11t11.5 29q0 17 -11 27.5t-29 10.5q-21 0 -34 -15l-49 13l36 73q-57 12 -82 52.5t-25 106.5v258h-90v87h90v126l120 48v-174h122v-87h-122
v-239q0 -40 18 -59.5t55 -19.5q17 0 49 6v-101q-40 -9 -76 -9l-24 -39q18 14 48 14q38 0 60 -21.5z" />
    <glyph glyph-name="Tcaron" unicode="&#x164;" horiz-adv-x="577" 
d="M9 710h559v-105h-215v-605h-129v605h-215v105zM355 865h103l-101 -113h-136l-101 113h104l65 -73z" />
    <glyph glyph-name="tcaron" unicode="&#x165;" horiz-adv-x="371" 
d="M11 413v87h90v126l120 48v-174h122v-87h-122v-239q0 -40 18 -59.5t55 -19.5q17 0 49 6v-101q-44 -9 -82 -9q-86 0 -123 42t-37 122v258h-90zM403 727l-72 -167h-68l36 167h104z" />
    <glyph glyph-name="Tbar" unicode="&#x166;" horiz-adv-x="577" 
d="M568 710v-105h-215v-154h164v-65h-164v-386h-129v386h-164v65h164v154h-215v105h559z" />
    <glyph glyph-name="tbar" unicode="&#x167;" horiz-adv-x="371" 
d="M343 413h-122v-100h112v-77h-112v-62q0 -40 18 -59.5t55 -19.5q17 0 49 6v-101q-44 -9 -82 -9q-86 0 -123 42t-37 122v81h-79v77h79v100h-90v87h90v126l120 48v-174h122v-87z" />
    <glyph glyph-name="Utilde" unicode="&#x168;" horiz-adv-x="714" 
d="M71 710h129v-455q0 -76 41.5 -119.5t115.5 -43.5t115.5 43.5t41.5 119.5v455h129v-462q0 -80 -33.5 -140t-98 -92.5t-154.5 -32.5t-154.5 32.5t-98 92.5t-33.5 140v462zM381 753.5q-18 8.5 -40 23.5q-17 12 -28 17.5t-24 5.5q-18 0 -29 -12t-19 -38l-67 19q9 51 39.5 79
t76.5 28q26 0 44 -8.5t40 -23.5q17 -12 27.5 -17.5t23.5 -5.5q18 0 29 12t19 38l67 -19q-9 -51 -39.5 -79t-76.5 -28q-25 0 -43 8.5z" />
    <glyph glyph-name="utilde" unicode="&#x169;" horiz-adv-x="567" 
d="M59 179v321h120v-303q0 -55 22.5 -84t65.5 -29q50 0 80.5 38t30.5 101v277h120v-500h-114v93q-17 -47 -59.5 -76t-95.5 -29q-170 0 -170 191zM306 588q-20 10 -43 29q-18 14 -30.5 21t-27.5 7q-19 0 -30.5 -13.5t-19.5 -43.5l-67 18q9 56 40 88t79 32q27 0 47 -10t43 -28
q18 -14 30.5 -21t27.5 -7q19 0 30.5 13t19.5 44l67 -19q-9 -56 -40 -88t-79 -32q-27 0 -47 10z" />
    <glyph glyph-name="Umacron" unicode="&#x16a;" horiz-adv-x="714" 
d="M71 710h129v-455q0 -76 41.5 -119.5t115.5 -43.5t115.5 43.5t41.5 119.5v455h129v-462q0 -80 -33.5 -140t-98 -92.5t-154.5 -32.5t-154.5 32.5t-98 92.5t-33.5 140v462zM521 763h-328v81h328v-81z" />
    <glyph glyph-name="umacron" unicode="&#x16b;" horiz-adv-x="567" 
d="M59 179v321h120v-303q0 -55 22.5 -84t65.5 -29q50 0 80.5 38t30.5 101v277h120v-500h-114v93q-17 -47 -59.5 -76t-95.5 -29q-170 0 -170 191zM438 603h-319v81h319v-81z" />
    <glyph glyph-name="Ubreve" unicode="&#x16c;" horiz-adv-x="714" 
d="M71 710h129v-455q0 -76 41.5 -119.5t115.5 -43.5t115.5 43.5t41.5 119.5v455h129v-462q0 -80 -33.5 -140t-98 -92.5t-154.5 -32.5t-154.5 32.5t-98 92.5t-33.5 140v462zM281 866q4 -25 23.5 -38.5t52.5 -13.5t52 13.5t23 38.5h86q-5 -57 -46.5 -87.5t-114.5 -30.5
q-74 0 -115.5 30.5t-46.5 87.5h86z" />
    <glyph glyph-name="ubreve" unicode="&#x16d;" horiz-adv-x="567" 
d="M59 179v321h120v-303q0 -55 22.5 -84t65.5 -29q50 0 80.5 38t30.5 101v277h120v-500h-114v93q-17 -47 -59.5 -76t-95.5 -29q-170 0 -170 191zM203 723q2 -41 22 -62.5t54 -21.5t53.5 21.5t21.5 62.5h86q-4 -78 -47.5 -116t-113.5 -38t-114 38t-48 116h86z" />
    <glyph glyph-name="Uring" unicode="&#x16e;" horiz-adv-x="714" 
d="M71 710h129v-455q0 -76 41.5 -119.5t115.5 -43.5t115.5 43.5t41.5 119.5v455h129v-462q0 -80 -33.5 -140t-98 -92.5t-154.5 -32.5t-154.5 32.5t-98 92.5t-33.5 140v462zM271.5 771q-32.5 30 -32.5 79t32.5 79t84.5 30q53 0 85.5 -30t32.5 -79t-32.5 -79t-85.5 -30
q-52 0 -84.5 30zM393.5 812q14.5 15 14.5 38q0 24 -14.5 39t-37.5 15t-37.5 -15t-14.5 -39q0 -23 14.5 -38t37.5 -15t37.5 15z" />
    <glyph glyph-name="uring" unicode="&#x16f;" horiz-adv-x="567" 
d="M59 179v321h120v-303q0 -55 22.5 -84t65.5 -29q50 0 80.5 38t30.5 101v277h120v-500h-114v93q-17 -47 -59.5 -76t-95.5 -29q-170 0 -170 191zM194.5 582.5q-32.5 30.5 -32.5 78.5q0 49 32.5 79.5t84.5 30.5t85 -30.5t33 -79.5q0 -48 -33 -78.5t-85 -30.5t-84.5 30.5z
M316.5 623q14.5 15 14.5 38q0 24 -14.5 39t-37.5 15t-37.5 -15t-14.5 -39q0 -23 14.5 -38t37.5 -15t37.5 15z" />
    <glyph glyph-name="Uhungarumlaut" unicode="&#x170;" horiz-adv-x="714" 
d="M71 710h129v-455q0 -76 41.5 -119.5t115.5 -43.5t115.5 43.5t41.5 119.5v455h129v-462q0 -80 -33.5 -140t-98 -92.5t-154.5 -32.5t-154.5 32.5t-98 92.5t-33.5 140v462zM325 754h-104l96 112h110zM492 754h-103l96 112h109z" />
    <glyph glyph-name="uhungarumlaut" unicode="&#x171;" horiz-adv-x="567" 
d="M59 179v321h120v-303q0 -55 22.5 -84t65.5 -29q50 0 80.5 38t30.5 101v277h120v-500h-114v93q-17 -47 -59.5 -76t-95.5 -29q-170 0 -170 191zM243 574h-91l86 149h98zM405 574h-92l87 149h97z" />
    <glyph glyph-name="Uogonek" unicode="&#x172;" horiz-adv-x="721" 
d="M475 -38q-20 -33 -20 -60q0 -21 10.5 -32t29.5 -11q18 0 29.5 10.5t15.5 31.5l71 -11q-7 -45 -38 -69t-82 -24q-53 0 -83.5 25.5t-30.5 69.5q0 25 12.5 48.5t42.5 49.5q-32 -7 -75 -7q-90 0 -154.5 32.5t-98 92.5t-33.5 140v462h129v-455q0 -76 41.5 -119.5t115.5 -43.5
t115.5 43.5t41.5 119.5v455h129v-462q0 -71 -27 -126.5t-78 -90.5q-43 -36 -63 -69z" />
    <glyph glyph-name="uogonek" unicode="&#x173;" horiz-adv-x="567" 
d="M527 -110q-7 -45 -38 -69t-82 -24q-53 0 -83.5 24t-30.5 66q0 71 92 113h-1v93q-17 -47 -59.5 -76t-95.5 -29q-170 0 -170 191v321h120v-303q0 -55 22.5 -84t65.5 -29q50 0 80.5 38t30.5 101v277h120v-500q-40 -2 -68.5 -18.5t-43.5 -39t-15 -44.5q0 -19 10.5 -29
t29.5 -10q17 0 29 11t16 31z" />
    <glyph glyph-name="Wcircumflex" unicode="&#x174;" horiz-adv-x="929" 
d="M188 0l-169 710h131l107 -520q6 -30 7 -48h3q1 21 8 48l124 520h131l124 -520q7 -27 8 -48h3q1 18 7 48l107 520h132l-169 -710h-150l-120 520q-3 17 -5 42h-4q-1 -18 -6 -42l-120 -520h-149zM533 866l101 -113h-104l-65 73l-66 -73h-103l101 113h136z" />
    <glyph glyph-name="wcircumflex" unicode="&#x175;" horiz-adv-x="745" 
d="M154 0l-138 500h119l77 -333q8 -40 9 -54h2q2 17 11 54l82 333h113l82 -333q9 -37 11 -54h2q1 14 9 54l77 333h119l-138 -500h-122l-85 324q-8 30 -10 55h-3q-2 -25 -10 -55l-85 -324h-122zM433 723l107 -149h-96l-72 102l-71 -102h-97l108 149h121z" />
    <glyph glyph-name="Ycircumflex" unicode="&#x176;" horiz-adv-x="608" 
d="M239 0v271l-239 439h140l145 -283q14 -27 18 -46h2q4 19 18 46l145 283h140l-239 -439v-271h-130zM372 866l101 -113h-104l-65 73l-66 -73h-103l101 113h136z" />
    <glyph glyph-name="ycircumflex" unicode="&#x177;" horiz-adv-x="504" 
d="M38 -195v95q18 -4 42 -4q44 0 69.5 18.5t39.5 60.5l10 30l-195 495h132l109 -327q11 -31 14 -59h2q3 13 15 59l100 327h124l-187 -528q-33 -93 -85.5 -132.5t-134.5 -39.5q-20 0 -55 5zM316 723l107 -149h-96l-72 102l-71 -102h-97l108 149h121z" />
    <glyph glyph-name="Ydieresis" unicode="&#x178;" horiz-adv-x="608" 
d="M239 0v271l-239 439h140l145 -283q14 -27 18 -46h2q4 19 18 46l145 283h140l-239 -439v-271h-130zM249 753h-114v106h114v-106zM474 753h-114v106h114v-106z" />
    <glyph glyph-name="Zacute" unicode="&#x179;" horiz-adv-x="580" 
d="M28 0v104l372 502h-358v104h502v-104l-372 -503h387v-103h-531zM343 753h-99l93 113h115z" />
    <glyph glyph-name="zacute" unicode="&#x17a;" horiz-adv-x="461" 
d="M26 0v79l256 330h-245v91h387v-76l-252 -331h267v-93h-413zM283 574h-98l100 149h126z" />
    <glyph glyph-name="Zdotaccent" unicode="&#x17b;" horiz-adv-x="580" 
d="M28 0v104l372 502h-358v104h502v-104l-372 -503h387v-103h-531zM360 753h-133v112h133v-112z" />
    <glyph glyph-name="zdotaccent" unicode="&#x17c;" horiz-adv-x="461" 
d="M296 585h-127v124h127v-124zM26 0v79l256 330h-245v91h387v-76l-252 -331h267v-93h-413z" />
    <glyph glyph-name="Zcaron" unicode="&#x17d;" horiz-adv-x="580" 
d="M28 0v104l372 502h-358v104h502v-104l-372 -503h387v-103h-531zM359 865h103l-101 -113h-136l-101 113h104l65 -73z" />
    <glyph glyph-name="zcaron" unicode="&#x17e;" horiz-adv-x="461" 
d="M26 0v79l256 330h-245v91h387v-76l-252 -331h267v-93h-413zM171 574l-107 149h97l71 -102l71 102h97l-107 -149h-122z" />
    <glyph glyph-name="uni018F" unicode="&#x18f;" horiz-adv-x="751" 
d="M552.5 682q77.5 -45 118.5 -128.5t41 -198.5q0 -113 -41 -197t-117 -129.5t-178 -45.5t-178 46t-117.5 130t-41.5 196q0 34 2 46h535q-9 108 -61.5 165t-143.5 57q-138 0 -191 -130l-129 20q35 104 117.5 159t200.5 55q106 0 183.5 -45zM512 143q52 56 63 157h-399
q11 -101 64 -157t136 -56q84 0 136 56z" />
    <glyph glyph-name="florin" unicode="&#x192;" horiz-adv-x="437" 
d="M325.5 597q-18.5 -12 -27 -34t-14.5 -59l-10 -76h117v-85h-128l-66 -493h-122l66 493h-108v85h119l8 58q10 75 30 122t62 72.5t115 25.5q33 0 61 -7l-1 -95q-24 5 -49 5q-34 0 -52.5 -12z" />
    <glyph glyph-name="uni019D" unicode="&#x19d;" horiz-adv-x="731" 
d="M537 710h117v-710h-145l-271 467q-29 51 -43 89h-2q2 -54 2 -94v-473q0 -108 -45 -152.5t-124 -44.5q-21 0 -71 6v104q39 -4 60 -4q31 0 46.5 18t15.5 65v50h1v679h148l267 -465q27 -49 44 -91h2q-2 26 -2 92v464z" />
    <glyph glyph-name="Gcaron" unicode="&#x1e6;" horiz-adv-x="730" 
d="M185.5 30q-70.5 47 -108.5 131t-38 193q0 110 40.5 194.5t117 131.5t181.5 47q90 0 151.5 -32t94.5 -81t42 -103l-128 -22q-10 56 -49 96t-113 40q-96 0 -150.5 -73.5t-54.5 -196.5q0 -121 53 -194.5t153 -73.5q66 0 107 30t57.5 72t16.5 81v13h-193v99h310v-382h-93
l-10 109q-25 -58 -83.5 -92t-136.5 -34q-96 0 -166.5 47zM437 865h103l-101 -113h-136l-101 113h104l65 -73z" />
    <glyph glyph-name="gcaron" unicode="&#x1e7;" horiz-adv-x="537" 
d="M416 463q53 -45 53 -119q0 -50 -24.5 -88.5t-71 -60.5t-109.5 -22q-58 0 -100 18q-25 -13 -25 -38q0 -46 76 -46h130q88 0 132.5 -37t44.5 -107q0 -80 -67.5 -125t-199.5 -45q-121 0 -177.5 35.5t-56.5 93.5q0 33 21.5 59t61.5 39q-63 26 -63 90q0 38 20.5 64.5
t58.5 41.5q-29 23 -45 56t-16 72q0 75 55 121.5t150 46.5q60 0 106 -20q12 43 45.5 67.5t85.5 24.5q14 0 27 -3v-90q-22 5 -40 5q-49 0 -72 -33zM330.5 273q25.5 27 25.5 70t-25 69.5t-67 26.5t-67 -26.5t-25 -68.5q0 -43 25 -70.5t67 -27.5q41 0 66.5 27zM197 4
q-21 0 -41 3q-36 -23 -36 -63q0 -73 144 -73q150 0 150 72q0 61 -87 61h-130zM202 574l-107 149h97l71 -102l71 102h97l-107 -149h-122z" />
    <glyph glyph-name="AEacute" unicode="&#x1fc;" horiz-adv-x="948" 
d="M581 314v-213h318v-101h-447v166h-244l-90 -166h-132l412 710h494v-101h-311v-195h294v-100h-294zM452 614l-190 -350h190v350zM706 753h-99l93 113h115z" />
    <glyph glyph-name="aeacute" unicode="&#x1fd;" horiz-adv-x="850" 
d="M811 221h-332q1 -63 35 -101t89 -38q39 0 67.5 21.5t43.5 61.5l93 -42q-27 -65 -81 -100t-128 -35q-67 0 -116 27t-77 78q-26 -51 -77.5 -78t-118.5 -27q-79 0 -126 39t-47 108q0 128 180 150l144 17v16q0 55 -23.5 81t-71.5 26q-44 0 -68.5 -22t-26.5 -64h-120
q6 81 62 127t152 46q114 0 164 -71q59 71 166 71q103 0 160 -65t57 -182v-44zM691 300q1 62 -25.5 97t-74.5 35q-49 0 -80 -35.5t-32 -96.5h212zM363 231l-103 -13q-53 -7 -76.5 -26.5t-23.5 -54.5q0 -28 22.5 -46t57.5 -18q50 0 86.5 32.5t36.5 99.5v26zM476 574h-98
l100 149h126z" />
    <glyph glyph-name="Oslashacute" unicode="&#x1fe;" horiz-adv-x="751" 
d="M626 621q86 -100 86 -266q0 -113 -41.5 -197t-117.5 -129.5t-177 -45.5q-117 0 -200 60l-47 -60l-54 40l51 66q-42 48 -64.5 115.5t-22.5 150.5q0 114 41.5 198t117.5 129t178 45q119 0 201 -61l47 60l54 -39zM207 192l298 382q-51 49 -129 49q-96 0 -149.5 -71
t-53.5 -197q0 -97 34 -163zM524.5 158q53.5 71 53.5 197q0 96 -32 162l-298 -382q51 -48 128 -48q95 0 148.5 71zM425 753h-99l93 113h115z" />
    <glyph glyph-name="oslashacute" unicode="&#x1ff;" horiz-adv-x="569" 
d="M467 438q63 -71 63 -187q0 -82 -31 -141.5t-87 -90.5t-128 -31q-84 0 -145 41l-36 -45l-40 29l39 49q-63 71 -63 189q0 82 31 141t86.5 89.5t127.5 30.5q84 0 145 -41l36 45l41 -30zM177 155l187 235q-30 31 -80 31q-59 0 -90.5 -43t-31.5 -127q0 -57 15 -96zM375 123
q32 44 32 128q0 55 -14 94l-189 -235q30 -31 80 -31q59 0 91 44zM335 574h-98l100 149h126z" />
    <glyph glyph-name="uni0218" unicode="&#x218;" horiz-adv-x="623" 
d="M120 37q-76 54 -99 145l110 48q19 -65 66 -104.5t126 -39.5q60 0 100.5 25.5t40.5 77.5q0 49 -28.5 72.5t-91.5 36.5l-99 21q-187 38 -187 204q0 61 32 107t91 71.5t138 25.5q104 0 176.5 -43.5t95.5 -129.5l-102 -54q-17 62 -61.5 95.5t-114.5 33.5q-59 0 -94.5 -25.5
t-35.5 -70.5q0 -43 26 -67.5t84 -37.5l104 -22q95 -20 145 -67.5t50 -137.5q0 -62 -31 -111.5t-93 -78t-150 -28.5q-122 0 -198 54zM288 -194q29 8 39 19.5t10 35.5h-58v96h113v-84q0 -43 -18 -71t-62 -41z" />
    <glyph glyph-name="uni0219" unicode="&#x219;" horiz-adv-x="493" 
d="M108.5 23.5q-60.5 35.5 -83.5 100.5l89 40q17 -42 53.5 -65t89.5 -23q45 0 69.5 17t24.5 45q0 26 -16.5 39t-55.5 19l-89 16q-70 13 -106.5 49.5t-36.5 96.5q0 69 55 111.5t149 42.5q80 0 136.5 -30.5t74.5 -84.5l-83 -45q-19 35 -52.5 54t-81.5 19q-42 0 -65 -15.5
t-23 -44.5q0 -25 16.5 -38t50.5 -19l98 -18q71 -13 104.5 -48.5t33.5 -95.5q0 -72 -54.5 -115t-150.5 -43q-86 0 -146.5 35.5zM214 -194q29 8 39 19.5t10 35.5h-58v96h113v-84q0 -43 -18 -71t-62 -41z" />
    <glyph glyph-name="uni021A" unicode="&#x21a;" horiz-adv-x="577" 
d="M9 710h559v-105h-215v-605h-129v605h-215v105zM241 -194q29 8 39 19.5t10 35.5h-58v96h113v-84q0 -43 -18 -71t-62 -41z" />
    <glyph glyph-name="uni021B" unicode="&#x21b;" horiz-adv-x="371" 
d="M11 413v87h90v126l120 48v-174h122v-87h-122v-239q0 -40 18 -59.5t55 -19.5q17 0 49 6v-101q-44 -9 -82 -9q-86 0 -123 42t-37 122v258h-90zM196 -194q29 8 39 19.5t10 35.5h-58v96h113v-84q0 -43 -18 -71t-62 -41z" />
    <glyph glyph-name="uni0232" unicode="&#x232;" horiz-adv-x="608" 
d="M239 0v271l-239 439h140l145 -283q14 -27 18 -46h2q4 19 18 46l145 283h140l-239 -439v-271h-130zM468 763h-328v81h328v-81z" />
    <glyph glyph-name="uni0233" unicode="&#x233;" horiz-adv-x="504" 
d="M38 -195v95q18 -4 42 -4q44 0 69.5 18.5t39.5 60.5l10 30l-195 495h132l109 -327q11 -31 14 -59h2q3 13 15 59l100 327h124l-187 -528q-33 -93 -85.5 -132.5t-134.5 -39.5q-20 0 -55 5zM415 603h-319v81h319v-81z" />
    <glyph glyph-name="uni0237" unicode="&#x237;" horiz-adv-x="266" 
d="M-28 -196v92l47 -2q32 0 45 18t13 66v522h120v-531q0 -81 -35.5 -126t-121.5 -45q-44 0 -68 6z" />
    <glyph glyph-name="uni0243" unicode="&#x243;" horiz-adv-x="647" 
d="M553.5 64.5q-49.5 -55.5 -153.5 -63.5v-108h-55v107h-72v-107h-56v107h-139v695h139v90h56v-90h72v90h55v-92q97 -10 140.5 -58.5t43.5 -117.5q0 -56 -30.5 -97t-92.5 -57q69 -11 105.5 -54t36.5 -112q0 -77 -49.5 -132.5zM199 601v-202h130q127 0 127 104q0 98 -127 98
h-130zM344 94q68 0 99.5 31.5t31.5 82.5q0 48 -31 77t-93 29h-152v-220h145z" />
    <glyph glyph-name="uni0259" unicode="&#x259;" horiz-adv-x="546" 
d="M442 444.5q65 -67.5 65 -189.5q0 -124 -64 -195.5t-176 -71.5q-109 0 -168.5 61.5t-59.5 176.5v54h352q-1 63 -37.5 100.5t-96.5 37.5q-42 0 -73.5 -21.5t-47.5 -61.5l-93 42q28 65 85 100t134 35q115 0 180 -67.5zM357.5 103q31.5 35 33.5 98h-233v-7q0 -62 29 -94
t83 -32q56 0 87.5 35z" />
    <glyph glyph-name="uni0272" unicode="&#x272;" horiz-adv-x="574" 
d="M473.5 461q41.5 -51 41.5 -151v-310h-120v298q0 118 -94 118q-53 0 -82.5 -40t-29.5 -111v-278q0 -93 -34.5 -141t-119.5 -48q-42 0 -70 6v92q32 -2 44 -2q33 0 46.5 19.5t13.5 67.5v519h115v-97q49 109 166 109q82 0 123.5 -51z" />
    <glyph glyph-name="uni02BC" unicode="&#x2bc;" horiz-adv-x="270" 
d="M70 478q39 15 52 34t13 56v3h-71v139h142v-131q0 -62 -24.5 -98t-84.5 -57z" />
    <glyph glyph-name="circumflex" unicode="&#x2c6;" horiz-adv-x="428" 
d="M275 723l107 -149h-96l-72 102l-71 -102h-97l108 149h121z" />
    <glyph glyph-name="caron" unicode="&#x2c7;" horiz-adv-x="600" 
d="M157 574l-107 149h97l71 -102l71 102h97l-107 -149h-122z" />
    <glyph glyph-name="breve" unicode="&#x2d8;" horiz-adv-x="600" 
d="M137 723q2 -41 22 -62.5t54 -21.5t53.5 21.5t21.5 62.5h86q-4 -78 -47.5 -116t-113.5 -38t-114 38t-48 116h86z" />
    <glyph glyph-name="dotaccent" unicode="&#x2d9;" horiz-adv-x="600" 
d="M179 583h-130v125h130v-125z" />
    <glyph glyph-name="ring" unicode="&#x2da;" horiz-adv-x="600" 
d="M76.5 582.5q-32.5 30.5 -32.5 78.5q0 49 32.5 79.5t84.5 30.5t85 -30.5t33 -79.5q0 -48 -33 -78.5t-85 -30.5t-84.5 30.5zM198.5 623q14.5 15 14.5 38q0 24 -14.5 39t-37.5 15t-37.5 -15t-14.5 -39q0 -23 14.5 -38t37.5 -15t37.5 15z" />
    <glyph glyph-name="ogonek" unicode="&#x2db;" horiz-adv-x="600" 
d="M284 -110q-7 -45 -38 -69t-82 -24q-53 0 -83.5 24t-30.5 66q0 71 92 113h113q-40 -2 -68.5 -18.5t-43.5 -39t-15 -44.5q0 -19 10.5 -29t29.5 -10q17 0 29 11t16 31z" />
    <glyph glyph-name="tilde" unicode="&#x2dc;" horiz-adv-x="600" 
d="M270 588q-20 10 -43 29q-18 14 -30.5 21t-27.5 7q-19 0 -30.5 -13.5t-19.5 -43.5l-67 18q9 56 40 88t79 32q27 0 47 -10t43 -28q18 -14 30.5 -21t27.5 -7q19 0 30.5 13t19.5 44l67 -19q-9 -56 -40 -88t-79 -32q-27 0 -47 10z" />
    <glyph glyph-name="hungarumlaut" unicode="&#x2dd;" horiz-adv-x="600" 
d="M160 574h-91l86 149h98zM322 574h-92l87 149h97z" />
    <glyph glyph-name="gravecomb" unicode="&#x300;" horiz-adv-x="0" 
d="M-131 723l101 -149h-99l-128 149h126z" />
    <glyph glyph-name="acutecomb" unicode="&#x301;" horiz-adv-x="0" 
d="M-168 574h-98l100 149h126z" />
    <glyph glyph-name="uni0302" unicode="&#x302;" horiz-adv-x="0" 
d="M-153 723l107 -149h-96l-72 102l-71 -102h-97l108 149h121z" />
    <glyph glyph-name="tildecomb" unicode="&#x303;" horiz-adv-x="0" 
d="M-217 588q-20 10 -43 29q-18 14 -30.5 21t-27.5 7q-19 0 -30.5 -13.5t-19.5 -43.5l-67 18q9 56 40 88t79 32q27 0 47 -10t43 -28q18 -14 30.5 -21t27.5 -7q19 0 30.5 13t19.5 44l67 -19q-9 -56 -40 -88t-79 -32q-27 0 -47 10z" />
    <glyph glyph-name="uni0304" unicode="&#x304;" horiz-adv-x="0" 
d="M-43 603h-319v81h319v-81z" />
    <glyph glyph-name="uni0306" unicode="&#x306;" horiz-adv-x="0" 
d="M-288 723q2 -41 22 -62.5t54 -21.5t53.5 21.5t21.5 62.5h86q-4 -78 -47.5 -116t-113.5 -38t-114 38t-48 116h86z" />
    <glyph glyph-name="uni0307" unicode="&#x307;" horiz-adv-x="0" 
d="M-49 583h-130v125h130v-125z" />
    <glyph glyph-name="uni0308" unicode="&#x308;" horiz-adv-x="0" 
d="M-261 585h-117v117h117v-117zM-50 585h-117v117h117v-117z" />
    <glyph glyph-name="uni030A" unicode="&#x30a;" horiz-adv-x="0" 
d="M-245.5 582.5q-32.5 30.5 -32.5 78.5q0 49 32.5 79.5t84.5 30.5t85 -30.5t33 -79.5q0 -48 -33 -78.5t-85 -30.5t-84.5 30.5zM-123.5 623q14.5 15 14.5 38q0 24 -14.5 39t-37.5 15t-37.5 -15t-14.5 -39q0 -23 14.5 -38t37.5 -15t37.5 15z" />
    <glyph glyph-name="uni030B" unicode="&#x30b;" horiz-adv-x="0" 
d="M-323 574h-91l86 149h98zM-161 574h-92l87 149h97z" />
    <glyph glyph-name="uni030C" unicode="&#x30c;" horiz-adv-x="0" 
d="M-279 574l-107 149h97l71 -102l71 102h97l-107 -149h-122z" />
    <glyph glyph-name="uni0312" unicode="&#x312;" horiz-adv-x="0" 
d="M-60 725q-29 -8 -38.5 -19.5t-9.5 -35.5h58v-96h-113v84q0 43 18 71t62 41z" />
    <glyph glyph-name="dotbelowcomb" unicode="&#x323;" horiz-adv-x="0" 
d="M-66 -162h-130v109h130v-109z" />
    <glyph glyph-name="uni0326" unicode="&#x326;" horiz-adv-x="0" 
d="M-154 -194q29 8 39 19.5t10 35.5h-58v96h113v-84q0 -43 -18 -71t-62 -41z" />
    <glyph glyph-name="uni0327" unicode="&#x327;" horiz-adv-x="0" 
d="M-212 7h64l-34 -55q18 14 48 14q38 0 60 -21.5t22 -60.5q0 -42 -32 -65.5t-85 -23.5q-43 0 -72.5 16.5t-40.5 46.5l70 16q4 -13 15 -20t25 -7q19 0 30.5 11t11.5 29q0 17 -11 27.5t-29 10.5q-21 0 -34 -15l-49 13z" />
    <glyph glyph-name="uni0328" unicode="&#x328;" horiz-adv-x="0" 
d="M-51 -110q-7 -45 -38 -69t-82 -24q-53 0 -83.5 24t-30.5 66q0 71 92 113h113q-40 -2 -68.5 -18.5t-43.5 -39t-15 -44.5q0 -19 10.5 -29t29.5 -10q17 0 29 11t16 31z" />
    <glyph glyph-name="uni0394" unicode="&#x394;" horiz-adv-x="634" 
d="M622 0h-610l239 710h135zM470 96l-153 485l-158 -485h311z" />
    <glyph glyph-name="uni03A9" unicode="&#x3a9;" horiz-adv-x="781" 
d="M241 557q-53 -66 -53 -181q0 -95 38 -167.5t106 -107.5v-101h-278v101h147v3q-67 46 -107 118.5t-40 168.5q0 98 41 174.5t117.5 119t178.5 42.5t178 -42.5t117 -119t41 -174.5q0 -96 -39.5 -168.5t-106.5 -118.5v-3h146v-101h-278v101q68 35 106 107.5t38 167.5
q0 115 -53 181t-149 66q-97 0 -150 -66z" />
    <glyph glyph-name="uni03BC" unicode="&#x3bc;" horiz-adv-x="579" 
d="M402 0q-8 47 -10 89q-18 -45 -60 -73t-93 -28q-34 0 -63 8v-191h-107v695h120v-303q0 -55 22.5 -84t65.5 -29q50 0 80.5 38t30.5 101v277h120v-331q0 -114 17 -169h-123z" />
    <glyph glyph-name="pi" unicode="&#x3c0;" horiz-adv-x="639" 
d="M590 403h-80v-263q0 -52 48 -52q13 0 31 3v-89q-31 -9 -61 -9q-75 0 -106.5 37t-31.5 105v268h-156v-403h-120v403h-2q-45 0 -79 -12v95q14 8 33 11t53 3h471v-97z" />
    <glyph glyph-name="uni0E3F" unicode="&#xe3f;" horiz-adv-x="647" 
d="M566.5 309q36.5 -43 36.5 -112q0 -94 -62.5 -145.5t-174.5 -51.5h-22v-107h-55v107h-211v695h211v91h55v-91h6q111 0 172.5 -47t61.5 -134q0 -58 -32 -97t-91 -54q69 -11 105.5 -54zM289 603h-93v-205h93v205zM429.5 574.5q-29.5 25.5 -85.5 28.5v-205q56 3 85.5 29.5
t29.5 75.5q0 46 -29.5 71.5zM196 315v-223h93v223h-93zM347 92q63 0 97 30t34 86q0 51 -32.5 79t-91.5 28h-10v-223h3z" />
    <glyph glyph-name="Wgrave" unicode="&#x1e80;" horiz-adv-x="929" 
d="M188 0l-169 710h131l107 -520q6 -30 7 -48h3q1 21 8 48l124 520h131l124 -520q7 -27 8 -48h3q1 18 7 48l107 520h132l-169 -710h-150l-120 520q-3 17 -5 42h-4q-1 -18 -6 -42l-120 -520h-149zM418 866l94 -113h-100l-109 113h115z" />
    <glyph glyph-name="wgrave" unicode="&#x1e81;" horiz-adv-x="745" 
d="M154 0l-138 500h119l77 -333q8 -40 9 -54h2q2 17 11 54l82 333h113l82 -333q9 -37 11 -54h2q1 14 9 54l77 333h119l-138 -500h-122l-85 324q-8 30 -10 55h-3q-2 -25 -10 -55l-85 -324h-122zM320 723l101 -149h-99l-128 149h126z" />
    <glyph glyph-name="Wacute" unicode="&#x1e82;" horiz-adv-x="929" 
d="M188 0l-169 710h131l107 -520q6 -30 7 -48h3q1 21 8 48l124 520h131l124 -520q7 -27 8 -48h3q1 18 7 48l107 520h132l-169 -710h-150l-120 520q-3 17 -5 42h-4q-1 -18 -6 -42l-120 -520h-149zM514 753h-99l93 113h115z" />
    <glyph glyph-name="wacute" unicode="&#x1e83;" horiz-adv-x="745" 
d="M154 0l-138 500h119l77 -333q8 -40 9 -54h2q2 17 11 54l82 333h113l82 -333q9 -37 11 -54h2q1 14 9 54l77 333h119l-138 -500h-122l-85 324q-8 30 -10 55h-3q-2 -25 -10 -55l-85 -324h-122zM423 574h-98l100 149h126z" />
    <glyph glyph-name="Wdieresis" unicode="&#x1e84;" horiz-adv-x="929" 
d="M188 0l-169 710h131l107 -520q6 -30 7 -48h3q1 21 8 48l124 520h131l124 -520q7 -27 8 -48h3q1 18 7 48l107 520h132l-169 -710h-150l-120 520q-3 17 -5 42h-4q-1 -18 -6 -42l-120 -520h-149zM409 753h-114v106h114v-106zM634 753h-114v106h114v-106z" />
    <glyph glyph-name="wdieresis" unicode="&#x1e85;" horiz-adv-x="745" 
d="M154 0l-138 500h119l77 -333q8 -40 9 -54h2q2 17 11 54l82 333h113l82 -333q9 -37 11 -54h2q1 14 9 54l77 333h119l-138 -500h-122l-85 324q-8 30 -10 55h-3q-2 -25 -10 -55l-85 -324h-122zM326 585h-117v117h117v-117zM537 585h-117v117h117v-117z" />
    <glyph glyph-name="uni1E9E" unicode="&#x1e9e;" horiz-adv-x="739" 
d="M479 407q97 -8 150 -60.5t53 -140.5q0 -103 -68 -163t-186 -60q-60 0 -131 17v104q60 -20 119 -20q67 0 104.5 32t37.5 90q0 53 -37 81t-106 28h-71v94l177 179q-28 22 -60.5 31.5t-78.5 9.5q-91 0 -133 -40t-42 -128v-461h-129v459q0 130 78.5 199t223.5 69
q101 0 173.5 -33.5t111.5 -96.5z" />
    <glyph glyph-name="uni1EA0" unicode="&#x1ea0;" horiz-adv-x="692" 
d="M680 0h-131l-64 187h-278l-64 -187h-131l264 710h140zM241 285h210l-83 240q-12 35 -21 76h-2q-9 -41 -21 -76zM411 -162h-130v109h130v-109z" />
    <glyph glyph-name="uni1EA1" unicode="&#x1ea1;" horiz-adv-x="551" 
d="M83 28.5q-47 40.5 -47 107.5q0 36 15.5 65t45.5 48q27 16 65 26.5t98 18.5l106 13v13q0 56 -22.5 81.5t-70.5 25.5q-44 0 -69.5 -22.5t-28.5 -65.5h-123q6 80 65 126.5t156 46.5q111 0 162.5 -49.5t51.5 -158.5v-149q0 -102 15 -155h-120q-7 41 -8 86q-18 -46 -62.5 -72
t-104.5 -26q-77 0 -124 40.5zM335 109.5q34 36.5 34 95.5v32l-113 -17q-50 -8 -73 -27t-23 -51t22.5 -50.5t62.5 -18.5q56 0 90 36.5zM341 -162h-130v109h130v-109z" />
    <glyph glyph-name="uni1EB8" unicode="&#x1eb8;" horiz-adv-x="595" 
d="M207 314v-213h339v-101h-468v710h461v-101h-332v-195h315v-100h-315zM361 -162h-130v109h130v-109z" />
    <glyph glyph-name="uni1EB9" unicode="&#x1eb9;" horiz-adv-x="546" 
d="M507 220h-351q1 -63 37.5 -100.5t95.5 -37.5q42 0 73.5 21.5t47.5 61.5l93 -42q-28 -65 -85 -100t-134 -35q-115 0 -180 67.5t-65 189.5q0 124 64 195.5t176 71.5q109 0 168.5 -61.5t59.5 -175.5v-55zM388 307q1 61 -28.5 93t-83.5 32q-56 0 -87 -35t-33 -98h232v8z
M338 -162h-130v109h130v-109z" />
    <glyph glyph-name="uni1EBC" unicode="&#x1ebc;" horiz-adv-x="595" 
d="M207 314v-213h339v-101h-468v710h461v-101h-332v-195h315v-100h-315zM335 753.5q-18 8.5 -40 23.5q-17 12 -28 17.5t-24 5.5q-18 0 -29 -12t-19 -38l-67 19q9 51 39.5 79t76.5 28q26 0 44 -8.5t40 -23.5q17 -12 27.5 -17.5t23.5 -5.5q18 0 29 12t19 38l67 -19
q-9 -51 -39.5 -79t-76.5 -28q-25 0 -43 8.5z" />
    <glyph glyph-name="uni1EBD" unicode="&#x1ebd;" horiz-adv-x="546" 
d="M507 220h-351q1 -63 37.5 -100.5t95.5 -37.5q42 0 73.5 21.5t47.5 61.5l93 -42q-28 -65 -85 -100t-134 -35q-115 0 -180 67.5t-65 189.5q0 124 64 195.5t176 71.5q109 0 168.5 -61.5t59.5 -175.5v-55zM388 307q1 61 -28.5 93t-83.5 32q-56 0 -87 -35t-33 -98h232v8z
M301 588q-20 10 -43 29q-18 14 -30.5 21t-27.5 7q-19 0 -30.5 -13.5t-19.5 -43.5l-67 18q9 56 40 88t79 32q27 0 47 -10t43 -28q18 -14 30.5 -21t27.5 -7q19 0 30.5 13t19.5 44l67 -19q-9 -56 -40 -88t-79 -32q-27 0 -47 10z" />
    <glyph glyph-name="uni1ECA" unicode="&#x1eca;" horiz-adv-x="284" 
d="M207 710v-710h-129v710h129zM207 -162h-130v109h130v-109z" />
    <glyph glyph-name="uni1ECB" unicode="&#x1ecb;" horiz-adv-x="258" 
d="M189 0h-120v500h120v-500zM194 583h-130v125h130v-125zM194 -162h-130v109h130v-109z" />
    <glyph glyph-name="uni1ECC" unicode="&#x1ecc;" horiz-adv-x="751" 
d="M198 28.5q-76 45.5 -117.5 130t-41.5 196.5q0 114 41.5 198t117.5 129t178 45t177.5 -45t117 -129t41.5 -198q0 -113 -41.5 -197t-117.5 -129.5t-177 -45.5q-102 0 -178 45.5zM524.5 158q53.5 71 53.5 197t-53.5 197t-148.5 71q-96 0 -149.5 -71t-53.5 -197
q0 -124 54 -196t149 -72t148.5 71zM440 -162h-130v109h130v-109z" />
    <glyph glyph-name="uni1ECD" unicode="&#x1ecd;" horiz-adv-x="569" 
d="M156.5 19q-55.5 31 -86.5 90.5t-31 141.5t31 141t86.5 89.5t127.5 30.5t128 -30.5t87 -89.5t31 -141t-31 -141.5t-87 -90.5t-128 -31t-127.5 31zM375 123q32 44 32 128t-32 127t-91 43t-90.5 -43t-31.5 -127q0 -85 32 -128.5t90 -43.5q59 0 91 44zM349 -162h-130v109h130
v-109z" />
    <glyph glyph-name="uni1EE4" unicode="&#x1ee4;" horiz-adv-x="714" 
d="M71 710h129v-455q0 -76 41.5 -119.5t115.5 -43.5t115.5 43.5t41.5 119.5v455h129v-462q0 -80 -33.5 -140t-98 -92.5t-154.5 -32.5t-154.5 32.5t-98 92.5t-33.5 140v462zM421 -162h-130v109h130v-109z" />
    <glyph glyph-name="uni1EE5" unicode="&#x1ee5;" horiz-adv-x="567" 
d="M59 179v321h120v-303q0 -55 22.5 -84t65.5 -29q50 0 80.5 38t30.5 101v277h120v-500h-114v93q-17 -47 -59.5 -76t-95.5 -29q-170 0 -170 191zM350 -162h-130v109h130v-109z" />
    <glyph glyph-name="Ygrave" unicode="&#x1ef2;" horiz-adv-x="608" 
d="M239 0v271l-239 439h140l145 -283q14 -27 18 -46h2q4 19 18 46l145 283h140l-239 -439v-271h-130zM257 866l94 -113h-100l-109 113h115z" />
    <glyph glyph-name="ygrave" unicode="&#x1ef3;" horiz-adv-x="504" 
d="M38 -195v95q18 -4 42 -4q44 0 69.5 18.5t39.5 60.5l10 30l-195 495h132l109 -327q11 -31 14 -59h2q3 13 15 59l100 327h124l-187 -528q-33 -93 -85.5 -132.5t-134.5 -39.5q-20 0 -55 5zM202 723l101 -149h-99l-128 149h126z" />
    <glyph glyph-name="uni1EF8" unicode="&#x1ef8;" horiz-adv-x="608" 
d="M239 0v271l-239 439h140l145 -283q14 -27 18 -46h2q4 19 18 46l145 283h140l-239 -439v-271h-130zM328 753.5q-18 8.5 -40 23.5q-17 12 -28 17.5t-24 5.5q-18 0 -29 -12t-19 -38l-67 19q9 51 39.5 79t76.5 28q26 0 44 -8.5t40 -23.5q17 -12 27.5 -17.5t23.5 -5.5
q18 0 29 12t19 38l67 -19q-9 -51 -39.5 -79t-76.5 -28q-25 0 -43 8.5z" />
    <glyph glyph-name="uni1EF9" unicode="&#x1ef9;" horiz-adv-x="504" 
d="M38 -195v95q18 -4 42 -4q44 0 69.5 18.5t39.5 60.5l10 30l-195 495h132l109 -327q11 -31 14 -59h2q3 13 15 59l100 327h124l-187 -528q-33 -93 -85.5 -132.5t-134.5 -39.5q-20 0 -55 5zM282 588q-20 10 -43 29q-18 14 -30.5 21t-27.5 7q-19 0 -30.5 -13.5t-19.5 -43.5
l-67 18q9 56 40 88t79 32q27 0 47 -10t43 -28q18 -14 30.5 -21t27.5 -7q19 0 30.5 13t19.5 44l67 -19q-9 -56 -40 -88t-79 -32q-27 0 -47 10z" />
    <glyph glyph-name="uni2002" unicode="&#x2002;" horiz-adv-x="494" 
 />
    <glyph glyph-name="uni2003" unicode="&#x2003;" horiz-adv-x="988" 
 />
    <glyph glyph-name="uni2004" unicode="&#x2004;" horiz-adv-x="329" 
 />
    <glyph glyph-name="uni2005" unicode="&#x2005;" horiz-adv-x="247" 
 />
    <glyph glyph-name="uni2007" unicode="&#x2007;" 
 />
    <glyph glyph-name="uni2008" unicode="&#x2008;" horiz-adv-x="270" 
 />
    <glyph glyph-name="uni2009" unicode="&#x2009;" horiz-adv-x="124" 
 />
    <glyph glyph-name="uni200A" unicode="&#x200a;" horiz-adv-x="41" 
 />
    <glyph glyph-name="uni200B" unicode="&#x200b;" horiz-adv-x="0" 
 />
    <glyph glyph-name="endash" unicode="&#x2013;" horiz-adv-x="594" 
d="M47 225v106h500v-106h-500z" />
    <glyph glyph-name="emdash" unicode="&#x2014;" horiz-adv-x="1094" 
d="M47 225v106h1000v-106h-1000z" />
    <glyph glyph-name="quoteleft" unicode="&#x2018;" horiz-adv-x="270" 
d="M200 675q-39 -15 -52 -34t-13 -56v-3h71v-139h-142v131q0 62 24.5 98t84.5 57z" />
    <glyph glyph-name="quoteright" unicode="&#x2019;" horiz-adv-x="270" 
d="M70 478q39 15 52 34t13 56v3h-71v139h142v-131q0 -62 -24.5 -98t-84.5 -57z" />
    <glyph glyph-name="quotesinglbase" unicode="&#x201a;" horiz-adv-x="270" 
d="M70 -93q39 15 52 34t13 56v3h-71v139h142v-131q0 -62 -24.5 -98t-84.5 -57z" />
    <glyph glyph-name="quotedblleft" unicode="&#x201c;" horiz-adv-x="459" 
d="M200 675q-39 -15 -52 -34t-13 -56v-2h71v-140h-142v132q0 62 24.5 98t84.5 57zM389 675q-39 -15 -52.5 -34t-13.5 -56v-2h72v-140h-142v132q0 62 24.5 98t83.5 57z" />
    <glyph glyph-name="quotedblright" unicode="&#x201d;" horiz-adv-x="459" 
d="M70 478q39 15 52 34t13 56v3h-71v139h142v-131q0 -62 -24.5 -98t-84.5 -57zM258 478q39 15 52.5 34.5t13.5 55.5v3h-71v139h142v-131q0 -62 -24.5 -98t-84.5 -57z" />
    <glyph glyph-name="quotedblbase" unicode="&#x201e;" horiz-adv-x="459" 
d="M70 -93q39 15 52 34t13 56v3h-71v139h142v-131q0 -62 -24.5 -98t-84.5 -57zM258 -93q39 15 52.5 34.5t13.5 55.5v3h-71v139h142v-131q0 -62 -24.5 -98t-84.5 -57z" />
    <glyph glyph-name="dagger" unicode="&#x2020;" horiz-adv-x="491" 
d="M430 419h-136v-519h-98v519h-135v81h135v220h98v-220h136v-81z" />
    <glyph glyph-name="daggerdbl" unicode="&#x2021;" horiz-adv-x="491" 
d="M430 500v-81h-136v-219h135v-81h-135v-219h-98v219h-134v81h134v219h-135v81h135v220h98v-220h136z" />
    <glyph glyph-name="bullet" unicode="&#x2022;" horiz-adv-x="380" 
d="M99 173q-35 34 -35 89q0 57 35 91.5t90 34.5q56 0 91.5 -34t35.5 -92q0 -55 -35.5 -89t-91.5 -34q-55 0 -90 34z" />
    <glyph glyph-name="ellipsis" unicode="&#x2026;" horiz-adv-x="834" 
d="M64 136h142v-136h-142v136zM346 136h142v-136h-142v136zM628 136h142v-136h-142v136z" />
    <glyph glyph-name="perthousand" unicode="&#x2030;" horiz-adv-x="1216" 
d="M66 401q-50 50 -50 134t49.5 135t132.5 51q82 0 132.5 -51t50.5 -135q0 -83 -50 -133.5t-132 -50.5q-83 0 -133 50zM232 -15h-94l452 731h92zM263.5 455q23.5 28 23.5 80t-24 80.5t-65 28.5t-65.5 -28t-24.5 -79q0 -54 24.5 -82t66.5 -28q41 0 64.5 28zM492 35
q-50 50 -50 134q0 85 49.5 135.5t133.5 50.5q81 0 131.5 -50.5t50.5 -133.5q0 -84 -50 -135t-132 -51q-83 0 -133 50zM886 35q-50 50 -50 134q0 85 49.5 135.5t132.5 50.5q82 0 132.5 -51t50.5 -135q0 -83 -50 -133.5t-132 -50.5q-83 0 -133 50zM689 89q24 28 24 80t-24 81
t-64 29q-42 0 -66.5 -28t-24.5 -80q0 -53 24.5 -81.5t66.5 -28.5q40 0 64 28zM1083 89q24 28 24 80t-24 81t-65 29t-65.5 -28t-24.5 -80q0 -53 24.5 -81.5t66.5 -28.5q40 0 64 28z" />
    <glyph glyph-name="guilsinglleft" unicode="&#x2039;" horiz-adv-x="324" 
d="M304 67h-113l-167 209l169 207h112l-164 -207z" />
    <glyph glyph-name="guilsinglright" unicode="&#x203a;" horiz-adv-x="324" 
d="M300 276l-167 -209h-114l164 209l-164 207h112z" />
    <glyph glyph-name="fraction" unicode="&#x2044;" horiz-adv-x="197" 
d="M-75 -17h-90l438 744h89z" />
    <glyph glyph-name="uni2070" unicode="&#x2070;" horiz-adv-x="518" 
d="M97.5 368.5q-57.5 69.5 -57.5 194.5q0 126 57.5 195.5t161.5 69.5t162 -70t58 -195t-58 -194.5t-162 -69.5t-161.5 69.5zM341 427q29 47 29 136q0 90 -28.5 137t-82.5 47t-82.5 -47t-28.5 -137q0 -89 29 -136t82 -47t82 47z" />
    <glyph glyph-name="uni2074" unicode="&#x2074;" horiz-adv-x="469" 
d="M446 503v-77h-79v-116h-102v116h-246v72l233 319h115v-314h79zM265 503v221l-154 -221h154z" />
    <glyph glyph-name="uni2075" unicode="&#x2075;" horiz-adv-x="465" 
d="M99.5 336.5q-51.5 37.5 -61.5 102.5l101 15q7 -34 30.5 -53.5t59.5 -19.5q44 0 69.5 26.5t25.5 72.5t-24.5 73.5t-66.5 27.5q-34 0 -58 -18t-32 -49l-95 8l31 295h321v-82h-243l-16 -135q37 57 121 57q77 0 121.5 -46.5t44.5 -127.5q0 -85 -53.5 -134.5t-144.5 -49.5
q-79 0 -130.5 37.5z" />
    <glyph glyph-name="uni2076" unicode="&#x2076;" horiz-adv-x="472" 
d="M394 607q44 -46 44 -126q0 -52 -24 -93.5t-67.5 -65t-98.5 -23.5q-99 0 -155 67t-56 190q0 126 56 199t155 73q159 0 180 -131l-98 -16q-16 71 -83 71q-50 0 -78 -43.5t-31 -128.5q19 36 54 54.5t84 18.5q74 0 118 -46zM313.5 405.5q24.5 26.5 24.5 71.5t-26 72t-68 27
q-35 0 -62 -20t-40 -57q16 -120 104 -120q43 0 67.5 26.5z" />
    <glyph glyph-name="uni2077" unicode="&#x2077;" horiz-adv-x="415" 
d="M104 319q0 112 49.5 217t139.5 194h-266v87h370v-81q-87 -87 -132.5 -186t-45.5 -221v-19h-115v9z" />
    <glyph glyph-name="uni2078" unicode="&#x2078;" horiz-adv-x="480" 
d="M421.5 535.5q26.5 -34.5 26.5 -87.5q0 -68 -56.5 -108.5t-152.5 -40.5q-94 0 -150.5 38.5t-56.5 103.5q0 48 26 78.5t81 45.5q-48 19 -69.5 49t-21.5 76q0 62 51 100t136 38q87 0 138 -34.5t51 -93.5q0 -42 -21 -69t-66 -42q58 -19 84.5 -53.5zM171.5 739
q-23.5 -18 -23.5 -49q0 -28 21 -46t67 -29l32 -8q30 13 43.5 31.5t13.5 45.5q0 34 -23.5 53.5t-65.5 19.5q-41 0 -64.5 -18zM314 396q27 21 27 56q0 31 -22 50.5t-70 31.5l-39 10q-36 -13 -53 -34.5t-17 -53.5q0 -37 27 -59t74 -22q46 0 73 21z" />
    <glyph glyph-name="uni2079" unicode="&#x2079;" horiz-adv-x="472" 
d="M381.5 763.5q53.5 -64.5 53.5 -192.5q0 -129 -52 -200.5t-157 -71.5q-77 0 -124.5 34.5t-57.5 98.5l98 17q7 -33 30 -52.5t59 -19.5q97 0 103 170q-19 -28 -52.5 -42t-73.5 -14q-79 0 -126.5 45t-47.5 120q0 77 52.5 124.5t141.5 47.5q100 0 153.5 -64.5zM290 583.5
q28 16.5 42 45.5q-6 62 -31 92.5t-72 30.5q-43 0 -69 -25.5t-26 -67.5q0 -41 26 -66.5t68 -25.5q34 0 62 16.5z" />
    <glyph glyph-name="uni207A" unicode="&#x207a;" horiz-adv-x="443" 
d="M258 584h141v-68h-141v-142h-74v142h-140v68h140v134h74v-134z" />
    <glyph glyph-name="uni207B" unicode="&#x207b;" horiz-adv-x="443" 
d="M399 516h-355v68h355v-68z" />
    <glyph glyph-name="uni207D" unicode="&#x207d;" horiz-adv-x="281" 
d="M195 210q-62 70 -96.5 157t-34.5 182q0 185 131 329l79 -28q-57 -70 -84.5 -143t-27.5 -158q0 -86 27.5 -162t84.5 -147z" />
    <glyph glyph-name="uni207E" unicode="&#x207e;" horiz-adv-x="281" 
d="M7 240q57 71 84.5 146.5t27.5 162.5q0 85 -27 158t-85 143l79 28q131 -144 131 -329q0 -95 -34.5 -182t-95.5 -157z" />
    <glyph glyph-name="uni2080" unicode="&#x2080;" horiz-adv-x="518" 
d="M97.5 -81.5q-57.5 69.5 -57.5 194.5q0 126 57.5 195.5t161.5 69.5t162 -70t58 -195t-58 -194.5t-162 -69.5t-161.5 69.5zM341 -23q29 47 29 136q0 90 -28.5 137t-82.5 47t-82.5 -47t-28.5 -137q0 -89 29 -136t82 -47t82 47z" />
    <glyph glyph-name="uni2081" unicode="&#x2081;" horiz-adv-x="338" 
d="M145 223q-15 -16 -41 -25t-55 -9h-18v95h12q47 0 76.5 20t44.5 63h84v-507h-103v363z" />
    <glyph glyph-name="uni2082" unicode="&#x2082;" horiz-adv-x="458" 
d="M35 -63q88 54 143 95t89.5 86.5t34.5 94.5q0 40 -20.5 61.5t-57.5 21.5q-39 0 -60.5 -21.5t-21.5 -59.5q0 -16 5 -41l-107 9q-4 28 -4 41q0 71 52 112.5t141 41.5q88 0 136 -41t48 -116q0 -82 -65 -151.5t-170 -126.5h243v-83h-386v77z" />
    <glyph glyph-name="uni2083" unicode="&#x2083;" horiz-adv-x="469" 
d="M86.5 -107q-53.5 44 -55.5 120l106 10q2 -44 27 -68.5t68 -24.5t65.5 20.5t22.5 58.5q0 35 -25 54.5t-73 19.5h-32v70h29q42 0 65.5 19.5t23.5 54.5q0 34 -21 53t-59 19q-42 0 -64.5 -25t-22.5 -70l-104 12q0 75 52 118.5t143 43.5q88 0 135.5 -36.5t47.5 -103.5
q0 -43 -28.5 -74.5t-76.5 -40.5q57 -8 88.5 -39.5t31.5 -82.5q0 -70 -53.5 -111t-144.5 -41q-92 0 -145.5 44z" />
    <glyph glyph-name="uni2084" unicode="&#x2084;" horiz-adv-x="469" 
d="M446 53v-77h-79v-116h-102v116h-246v72l233 319h115v-314h79zM265 53v221l-154 -221h154z" />
    <glyph glyph-name="uni2085" unicode="&#x2085;" horiz-adv-x="465" 
d="M99.5 -113.5q-51.5 37.5 -61.5 102.5l101 15q7 -34 30.5 -53.5t59.5 -19.5q44 0 69.5 26.5t25.5 72.5t-24.5 73.5t-66.5 27.5q-34 0 -58 -18t-32 -49l-95 8l31 295h321v-82h-243l-16 -135q37 57 121 57q77 0 121.5 -46.5t44.5 -127.5q0 -85 -53.5 -134.5t-144.5 -49.5
q-79 0 -130.5 37.5z" />
    <glyph glyph-name="uni2086" unicode="&#x2086;" horiz-adv-x="472" 
d="M394 157q44 -46 44 -126q0 -52 -24 -93.5t-67.5 -65t-98.5 -23.5q-99 0 -155 67t-56 190q0 126 56 199t155 73q159 0 180 -131l-98 -16q-16 71 -83 71q-50 0 -78 -43.5t-31 -128.5q19 36 54 54.5t84 18.5q74 0 118 -46zM313.5 -44.5q24.5 26.5 24.5 71.5t-26 72t-68 27
q-35 0 -62 -20t-40 -57q16 -120 104 -120q43 0 67.5 26.5z" />
    <glyph glyph-name="uni2087" unicode="&#x2087;" horiz-adv-x="415" 
d="M104 -131q0 112 49.5 217t139.5 194h-266v87h370v-81q-87 -87 -132.5 -186t-45.5 -221v-19h-115v9z" />
    <glyph glyph-name="uni2088" unicode="&#x2088;" horiz-adv-x="480" 
d="M421.5 85.5q26.5 -34.5 26.5 -87.5q0 -68 -56.5 -108.5t-152.5 -40.5q-94 0 -150.5 38.5t-56.5 103.5q0 48 26 78.5t81 45.5q-48 19 -69.5 49t-21.5 76q0 62 51 100t136 38q87 0 138 -34.5t51 -93.5q0 -42 -21 -69t-66 -42q58 -19 84.5 -53.5zM171.5 289
q-23.5 -18 -23.5 -49q0 -28 21 -46t67 -29l32 -8q30 13 43.5 31.5t13.5 45.5q0 34 -23.5 53.5t-65.5 19.5q-41 0 -64.5 -18zM314 -54q27 21 27 56q0 31 -22 50.5t-70 31.5l-39 10q-36 -13 -53 -34.5t-17 -53.5q0 -37 27 -59t74 -22q46 0 73 21z" />
    <glyph glyph-name="uni2089" unicode="&#x2089;" horiz-adv-x="472" 
d="M381.5 313.5q53.5 -64.5 53.5 -192.5q0 -129 -52 -200.5t-157 -71.5q-77 0 -124.5 34.5t-57.5 98.5l98 17q7 -33 30 -52.5t59 -19.5q97 0 103 170q-19 -28 -52.5 -42t-73.5 -14q-79 0 -126.5 45t-47.5 120q0 77 52.5 124.5t141.5 47.5q100 0 153.5 -64.5zM290 133.5
q28 16.5 42 45.5q-6 62 -31 92.5t-72 30.5q-43 0 -69 -25.5t-26 -67.5q0 -41 26 -66.5t68 -25.5q34 0 62 16.5z" />
    <glyph glyph-name="uni208A" unicode="&#x208a;" horiz-adv-x="443" 
d="M258 134h141v-68h-141v-142h-74v142h-140v68h140v134h74v-134z" />
    <glyph glyph-name="uni208B" unicode="&#x208b;" horiz-adv-x="443" 
d="M399 66h-355v68h355v-68z" />
    <glyph glyph-name="uni208D" unicode="&#x208d;" horiz-adv-x="281" 
d="M195 -240q-62 70 -96.5 157t-34.5 182q0 185 131 329l79 -28q-57 -70 -84.5 -143t-27.5 -158q0 -86 27.5 -162t84.5 -148z" />
    <glyph glyph-name="uni208E" unicode="&#x208e;" horiz-adv-x="281" 
d="M7 -210q57 71 84.5 146.5t27.5 162.5q0 85 -27 158t-85 143l79 28q131 -144 131 -329q0 -95 -34.5 -182t-95.5 -157z" />
    <glyph glyph-name="uni20A9" unicode="&#x20a9;" horiz-adv-x="903" 
d="M762 695h119l-56 -238h56v-57h-70l-19 -82h89v-58h-103l-61 -260h-137l-57 260h-143l-57 -260h-137l-61 260h-103v58h89l-19 82h-70v57h56l-56 238h119l46 -238h151l55 238h117l55 -238h151zM423 457h57l-6 29q-13 60 -21 132h-3q-11 -88 -21 -132zM325 400h-127l15 -82
h92zM410 400l-18 -82h119l-18 82h-83zM598 318h92l15 82h-127zM292 260h-68l13 -66q13 -68 16 -112h3q4 36 16 89q2 14 4 20zM679 260h-68l16 -69l9 -40.5t10 -68.5h3q4 44 17 112z" />
    <glyph glyph-name="dong" unicode="&#x20ab;" horiz-adv-x="580" 
d="M511 636h89v-60h-89v-576h-114v90q-20 -48 -61.5 -75t-98.5 -27q-59 0 -105 32.5t-71 92t-25 136.5q0 78 26.5 137.5t74.5 92.5t110 33q101 0 144 -83v147h-168v60h168v89h120v-89zM393 265q0 73 -30.5 114t-84.5 41q-56 0 -86.5 -44.5t-30.5 -124.5t31.5 -125.5
t86.5 -45.5q53 0 83.5 41.5t30.5 111.5v32zM555 -134h-501v60h501v-60z" />
    <glyph glyph-name="Euro" unicode="&#x20ac;" horiz-adv-x="663" 
d="M646 144q-37 -76 -107 -117.5t-167 -41.5q-127 0 -204.5 72.5t-100.5 197.5h-56v63h48q-1 13 -1 40q0 19 1 28h-48v63h54q21 124 100.5 192.5t209.5 68.5q195 0 265 -150l-107 -46q-51 95 -163 95q-72 0 -117.5 -41.5t-61.5 -118.5h296v-63h-303q-1 -9 -1 -27
q0 -15 2 -41h302v-63h-293q19 -80 66 -124.5t117 -44.5q52 0 94.5 26.5t68.5 75.5z" />
    <glyph glyph-name="uni20AE" unicode="&#x20ae;" horiz-adv-x="577" 
d="M568 695v-105h-215v-164l175 38v-64l-175 -38v-68l175 38v-63l-175 -38v-231h-129v202l-165 -36v63l165 36v68l-165 -36v64l165 36v193h-215v105h559z" />
    <glyph glyph-name="uni20B4" unicode="&#x20b4;" horiz-adv-x="608" 
d="M596 166q-30 -86 -108.5 -134t-189.5 -48q-79 0 -138.5 24t-91.5 67.5t-32 102.5q0 43 19 77h-43v63h101q41 29 112 58l24 10h-237v63h375q26 17 37.5 35.5t11.5 43.5q0 40 -32.5 62t-87.5 22q-129 0 -184 -116l-93 57q29 73 101 115t170 42q74 0 130.5 -22.5t87 -64
t30.5 -95.5q0 -44 -23 -79h51v-63h-124q-39 -22 -88 -42l-63 -26h275v-63h-392q-33 -30 -33 -71q0 -47 36.5 -72t100.5 -25q73 0 121.5 30t76.5 98z" />
    <glyph glyph-name="uni20B8" unicode="&#x20b8;" horiz-adv-x="577" 
d="M9 632v63h559v-63h-559zM224 486h-215v105h559v-105h-215v-486h-129v486z" />
    <glyph glyph-name="uni20B9" unicode="&#x20b9;" horiz-adv-x="556" 
d="M549 695v-79h-175q50 -37 60 -105h115v-62h-113q-8 -78 -66.5 -125t-156.5 -53l225 -271h-138l-233 284v65h104q60 0 95 25.5t43 74.5h-242v62h241q-8 51 -43 78t-92 27h-106v79h482z" />
    <glyph glyph-name="uni20BA" unicode="&#x20ba;" horiz-adv-x="572" 
d="M563 223q-22 -94 -84.5 -158.5t-188.5 -64.5h-195v265l-71 -21v67l71 21v78l-71 -21v68l71 21v217h123v-181l226 66v-68l-226 -66v-78l226 66v-67l-226 -66v-203h56q82 0 122.5 40.5t59.5 105.5z" />
    <glyph glyph-name="uni20BD" unicode="&#x20bd;" horiz-adv-x="593" 
d="M219 273v-70h198v-80h-198v-123h-123v123h-76v80h76v70h-76v85h76v337h236q75 0 131 -25.5t86.5 -73t30.5 -110.5q0 -99 -68 -156t-186 -57h-107zM219 599v-241h95q63 0 99 32.5t36 89.5q0 55 -36.5 87t-98.5 32h-95z" />
    <glyph glyph-name="uni2105" unicode="&#x2105;" horiz-adv-x="875" 
d="M753 735l-538 -748h-101l538 748h101zM68.5 682q46.5 52 137.5 52q69 0 112.5 -36t50.5 -98l-92 -15q-5 33 -24 51.5t-51 18.5q-40 0 -62 -30.5t-22 -81.5q0 -53 22 -84.5t64 -31.5q32 0 51.5 19t23.5 54l89 -18q-10 -60 -51.5 -97t-112.5 -37q-88 0 -135 54.5t-47 139.5
q0 88 46.5 140zM538 40.5q-49 52.5 -49 140.5t49 140t131 52t131.5 -52t49.5 -140t-49.5 -140.5t-131.5 -52.5t-131 52.5zM732 265.5q-23 30.5 -63 30.5t-62.5 -30.5t-22.5 -84.5q0 -55 22.5 -85t62.5 -30q41 0 63.5 30t22.5 85q0 54 -23 84.5z" />
    <glyph glyph-name="uni2113" unicode="&#x2113;" horiz-adv-x="467" 
d="M217 195q0 -57 21 -81.5t70 -24.5q28 0 61 7v-96q-39 -11 -91 -11q-97 0 -139 47t-42 138v11q-47 -18 -81 -29l-32 87q79 27 113 41v260q0 93 44.5 138t119.5 45q80 0 123 -45.5t43 -126.5q0 -102 -53 -178.5t-157 -135.5v-46zM217 349q46 36 69 82.5t23 113.5
q0 53 -11.5 74.5t-36.5 21.5q-21 0 -32.5 -17t-11.5 -49v-226z" />
    <glyph glyph-name="uni2116" unicode="&#x2116;" horiz-adv-x="1234" 
d="M78 0v710h148l267 -465q27 -49 44 -91h2q-2 26 -2 92v464h117v-710h-145l-271 467q-29 51 -43 89h-2q2 -54 2 -94v-462h-117zM841 203.5q-52 29.5 -80 83.5t-28 124q0 71 28 124.5t80 82.5t120 29t120 -29t80.5 -82.5t28.5 -124.5q0 -70 -28.5 -124t-80.5 -83.5
t-120 -29.5t-120 29.5zM1043 306q30 38 30 105q0 66 -30 104.5t-82 38.5t-82 -38.5t-30 -104.5q0 -67 30 -105t82 -38t82 38zM1190 0h-457v91h457v-91z" />
    <glyph glyph-name="trademark" unicode="&#x2122;" horiz-adv-x="879" 
d="M209 304h-81v338h-123v68h335v-68h-131v-338zM383 304v406h115l91 -273q10 -34 12 -56h2q2 22 12 56l90 273h116v-406h-75v265q0 48 2 77h-1q-6 -25 -20 -69l-90 -273h-71l-89 273q-14 44 -20 69h-1q2 -29 2 -77v-265h-75z" />
    <glyph glyph-name="uni2126" unicode="&#x2126;" horiz-adv-x="781" 
d="M241 557q-53 -66 -53 -181q0 -95 38 -167.5t106 -107.5v-101h-278v101h147v3q-67 46 -107 118.5t-40 168.5q0 98 41 174.5t117.5 119t178.5 42.5t178 -42.5t117 -119t41 -174.5q0 -96 -39.5 -168.5t-106.5 -118.5v-3h146v-101h-278v101q68 35 106 107.5t38 167.5
q0 115 -53 181t-149 66q-97 0 -150 -66z" />
    <glyph glyph-name="estimated" unicode="&#x212e;" horiz-adv-x="856" 
d="M226.5 43.5q-88.5 43.5 -138 124t-49.5 186.5q0 105 49.5 186t138 125.5t201.5 44.5q115 0 200.5 -42.5t134.5 -124.5t54 -198h-619q-8 0 -11.5 -3t-3.5 -15v-174q0 -20 32.5 -50t88.5 -52.5t124 -22.5q71 0 136.5 31.5t109.5 81.5h72q-70 -78 -140 -109.5t-178 -31.5
q-113 0 -201.5 43.5zM655 367q11 0 14 3.5t3 12.5v171q0 27 -38.5 58t-96 52t-110.5 21q-64 0 -120 -23t-90 -53.5t-34 -47.5v-185q0 -9 15 -9h457z" />
    <glyph glyph-name="uni2153" unicode="&#x2153;" horiz-adv-x="838" 
d="M115 596q-13 -12 -32.5 -18.5t-41.5 -6.5h-15v76h10q72 0 94 64h67v-386h-82v271zM195 -17h-90l438 744h89zM537 25.5q-42 33.5 -43 91.5l85 8q0 -32 19.5 -50t53.5 -18q66 0 66 57q0 51 -75 51h-31v61h29q33 0 50 14t17 38q0 25 -16 38.5t-45 13.5q-31 0 -49 -18.5
t-18 -51.5l-83 10q0 57 42 91t113 34q68 0 105.5 -28.5t37.5 -78.5q0 -33 -22 -57t-59 -31q44 -6 68.5 -30t24.5 -63q0 -53 -42.5 -84t-113.5 -31q-72 0 -114 33.5z" />
    <glyph glyph-name="uni2154" unicode="&#x2154;" horiz-adv-x="934" 
d="M30 387q69 40 111.5 70t69.5 64t27 72q0 29 -15 44t-44 15q-30 0 -46.5 -15.5t-16.5 -43.5q0 -12 5 -30l-87 7q-3 15 -3 31q0 55 40.5 87t111.5 32q68 0 106 -31.5t38 -89.5q0 -65 -52.5 -117t-129.5 -90h187v-67h-302v62zM290 -17h-90l438 744h89zM632 25.5
q-42 33.5 -43 91.5l85 8q0 -32 19.5 -50t53.5 -18q66 0 66 57q0 51 -75 51h-31v61h29q33 0 50 14t17 38q0 25 -16 38.5t-45 13.5q-31 0 -49 -18.5t-18 -51.5l-83 10q0 57 42 91t113 34q68 0 105.5 -28.5t37.5 -78.5q0 -33 -22 -57t-59 -31q44 -6 68.5 -30t24.5 -63
q0 -53 -42.5 -84t-113.5 -31q-72 0 -114 33.5z" />
    <glyph glyph-name="oneeighth" unicode="&#x215b;" horiz-adv-x="848" 
d="M115 596q-13 -12 -32.5 -18.5t-41.5 -6.5h-15v76h10q72 0 94 64h67v-386h-82v271zM195 -17h-90l438 744h89zM799.5 172.5q21.5 -25.5 21.5 -65.5q0 -52 -45 -83.5t-120 -31.5q-74 0 -117.5 29.5t-43.5 78.5q0 37 19.5 59.5t61.5 34.5q-34 14 -51.5 36.5t-17.5 57.5
q0 47 40.5 77t106.5 30q67 0 108 -26.5t41 -71.5q0 -32 -16 -52.5t-51 -32.5q42 -14 63.5 -39.5zM605.5 324q-18.5 -13 -18.5 -36q0 -22 17 -34.5t51 -20.5l25 -6q23 10 33 23.5t10 33.5q0 25 -18.5 39t-50.5 14q-30 0 -48.5 -13zM714 68q21 15 21 40q0 24 -18 38t-52 22
l-32 9q-27 -10 -39.5 -26t-12.5 -39q0 -27 20.5 -43t56.5 -16q35 0 56 15z" />
    <glyph glyph-name="threeeighths" unicode="&#x215c;" horiz-adv-x="950" 
d="M70 350.5q-42 33.5 -43 91.5l85 8q0 -32 19.5 -50t53.5 -18q66 0 66 57q0 51 -75 51h-31v61h29q33 0 50 14t17 38q0 25 -16 38.5t-45 13.5q-31 0 -49 -18.5t-18 -51.5l-83 10q0 57 42 91t113 34q68 0 105.5 -28.5t37.5 -78.5q0 -33 -22 -57t-59 -31q44 -6 68.5 -30
t24.5 -63q0 -53 -42.5 -84t-113.5 -31q-72 0 -114 33.5zM297 -17h-90l438 744h89zM901.5 172.5q21.5 -25.5 21.5 -65.5q0 -52 -45 -83.5t-120 -31.5q-74 0 -117.5 29.5t-43.5 78.5q0 37 19.5 59.5t61.5 34.5q-34 14 -51.5 36.5t-17.5 57.5q0 47 40.5 77t106.5 30
q67 0 108 -26.5t41 -71.5q0 -32 -16 -52.5t-51 -32.5q42 -14 63.5 -39.5zM707.5 324q-18.5 -13 -18.5 -36q0 -22 17 -34.5t51 -20.5l25 -6q23 10 33 23.5t10 33.5q0 25 -18.5 39t-50.5 14q-30 0 -48.5 -13zM816 68q21 15 21 40q0 24 -18 38t-52 22l-32 9q-27 -10 -39.5 -26
t-12.5 -39q0 -27 20.5 -43t56.5 -16q35 0 56 15z" />
    <glyph glyph-name="fiveeighths" unicode="&#x215d;" horiz-adv-x="947" 
d="M80.5 345q-40.5 28 -49.5 78l82 13q5 -25 23 -39.5t45 -14.5q34 0 53 19t19 53t-18 54.5t-51 20.5q-25 0 -43.5 -13t-25.5 -36l-75 6l26 225h250v-67h-190l-12 -96q29 41 94 41q60 0 94.5 -35.5t34.5 -96.5q0 -65 -41.5 -102.5t-112.5 -37.5q-62 0 -102.5 28zM293 -17
h-90l438 744h89zM897.5 172.5q21.5 -25.5 21.5 -65.5q0 -52 -45 -83.5t-120 -31.5q-74 0 -117.5 29.5t-43.5 78.5q0 37 19.5 59.5t61.5 34.5q-34 14 -51.5 36.5t-17.5 57.5q0 47 40.5 77t106.5 30q67 0 108 -26.5t41 -71.5q0 -32 -16 -52.5t-51 -32.5q42 -14 63.5 -39.5z
M703.5 324q-18.5 -13 -18.5 -36q0 -22 17 -34.5t51 -20.5l25 -6q23 10 33 23.5t10 33.5q0 25 -18.5 39t-50.5 14q-30 0 -48.5 -13zM812 68q21 15 21 40q0 24 -18 38t-52 22l-32 9q-27 -10 -39.5 -26t-12.5 -39q0 -27 20.5 -43t56.5 -16q35 0 56 15z" />
    <glyph glyph-name="seveneighths" unicode="&#x215e;" horiz-adv-x="863" 
d="M25 641v70h289v-65q-137 -130 -138 -311v-10h-93v5q1 84 40.5 166t105.5 145h-204zM210 -17h-90l438 744h89zM814.5 172.5q21.5 -25.5 21.5 -65.5q0 -52 -45 -83.5t-120 -31.5q-74 0 -117.5 29.5t-43.5 78.5q0 37 19.5 59.5t61.5 34.5q-34 14 -51.5 36.5t-17.5 57.5
q0 47 40.5 77t106.5 30q67 0 108 -26.5t41 -71.5q0 -32 -16 -52.5t-51 -32.5q42 -14 63.5 -39.5zM620.5 324q-18.5 -13 -18.5 -36q0 -22 17 -34.5t51 -20.5l25 -6q23 10 33 23.5t10 33.5q0 25 -18.5 39t-50.5 14q-30 0 -48.5 -13zM729 68q21 15 21 40q0 24 -18 38t-52 22
l-32 9q-27 -10 -39.5 -26t-12.5 -39q0 -27 20.5 -43t56.5 -16q35 0 56 15z" />
    <glyph glyph-name="arrowleft" unicode="&#x2190;" horiz-adv-x="1031" 
d="M954 369v-78h-693v-99l-183 138l183 138v-99h693z" />
    <glyph glyph-name="arrowup" unicode="&#x2191;" horiz-adv-x="433" 
d="M175 -35v600h-97l138 185l140 -185h-98v-600h-83z" />
    <glyph glyph-name="arrowright" unicode="&#x2192;" horiz-adv-x="1031" 
d="M78 291v78h692v99l184 -138l-184 -138v99h-692z" />
    <glyph glyph-name="arrowdown" unicode="&#x2193;" horiz-adv-x="433" 
d="M258 745v-600h98l-139 -185l-139 185h97v600h83z" />
    <glyph glyph-name="arrowboth" unicode="&#x2194;" horiz-adv-x="1031" 
d="M770 192v99h-509v-99l-183 138l183 138v-99h509v99l184 -138z" />
    <glyph glyph-name="arrowupdn" unicode="&#x2195;" horiz-adv-x="433" 
d="M216 -40l-138 185h97v420h-97l138 185l140 -185h-98v-420h98z" />
    <glyph glyph-name="uni2196" unicode="&#x2196;" horiz-adv-x="879" 
d="M745 -16l-580 578l-87 -89v237h231l-86 -89l579 -578z" />
    <glyph glyph-name="uni2197" unicode="&#x2197;" horiz-adv-x="879" 
d="M802 474l-87 89l-580 -578l-57 59l579 578l-87 89h232v-237z" />
    <glyph glyph-name="uni2198" unicode="&#x2198;" horiz-adv-x="879" 
d="M135 737l580 -578l87 89v-237h-232l87 89l-579 578z" />
    <glyph glyph-name="uni2199" unicode="&#x2199;" horiz-adv-x="879" 
d="M78 248l87 -89l580 578l57 -59l-579 -578l86 -89h-231v237z" />
    <glyph glyph-name="uni21A9" unicode="&#x21a9;" horiz-adv-x="958" 
d="M261 192l-183 138l183 138v-99h388q68 0 106.5 31t38.5 91q0 61 -39 91t-106 30h-216v78h234q98 0 156 -52t58 -147q0 -93 -58.5 -146.5t-161.5 -53.5h-400v-99z" />
    <glyph glyph-name="uni21AA" unicode="&#x21aa;" horiz-adv-x="958" 
d="M697 192v99h-400q-103 0 -161 53.5t-58 146.5q0 96 58 147.5t156 51.5h234v-78h-217q-67 0 -106 -30t-39 -91q0 -60 38.5 -91t106.5 -31h388v99l184 -138z" />
    <glyph glyph-name="uni21B0" unicode="&#x21b0;" horiz-adv-x="803" 
d="M725 0h-83v558h-381v-99l-183 138l183 138v-99h464v-636z" />
    <glyph glyph-name="uni21B1" unicode="&#x21b1;" horiz-adv-x="803" 
d="M161 558v-558h-83v636h464v99l183 -138l-183 -138v99h-381z" />
    <glyph glyph-name="uni21B2" unicode="&#x21b2;" horiz-adv-x="803" 
d="M642 152v558h83v-636h-464v-99l-183 138l183 138v-99h381z" />
    <glyph glyph-name="uni21B3" unicode="&#x21b3;" horiz-adv-x="803" 
d="M78 710h83v-558h381v99l183 -138l-183 -138v99h-464v636z" />
    <glyph glyph-name="uni21B4" unicode="&#x21b4;" horiz-adv-x="894" 
d="M817 165l-139 -185l-139 185h97v473h-558v78h642v-551h97z" />
    <glyph glyph-name="uni21BB" unicode="&#x21bb;" horiz-adv-x="990" 
d="M774 184l-139 185h100q-4 84 -43 145.5t-103 94.5t-141 33q-81 0 -145.5 -36.5t-101 -102t-36.5 -149.5q0 -86 37.5 -151.5t102 -101.5t143.5 -36q62 0 119 24t98 68l52 -64q-52 -53 -121 -81.5t-148 -28.5q-101 0 -185.5 46.5t-134.5 130.5t-50 193q0 107 49.5 192
t134.5 132t186 47q100 0 183 -44t133 -125t54 -186h95z" />
    <glyph glyph-name="uni21C4" unicode="&#x21c4;" horiz-adv-x="1043" 
d="M258 411v-98l-180 136l180 135v-97h636v-76h-636zM966 210l-181 -135v98h-637v75h638v97z" />
    <glyph glyph-name="uni21C5" unicode="&#x21c5;" horiz-adv-x="686" 
d="M510 31h-82v534h-98l139 185l139 -185h-98v-534zM356 147l-140 -186l-138 186h97v535h83v-535h98z" />
    <glyph glyph-name="partialdiff" unicode="&#x2202;" horiz-adv-x="622" 
d="M492 624.5q74 -96.5 74 -286.5q0 -171 -71 -263t-203 -92q-74 0 -130.5 29.5t-87.5 84.5t-31 128q0 69 28.5 121.5t80 82t120.5 29.5q56 0 100.5 -21t74.5 -62q-4 244 -174 244q-58 0 -123 -31l-45 91q82 42 172 42q141 0 215 -96.5zM406 126.5q39 50.5 41 140.5
q-25 50 -61 75t-86 25q-62 0 -98.5 -38t-36.5 -103q0 -69 36 -109.5t98 -40.5q68 0 107 50.5z" />
    <glyph glyph-name="emptyset" unicode="&#x2205;" horiz-adv-x="548" 
d="M509 516l-56 -61q50 -61 50 -151q0 -67 -29 -119.5t-81 -81.5t-119 -29q-79 0 -136 40l-56 -61l-43 39l56 61q-50 61 -50 151q0 67 29 119.5t81 82t119 29.5q80 0 137 -40l55 60zM162 226l184 198q-31 20 -72 20q-58 0 -94.5 -39t-36.5 -101q0 -45 19 -78zM386 382
l-184 -198q31 -20 72 -20q58 0 94.5 39t36.5 101q0 45 -19 78z" />
    <glyph glyph-name="uni2206" unicode="&#x2206;" horiz-adv-x="634" 
d="M622 0h-610l239 710h135zM470 96l-153 485l-158 -485h311z" />
    <glyph glyph-name="product" unicode="&#x220f;" horiz-adv-x="640" 
d="M571 -88h-116v689h-270v-689h-116v793h502v-793z" />
    <glyph glyph-name="summation" unicode="&#x2211;" horiz-adv-x="590" 
d="M545 -88h-495v92l263 323l-250 287v91h470v-98h-329l246 -280l-264 -317h359v-98z" />
    <glyph glyph-name="minus" unicode="&#x2212;" 
d="M548 282h-476v92h476v-92z" />
    <glyph glyph-name="radical" unicode="&#x221a;" 
d="M41 238v93h149l79 -281l202 684h108l-254 -828h-110l-105 332h-69z" />
    <glyph glyph-name="infinity" unicode="&#x221e;" 
d="M540 437.5q38 -41.5 38 -108.5q0 -66 -39 -109t-99 -43q-80 0 -131 80q-26 -40 -55.5 -60t-73.5 -20q-61 0 -99.5 41.5t-38.5 108.5q0 66 39.5 109t98.5 43q80 0 131 -79q26 39 55.5 59t73.5 20q62 0 100 -41.5zM233.5 275.5q16.5 15.5 35.5 50.5q-19 36 -37 53t-44 17
q-28 0 -43.5 -18t-15.5 -50t16 -50t45 -18q27 0 43.5 15.5zM475.5 278q15.5 18 15.5 50q0 31 -16 49.5t-44 18.5t-44.5 -15.5t-35.5 -50.5q18 -35 36.5 -52.5t45.5 -17.5t42.5 18z" />
    <glyph glyph-name="integral" unicode="&#x222b;" 
d="M112 -113v92q14 -2 38 -2q60 0 83 26t23 92v417q0 94 48.5 148t147.5 54q22 0 62 -4v-92q-23 4 -50 4q-50 0 -71 -29.5t-21 -90.5v-418q0 -200 -215 -200q-21 0 -45 3z" />
    <glyph glyph-name="approxequal" unicode="&#x2248;" 
d="M370 362.5q-27 7.5 -68 21.5q-34 13 -59 20t-47 7q-34 0 -68 -12t-57 -31v95q20 18 55.5 30t69.5 12q32 0 61.5 -8t68.5 -23q33 -13 55 -19t43 -6q35 0 68.5 12t55.5 31v-95q-18 -18 -53.5 -30t-70.5 -12q-27 0 -54 7.5zM370 171.5q-27 7.5 -68 21.5q-34 13 -59 20t-47 7
q-34 0 -67.5 -12t-57.5 -31v95q20 17 56 29t69 12q32 0 61.5 -8t68.5 -23q33 -13 55 -19t43 -6q35 0 68.5 12t55.5 31v-95q-18 -18 -53 -29.5t-71 -11.5q-27 0 -54 7.5z" />
    <glyph glyph-name="notequal" unicode="&#x2260;" 
d="M548 471v-93h-183l-39 -98h222v-93h-259l-49 -124h-69l49 124h-148v93h185l39 98h-224v93h261l47 120h69l-47 -120h146z" />
    <glyph glyph-name="lessequal" unicode="&#x2264;" 
d="M75 418l470 156v-93l-343 -107l343 -107v-94l-470 156v89zM544 33h-469v92h469v-92z" />
    <glyph glyph-name="greaterequal" unicode="&#x2265;" 
d="M75 481v93l470 -156v-89l-470 -156v94l343 107zM545 33h-469v92h469v-92z" />
    <glyph glyph-name="uni2460" unicode="&#x2460;" horiz-adv-x="823" 
d="M382 433q-13 -12 -32.5 -18.5t-41.5 -6.5h-15v76h10q72 0 94 64h67v-386h-82v271zM225 29q-85 46 -135.5 130.5t-50.5 195.5q0 112 50.5 196.5t135.5 130t186 45.5q102 0 187 -45.5t135.5 -130t50.5 -196.5q0 -111 -50.5 -195.5t-135.5 -130.5t-187 -46q-101 0 -186 46z
M568.5 75q71.5 39 113.5 111.5t42 168.5t-42 168.5t-113.5 111.5t-157.5 39q-85 0 -156.5 -39t-113.5 -111.5t-42 -168.5t42 -168.5t113.5 -111.5t156.5 -39q86 0 157.5 39z" />
    <glyph glyph-name="uni2461" unicode="&#x2461;" horiz-adv-x="823" 
d="M259 235q69 40 111.5 70t69.5 64t27 72q0 29 -15 44t-44 15q-30 0 -46.5 -15.5t-16.5 -43.5q0 -12 5 -30l-87 7q-3 15 -3 31q0 55 40.5 87t111.5 32q68 0 106 -31.5t38 -89.5q0 -65 -52.5 -117t-129.5 -90h187v-67h-302v62zM225 29q-85 46 -135.5 130.5t-50.5 195.5
q0 112 50.5 196.5t135.5 130t186 45.5q102 0 187 -45.5t135.5 -130t50.5 -196.5q0 -111 -50.5 -195.5t-135.5 -130.5t-187 -46q-101 0 -186 46zM568.5 75q71.5 39 113.5 111.5t42 168.5t-42 168.5t-113.5 111.5t-157.5 39q-85 0 -156.5 -39t-113.5 -111.5t-42 -168.5
t42 -168.5t113.5 -111.5t156.5 -39q86 0 157.5 39z" />
    <glyph glyph-name="uni2462" unicode="&#x2462;" horiz-adv-x="823" 
d="M297 187.5q-42 33.5 -43 91.5l85 8q0 -32 19.5 -50t53.5 -18q66 0 66 57q0 51 -75 51h-31v61h29q33 0 50 14t17 38q0 25 -16 38.5t-45 13.5q-31 0 -49 -18.5t-18 -51.5l-83 10q0 57 42 91t113 34q68 0 105.5 -28.5t37.5 -78.5q0 -33 -22 -57t-59 -31q44 -6 68.5 -30
t24.5 -63q0 -53 -42.5 -84t-113.5 -31q-72 0 -114 33.5zM225 29q-85 46 -135.5 130.5t-50.5 195.5q0 112 50.5 196.5t135.5 130t186 45.5q102 0 187 -45.5t135.5 -130t50.5 -196.5q0 -111 -50.5 -195.5t-135.5 -130.5t-187 -46q-101 0 -186 46zM568.5 75
q71.5 39 113.5 111.5t42 168.5t-42 168.5t-113.5 111.5t-157.5 39q-85 0 -156.5 -39t-113.5 -111.5t-42 -168.5t42 -168.5t113.5 -111.5t156.5 -39q86 0 157.5 39z" />
    <glyph glyph-name="uni2463" unicode="&#x2463;" horiz-adv-x="823" 
d="M560 313v-62h-61v-86h-82v86h-191v59l180 241h93v-238h61zM417 313v160l-118 -160h118zM225 29q-85 46 -135.5 130.5t-50.5 195.5q0 112 50.5 196.5t135.5 130t186 45.5q102 0 187 -45.5t135.5 -130t50.5 -196.5q0 -111 -50.5 -195.5t-135.5 -130.5t-187 -46
q-101 0 -186 46zM568.5 75q71.5 39 113.5 111.5t42 168.5t-42 168.5t-113.5 111.5t-157.5 39q-85 0 -156.5 -39t-113.5 -111.5t-42 -168.5t42 -168.5t113.5 -111.5t156.5 -39q86 0 157.5 39z" />
    <glyph glyph-name="uni2464" unicode="&#x2464;" horiz-adv-x="823" 
d="M306.5 186q-40.5 28 -49.5 78l82 13q5 -25 23 -39.5t45 -14.5q34 0 53 19t19 53t-18 54.5t-51 20.5q-25 0 -43.5 -13t-25.5 -36l-75 6l26 225h250v-67h-190l-12 -96q29 41 94 41q60 0 94.5 -35.5t34.5 -96.5q0 -65 -41.5 -102.5t-112.5 -37.5q-62 0 -102.5 28zM225 29
q-85 46 -135.5 130.5t-50.5 195.5q0 112 50.5 196.5t135.5 130t186 45.5q102 0 187 -45.5t135.5 -130t50.5 -196.5q0 -111 -50.5 -195.5t-135.5 -130.5t-187 -46q-101 0 -186 46zM568.5 75q71.5 39 113.5 111.5t42 168.5t-42 168.5t-113.5 111.5t-157.5 39q-85 0 -156.5 -39
t-113.5 -111.5t-42 -168.5t42 -168.5t113.5 -111.5t156.5 -39q86 0 157.5 39z" />
    <glyph glyph-name="uni2465" unicode="&#x2465;" horiz-adv-x="823" 
d="M529 388q34 -35 34 -96t-41 -99.5t-107 -38.5q-78 0 -121 51t-43 144q0 96 43.5 152t121.5 56q61 0 96.5 -26.5t44.5 -76.5l-80 -12q-11 50 -63 50q-39 0 -61 -32.5t-23 -94.5q30 58 107 58q58 0 92 -35zM465 236.5q19 19.5 19 51.5q0 33 -19.5 53.5t-51.5 20.5
q-28 0 -48.5 -15t-31.5 -42q15 -88 80 -88q33 0 52 19.5zM225 29q-85 46 -135.5 130.5t-50.5 195.5q0 112 50.5 196.5t135.5 130t186 45.5q102 0 187 -45.5t135.5 -130t50.5 -196.5q0 -111 -50.5 -195.5t-135.5 -130.5t-187 -46q-101 0 -186 46zM568.5 75
q71.5 39 113.5 111.5t42 168.5t-42 168.5t-113.5 111.5t-157.5 39q-85 0 -156.5 -39t-113.5 -111.5t-42 -168.5t42 -168.5t113.5 -111.5t156.5 -39q86 0 157.5 39z" />
    <glyph glyph-name="uni2466" unicode="&#x2466;" horiz-adv-x="823" 
d="M267 478v70h289v-65q-137 -130 -138 -311v-10h-93v5q1 84 40.5 166t105.5 145h-204zM225 29q-85 46 -135.5 130.5t-50.5 195.5q0 112 50.5 196.5t135.5 130t186 45.5q102 0 187 -45.5t135.5 -130t50.5 -196.5q0 -111 -50.5 -195.5t-135.5 -130.5t-187 -46q-101 0 -186 46
zM568.5 75q71.5 39 113.5 111.5t42 168.5t-42 168.5t-113.5 111.5t-157.5 39q-85 0 -156.5 -39t-113.5 -111.5t-42 -168.5t42 -168.5t113.5 -111.5t156.5 -39q86 0 157.5 39z" />
    <glyph glyph-name="uni2467" unicode="&#x2467;" horiz-adv-x="823" 
d="M551.5 334.5q21.5 -25.5 21.5 -65.5q0 -52 -45 -83.5t-120 -31.5q-74 0 -117.5 29.5t-43.5 78.5q0 37 19.5 59.5t61.5 34.5q-34 14 -51.5 36.5t-17.5 57.5q0 47 40.5 77t106.5 30q67 0 108 -26.5t41 -71.5q0 -32 -16 -52.5t-51 -32.5q42 -14 63.5 -39.5zM357.5 486
q-18.5 -13 -18.5 -36q0 -22 17 -34.5t51 -20.5l25 -6q23 10 33 23.5t10 33.5q0 25 -18.5 39t-50.5 14q-30 0 -48.5 -13zM466 230q21 15 21 40q0 24 -18 38t-52 22l-32 9q-27 -10 -39.5 -26t-12.5 -39q0 -27 20.5 -43t56.5 -16q35 0 56 15zM225 29q-85 46 -135.5 130.5
t-50.5 195.5q0 112 50.5 196.5t135.5 130t186 45.5q102 0 187 -45.5t135.5 -130t50.5 -196.5q0 -111 -50.5 -195.5t-135.5 -130.5t-187 -46q-101 0 -186 46zM568.5 75q71.5 39 113.5 111.5t42 168.5t-42 168.5t-113.5 111.5t-157.5 39q-85 0 -156.5 -39t-113.5 -111.5
t-42 -168.5t42 -168.5t113.5 -111.5t156.5 -39q86 0 157.5 39z" />
    <glyph glyph-name="uni2468" unicode="&#x2468;" horiz-adv-x="823" 
d="M525.5 507.5q41.5 -49.5 41.5 -146.5q0 -99 -40.5 -153t-123.5 -54q-60 0 -97 26.5t-45 75.5l79 15q13 -52 68 -52q72 0 78 118q-18 -19 -43 -29t-54 -10q-61 0 -98 35t-37 91q0 59 41 96t110 37q79 0 120.5 -49.5zM450.5 371.5q20.5 11.5 34.5 32.5q-5 46 -24 68t-55 22
q-33 0 -52.5 -18.5t-19.5 -48.5t19.5 -48.5t51.5 -18.5q25 0 45.5 11.5zM225 29q-85 46 -135.5 130.5t-50.5 195.5q0 112 50.5 196.5t135.5 130t186 45.5q102 0 187 -45.5t135.5 -130t50.5 -196.5q0 -111 -50.5 -195.5t-135.5 -130.5t-187 -46q-101 0 -186 46zM568.5 75
q71.5 39 113.5 111.5t42 168.5t-42 168.5t-113.5 111.5t-157.5 39q-85 0 -156.5 -39t-113.5 -111.5t-42 -168.5t42 -168.5t113.5 -111.5t156.5 -39q86 0 157.5 39z" />
    <glyph glyph-name="uni24EA" unicode="&#x24ea;" horiz-adv-x="823" 
d="M283.5 207q-45.5 53 -45.5 148t45.5 148.5t126.5 53.5q82 0 127.5 -53.5t45.5 -149.5q0 -95 -45 -147.5t-127 -52.5t-127.5 53zM474 254.5q22 34.5 22 99.5q0 66 -22.5 101.5t-63.5 35.5q-40 0 -62 -35.5t-22 -100.5q0 -67 21.5 -101t63.5 -34q41 0 63 34.5zM225 29
q-85 46 -135.5 130.5t-50.5 195.5q0 112 50.5 196.5t135.5 130t186 45.5q102 0 187 -45.5t135.5 -130t50.5 -196.5q0 -111 -50.5 -195.5t-135.5 -130.5t-187 -46q-101 0 -186 46zM568.5 75q71.5 39 113.5 111.5t42 168.5t-42 168.5t-113.5 111.5t-157.5 39q-85 0 -156.5 -39
t-113.5 -111.5t-42 -168.5t42 -168.5t113.5 -111.5t156.5 -39q86 0 157.5 39z" />
    <glyph glyph-name="uni24FF" unicode="&#x24ff;" horiz-adv-x="823" 
d="M225 29q-85 46 -135.5 130.5t-50.5 195.5t50.5 195.5t135.5 130.5t186 46q102 0 187 -46t135.5 -130.5t50.5 -195.5t-50.5 -195.5t-135.5 -130.5t-187 -46q-101 0 -186 46zM540 206.5q46 52.5 46 148.5t-46 149t-128 53q-83 0 -128.5 -53t-45.5 -149t45.5 -148.5
t128.5 -52.5q82 0 128 52.5zM351 256.5q-21 33.5 -21 98.5t21.5 99t60.5 34t60.5 -34t21.5 -99t-21.5 -98.5t-60.5 -33.5q-40 0 -61 33.5z" />
    <glyph glyph-name="lozenge" unicode="&#x25ca;" horiz-adv-x="558" 
d="M529 355l-201 -372h-100l-199 372l199 372h100zM421 355l-143 271l-140 -271l140 -271z" />
    <glyph glyph-name="circle" unicode="&#x25cb;" horiz-adv-x="823" 
d="M225 29q-85 46 -135.5 130.5t-50.5 195.5q0 112 50.5 196.5t135.5 130t186 45.5q102 0 187 -45.5t135.5 -130t50.5 -196.5q0 -111 -50.5 -195.5t-135.5 -130.5t-187 -46q-101 0 -186 46zM568.5 75q71.5 39 113.5 111.5t42 168.5t-42 168.5t-113.5 111.5t-157.5 39
q-85 0 -156.5 -39t-113.5 -111.5t-42 -168.5t42 -168.5t113.5 -111.5t156.5 -39q86 0 157.5 39z" />
    <glyph glyph-name="uni25CF" unicode="&#x25cf;" horiz-adv-x="823" 
d="M225 29q-85 46 -135.5 130.5t-50.5 195.5t50.5 195.5t135.5 130.5t186 46q102 0 187 -46t135.5 -130.5t50.5 -195.5t-50.5 -195.5t-135.5 -130.5t-187 -46q-101 0 -186 46z" />
    <glyph glyph-name="uni2776" unicode="&#x2776;" horiz-adv-x="823" 
d="M225 29q-85 46 -135.5 130.5t-50.5 195.5t50.5 195.5t135.5 130.5t186 46q102 0 187 -46t135.5 -130.5t50.5 -195.5t-50.5 -195.5t-135.5 -130.5t-187 -46q-101 0 -186 46zM380 162h89v386h-71q-13 -33 -36 -48t-60 -15h-10v-81h15q22 0 41.5 6.5t31.5 18.5v-267z" />
    <glyph glyph-name="uni2777" unicode="&#x2777;" horiz-adv-x="823" 
d="M225 29q-85 46 -135.5 130.5t-50.5 195.5t50.5 195.5t135.5 130.5t186 46q102 0 187 -46t135.5 -130.5t50.5 -195.5t-50.5 -195.5t-135.5 -130.5t-187 -46q-101 0 -186 46zM258 173h307v71h-185q78 37 129.5 88t51.5 116q0 57 -39 89t-109 32q-71 0 -113 -32.5t-42 -87.5
q0 -16 3 -30l92 -9q-4 16 -4 31q0 27 16 42t44 15q27 0 41.5 -15t14.5 -43q0 -37 -26 -69.5t-67 -61t-114 -71.5v-65z" />
    <glyph glyph-name="uni2778" unicode="&#x2778;" horiz-adv-x="823" 
d="M225 29q-85 46 -135.5 130.5t-50.5 195.5t50.5 195.5t135.5 130.5t186 46q102 0 187 -46t135.5 -130.5t50.5 -195.5t-50.5 -195.5t-135.5 -130.5t-187 -46q-101 0 -186 46zM527.5 185q42.5 31 42.5 84q0 39 -24 63t-69 30q37 7 60 31t23 56q0 51 -38 79.5t-108 28.5
q-72 0 -114.5 -33.5t-42.5 -90.5l89 -11q0 32 17 50t46 18q28 0 43 -13.5t15 -37.5q0 -25 -16.5 -38.5t-47.5 -13.5h-23v-60h24q72 0 72 -51q0 -26 -16 -40t-47 -14t-49.5 17.5t-19.5 48.5l-91 -8q1 -58 43.5 -92t116.5 -34q72 0 114.5 31z" />
    <glyph glyph-name="uni2779" unicode="&#x2779;" horiz-adv-x="823" 
d="M225 29q-85 46 -135.5 130.5t-50.5 195.5t50.5 195.5t135.5 130.5t186 46q102 0 187 -46t135.5 -130.5t50.5 -195.5t-50.5 -195.5t-135.5 -130.5t-187 -46q-101 0 -186 46zM419 254v-85h87v85h61v66h-61v235h-98l-180 -239v-62h191zM419 320h-114l114 154v-154z" />
    <glyph glyph-name="uni277A" unicode="&#x277a;" horiz-adv-x="823" 
d="M225 29q-85 46 -135.5 130.5t-50.5 195.5t50.5 195.5t135.5 130.5t186 46q102 0 187 -46t135.5 -130.5t50.5 -195.5t-50.5 -195.5t-135.5 -130.5t-187 -46q-101 0 -186 46zM525.5 195.5q41.5 37.5 41.5 103.5q0 61 -34.5 96.5t-94.5 35.5q-65 0 -94 -39l12 90h190v70
h-255l-26 -224l80 -7q7 22 24.5 34t42.5 12q31 0 48.5 -19t17.5 -52q0 -32 -18.5 -50.5t-50.5 -18.5q-26 0 -43.5 14t-22.5 38l-87 -14q9 -50 50 -78.5t105 -28.5q73 0 114.5 37.5z" />
    <glyph glyph-name="uni277B" unicode="&#x277b;" horiz-adv-x="823" 
d="M225 29q-85 46 -135.5 130.5t-50.5 195.5t50.5 195.5t135.5 130.5t186 46q102 0 187 -46t135.5 -130.5t50.5 -195.5t-50.5 -195.5t-135.5 -130.5t-187 -46q-101 0 -186 46zM526 193q42 39 42 101q0 61 -34.5 95t-91.5 34q-80 0 -107 -58q1 61 22 93t59 32q49 0 60 -48
l85 12q-18 103 -143 103q-78 0 -123 -56t-45 -152q0 -93 44.5 -144t122.5 -51q67 0 109 39zM338 306q10 25 30 39t47 14q30 0 49 -19.5t19 -50.5t-18 -49.5t-50 -18.5q-64 0 -77 85z" />
    <glyph glyph-name="uni277C" unicode="&#x277c;" horiz-adv-x="823" 
d="M225 29q-85 46 -135.5 130.5t-50.5 195.5t50.5 195.5t135.5 130.5t186 46q102 0 187 -46t135.5 -130.5t50.5 -195.5t-50.5 -195.5t-135.5 -130.5t-187 -46q-101 0 -186 46zM423 162q0 98 32 173.5t103 143.5v69h-292v-74h204q-69 -64 -107 -145t-39 -167h99z" />
    <glyph glyph-name="uni277D" unicode="&#x277d;" horiz-adv-x="823" 
d="M225 29q-85 46 -135.5 130.5t-50.5 195.5t50.5 195.5t135.5 130.5t186 46q102 0 187 -46t135.5 -130.5t50.5 -195.5t-50.5 -195.5t-135.5 -130.5t-187 -46q-101 0 -186 46zM531.5 185q45.5 31 45.5 83q0 80 -85 107q35 13 51 33t16 51q0 45 -42 71.5t-110 26.5
q-67 0 -108.5 -30t-41.5 -78q0 -35 17.5 -57.5t52.5 -36.5q-42 -12 -61.5 -34.5t-19.5 -58.5q0 -49 44.5 -78.5t119.5 -29.5q76 0 121.5 31zM410 397q-34 8 -50.5 20t-16.5 33q0 22 17.5 34.5t47.5 12.5q31 0 48.5 -14t17.5 -38q0 -19 -9 -32t-30 -22zM357 234
q-20 15 -20 40q0 22 11.5 37t37.5 26l30 -8q34 -7 52 -21t18 -37q0 -24 -20 -38t-54 -14q-35 0 -55 15z" />
    <glyph glyph-name="uni277E" unicode="&#x277e;" horiz-adv-x="823" 
d="M225 29q-85 46 -135.5 130.5t-50.5 195.5t50.5 195.5t135.5 130.5t186 46q102 0 187 -46t135.5 -130.5t50.5 -195.5t-50.5 -195.5t-135.5 -130.5t-187 -46q-101 0 -186 46zM530.5 207.5q41.5 53.5 41.5 153.5q0 97 -42 146.5t-122 49.5q-71 0 -112.5 -37t-41.5 -96
q0 -56 37.5 -91t98.5 -35q28 0 53 9t43 26q-7 -111 -76 -111q-26 0 -42.5 13.5t-21.5 36.5l-85 -15q9 -50 46.5 -76.5t98.5 -26.5q83 0 124.5 53.5zM358 380q-19 18 -19 47t19 47t52 18q35 0 53.5 -21.5t22.5 -67.5q-14 -20 -34.5 -30.5t-43.5 -10.5q-31 0 -50 18z" />
    <glyph glyph-name="uniE000" unicode="&#xe000;" horiz-adv-x="894" 
d="M356 165l-139 -185l-139 185h97v551h642v-78h-559v-473h98z" />
    <glyph glyph-name="uniF8FF" unicode="&#xf8ff;" horiz-adv-x="1018" 
d="M998 710v-47h-552v-47h552v-48h-552v-47h552v-48h-552v-47h552v-47h-552v-48h552v-47h-978v426h978zM72 652l-5 15l13 9h-16l-5 15l-4 -15h-16l13 -9l-5 -15l12 9zM146 691l-4 -15h-16l13 -9l-5 -15l12 10l13 -10l-5 15l12 9h-15zM233 691l-4 -15h-16l13 -9l-5 -15l12 10
l13 -10l-5 15l12 9h-15zM320 691l-5 -15h-15l13 -9l-5 -15l12 10l13 -10l-5 15l12 9h-15zM420 652l-5 15l12 9h-15l-5 15l-5 -15h-15l12 -9l-4 -15l12 10zM103 647l-5 -15h-15l12 -9l-4 -14l12 9l12 -9l-4 14l12 9h-15zM376 609l-5 14l13 9h-16l-4 15l-5 -15h-15l12 -9
l-5 -14l13 9zM193 364h80v93h94v80h-94v94h-80v-94h-93v-80h93v-93zM72 565l-5 15l13 9h-16l-5 14l-4 -14h-16l13 -9l-5 -15l12 9zM146 603l-4 -14h-16l13 -9l-5 -15l12 9l13 -9l-5 15l12 9h-15zM320 603l-5 -14h-15l13 -9l-5 -15l12 9l13 -9l-5 15l12 9h-15zM420 565l-5 15
l12 9h-15l-5 14l-5 -14h-15l12 -9l-4 -15l12 9zM72 478l-5 14l13 10h-16l-5 14l-4 -14h-16l13 -10l-5 -14l12 9zM420 478l-5 14l12 10h-15l-5 14l-5 -14h-15l12 -10l-4 -14l12 9zM72 391l-5 14l13 9h-16l-5 15l-4 -15h-16l13 -9l-5 -14l12 9zM159 391l-5 14l12 9h-15l-5 15
l-4 -15h-16l13 -9l-5 -14l12 9zM333 391l-5 14l12 9h-15l-5 15l-5 -15h-15l13 -9l-5 -14l12 9zM420 391l-5 14l12 9h-15l-5 15l-5 -15h-15l12 -9l-4 -14l12 9zM103 356l12 -9l-4 15l12 9h-15l-5 14l-5 -14h-15l12 -9l-4 -15zM364 356l12 -9l-5 15l13 9h-16l-4 14l-5 -14h-15
l12 -9l-5 -15zM59 312l13 -9l-5 15l13 9h-16l-5 15l-4 -15h-16l13 -9l-5 -15zM146 312l13 -9l-5 15l12 9h-15l-5 15l-4 -15h-16l13 -9l-5 -15zM233 312l13 -9l-5 15l12 9h-15l-5 15l-4 -15h-16l13 -9l-5 -15zM320 312l13 -9l-5 15l12 9h-15l-5 15l-5 -15h-15l13 -9l-5 -15z
M407 312l13 -9l-5 15l12 9h-15l-5 15l-5 -15h-15l12 -9l-4 -15zM997 189h-977v48h977v-48zM998 95h-978v47h978v-47zM998 0h-978v47h978v-47z" />
    <glyph glyph-name="uniFEFF" unicode="&#xfeff;" horiz-adv-x="0" 
 />
    <glyph glyph-name="uni004A0301" horiz-adv-x="394" 
d="M323 200q0 -111 -59.5 -161.5t-159.5 -50.5q-63 0 -94 8v111q31 -5 77 -5q51 0 79 26t28 91v491h129v-510zM308 753h-99l93 113h115z" />
    <glyph glyph-name="i.loclTRK" horiz-adv-x="258" 
d="M189 0h-120v500h120v-500zM194 583h-130v125h130v-125z" />
    <glyph glyph-name="uni006A0301" horiz-adv-x="266" 
d="M-28 -196v92l47 -2q32 0 45 18t13 66v522h120v-531q0 -81 -35.5 -126t-121.5 -45q-44 0 -68 6zM188 574h-98l100 149h126z" />
    <glyph glyph-name="zero.zero" horiz-adv-x="650" 
d="M534 614q74 -96 74 -267q0 -170 -74 -266t-209 -96t-208.5 96t-73.5 266q0 171 73.5 267t208.5 96t209 -96zM208 543q-40 -69 -40 -196q0 -74 14 -130l257 331q-40 64 -114 64q-77 0 -117 -69zM442.5 152q40.5 69 40.5 195q0 76 -15 131l-257 -332q41 -63 114 -63
q77 0 117.5 69z" />
    <glyph glyph-name="zero.tf" 
d="M47 347q0 363 263 363t263 -363q0 -362 -263 -362t-263 362zM415.5 140.5q35.5 60.5 36.5 206.5q-1 147 -36.5 207.5t-105.5 60.5t-105.5 -60.5t-36.5 -207.5q1 -146 36.5 -206.5t105.5 -60.5t105.5 60.5z" />
    <glyph glyph-name="one.tf" 
d="M393 104h165v-104h-474v104h186v414q-46 -46 -147 -46h-33v110h28q72 0 113 29.5t60 83.5h102v-591z" />
    <glyph glyph-name="two.tf" 
d="M66 94q125 92 236 200q58 56 81.5 101.5t23.5 100.5q0 54 -28 83.5t-78 29.5q-51 0 -79.5 -29.5t-28.5 -80.5q0 -25 6 -57l-122 12q-5 23 -5 49q0 94 63 150.5t170 56.5q108 0 167.5 -55t59.5 -156q0 -67 -32.5 -128t-102.5 -128q-82 -77 -174 -140h319v-103h-476v94z
" />
    <glyph glyph-name="three.tf" 
d="M177.5 12.5q-56.5 27.5 -87 77t-32.5 114.5l123 13q2 -62 36 -98t96 -36q58 0 90 31t32 87q0 51 -34 81t-98 30h-39v91h37q56 0 85.5 30t29.5 78q0 49 -27.5 75.5t-79.5 26.5q-58 0 -90 -36.5t-32 -103.5l-119 19q0 101 66.5 159.5t180.5 58.5q105 0 164.5 -51t59.5 -138
q0 -54 -34 -97t-89 -57q68 -13 106 -58t38 -116q0 -62 -30.5 -109t-86.5 -73t-131 -26q-78 0 -134.5 27.5z" />
    <glyph glyph-name="four.tf" 
d="M469 0h-114v166h-316v83l296 446h134v-437h107v-92h-107v-166zM355 258v228q0 51 2 96h-1q-8 -23 -17.5 -40.5t-28.5 -46.5l-119 -179q-5 -7 -18 -26.5t-25 -31.5h207z" />
    <glyph glyph-name="five.tf" 
d="M141.5 36q-64.5 51 -76.5 138l120 17q9 -49 41 -77.5t83 -28.5q59 0 92.5 38t33.5 105q0 71 -32 112t-92 41q-48 0 -79.5 -26.5t-43.5 -74.5l-108 11l42 404h397v-101h-312l-23 -201q23 40 63.5 61t94.5 21q99 0 156 -64.5t57 -177.5q0 -74 -31 -130t-88 -87t-132 -31
q-98 0 -162.5 51z" />
    <glyph glyph-name="six.tf" 
d="M500 402q58 -64 58 -171q0 -73 -30 -129t-84 -86.5t-125 -30.5q-128 0 -195.5 89.5t-67.5 259.5q0 179 70.5 277.5t199.5 98.5q93 0 150.5 -45.5t72.5 -131.5l-119 -22q-19 102 -107 102q-70 0 -108 -61t-40 -178q24 44 68 68t101 24q98 0 156 -64zM405.5 121.5
q32.5 39.5 32.5 106.5q0 66 -32.5 105t-88.5 39q-50 0 -87 -31.5t-53 -89.5q8 -79 45 -124t96 -45q55 0 87.5 39.5z" />
    <glyph glyph-name="seven.tf" 
d="M180 11q0 149 63.5 295.5t180.5 281.5h-351v107h480v-95q-118 -127 -178 -274t-60 -305v-21h-135v11z" />
    <glyph glyph-name="eight.tf" 
d="M531.5 308q34.5 -45 34.5 -119q0 -61 -31.5 -107t-89.5 -71.5t-134 -25.5q-77 0 -135 24t-89.5 68.5t-31.5 103.5q0 137 133 175q-55 26 -82.5 66t-27.5 102q0 55 29 97t81.5 65.5t120.5 23.5q104 0 166 -47.5t62 -129.5q0 -114 -111 -153q71 -27 105.5 -72zM227 596.5
q-29 -26.5 -29 -72.5q0 -40 25.5 -65.5t78.5 -42.5l37 -10q44 20 63 46.5t19 67.5q0 49 -30.5 76t-84.5 27q-50 0 -79 -26.5zM409 108.5q35 30.5 35 82.5q0 44 -27 72t-83 46l-60 18q-52 -22 -74.5 -52t-22.5 -77q0 -54 37.5 -87t98.5 -33t96 30.5z" />
    <glyph glyph-name="nine.tf" 
d="M491.5 621.5q66.5 -88.5 66.5 -261.5q0 -174 -64.5 -274.5t-197.5 -100.5q-98 0 -158 47t-75 137l119 23q9 -52 38.5 -80.5t79.5 -28.5q136 0 138 251q-24 -40 -64.5 -60.5t-92.5 -20.5q-67 0 -118.5 27t-80.5 77.5t-29 120.5q0 67 29.5 119.5t84.5 82.5t128 30
q130 0 196.5 -88.5zM385 377.5q38 29.5 52 76.5q-5 69 -38 115t-102 46q-56 0 -90 -37t-34 -98q0 -59 35.5 -95.5t91.5 -36.5q47 0 85 29.5z" />
    <glyph glyph-name="zero.tf.zero" 
d="M573 347q0 -362 -263 -362t-263 362q0 363 263 363t263 -363zM204.5 554.5q-35.5 -60.5 -36.5 -207.5q0 -69 10 -127l242 325q-33 70 -110 70q-70 0 -105.5 -60.5zM415.5 140.5q35.5 60.5 36.5 206.5q0 70 -10 127l-242 -324q33 -70 110 -70q70 0 105.5 60.5z" />
    <glyph glyph-name="dollar.tf" 
d="M506 41.5q-60 -52.5 -167 -56.5v-92h-45v93q-101 7 -164 60.5t-80 145.5l113 30q14 -63 46.5 -97.5t84.5 -42.5v218l-40 10q-90 24 -136 76.5t-46 128.5q0 87 59.5 138.5t162.5 56.5v90h45v-91q94 -6 152.5 -56t67.5 -138l-109 -32q-13 119 -111 134v-215l48 -13
q92 -25 135.5 -71.5t43.5 -130.5q0 -93 -60 -145.5zM294 414v205q-50 -3 -79 -27.5t-29 -69.5q0 -43 27 -68.5t78 -38.5zM339 79q111 5 111 99q0 44 -26 69.5t-82 40.5l-3 1v-210z" />
    <glyph glyph-name="cent.tf" 
d="M340 80q79 12 95 112l104 -20q-12 -76 -62.5 -126.5t-136.5 -56.5v-83h-50v83q-103 9 -159 82t-56 181q0 109 55 179t160 80v83h50v-83q83 -5 136.5 -51.5t63.5 -128.5l-108 -16q-14 96 -92 108v-343zM212.5 137q26.5 -46 77.5 -56v342q-51 -10 -77.5 -54.5t-26.5 -113.5
q0 -72 26.5 -118z" />
    <glyph glyph-name="sterling.tf" 
d="M583 164q-13 -90 -64 -134.5t-119 -44.5q-25 0 -45.5 3t-48.5 9q-30 7 -53 10.5t-54 3.5q-70 0 -144 -19l-25 78q131 44 131 179q0 37 -7 77h-99v69h83q-8 33 -12.5 58.5t-4.5 53.5q0 96 58 149.5t156 53.5q88 0 142 -42.5t71 -122.5l-114 -27q-9 49 -34 74t-65 25
q-45 0 -70 -26t-25 -81q0 -28 4.5 -54.5t12.5 -60.5h158v-69h-144q5 -32 5 -61q0 -121 -103 -170q23 6 66 6q23 0 45.5 -3t28.5 -4q39 -7 72 -7t57.5 23t30.5 73z" />
    <glyph glyph-name="florin.tf" 
d="M394 593q-19 -23 -27 -82l-10 -77h102v-85h-113l-64 -499h-121l63 499h-95v85h105l8 62q10 80 33.5 126.5t64.5 67t107 20.5q34 0 56 -6v-93q-20 5 -49 5q-41 0 -60 -23z" />
    <glyph glyph-name="yen.tf" 
d="M581 695l-203 -364h163v-64h-170v-67h170v-64h-170v-136h-122v136h-170v64h170v67h-170v64h163l-203 364h134l112 -224q10 -18 15 -32.5t9 -29.5h2q4 15 9 29.5t15 32.5l112 224h134z" />
    <glyph glyph-name="Euro.tf" 
d="M593 137q-29 -72 -90.5 -112t-147.5 -40q-117 0 -186.5 72.5t-86.5 199.5h-77v63h72v20v32v16h-72v63h77q17 125 90 192t192 67q172 0 227 -144l-103 -51q-20 47 -51 73t-79 26q-62 0 -101 -40t-51 -123h229v-63h-233v-8v-44v-16h233v-63h-228q12 -88 51 -131t99 -43
q43 0 77 25t57 74z" />
    <glyph glyph-name="percent.tf" 
d="M150 -16h-77l389 746h76zM60.5 434.5q-37.5 44.5 -37.5 122.5q0 75 37.5 119.5t99.5 44.5q61 0 98.5 -45.5t37.5 -121.5q0 -75 -37.5 -119.5t-97.5 -44.5q-63 0 -100.5 44.5zM201.5 484.5q14.5 24.5 14.5 68.5v5q0 44 -15 69t-41 25q-27 0 -42 -24.5t-15 -67.5v-5
q0 -46 15 -70.5t43 -24.5q26 0 40.5 24.5zM361.5 34q-37.5 45 -37.5 123q0 74 37.5 119t99.5 45q60 0 98 -46t38 -121t-38 -120t-97 -45q-63 0 -100.5 45zM502.5 83.5q14.5 24.5 14.5 68.5v5q0 44 -15 69t-41 25q-27 0 -42 -24.5t-15 -66.5v-6q0 -46 15 -70.5t43 -24.5
q26 0 40.5 24.5z" />
    <glyph glyph-name="perthousand.tf" 
d="M67.5 463q-34.5 39 -34.5 106q0 68 34 106.5t92 38.5q57 0 91 -38.5t34 -106.5q0 -67 -34 -106t-91 -39t-91.5 39zM53 258l490 400v-78l-490 -400v78zM109 564q0 -37 13 -57t37 -20q23 0 36 20t13 57v10q0 37 -13 57t-36 20q-24 0 -37 -20t-13 -57v-10zM553 239
q34 -38 34 -106t-34 -106.5t-92 -38.5q-52 0 -82 35q-30 -35 -83 -35q-57 0 -91 38.5t-34 106.5t33.5 106t91.5 38q53 0 83 -35q30 35 82 35q58 0 92 -38zM346 137q0 37 -13 57.5t-37 20.5q-23 0 -36 -20.5t-13 -57.5v-9q0 -37 13 -57t36 -20q24 0 37 20t13 57v9zM511 137
q0 37 -13 57.5t-37 20.5q-23 0 -36 -20.5t-13 -57.5v-9q0 -37 13 -57t36 -20q24 0 37 20t13 57v9z" />
    <glyph glyph-name="Adieresis.ss05" horiz-adv-x="692" 
d="M680 0h-131l-64 187h-278l-64 -187h-131l264 710h140zM241 285h210l-83 240q-12 35 -21 76h-2q-9 -41 -21 -76zM190 761.5q-18 17.5 -18 44.5t18 44.5t44 17.5q27 0 45 -17.5t18 -44.5t-18 -44.5t-45 -17.5q-26 0 -44 17.5zM414 761.5q-18 17.5 -18 44.5t18 44.5t44 17.5
q27 0 45 -17.5t18 -44.5t-18 -44.5t-45 -17.5q-26 0 -44 17.5z" />
    <glyph glyph-name="uni1EA0.ss05" horiz-adv-x="692" 
d="M680 0h-131l-64 187h-278l-64 -187h-131l264 710h140zM241 285h210l-83 240q-12 35 -21 76h-2q-9 -41 -21 -76zM297.5 -156q-19.5 18 -19.5 46q0 27 19.5 45t48.5 18t48.5 -18t19.5 -45q0 -28 -19.5 -46t-48.5 -18t-48.5 18z" />
    <glyph glyph-name="Cdotaccent.ss05" horiz-adv-x="703" 
d="M188.5 30.5q-74.5 47.5 -112 132t-37.5 193.5q0 111 39.5 194.5t115 130t180.5 46.5q129 0 205.5 -68t90.5 -184l-131 -19q-9 77 -53 121t-117 44q-92 0 -144 -71.5t-52 -192.5q0 -120 52.5 -193t147.5 -73q67 0 112 43t58 118l129 -26q-24 -112 -99.5 -177.5
t-201.5 -65.5q-108 0 -182.5 47.5zM322.5 767.5q-18.5 17.5 -18.5 44.5q0 26 18.5 43.5t46.5 17.5t47 -17.5t19 -43.5q0 -27 -18.5 -44.5t-47.5 -17.5q-28 0 -46.5 17.5z" />
    <glyph glyph-name="Edieresis.ss05" horiz-adv-x="595" 
d="M207 314v-213h339v-101h-468v710h461v-101h-332v-195h315v-100h-315zM155 761.5q-18 17.5 -18 44.5t18 44.5t44 17.5q27 0 45 -17.5t18 -44.5t-18 -44.5t-45 -17.5q-26 0 -44 17.5zM379 761.5q-18 17.5 -18 44.5t18 44.5t44 17.5q27 0 45 -17.5t18 -44.5t-18 -44.5
t-45 -17.5q-26 0 -44 17.5z" />
    <glyph glyph-name="Edotaccent.ss05" horiz-adv-x="595" 
d="M207 314v-213h339v-101h-468v710h461v-101h-332v-195h315v-100h-315zM264.5 767.5q-18.5 17.5 -18.5 44.5q0 26 18.5 43.5t46.5 17.5t47 -17.5t19 -43.5q0 -27 -18.5 -44.5t-47.5 -17.5q-28 0 -46.5 17.5z" />
    <glyph glyph-name="uni1EB8.ss05" horiz-adv-x="595" 
d="M207 314v-213h339v-101h-468v710h461v-101h-332v-195h315v-100h-315zM247.5 -156q-19.5 18 -19.5 46q0 27 19.5 45t48.5 18t48.5 -18t19.5 -45q0 -28 -19.5 -46t-48.5 -18t-48.5 18z" />
    <glyph glyph-name="uni0122.ss05" horiz-adv-x="730" 
d="M185.5 30q-70.5 47 -108.5 131t-38 193q0 110 40.5 194.5t117 131.5t181.5 47q90 0 151.5 -32t94.5 -81t42 -103l-128 -22q-10 56 -49 96t-113 40q-96 0 -150.5 -73.5t-54.5 -196.5q0 -121 53 -194.5t153 -73.5q66 0 107 30t57.5 72t16.5 81v13h-193v99h310v-382h-93
l-10 109q-25 -58 -83.5 -92t-136.5 -34q-96 0 -166.5 47zM420 -65.5q19 -19.5 19 -52.5q0 -24 -12 -48.5t-36 -40.5h-52q48 31 55 72q-13 -13 -35 -13q-21 0 -35.5 14t-14.5 35q0 24 16.5 38.5t43.5 14.5q32 0 51 -19.5z" />
    <glyph glyph-name="Gdotaccent.ss05" horiz-adv-x="730" 
d="M185.5 30q-70.5 47 -108.5 131t-38 193q0 110 40.5 194.5t117 131.5t181.5 47q90 0 151.5 -32t94.5 -81t42 -103l-128 -22q-10 56 -49 96t-113 40q-96 0 -150.5 -73.5t-54.5 -196.5q0 -121 53 -194.5t153 -73.5q66 0 107 30t57.5 72t16.5 81v13h-193v99h310v-382h-93
l-10 109q-25 -58 -83.5 -92t-136.5 -34q-96 0 -166.5 47zM323.5 767.5q-18.5 17.5 -18.5 44.5q0 26 18.5 43.5t46.5 17.5t47 -17.5t19 -43.5q0 -27 -18.5 -44.5t-47.5 -17.5q-28 0 -46.5 17.5z" />
    <glyph glyph-name="Idieresis.ss05" horiz-adv-x="284" 
d="M207 710v-710h-129v710h129zM-14 761.5q-18 17.5 -18 44.5t18 44.5t44 17.5q27 0 45 -17.5t18 -44.5t-18 -44.5t-45 -17.5q-26 0 -44 17.5zM210 761.5q-18 17.5 -18 44.5t18 44.5t44 17.5q27 0 45 -17.5t18 -44.5t-18 -44.5t-45 -17.5q-26 0 -44 17.5z" />
    <glyph glyph-name="Idotaccent.ss05" horiz-adv-x="284" 
d="M207 710v-710h-129v710h129zM95.5 767.5q-18.5 17.5 -18.5 44.5q0 26 18.5 43.5t46.5 17.5t47 -17.5t19 -43.5q0 -27 -18.5 -44.5t-47.5 -17.5q-28 0 -46.5 17.5z" />
    <glyph glyph-name="uni1ECA.ss05" horiz-adv-x="284" 
d="M207 710v-710h-129v710h129zM93.5 -156q-19.5 18 -19.5 46q0 27 19.5 45t48.5 18t48.5 -18t19.5 -45q0 -28 -19.5 -46t-48.5 -18t-48.5 18z" />
    <glyph glyph-name="uni0136.ss05" horiz-adv-x="674" 
d="M662 0h-149l-212 333l-94 -107v-226h-129v710h129v-331l284 331h153l-256 -286zM390 -65.5q19 -19.5 19 -52.5q0 -24 -12 -48.5t-36 -40.5h-52q48 31 55 72q-13 -13 -35 -13q-21 0 -35.5 14t-14.5 35q0 24 16.5 38.5t43.5 14.5q32 0 51 -19.5z" />
    <glyph glyph-name="uni013B.ss05" horiz-adv-x="528" 
d="M516 0h-438v710h129v-604h309v-106zM345 -65.5q19 -19.5 19 -52.5q0 -24 -12 -48.5t-36 -40.5h-52q48 31 55 72q-13 -13 -35 -13q-21 0 -35.5 14t-14.5 35q0 24 16.5 38.5t43.5 14.5q32 0 51 -19.5z" />
    <glyph glyph-name="Ldot.ss05" horiz-adv-x="528" 
d="M516 0h-438v710h129v-604h309v-106zM352.5 314.5q-21.5 21.5 -21.5 53.5q0 33 21.5 54.5t53.5 21.5t53.5 -21.5t21.5 -54.5q0 -32 -21.5 -53.5t-53.5 -21.5t-53.5 21.5z" />
    <glyph glyph-name="uni0145.ss05" horiz-adv-x="731" 
d="M78 0v710h148l267 -465q27 -49 44 -91h2q-2 26 -2 92v464h117v-710h-145l-271 467q-29 51 -43 89h-2q2 -54 2 -94v-462h-117zM415 -65.5q19 -19.5 19 -52.5q0 -24 -12 -48.5t-36 -40.5h-52q48 31 55 72q-13 -13 -35 -13q-21 0 -35.5 14t-14.5 35q0 24 16.5 38.5
t43.5 14.5q32 0 51 -19.5z" />
    <glyph glyph-name="Odieresis.ss05" horiz-adv-x="751" 
d="M198 28.5q-76 45.5 -117.5 130t-41.5 196.5q0 114 41.5 198t117.5 129t178 45t177.5 -45t117 -129t41.5 -198q0 -113 -41.5 -197t-117.5 -129.5t-177 -45.5q-102 0 -178 45.5zM524.5 158q53.5 71 53.5 197t-53.5 197t-148.5 71q-96 0 -149.5 -71t-53.5 -197
q0 -124 54 -196t149 -72t148.5 71zM219 761.5q-18 17.5 -18 44.5t18 44.5t44 17.5q27 0 45 -17.5t18 -44.5t-18 -44.5t-45 -17.5q-26 0 -44 17.5zM443 761.5q-18 17.5 -18 44.5t18 44.5t44 17.5q27 0 45 -17.5t18 -44.5t-18 -44.5t-45 -17.5q-26 0 -44 17.5z" />
    <glyph glyph-name="uni1ECC.ss05" horiz-adv-x="751" 
d="M198 28.5q-76 45.5 -117.5 130t-41.5 196.5q0 114 41.5 198t117.5 129t178 45t177.5 -45t117 -129t41.5 -198q0 -113 -41.5 -197t-117.5 -129.5t-177 -45.5q-102 0 -178 45.5zM524.5 158q53.5 71 53.5 197t-53.5 197t-148.5 71q-96 0 -149.5 -71t-53.5 -197
q0 -124 54 -196t149 -72t148.5 71zM326.5 -156q-19.5 18 -19.5 46q0 27 19.5 45t48.5 18t48.5 -18t19.5 -45q0 -28 -19.5 -46t-48.5 -18t-48.5 18z" />
    <glyph glyph-name="uni0156.ss05" horiz-adv-x="652" 
d="M488 0l-156 285h-125v-285h-129v710h285q130 0 188.5 -58.5t58.5 -154.5q0 -67 -37.5 -120.5t-111.5 -74.5l169 -302h-142zM207 612v-231h135q69 0 100.5 31t31.5 85q0 115 -132 115h-135zM381 -65.5q19 -19.5 19 -52.5q0 -24 -12 -48.5t-36 -40.5h-52q48 31 55 72
q-13 -13 -35 -13q-21 0 -35.5 14t-14.5 35q0 24 16.5 38.5t43.5 14.5q32 0 51 -19.5z" />
    <glyph glyph-name="uni0218.ss05" horiz-adv-x="623" 
d="M120 37q-76 54 -99 145l110 48q19 -65 66 -104.5t126 -39.5q60 0 100.5 25.5t40.5 77.5q0 49 -28.5 72.5t-91.5 36.5l-99 21q-187 38 -187 204q0 61 32 107t91 71.5t138 25.5q104 0 176.5 -43.5t95.5 -129.5l-102 -54q-17 62 -61.5 95.5t-114.5 33.5q-59 0 -94.5 -25.5
t-35.5 -70.5q0 -43 26 -67.5t84 -37.5l104 -22q95 -20 145 -67.5t50 -137.5q0 -62 -31 -111.5t-93 -78t-150 -28.5q-122 0 -198 54zM385 -65.5q19 -19.5 19 -52.5q0 -24 -12 -48.5t-36 -40.5h-52q48 31 55 72q-13 -13 -35 -13q-21 0 -35.5 14t-14.5 35q0 24 16.5 38.5
t43.5 14.5q32 0 51 -19.5z" />
    <glyph glyph-name="uni021A.ss05" horiz-adv-x="577" 
d="M9 710h559v-105h-215v-605h-129v605h-215v105zM338 -65.5q19 -19.5 19 -52.5q0 -24 -12 -48.5t-36 -40.5h-52q48 31 55 72q-13 -13 -35 -13q-21 0 -35.5 14t-14.5 35q0 24 16.5 38.5t43.5 14.5q32 0 51 -19.5z" />
    <glyph glyph-name="Udieresis.ss05" horiz-adv-x="714" 
d="M71 710h129v-455q0 -76 41.5 -119.5t115.5 -43.5t115.5 43.5t41.5 119.5v455h129v-462q0 -80 -33.5 -140t-98 -92.5t-154.5 -32.5t-154.5 32.5t-98 92.5t-33.5 140v462zM201 761.5q-18 17.5 -18 44.5t18 44.5t44 17.5q27 0 45 -17.5t18 -44.5t-18 -44.5t-45 -17.5
q-26 0 -44 17.5zM425 761.5q-18 17.5 -18 44.5t18 44.5t44 17.5q27 0 45 -17.5t18 -44.5t-18 -44.5t-45 -17.5q-26 0 -44 17.5z" />
    <glyph glyph-name="uni1EE4.ss05" horiz-adv-x="714" 
d="M71 710h129v-455q0 -76 41.5 -119.5t115.5 -43.5t115.5 43.5t41.5 119.5v455h129v-462q0 -80 -33.5 -140t-98 -92.5t-154.5 -32.5t-154.5 32.5t-98 92.5t-33.5 140v462zM307.5 -156q-19.5 18 -19.5 46q0 27 19.5 45t48.5 18t48.5 -18t19.5 -45q0 -28 -19.5 -46t-48.5 -18
t-48.5 18z" />
    <glyph glyph-name="Wdieresis.ss05" horiz-adv-x="929" 
d="M188 0l-169 710h131l107 -520q6 -30 7 -48h3q1 21 8 48l124 520h131l124 -520q7 -27 8 -48h3q1 18 7 48l107 520h132l-169 -710h-150l-120 520q-3 17 -5 42h-4q-1 -18 -6 -42l-120 -520h-149zM308 761.5q-18 17.5 -18 44.5t18 44.5t44 17.5q27 0 45 -17.5t18 -44.5
t-18 -44.5t-45 -17.5q-26 0 -44 17.5zM532 761.5q-18 17.5 -18 44.5t18 44.5t44 17.5q27 0 45 -17.5t18 -44.5t-18 -44.5t-45 -17.5q-26 0 -44 17.5z" />
    <glyph glyph-name="Ydieresis.ss05" horiz-adv-x="608" 
d="M239 0v271l-239 439h140l145 -283q14 -27 18 -46h2q4 19 18 46l145 283h140l-239 -439v-271h-130zM148 761.5q-18 17.5 -18 44.5t18 44.5t44 17.5q27 0 45 -17.5t18 -44.5t-18 -44.5t-45 -17.5q-26 0 -44 17.5zM372 761.5q-18 17.5 -18 44.5t18 44.5t44 17.5
q27 0 45 -17.5t18 -44.5t-18 -44.5t-45 -17.5q-26 0 -44 17.5z" />
    <glyph glyph-name="Zdotaccent.ss05" horiz-adv-x="580" 
d="M28 0v104l372 502h-358v104h502v-104l-372 -503h387v-103h-531zM246.5 767.5q-18.5 17.5 -18.5 44.5q0 26 18.5 43.5t46.5 17.5t47 -17.5t19 -43.5q0 -27 -18.5 -44.5t-47.5 -17.5q-28 0 -46.5 17.5z" />
    <glyph glyph-name="g.ss01" horiz-adv-x="580" 
d="M52 -39h119q8 -43 35.5 -62.5t74.5 -19.5q56 0 83.5 31.5t27.5 98.5v86q-19 -48 -56.5 -73.5t-90.5 -25.5q-61 0 -108.5 33t-74 92.5t-26.5 136.5q0 75 27 132.5t75.5 89.5t110.5 32q51 0 89.5 -23.5t58.5 -66.5l17 78h97v-488q0 -219 -233 -219q-208 0 -226 168z
M361 126q32 43 32 113v35q0 66 -31.5 106t-82.5 40q-55 0 -86.5 -43t-31.5 -121t32 -125.5t84 -47.5t84 43z" />
    <glyph glyph-name="gbreve.ss01" horiz-adv-x="580" 
d="M52 -39h119q8 -43 35.5 -62.5t74.5 -19.5q56 0 83.5 31.5t27.5 98.5v86q-19 -48 -56.5 -73.5t-90.5 -25.5q-61 0 -108.5 33t-74 92.5t-26.5 136.5q0 75 27 132.5t75.5 89.5t110.5 32q51 0 89.5 -23.5t58.5 -66.5l17 78h97v-488q0 -219 -233 -219q-208 0 -226 168z
M361 126q32 43 32 113v35q0 66 -31.5 106t-82.5 40q-55 0 -86.5 -43t-31.5 -121t32 -125.5t84 -47.5t84 43zM221 723q2 -41 22 -62.5t54 -21.5t53.5 21.5t21.5 62.5h86q-4 -78 -47.5 -116t-113.5 -38t-114 38t-48 116h86z" />
    <glyph glyph-name="gcircumflex.ss01" horiz-adv-x="580" 
d="M52 -39h119q8 -43 35.5 -62.5t74.5 -19.5q56 0 83.5 31.5t27.5 98.5v86q-19 -48 -56.5 -73.5t-90.5 -25.5q-61 0 -108.5 33t-74 92.5t-26.5 136.5q0 75 27 132.5t75.5 89.5t110.5 32q51 0 89.5 -23.5t58.5 -66.5l17 78h97v-488q0 -219 -233 -219q-208 0 -226 168z
M361 126q32 43 32 113v35q0 66 -31.5 106t-82.5 40q-55 0 -86.5 -43t-31.5 -121t32 -125.5t84 -47.5t84 43zM357 723l107 -149h-96l-72 102l-71 -102h-97l108 149h121z" />
    <glyph glyph-name="uni0123.ss01" horiz-adv-x="580" 
d="M52 -39h119q8 -43 35.5 -62.5t74.5 -19.5q56 0 83.5 31.5t27.5 98.5v86q-19 -48 -56.5 -73.5t-90.5 -25.5q-61 0 -108.5 33t-74 92.5t-26.5 136.5q0 75 27 132.5t75.5 89.5t110.5 32q51 0 89.5 -23.5t58.5 -66.5l17 78h97v-488q0 -219 -233 -219q-208 0 -226 168z
M361 126q32 43 32 113v35q0 66 -31.5 106t-82.5 40q-55 0 -86.5 -43t-31.5 -121t32 -125.5t84 -47.5t84 43zM344 725q-29 -8 -38.5 -19.5t-9.5 -35.5h58v-96h-113v84q0 43 18 71t62 41z" />
    <glyph glyph-name="gdotaccent.ss01" horiz-adv-x="580" 
d="M52 -39h119q8 -43 35.5 -62.5t74.5 -19.5q56 0 83.5 31.5t27.5 98.5v86q-19 -48 -56.5 -73.5t-90.5 -25.5q-61 0 -108.5 33t-74 92.5t-26.5 136.5q0 75 27 132.5t75.5 89.5t110.5 32q51 0 89.5 -23.5t58.5 -66.5l17 78h97v-488q0 -219 -233 -219q-208 0 -226 168z
M361 126q32 43 32 113v35q0 66 -31.5 106t-82.5 40q-55 0 -86.5 -43t-31.5 -121t32 -125.5t84 -47.5t84 43zM361 583h-130v125h130v-125z" />
    <glyph glyph-name="adieresis.ss05" horiz-adv-x="551" 
d="M83 28.5q-47 40.5 -47 107.5q0 36 15.5 65t45.5 48q27 16 65 26.5t98 18.5l106 13v13q0 56 -22.5 81.5t-70.5 25.5q-44 0 -69.5 -22.5t-28.5 -65.5h-123q6 80 65 126.5t156 46.5q111 0 162.5 -49.5t51.5 -158.5v-149q0 -102 15 -155h-120q-7 41 -8 86q-18 -46 -62.5 -72
t-104.5 -26q-77 0 -124 40.5zM335 109.5q34 36.5 34 95.5v32l-113 -17q-50 -8 -73 -27t-23 -51t22.5 -50.5t62.5 -18.5q56 0 90 36.5zM124 602q-20 19 -20 47t20 47t49 19t49 -19t20 -47t-20 -47t-49 -19t-49 19zM331.5 601.5q-19.5 18.5 -19.5 47.5t19.5 47.5t49.5 18.5
q29 0 48.5 -19t19.5 -47t-19.5 -47t-48.5 -19q-30 0 -49.5 18.5z" />
    <glyph glyph-name="uni1EA1.ss05" horiz-adv-x="551" 
d="M83 28.5q-47 40.5 -47 107.5q0 36 15.5 65t45.5 48q27 16 65 26.5t98 18.5l106 13v13q0 56 -22.5 81.5t-70.5 25.5q-44 0 -69.5 -22.5t-28.5 -65.5h-123q6 80 65 126.5t156 46.5q111 0 162.5 -49.5t51.5 -158.5v-149q0 -102 15 -155h-120q-7 41 -8 86q-18 -46 -62.5 -72
t-104.5 -26q-77 0 -124 40.5zM335 109.5q34 36.5 34 95.5v32l-113 -17q-50 -8 -73 -27t-23 -51t22.5 -50.5t62.5 -18.5q56 0 90 36.5zM227.5 -156q-19.5 18 -19.5 46q0 27 19.5 45t48.5 18t48.5 -18t19.5 -45q0 -28 -19.5 -46t-48.5 -18t-48.5 18z" />
    <glyph glyph-name="cdotaccent.ss05" horiz-adv-x="538" 
d="M155.5 20.5q-55.5 32.5 -86 91.5t-30.5 138q0 122 66 192t181 70q92 0 150 -47.5t70 -132.5l-117 -19q-7 51 -34.5 78t-71.5 27q-56 0 -88 -44t-32 -121q0 -81 32 -125.5t90 -44.5q44 0 71.5 27.5t35.5 79.5l113 -23q-14 -83 -72.5 -131t-147.5 -48q-74 0 -129.5 32.5z
M232.5 599q-21.5 20 -21.5 51t21.5 51.5t53.5 20.5t53 -20.5t21 -51.5t-21 -51t-53 -20t-53.5 20z" />
    <glyph glyph-name="edieresis.ss05" horiz-adv-x="546" 
d="M507 220h-351q1 -63 37.5 -100.5t95.5 -37.5q42 0 73.5 21.5t47.5 61.5l93 -42q-28 -65 -85 -100t-134 -35q-115 0 -180 67.5t-65 189.5q0 124 64 195.5t176 71.5q109 0 168.5 -61.5t59.5 -175.5v-55zM388 307q1 61 -28.5 93t-83.5 32q-56 0 -87 -35t-33 -98h232v8z
M121 602q-20 19 -20 47t20 47t49 19t49 -19t20 -47t-20 -47t-49 -19t-49 19zM328.5 601.5q-19.5 18.5 -19.5 47.5t19.5 47.5t49.5 18.5q29 0 48.5 -19t19.5 -47t-19.5 -47t-48.5 -19q-30 0 -49.5 18.5z" />
    <glyph glyph-name="edotaccent.ss05" horiz-adv-x="546" 
d="M507 220h-351q1 -63 37.5 -100.5t95.5 -37.5q42 0 73.5 21.5t47.5 61.5l93 -42q-28 -65 -85 -100t-134 -35q-115 0 -180 67.5t-65 189.5q0 124 64 195.5t176 71.5q109 0 168.5 -61.5t59.5 -175.5v-55zM388 307q1 61 -28.5 93t-83.5 32q-56 0 -87 -35t-33 -98h232v8z
M220.5 599q-21.5 20 -21.5 51t21.5 51.5t53.5 20.5t53 -20.5t21 -51.5t-21 -51t-53 -20t-53.5 20z" />
    <glyph glyph-name="uni1EB9.ss05" horiz-adv-x="546" 
d="M507 220h-351q1 -63 37.5 -100.5t95.5 -37.5q42 0 73.5 21.5t47.5 61.5l93 -42q-28 -65 -85 -100t-134 -35q-115 0 -180 67.5t-65 189.5q0 124 64 195.5t176 71.5q109 0 168.5 -61.5t59.5 -175.5v-55zM388 307q1 61 -28.5 93t-83.5 32q-56 0 -87 -35t-33 -98h232v8z
M224.5 -156q-19.5 18 -19.5 46q0 27 19.5 45t48.5 18t48.5 -18t19.5 -45q0 -28 -19.5 -46t-48.5 -18t-48.5 18z" />
    <glyph glyph-name="uni0123.ss05" horiz-adv-x="537" 
d="M416 463q53 -45 53 -119q0 -50 -24.5 -88.5t-71 -60.5t-109.5 -22q-58 0 -100 18q-25 -13 -25 -38q0 -46 76 -46h130q88 0 132.5 -37t44.5 -107q0 -80 -67.5 -125t-199.5 -45q-121 0 -177.5 35.5t-56.5 93.5q0 33 21.5 59t61.5 39q-63 26 -63 90q0 38 20.5 64.5
t58.5 41.5q-29 23 -45 56t-16 72q0 75 55 121.5t150 46.5q60 0 106 -20q12 43 45.5 67.5t85.5 24.5q14 0 27 -3v-90q-22 5 -40 5q-49 0 -72 -33zM330.5 273q25.5 27 25.5 70t-25 69.5t-67 26.5t-67 -26.5t-25 -68.5q0 -43 25 -70.5t67 -27.5q41 0 66.5 27zM197 4
q-21 0 -41 3q-36 -23 -36 -63q0 -73 144 -73q150 0 150 72q0 61 -87 61h-130zM310 653.5q14 -13.5 14 -34.5q0 -23 -16 -37.5t-43 -14.5q-31 0 -49.5 19.5t-18.5 51.5q0 23 12 47t35 40h51q-47 -31 -54 -70q14 12 34 12q21 0 35 -13.5z" />
    <glyph glyph-name="gdotaccent.ss05" horiz-adv-x="537" 
d="M416 463q53 -45 53 -119q0 -50 -24.5 -88.5t-71 -60.5t-109.5 -22q-58 0 -100 18q-25 -13 -25 -38q0 -46 76 -46h130q88 0 132.5 -37t44.5 -107q0 -80 -67.5 -125t-199.5 -45q-121 0 -177.5 35.5t-56.5 93.5q0 33 21.5 59t61.5 39q-63 26 -63 90q0 38 20.5 64.5
t58.5 41.5q-29 23 -45 56t-16 72q0 75 55 121.5t150 46.5q60 0 106 -20q12 43 45.5 67.5t85.5 24.5q14 0 27 -3v-90q-22 5 -40 5q-49 0 -72 -33zM330.5 273q25.5 27 25.5 70t-25 69.5t-67 26.5t-67 -26.5t-25 -68.5q0 -43 25 -70.5t67 -27.5q41 0 66.5 27zM197 4
q-21 0 -41 3q-36 -23 -36 -63q0 -73 144 -73q150 0 150 72q0 61 -87 61h-130zM210.5 599q-21.5 20 -21.5 51t21.5 51.5t53.5 20.5t53 -20.5t21 -51.5t-21 -51t-53 -20t-53.5 20z" />
    <glyph glyph-name="i.ss05" horiz-adv-x="258" 
d="M189 0h-120v500h120v-500zM76.5 599q-21.5 20 -21.5 51t21.5 51.5t53.5 20.5t53 -20.5t21 -51.5t-21 -51t-53 -20t-53.5 20z" />
    <glyph glyph-name="idieresis.ss05" horiz-adv-x="258" 
d="M189 0h-120v500h120v-500zM-23 602q-20 19 -20 47t20 47t49 19t49 -19t20 -47t-20 -47t-49 -19t-49 19zM184.5 601.5q-19.5 18.5 -19.5 47.5t19.5 47.5t49.5 18.5q29 0 48.5 -19t19.5 -47t-19.5 -47t-48.5 -19q-30 0 -49.5 18.5z" />
    <glyph glyph-name="i.loclTRK.ss05" horiz-adv-x="258" 
d="M189 0h-120v500h120v-500zM76.5 599q-21.5 20 -21.5 51t21.5 51.5t53.5 20.5t53 -20.5t21 -51.5t-21 -51t-53 -20t-53.5 20z" />
    <glyph glyph-name="uni1ECB.ss05" horiz-adv-x="258" 
d="M189 0h-120v500h120v-500zM76.5 599q-21.5 20 -21.5 51t21.5 51.5t53.5 20.5t53 -20.5t21 -51.5t-21 -51t-53 -20t-53.5 20zM80.5 -156q-19.5 18 -19.5 46q0 27 19.5 45t48.5 18t48.5 -18t19.5 -45q0 -28 -19.5 -46t-48.5 -18t-48.5 18z" />
    <glyph glyph-name="ij.ss05" horiz-adv-x="524" 
d="M189 0h-120v500h120v-500zM76.5 599q-21.5 20 -21.5 51t21.5 51.5t53.5 20.5t53 -20.5t21 -51.5t-21 -51t-53 -20t-53.5 20zM230 -196v92l47 -2q32 0 45 18t13 66v522h120v-531q0 -81 -35.5 -126t-121.5 -45q-44 0 -68 6zM342.5 599q-21.5 20 -21.5 51t21.5 51.5
t53.5 20.5t53 -20.5t21 -51.5t-21 -51t-53 -20t-53.5 20z" />
    <glyph glyph-name="iogonek.ss05" horiz-adv-x="258" 
d="M189 0h-120v500h120v-500zM76.5 599q-21.5 20 -21.5 51t21.5 51.5t53.5 20.5t53 -20.5t21 -51.5t-21 -51t-53 -20t-53.5 20zM211 -110q-7 -45 -38 -69t-82 -24q-53 0 -83.5 24t-30.5 66q0 71 92 113h113q-40 -2 -68.5 -18.5t-43.5 -39t-15 -44.5q0 -19 10.5 -29t29.5 -10
q17 0 29 11t16 31z" />
    <glyph glyph-name="j.ss05" horiz-adv-x="266" 
d="M-28 -196v92l47 -2q32 0 45 18t13 66v522h120v-531q0 -81 -35.5 -126t-121.5 -45q-44 0 -68 6zM84.5 599q-21.5 20 -21.5 51t21.5 51.5t53.5 20.5t53 -20.5t21 -51.5t-21 -51t-53 -20t-53.5 20z" />
    <glyph glyph-name="uni0137.ss05" horiz-adv-x="547" 
d="M539 0h-139l-137 225l-74 -77v-148h-120v725h120v-448l195 223h146l-182 -196zM325 -65.5q19 -19.5 19 -52.5q0 -24 -12 -48.5t-36 -40.5h-52q48 31 55 72q-13 -13 -35 -13q-21 0 -35.5 14t-14.5 35q0 24 16.5 38.5t43.5 14.5q32 0 51 -19.5z" />
    <glyph glyph-name="uni013C.ss05" horiz-adv-x="258" 
d="M69 725h120v-725h-120v725zM178 -65.5q19 -19.5 19 -52.5q0 -24 -12 -48.5t-36 -40.5h-52q48 31 55 72q-13 -13 -35 -13q-21 0 -35.5 14t-14.5 35q0 24 16.5 38.5t43.5 14.5q32 0 51 -19.5z" />
    <glyph glyph-name="ldot.ss05" horiz-adv-x="314" 
d="M69 725h120v-725h-120v725zM232.5 308.5q-21.5 21.5 -21.5 53.5q0 33 21.5 54.5t53.5 21.5t53.5 -21.5t21.5 -54.5q0 -32 -21.5 -53.5t-53.5 -21.5t-53.5 21.5z" />
    <glyph glyph-name="napostrophe.ss05" horiz-adv-x="816" 
d="M194.5 682q24.5 -29 24.5 -79q0 -142 -144 -184l-16 48q49 15 75 44.5t28 71.5q-19 -20 -47 -20t-46 21.5t-18 53.5t22 52.5t56 20.5q41 0 65.5 -29zM311 0v500h115v-97q49 109 166 109q82 0 123.5 -51t41.5 -151v-310h-120v298q0 118 -94 118q-53 0 -82.5 -40
t-29.5 -111v-265h-120z" />
    <glyph glyph-name="uni0146.ss05" horiz-adv-x="574" 
d="M69 0v500h115v-97q49 109 166 109q82 0 123.5 -51t41.5 -151v-310h-120v298q0 118 -94 118q-53 0 -82.5 -40t-29.5 -111v-265h-120zM335 -65.5q19 -19.5 19 -52.5q0 -24 -12 -48.5t-36 -40.5h-52q48 31 55 72q-13 -13 -35 -13q-21 0 -35.5 14t-14.5 35q0 24 16.5 38.5
t43.5 14.5q32 0 51 -19.5z" />
    <glyph glyph-name="odieresis.ss05" horiz-adv-x="569" 
d="M156.5 19q-55.5 31 -86.5 90.5t-31 141.5t31 141t86.5 89.5t127.5 30.5t128 -30.5t87 -89.5t31 -141t-31 -141.5t-87 -90.5t-128 -31t-127.5 31zM375 123q32 44 32 128t-32 127t-91 43t-90.5 -43t-31.5 -127q0 -85 32 -128.5t90 -43.5q59 0 91 44zM132 602q-20 19 -20 47
t20 47t49 19t49 -19t20 -47t-20 -47t-49 -19t-49 19zM339.5 601.5q-19.5 18.5 -19.5 47.5t19.5 47.5t49.5 18.5q29 0 48.5 -19t19.5 -47t-19.5 -47t-48.5 -19q-30 0 -49.5 18.5z" />
    <glyph glyph-name="uni1ECD.ss05" horiz-adv-x="569" 
d="M156.5 19q-55.5 31 -86.5 90.5t-31 141.5t31 141t86.5 89.5t127.5 30.5t128 -30.5t87 -89.5t31 -141t-31 -141.5t-87 -90.5t-128 -31t-127.5 31zM375 123q32 44 32 128t-32 127t-91 43t-90.5 -43t-31.5 -127q0 -85 32 -128.5t90 -43.5q59 0 91 44zM235.5 -156
q-19.5 18 -19.5 46q0 27 19.5 45t48.5 18t48.5 -18t19.5 -45q0 -28 -19.5 -46t-48.5 -18t-48.5 18z" />
    <glyph glyph-name="uni0157.ss05" horiz-adv-x="369" 
d="M181 379q19 62 60 97.5t99 35.5q10 0 15 -1v-115l-16 1q-68 0 -104 -36q-28 -26 -37 -63.5t-9 -87.5v-210h-120v500h112v-121zM178 -65.5q19 -19.5 19 -52.5q0 -24 -12 -48.5t-36 -40.5h-52q48 31 55 72q-13 -13 -35 -13q-21 0 -35.5 14t-14.5 35q0 24 16.5 38.5
t43.5 14.5q32 0 51 -19.5z" />
    <glyph glyph-name="uni0219.ss05" horiz-adv-x="493" 
d="M108.5 23.5q-60.5 35.5 -83.5 100.5l89 40q17 -42 53.5 -65t89.5 -23q45 0 69.5 17t24.5 45q0 26 -16.5 39t-55.5 19l-89 16q-70 13 -106.5 49.5t-36.5 96.5q0 69 55 111.5t149 42.5q80 0 136.5 -30.5t74.5 -84.5l-83 -45q-19 35 -52.5 54t-81.5 19q-42 0 -65 -15.5
t-23 -44.5q0 -25 16.5 -38t50.5 -19l98 -18q71 -13 104.5 -48.5t33.5 -95.5q0 -72 -54.5 -115t-150.5 -43q-86 0 -146.5 35.5zM310 -65.5q19 -19.5 19 -52.5q0 -24 -12 -48.5t-36 -40.5h-52q48 31 55 72q-13 -13 -35 -13q-21 0 -35.5 14t-14.5 35q0 24 16.5 38.5t43.5 14.5
q32 0 51 -19.5z" />
    <glyph glyph-name="uni0123.ss01.ss05" horiz-adv-x="580" 
d="M52 -39h119q8 -43 35.5 -62.5t74.5 -19.5q56 0 83.5 31.5t27.5 98.5v86q-19 -48 -56.5 -73.5t-90.5 -25.5q-61 0 -108.5 33t-74 92.5t-26.5 136.5q0 75 27 132.5t75.5 89.5t110.5 32q51 0 89.5 -23.5t58.5 -66.5l17 78h97v-488q0 -219 -233 -219q-208 0 -226 168z
M361 126q32 43 32 113v35q0 66 -31.5 106t-82.5 40q-55 0 -86.5 -43t-31.5 -121t32 -125.5t84 -47.5t84 43zM343 653.5q14 -13.5 14 -34.5q0 -23 -16 -37.5t-43 -14.5q-31 0 -49.5 19.5t-18.5 51.5q0 23 12 47t35 40h51q-47 -31 -54 -70q14 12 34 12q21 0 35 -13.5z" />
    <glyph glyph-name="gdotaccent.ss01.ss05" horiz-adv-x="580" 
d="M52 -39h119q8 -43 35.5 -62.5t74.5 -19.5q56 0 83.5 31.5t27.5 98.5v86q-19 -48 -56.5 -73.5t-90.5 -25.5q-61 0 -108.5 33t-74 92.5t-26.5 136.5q0 75 27 132.5t75.5 89.5t110.5 32q51 0 89.5 -23.5t58.5 -66.5l17 78h97v-488q0 -219 -233 -219q-208 0 -226 168z
M361 126q32 43 32 113v35q0 66 -31.5 106t-82.5 40q-55 0 -86.5 -43t-31.5 -121t32 -125.5t84 -47.5t84 43zM243.5 599q-21.5 20 -21.5 51t21.5 51.5t53.5 20.5t53 -20.5t21 -51.5t-21 -51t-53 -20t-53.5 20z" />
    <glyph glyph-name="uni021B.ss05" horiz-adv-x="371" 
d="M11 413v87h90v126l120 48v-174h122v-87h-122v-239q0 -40 18 -59.5t55 -19.5q17 0 49 6v-101q-44 -9 -82 -9q-86 0 -123 42t-37 122v258h-90zM292 -65.5q19 -19.5 19 -52.5q0 -24 -12 -48.5t-36 -40.5h-52q48 31 55 72q-13 -13 -35 -13q-21 0 -35.5 14t-14.5 35
q0 24 16.5 38.5t43.5 14.5q32 0 51 -19.5z" />
    <glyph glyph-name="udieresis.ss05" horiz-adv-x="567" 
d="M59 179v321h120v-303q0 -55 22.5 -84t65.5 -29q50 0 80.5 38t30.5 101v277h120v-500h-114v93q-17 -47 -59.5 -76t-95.5 -29q-170 0 -170 191zM126 602q-20 19 -20 47t20 47t49 19t49 -19t20 -47t-20 -47t-49 -19t-49 19zM333.5 601.5q-19.5 18.5 -19.5 47.5t19.5 47.5
t49.5 18.5q29 0 48.5 -19t19.5 -47t-19.5 -47t-48.5 -19q-30 0 -49.5 18.5z" />
    <glyph glyph-name="uni1EE5.ss05" horiz-adv-x="567" 
d="M59 179v321h120v-303q0 -55 22.5 -84t65.5 -29q50 0 80.5 38t30.5 101v277h120v-500h-114v93q-17 -47 -59.5 -76t-95.5 -29q-170 0 -170 191zM236.5 -156q-19.5 18 -19.5 46q0 27 19.5 45t48.5 18t48.5 -18t19.5 -45q0 -28 -19.5 -46t-48.5 -18t-48.5 18z" />
    <glyph glyph-name="wdieresis.ss05" horiz-adv-x="745" 
d="M154 0l-138 500h119l77 -333q8 -40 9 -54h2q2 17 11 54l82 333h113l82 -333q9 -37 11 -54h2q1 14 9 54l77 333h119l-138 -500h-122l-85 324q-8 30 -10 55h-3q-2 -25 -10 -55l-85 -324h-122zM220 602q-20 19 -20 47t20 47t49 19t49 -19t20 -47t-20 -47t-49 -19t-49 19z
M427.5 601.5q-19.5 18.5 -19.5 47.5t19.5 47.5t49.5 18.5q29 0 48.5 -19t19.5 -47t-19.5 -47t-48.5 -19q-30 0 -49.5 18.5z" />
    <glyph glyph-name="ydieresis.ss05" horiz-adv-x="504" 
d="M38 -195v95q18 -4 42 -4q44 0 69.5 18.5t39.5 60.5l10 30l-195 495h132l109 -327q11 -31 14 -59h2q3 13 15 59l100 327h124l-187 -528q-33 -93 -85.5 -132.5t-134.5 -39.5q-20 0 -55 5zM103 602q-20 19 -20 47t20 47t49 19t49 -19t20 -47t-20 -47t-49 -19t-49 19z
M310.5 601.5q-19.5 18.5 -19.5 47.5t19.5 47.5t49.5 18.5q29 0 48.5 -19t19.5 -47t-19.5 -47t-48.5 -19q-30 0 -49.5 18.5z" />
    <glyph glyph-name="zdotaccent.ss05" horiz-adv-x="461" 
d="M26 0v79l256 330h-245v91h387v-76l-252 -331h267v-93h-413zM179.5 599q-21.5 20 -21.5 51t21.5 51.5t53.5 20.5t53 -20.5t21 -51.5t-21 -51t-53 -20t-53.5 20z" />
    <glyph glyph-name="g_g.liga.ss01" horiz-adv-x="1160" 
d="M52 -39h119q8 -43 35.5 -62.5t74.5 -19.5q56 0 83.5 31.5t27.5 98.5v86q-19 -48 -56.5 -73.5t-90.5 -25.5q-61 0 -108.5 33t-74 92.5t-26.5 136.5q0 75 27 132.5t75.5 89.5t110.5 32q51 0 89.5 -23.5t58.5 -66.5l17 78h97v-488q0 -219 -233 -219q-208 0 -226 168z
M361 126q32 43 32 113v35q0 66 -31.5 106t-82.5 40q-55 0 -86.5 -43t-31.5 -121t32 -125.5t84 -47.5t84 43zM632 -39h119q8 -43 35.5 -62.5t74.5 -19.5q56 0 83.5 31.5t27.5 98.5v86q-19 -48 -56.5 -73.5t-90.5 -25.5q-61 0 -108.5 33t-74 92.5t-26.5 136.5q0 75 27 132.5
t75.5 89.5t110.5 32q51 0 89.5 -23.5t58.5 -66.5l17 78h97v-488q0 -219 -233 -219q-208 0 -226 168zM941 126q32 43 32 113v35q0 66 -31.5 106t-82.5 40q-55 0 -86.5 -43t-31.5 -121t32 -125.5t84 -47.5t84 43z" />
    <glyph glyph-name="fi.ss05" horiz-adv-x="622" 
d="M346 500v-87h-121v-413h-120v413h-86v87h86v64q0 78 45 122.5t125 44.5q36 0 71 -8v-93q-30 5 -51 5q-36 0 -53 -19.5t-17 -59.5v-56h121zM553 0h-120v500h120v-500zM440.5 599q-21.5 20 -21.5 51t21.5 51.5t53.5 20.5t53 -20.5t21 -51.5t-21 -51t-53 -20t-53.5 20z" />
    <glyph glyph-name="g.sups.ss01" horiz-adv-x="478" 
d="M98.5 189q-43.5 30 -50.5 93h98q5 -29 25.5 -43.5t52.5 -14.5q43 0 64 21.5t21 67.5v63q-14 -32 -43 -49t-70 -17q-46 0 -82.5 24t-56.5 66.5t-20 97.5q0 85 44 135.5t118 50.5q41 0 71.5 -17.5t43.5 -49.5l8 58h91v-353q0 -81 -47.5 -122t-140.5 -41q-83 0 -126.5 30z
M287 405q23 28 23 75v30q0 46 -22 74.5t-58 28.5q-41 0 -63 -30.5t-22 -87.5q0 -53 22.5 -85.5t59.5 -32.5t60 28z" />
    <glyph glyph-name="i.sups.ss05" horiz-adv-x="239" 
d="M72.5 739q-17.5 17 -17.5 43q0 27 17.5 44t45.5 17q27 0 44.5 -17t17.5 -44q0 -26 -17.5 -43t-44.5 -17q-28 0 -45.5 17zM172 310h-105v365h105v-365z" />
    <glyph glyph-name="j.sups.ss05" horiz-adv-x="250" 
d="M77.5 739q-17.5 17 -17.5 43q0 27 17.5 44t45.5 17q27 0 44.5 -17t17.5 -44q0 -26 -17.5 -43t-44.5 -17q-28 0 -45.5 17zM-14 167v75q18 -3 31 -3q28 0 40 14t12 50v372h106v-379q0 -67 -31.5 -100t-104.5 -33q-38 0 -53 4z" />
    <glyph glyph-name="a.sups" horiz-adv-x="448" 
d="M70 330.5q-35 29.5 -35 77.5q0 54 38 78.5t114 34.5l97 14v11q0 37 -15.5 54t-48.5 17q-65 0 -70 -62h-104q4 61 50 95t124 34q88 0 128.5 -36t40.5 -115v-116q0 -67 10 -107h-102q-5 29 -6 64q-14 -34 -48.5 -53.5t-80.5 -19.5q-57 0 -92 29.5zM264 388.5
q24 23.5 24 61.5v37l-72 -11q-40 -6 -59 -20.5t-19 -39.5q0 -23 17 -37t46 -14q39 0 63 23.5z" />
    <glyph glyph-name="b.sups" horiz-adv-x="481" 
d="M215.5 318.5q-31.5 17.5 -45.5 47.5l-6 -56h-93v529h104v-215q15 27 45.5 43.5t71.5 16.5q70 0 111 -52t41 -140q0 -87 -42 -139t-114 -52q-41 0 -72.5 17.5zM315 404q22 31 22 88q0 56 -21.5 87.5t-61.5 31.5q-37 0 -59 -28.5t-22 -75.5v-29q0 -49 21.5 -77t59.5 -28
q39 0 61 31z" />
    <glyph glyph-name="c.sups" horiz-adv-x="437" 
d="M88 353q-52 52 -52 139q0 90 52 141t142 51q72 0 117 -34t55 -96l-98 -20q-4 35 -24.5 54t-52.5 19q-40 0 -62.5 -29.5t-22.5 -81.5q0 -56 23 -87t63 -31q31 0 51 19.5t25 54.5l98 -20q-11 -60 -57.5 -95.5t-116.5 -35.5q-88 0 -140 52z" />
    <glyph glyph-name="d.sups" horiz-adv-x="481" 
d="M78.5 353.5q-41.5 52.5 -41.5 137.5q0 87 43 140t115 53q40 0 69 -15.5t43 -45.5v216h103v-529h-99v64q-14 -33 -47 -53t-75 -20q-69 0 -110.5 52.5zM287 401.5q21 28.5 21 74.5v30q0 50 -21 78t-59 28q-39 0 -61 -31t-22 -88q0 -55 22.5 -87.5t62.5 -32.5q36 0 57 28.5z
" />
    <glyph glyph-name="e.sups" horiz-adv-x="441" 
d="M401 472h-264q1 -43 27 -68.5t70 -25.5q68 0 101 57l60 -45q-22 -42 -64 -65.5t-99 -23.5q-93 0 -144.5 50.5t-51.5 140.5q0 89 50.5 140.5t136.5 51.5q85 0 131.5 -49.5t46.5 -137.5v-25zM301 530q0 43 -20 67.5t-58 24.5t-61.5 -24.5t-24.5 -67.5h164z" />
    <glyph glyph-name="f.sups" horiz-adv-x="309" 
d="M283 675v-70h-90v-295h-104v295h-63v70h63v39q0 63 36 96.5t103 33.5q25 0 55 -7v-75q-15 4 -35 4q-55 0 -55 -55v-36h90z" />
    <glyph glyph-name="g.sups" horiz-adv-x="446" 
d="M424 664q-16 3 -31 3q-34 0 -53 -16q45 -34 45 -89q0 -56 -45 -89.5t-122 -33.5q-43 0 -78 11q-14 -8 -14 -22q0 -16 13.5 -25t39.5 -9h107q67 0 101 -26.5t34 -76.5q0 -62 -54.5 -97t-156.5 -35q-89 0 -135.5 23.5t-46.5 64.5q0 23 17 40.5t50 27.5q-26 9 -39.5 26.5
t-13.5 40.5q0 29 17.5 50t49.5 32q-28 17 -43 42t-15 56q0 56 45 89t122 33q49 0 86 -14q9 32 36 49.5t69 17.5q10 0 15 -1v-72zM266.5 511q18.5 20 18.5 51t-18.5 50t-48.5 19t-48.5 -19t-18.5 -50t18.5 -51t48.5 -20t48.5 20zM156 306q-19 0 -27 1q-18 -14 -18 -38
q0 -55 104 -55q115 0 115 52q0 39 -55 39z" />
    <glyph glyph-name="h.sups" horiz-adv-x="481" 
d="M71 310v529h104v-225q16 35 47.5 53t75.5 18q61 0 92.5 -37.5t31.5 -110.5v-227h-104v217q0 78 -65 78q-37 0 -57.5 -26t-20.5 -72v-197h-104z" />
    <glyph glyph-name="i.sups" horiz-adv-x="239" 
d="M174 727h-109v107h109v-107zM172 310h-105v365h105v-365z" />
    <glyph glyph-name="j.sups" horiz-adv-x="242" 
d="M176 727h-108v107h108v-107zM-14 167v75q18 -3 31 -3q28 0 40 14t12 50v372h106v-379q0 -67 -31.5 -100t-104.5 -33q-38 0 -53 4z" />
    <glyph glyph-name="k.sups" horiz-adv-x="455" 
d="M440 310h-117l-97 158l-51 -51v-107h-104v529h104v-319l138 155h122l-137 -144z" />
    <glyph glyph-name="l.sups" horiz-adv-x="245" 
d="M71 839h104v-529h-104v529z" />
    <glyph glyph-name="m.sups" horiz-adv-x="687" 
d="M65 675h101v-61q32 70 116 70q42 0 68.5 -16.5t39.5 -51.5q38 68 121 68q55 0 85.5 -35.5t30.5 -100.5v-238h-103v215q0 40 -15.5 60t-44.5 20q-31 0 -48.5 -21.5t-17.5 -59.5v-214h-104v216q0 79 -57 79q-32 0 -49.5 -23t-17.5 -64v-208h-105v365z" />
    <glyph glyph-name="n.sups" horiz-adv-x="476" 
d="M65 310v365h101v-66q36 75 126 75q125 0 125 -149v-225h-105v211q0 84 -65 84q-37 0 -56.5 -25.5t-19.5 -71.5v-198h-106z" />
    <glyph glyph-name="o.sups" horiz-adv-x="452" 
d="M89 351.5q-53 50.5 -53 141.5t52.5 141t137.5 50q84 0 136.5 -50t52.5 -141t-52.5 -141.5t-136.5 -50.5t-137 50.5zM289.5 403.5q22.5 30.5 22.5 89.5t-22.5 89t-63.5 30t-63.5 -30t-22.5 -89t22.5 -89.5t63.5 -30.5t63.5 30.5z" />
    <glyph glyph-name="p.sups" horiz-adv-x="476" 
d="M65 168v507h100v-59q16 32 49 50t74 18q69 0 110 -52.5t41 -138.5q0 -88 -42.5 -140t-113.5 -52q-75 0 -113 57v-190h-105zM309 405q22 32 22 88q0 57 -21 88t-61 31q-39 0 -60 -29.5t-21 -81.5v-19q0 -48 21.5 -78.5t59.5 -30.5t60 32z" />
    <glyph glyph-name="q.sups" horiz-adv-x="476" 
d="M307 368q-15 -32 -46.5 -49.5t-72.5 -17.5q-68 0 -109.5 52t-41.5 138q0 88 43 140.5t115 52.5q42 0 72 -16.5t44 -48.5l9 56h90v-507h-103v200zM286 402q22 29 22 75v32q0 47 -21.5 75t-60.5 28q-38 0 -59.5 -31t-21.5 -88q0 -56 21.5 -88t60.5 -32q37 0 59 29z" />
    <glyph glyph-name="r.sups" horiz-adv-x="324" 
d="M163 585q14 48 46.5 73.5t79.5 25.5q6 0 9 -1v-99l-23 1q-46 0 -71 -22q-34 -30 -34 -95v-158h-105v365h98v-90z" />
    <glyph glyph-name="s.sups" horiz-adv-x="390" 
d="M93.5 324q-45.5 23 -69.5 65l57 49q19 -31 50.5 -48t70.5 -17q65 0 65 40q0 19 -12.5 28.5t-44.5 13.5l-52 8q-58 10 -86 36.5t-28 72.5q0 51 42.5 81.5t114.5 30.5q52 0 94.5 -18t66.5 -51l-53 -51q-38 52 -112 52q-59 0 -59 -38q0 -15 11.5 -24.5t38.5 -13.5l63 -10
q56 -9 82 -36t26 -75q0 -55 -42 -86.5t-117 -31.5q-61 0 -106.5 23z" />
    <glyph glyph-name="t.sups" horiz-adv-x="310" 
d="M17 606v69h66v89l103 39v-128h91v-69h-91v-160q0 -59 57 -59q9 0 19 1t15 2v-80q-35 -7 -62 -7q-132 0 -132 116v187h-66z" />
    <glyph glyph-name="u.sups" horiz-adv-x="473" 
d="M309 374q-14 -33 -46 -53t-75 -20q-65 0 -97 36t-32 103v235h105v-217q0 -39 17 -58t47 -19q35 0 55.5 23.5t20.5 60.5v210h104v-365h-99v64z" />
    <glyph glyph-name="v.sups" horiz-adv-x="414" 
d="M150 310l-134 365h107l71 -228q11 -43 12 -50h1q1 6 4.5 20.5t8.5 30.5l71 227h107l-134 -365h-114z" />
    <glyph glyph-name="w.sups" horiz-adv-x="598" 
d="M128 310l-103 365h99l54 -232q6 -22 6 -36h2q4 27 7 36l62 232h87l63 -232q6 -21 7 -36h2q0 6 6 36l55 232h99l-103 -365h-100l-64 227q-6 20 -7 30h-1q-1 -10 -7 -30l-64 -227h-100z" />
    <glyph glyph-name="x.sups" horiz-adv-x="437" 
d="M21 310l138 190l-129 175h117l52 -77q16 -26 20 -39h2q8 20 22 39l52 77h109l-126 -173l138 -192h-116l-62 89q-17 24 -23 40h-1q-6 -15 -22 -40l-63 -89h-108z" />
    <glyph glyph-name="y.sups" horiz-adv-x="416" 
d="M38 167v76q27 -4 39 -4q32 0 50 14t28 42l6 16l-145 364h114l73 -229q6 -21 11 -48h2q2 12 6.5 27t6.5 22l67 228h105l-136 -382q-25 -69 -67 -99.5t-113 -30.5q-23 0 -47 4z" />
    <glyph glyph-name="z.sups" horiz-adv-x="380" 
d="M30 310v61l188 231h-178v73h302v-60l-186 -230h196v-75h-322z" />
    <glyph glyph-name="zero.case" horiz-adv-x="650" 
d="M116.5 83.5q-73.5 98.5 -73.5 272.5q0 175 73.5 273t208.5 98t209 -98t74 -273q0 -174 -74 -272.5t-209 -98.5t-208.5 98.5zM442.5 154.5q40.5 71.5 40.5 201.5t-40.5 201.5t-117.5 71.5t-117 -71t-40 -202q0 -130 40 -201.5t117 -71.5t117.5 71.5z" />
    <glyph glyph-name="one.case" horiz-adv-x="411" 
d="M178 528q-17 -19 -50 -30t-67 -11h-32v110h21q56 0 94.5 28.5t55.5 84.5h101v-710h-123v528z" />
    <glyph glyph-name="two.case" horiz-adv-x="563" 
d="M32 94q132 87 243 192q59 59 83 107.5t24 107.5q0 60 -28.5 92.5t-80.5 32.5q-53 0 -83 -32t-30 -87q0 -29 7 -61l-124 12q-7 27 -7 55q0 98 65.5 156t177.5 58q111 0 172.5 -57.5t61.5 -162.5q0 -73 -34.5 -139.5t-107.5 -135.5q-68 -63 -172 -129h321v-103h-488v94z
" />
    <glyph glyph-name="three.case" horiz-adv-x="583" 
d="M153 13q-58 28 -90.5 79t-33.5 120l123 14q2 -67 39 -105t99 -38q61 0 92 31.5t31 90.5q0 116 -139 116h-38v91h35q61 0 91.5 29.5t30.5 82.5q0 50 -29.5 78t-82.5 28q-59 0 -91 -37.5t-32 -107.5l-119 20q0 103 67 162.5t181 59.5q110 0 171 -50t61 -139
q0 -61 -35.5 -105t-96.5 -59q75 -12 114 -55.5t39 -117.5q0 -100 -68 -158t-184 -58q-77 0 -135 28z" />
    <glyph glyph-name="four.case" horiz-adv-x="574" 
d="M562 266v-92h-109v-174h-120v174h-323v83l307 453h136v-444h109zM336 501q0 63 2 93h-2q-8 -19 -19 -39t-26 -43l-110 -169q-16 -24 -30 -43.5t-27 -33.5h212v235z" />
    <glyph glyph-name="five.case" horiz-adv-x="579" 
d="M121 38q-66 53 -80 144l123 17q10 -52 41.5 -83t82.5 -31q61 0 95 39.5t34 109.5q0 72 -33 114.5t-93 42.5q-48 0 -79.5 -26.5t-44.5 -75.5l-113 11l42 410h409v-101h-318l-23 -206q50 82 160 82q100 0 158 -66t58 -180q0 -76 -31 -133.5t-88.5 -89t-134.5 -31.5
q-99 0 -165 53z" />
    <glyph glyph-name="six.case" horiz-adv-x="583" 
d="M446.5 447.5q48.5 -29.5 75 -84t26.5 -127.5q0 -74 -30.5 -131t-85.5 -88.5t-126 -31.5q-129 0 -198 92t-69 266q0 182 72 283t201 101q95 0 153 -47t74 -136l-120 -22q-21 108 -109 108q-71 0 -110.5 -63.5t-41.5 -184.5q25 46 70 70.5t105 24.5q65 0 113.5 -29.5z
M394.5 122.5q33.5 40.5 33.5 110.5q0 68 -34.5 108.5t-92.5 40.5q-50 0 -86.5 -31.5t-54.5 -88.5q8 -84 46 -132t98 -48q57 0 90.5 40.5z" />
    <glyph glyph-name="seven.case" horiz-adv-x="507" 
d="M123 11q0 152 63.5 304.5t179.5 287.5h-344v107h473v-95q-116 -127 -176.5 -280t-60.5 -314v-21h-135v11z" />
    <glyph glyph-name="eight.case" horiz-adv-x="599" 
d="M529.5 312q34.5 -48 34.5 -121q0 -61 -33 -108t-93 -72.5t-139 -25.5q-80 0 -140 24.5t-93 69t-33 103.5q0 71 34.5 117t104.5 68q-60 28 -88 69.5t-28 103.5q0 55 30 97.5t84 66t125 23.5q72 0 126.5 -22t84 -62t29.5 -94q0 -120 -115 -161q75 -28 109.5 -76z
M207.5 613.5q-31.5 -26.5 -31.5 -72.5q0 -43 27 -70.5t87 -44.5l36 -10q49 21 69.5 48.5t20.5 71.5q0 49 -32 76.5t-90 27.5q-55 0 -86.5 -26.5zM402 108.5q37 30.5 37 83.5q0 47 -28 77.5t-89 48.5l-60 18q-56 -22 -80 -54.5t-24 -82.5q0 -55 39 -88t103 -33q65 0 102 30.5
z" />
    <glyph glyph-name="nine.case" horiz-adv-x="588" 
d="M479.5 637q66.5 -90 66.5 -267q0 -385 -269 -385q-97 0 -158 50t-74 142l119 23q7 -54 37 -85.5t80 -31.5q78 0 111 67.5t34 195.5q-24 -42 -66.5 -63t-96.5 -21q-67 0 -118 27.5t-80 79.5t-29 123q0 68 30 121.5t86 83.5t130 30q131 0 197.5 -90zM371 388.5
q40 31.5 54 80.5q-6 70 -40 116.5t-102 46.5q-58 0 -93 -38t-35 -100t35.5 -99.5t91.5 -37.5q49 0 89 31.5z" />
    <glyph glyph-name="one.case.ss02" horiz-adv-x="532" 
d="M351 104h166v-104h-475v104h186v429q-44 -46 -147 -46h-32v110h27q72 0 113.5 29.5t60.5 83.5h101v-606z" />
    <glyph glyph-name="zero.case.zero" horiz-adv-x="650" 
d="M534 629q74 -98 74 -273q0 -174 -74 -272.5t-209 -98.5t-208.5 98.5t-73.5 272.5q0 175 73.5 273t208.5 98t209 -98zM208 558q-40 -71 -40 -202q0 -75 14 -134l260 337q-40 70 -117 70t-117 -71zM442.5 154.5q40.5 71.5 40.5 201.5q0 77 -13 130l-260 -335
q40 -68 115 -68q77 0 117.5 71.5z" />
    <glyph glyph-name="zero.osf" horiz-adv-x="611" 
d="M163.5 20q-61.5 35 -94.5 100t-33 151q0 84 33.5 147t94.5 97.5t142 34.5q80 0 141 -35.5t94.5 -99.5t33.5 -149q0 -84 -33 -147.5t-94 -98.5t-141 -35q-82 0 -143.5 35zM415 129.5q40 49.5 40 134.5q0 88 -40 138.5t-109 50.5t-109 -49.5t-40 -134.5q0 -89 40 -139
t110 -50q68 0 108 49.5z" />
    <glyph glyph-name="one.osf" horiz-adv-x="566" 
d="M359 100h170v-100h-468v100h180v275q-21 -22 -67 -36.5t-86 -14.5h-26v106h17q56 0 110 30t71 75h99v-435z" />
    </font>
</defs>
</svg>
