<svg xmlns="http://www.w3.org/2000/svg">
<defs>
<font id="GTAmerica-Lt" horiz-adv-x="620" >
  <font-face 
    font-family="GT America Lt"
    font-weight="300"
    font-stretch="normal"
    units-per-em="1000"
    panose-1="0 0 4 0 0 0 0 0 0 0"
    ascent="785"
    descent="-215"
    x-height="500"
    cap-height="710"
    bbox="-407 -236 1140 937"
    underline-thickness="50"
    underline-position="-150"
    unicode-range="U+000D-FEFF"
  />
<missing-glyph horiz-adv-x="1018" 
d="M998 710v-47h-552v-47h552v-48h-552v-47h552v-48h-552v-47h552v-47h-552v-48h552v-47h-978v426h978zM72 652l-5 15l13 9h-16l-5 15l-4 -15h-16l13 -9l-5 -15l12 9zM146 691l-4 -15h-16l13 -9l-5 -15l12 10l13 -10l-5 15l12 9h-15zM233 691l-4 -15h-16l13 -9l-5 -15l12 10
l13 -10l-5 15l12 9h-15zM320 691l-5 -15h-15l13 -9l-5 -15l12 10l13 -10l-5 15l12 9h-15zM420 652l-5 15l12 9h-15l-5 15l-5 -15h-15l12 -9l-4 -15l12 10zM103 647l-5 -15h-15l12 -9l-4 -14l12 9l12 -9l-4 14l12 9h-15zM376 609l-5 14l13 9h-16l-4 15l-5 -15h-15l12 -9
l-5 -14l13 9zM193 364h80v93h94v80h-94v94h-80v-94h-93v-80h93v-93zM72 565l-5 15l13 9h-16l-5 14l-4 -14h-16l13 -9l-5 -15l12 9zM146 603l-4 -14h-16l13 -9l-5 -15l12 9l13 -9l-5 15l12 9h-15zM320 603l-5 -14h-15l13 -9l-5 -15l12 9l13 -9l-5 15l12 9h-15zM420 565l-5 15
l12 9h-15l-5 14l-5 -14h-15l12 -9l-4 -15l12 9zM72 478l-5 14l13 10h-16l-5 14l-4 -14h-16l13 -10l-5 -14l12 9zM420 478l-5 14l12 10h-15l-5 14l-5 -14h-15l12 -10l-4 -14l12 9zM72 391l-5 14l13 9h-16l-5 15l-4 -15h-16l13 -9l-5 -14l12 9zM159 391l-5 14l12 9h-15l-5 15
l-4 -15h-16l13 -9l-5 -14l12 9zM333 391l-5 14l12 9h-15l-5 15l-5 -15h-15l13 -9l-5 -14l12 9zM420 391l-5 14l12 9h-15l-5 15l-5 -15h-15l12 -9l-4 -14l12 9zM103 356l12 -9l-4 15l12 9h-15l-5 14l-5 -14h-15l12 -9l-4 -15zM364 356l12 -9l-5 15l13 9h-16l-4 14l-5 -14h-15
l12 -9l-5 -15zM59 312l13 -9l-5 15l13 9h-16l-5 15l-4 -15h-16l13 -9l-5 -15zM146 312l13 -9l-5 15l12 9h-15l-5 15l-4 -15h-16l13 -9l-5 -15zM233 312l13 -9l-5 15l12 9h-15l-5 15l-4 -15h-16l13 -9l-5 -15zM320 312l13 -9l-5 15l12 9h-15l-5 15l-5 -15h-15l13 -9l-5 -15z

<glyph glyph-name="fi" unicode="fi" horiz-adv-x="564" 
d="M315 500v-58h-130v-442h-70v442h-93v58h93v83q0 68 38 108t103 40q35 0 59 -7v-60q-28 5 -51 5q-41 0 -60 -23t-19 -72v-74h130zM484 0h-69v500h69v-500zM489 590h-79v110h79v-110z" />
    <glyph glyph-name="fl" unicode="fl" horiz-adv-x="564" 
d="M315 500v-58h-130v-442h-70v442h-93v58h93v83q0 68 38 108t103 40q35 0 59 -7v-60q-28 5 -51 5q-41 0 -60 -23t-19 -72v-74h130zM415 725h69v-725h-69v725z" />
    <glyph glyph-name="g_g.liga" unicode="gg" horiz-adv-x="994" 
d="M390.5 555.5q29.5 24.5 74.5 24.5q15 0 30 -3v-61q-5 1 -14 2.5t-20 1.5q-25 0 -45 -13t-31 -41q51 -46 51 -122t-51 -122t-131 -46q-54 0 -96 22q-20 -8 -32 -23t-12 -32q0 -27 21 -42.5t64 -15.5h102q86 0 124.5 -36.5t38.5 -97.5q0 -70 -55 -114t-164 -44
q-93 0 -154 33.5t-61 99.5q0 40 24.5 68t66.5 41q-69 24 -69 89q0 32 19 58t54 38q-26 22 -39.5 53.5t-13.5 70.5q0 77 50.5 122.5t131.5 45.5q52 0 96 -21q11 40 40.5 64.5zM870 465q50 -45 50 -122q0 -75 -50.5 -121.5t-131.5 -46.5q-52 0 -92 20q-18 -8 -28.5 -22.5
t-10.5 -30.5q0 -57 93 -57h111q85 0 123.5 -37t38.5 -98q0 -69 -58.5 -113t-170.5 -44q-93 0 -153.5 33t-60.5 99q0 39 24 67t65 41q-74 24 -74 91q0 30 17.5 55.5t49.5 37.5q-56 48 -56 126q0 76 51 122.5t131 46.5q54 0 96 -22q11 40 40.5 64.5t75.5 24.5q15 0 30 -3v-57
q-7 1 -16 2t-19 1q-55 0 -75 -57zM337.5 261q32.5 31 32.5 83t-32.5 83t-83.5 31q-52 0 -84 -31t-32 -83t32 -83t84 -31q51 0 83.5 31zM822 260q32 31 32 83t-32.5 83.5t-83.5 31.5t-83.5 -31.5t-32.5 -83.5t32 -83t84 -31t84 31zM198 24q-15 0 -39 2q-61 -24 -61 -79
q0 -96 161 -96q71 0 103.5 23.5t32.5 70.5q0 41 -25.5 60t-78.5 19h-93zM699 23q-13 0 -37 2q-63 -24 -63 -79q0 -50 40.5 -72.5t118.5 -22.5q146 0 146 93q0 42 -25 60.5t-79 18.5h-101z" />
    <glyph glyph-name=".notdef" horiz-adv-x="1018" 
d="M998 710v-47h-552v-47h552v-48h-552v-47h552v-48h-552v-47h552v-47h-552v-48h552v-47h-978v426h978zM72 652l-5 15l13 9h-16l-5 15l-4 -15h-16l13 -9l-5 -15l12 9zM146 691l-4 -15h-16l13 -9l-5 -15l12 10l13 -10l-5 15l12 9h-15zM233 691l-4 -15h-16l13 -9l-5 -15l12 10
l13 -10l-5 15l12 9h-15zM320 691l-5 -15h-15l13 -9l-5 -15l12 10l13 -10l-5 15l12 9h-15zM420 652l-5 15l12 9h-15l-5 15l-5 -15h-15l12 -9l-4 -15l12 10zM103 647l-5 -15h-15l12 -9l-4 -14l12 9l12 -9l-4 14l12 9h-15zM376 609l-5 14l13 9h-16l-4 15l-5 -15h-15l12 -9
l-5 -14l13 9zM193 364h80v93h94v80h-94v94h-80v-94h-93v-80h93v-93zM72 565l-5 15l13 9h-16l-5 14l-4 -14h-16l13 -9l-5 -15l12 9zM146 603l-4 -14h-16l13 -9l-5 -15l12 9l13 -9l-5 15l12 9h-15zM320 603l-5 -14h-15l13 -9l-5 -15l12 9l13 -9l-5 15l12 9h-15zM420 565l-5 15
l12 9h-15l-5 14l-5 -14h-15l12 -9l-4 -15l12 9zM72 478l-5 14l13 10h-16l-5 14l-4 -14h-16l13 -10l-5 -14l12 9zM420 478l-5 14l12 10h-15l-5 14l-5 -14h-15l12 -10l-4 -14l12 9zM72 391l-5 14l13 9h-16l-5 15l-4 -15h-16l13 -9l-5 -14l12 9zM159 391l-5 14l12 9h-15l-5 15
l-4 -15h-16l13 -9l-5 -14l12 9zM333 391l-5 14l12 9h-15l-5 15l-5 -15h-15l13 -9l-5 -14l12 9zM420 391l-5 14l12 9h-15l-5 15l-5 -15h-15l12 -9l-4 -14l12 9zM103 356l12 -9l-4 15l12 9h-15l-5 14l-5 -14h-15l12 -9l-4 -15zM364 356l12 -9l-5 15l13 9h-16l-4 14l-5 -14h-15
l12 -9l-5 -15zM59 312l13 -9l-5 15l13 9h-16l-5 15l-4 -15h-16l13 -9l-5 -15zM146 312l13 -9l-5 15l12 9h-15l-5 15l-4 -15h-16l13 -9l-5 -15zM233 312l13 -9l-5 15l12 9h-15l-5 15l-4 -15h-16l13 -9l-5 -15zM320 312l13 -9l-5 15l12 9h-15l-5 15l-5 -15h-15l13 -9l-5 -15z
M407 312l13 -9l-5 15l12 9h-15l-5 15l-5 -15h-15l12 -9l-4 -15zM997 189h-977v48h977v-48zM998 95h-978v47h978v-47zM998 0h-978v47h978v-47z" />
    <glyph glyph-name=".null" horiz-adv-x="0" 
 />
    <glyph glyph-name=".null" horiz-adv-x="0" 
 />
    <glyph glyph-name="nonmarkingreturn" unicode="&#xd;" horiz-adv-x="0" 
 />
    <glyph glyph-name="space" unicode=" " horiz-adv-x="265" 
 />
    <glyph glyph-name="exclam" unicode="!" horiz-adv-x="267" 
d="M159 184h-50l-20 526h89zM90 104h87v-104h-87v104z" />
    <glyph glyph-name="quotedbl" unicode="&#x22;" horiz-adv-x="372" 
d="M286 458h-49l-14 252h77zM135 458h-49l-14 252h77z" />
    <glyph glyph-name="numbersign" unicode="#" horiz-adv-x="565" 
d="M553 485v-57h-118l-30 -161h114v-57h-125l-39 -210h-65l39 210h-146l-39 -210h-65l39 210h-107v57h118l30 161h-108v57h118l39 209h65l-39 -209h146l39 209h65l-39 -209h108zM194 267h146l30 161h-146z" />
    <glyph glyph-name="dollar" unicode="$" horiz-adv-x="607" 
d="M503 43.5q-62 -52.5 -170 -57.5v-93h-51v93q-101 6 -166 59.5t-80 149.5l75 14q32 -144 171 -158v282l-24 5q-99 22 -145 68.5t-46 123.5q0 76 59 125t156 54v91h51v-91q92 -7 148.5 -54t70.5 -131l-74 -20q-12 63 -47.5 98.5t-97.5 43.5v-251l17 -4q112 -24 163.5 -73
t51.5 -137q0 -85 -62 -137.5zM176 452.5q32 -29.5 106 -46.5v242q-64 -4 -101 -34t-37 -83q0 -49 32 -78.5zM333 49q74 5 114.5 38.5t40.5 92.5q0 40 -15 66t-48 44t-92 32v-273z" />
    <glyph glyph-name="percent" unicode="%" horiz-adv-x="762" 
d="M67.5 412.5q-45.5 48.5 -45.5 131.5q0 80 45.5 128t120.5 48q73 0 119 -49t46 -130q0 -80 -45.5 -128.5t-118.5 -48.5q-76 0 -121.5 48.5zM196 -15h-69l439 730h68zM264 450q28 33 28 91t-28.5 92t-75.5 34q-48 0 -77 -33t-29 -90q0 -60 29 -93.5t78 -33.5q47 0 75 33z
M454.5 34.5q-45.5 48.5 -45.5 131.5q0 79 45.5 127.5t119.5 48.5t120 -49t46 -130q0 -80 -46 -128.5t-119 -48.5q-75 0 -120.5 48.5zM650.5 72q28.5 33 28.5 91t-28.5 92t-76.5 34t-76.5 -33t-28.5 -90q0 -60 28.5 -93.5t77.5 -33.5q47 0 75.5 33z" />
    <glyph glyph-name="ampersand" unicode="&#x26;" horiz-adv-x="644" 
d="M631 65v-64q-26 -4 -43 -4q-39 0 -71.5 15.5t-62.5 47.5q-40 -37 -88.5 -57t-103.5 -20q-68 0 -119.5 23.5t-80 66.5t-28.5 99q0 60 30 104.5t102 92.5l13 8q-50 59 -72 105t-22 88q0 77 46 122t124 45q77 0 121.5 -42t44.5 -115q0 -50 -25 -95.5t-69 -76.5l-54 -38
l183 -208q53 91 57 220l64 -9q-1 -76 -21.5 -142.5t-56.5 -118.5q23 -26 45.5 -38.5t48.5 -12.5t38 4zM175 501.5q17 -35.5 60 -87.5l45 29q35 23 53 57.5t18 77.5q0 48 -25 74.5t-71 26.5q-47 0 -71.5 -26.5t-25.5 -78.5q0 -37 17 -72.5zM153.5 83q45.5 -37 113.5 -37
q83 0 146 61l-195 225l-9 -6q-58 -40 -79.5 -71.5t-21.5 -77.5q0 -57 45.5 -94z" />
    <glyph glyph-name="quotesingle" unicode="'" horiz-adv-x="221" 
d="M135 458h-49l-14 252h77z" />
    <glyph glyph-name="parenleft" unicode="(" horiz-adv-x="298" 
d="M233 -135q-80 96 -125.5 218t-45.5 247q0 123 46 240t126 207l51 -28q-79 -101 -115.5 -202.5t-36.5 -219.5q0 -119 36.5 -223t115.5 -210z" />
    <glyph glyph-name="parenright" unicode=")" horiz-adv-x="298" 
d="M12 -106q80 106 116.5 210t36.5 223q0 118 -36.5 219.5t-116.5 202.5l51 28q81 -90 126.5 -206.5t45.5 -240.5q0 -126 -45 -247.5t-125 -217.5z" />
    <glyph glyph-name="asterisk" unicode="*" horiz-adv-x="325" 
d="M283 660l20 -59l-109 -23l77 -85l-50 -38l-58 101l-59 -101l-49 38l77 85l-110 23l20 59l102 -47l-13 112h63l-13 -112z" />
    <glyph glyph-name="plus" unicode="+" 
d="M345 360h202v-66h-202v-200h-70v200h-202v66h202v200h70v-200z" />
    <glyph glyph-name="comma" unicode="," horiz-adv-x="239" 
d="M70 -96q32 16 42.5 36t10.5 57v3h-50v112h95v-106q0 -56 -17 -86.5t-62 -51.5z" />
    <glyph glyph-name="hyphen" unicode="-" horiz-adv-x="394" 
d="M52 245v66h289v-66h-289z" />
    <glyph glyph-name="period" unicode="." horiz-adv-x="238" 
d="M72 112h94v-112h-94v112z" />
    <glyph glyph-name="slash" unicode="/" horiz-adv-x="442" 
d="M395 760l-282 -877h-66l282 877h66z" />
    <glyph glyph-name="zero" unicode="0" horiz-adv-x="634" 
d="M121 81.5q-68 96.5 -68 266.5q0 169 68.5 265.5t195.5 96.5t195 -96.5t68 -266.5q0 -169 -68 -265.5t-195 -96.5q-128 0 -196 96.5zM458.5 126.5q48.5 79.5 48.5 220.5t-48.5 221t-141.5 80t-141.5 -79.5t-48.5 -220.5q0 -142 48.5 -221.5t141.5 -79.5t141.5 79.5z" />
    <glyph glyph-name="one" unicode="1" horiz-adv-x="393" 
d="M194 566q-16 -26 -51.5 -40.5t-70.5 -14.5h-32v66h19q54 0 94 31.5t52 86.5h62v-695h-73v566z" />
    <glyph glyph-name="two" unicode="2" horiz-adv-x="542" 
d="M38 61q128 93 250 212q63 63 89.5 115.5t26.5 113.5q0 68 -36.5 106t-102.5 38q-67 0 -105.5 -36.5t-38.5 -99.5q0 -24 8 -64l-74 7q-7 27 -7 58q0 92 59 145.5t162 53.5q100 0 156 -54t56 -153q0 -71 -35 -136t-111 -138q-92 -90 -198 -163h355v-66h-454v61z" />
    <glyph glyph-name="three" unicode="3" horiz-adv-x="567" 
d="M108.5 43q-65.5 58 -68.5 155l72 8q3 -74 48.5 -116.5t122.5 -42.5t117 37.5t40 108.5q0 66 -42 102t-121 36h-44v61h38q71 0 108 34t37 94t-37.5 94t-104.5 34q-73 0 -113 -43t-40 -123l-70 14q0 100 60.5 157t166.5 57q100 0 156 -48.5t56 -134.5q0 -61 -35 -104
t-95 -56q74 -11 114 -55t40 -117q0 -99 -62 -154.5t-171 -55.5q-107 0 -172.5 58z" />
    <glyph glyph-name="four" unicode="4" horiz-adv-x="580" 
d="M541 240v-58h-116v-182h-69v182h-332v51l320 462h81v-455h116zM356 529q0 60 2 92h-2q-9 -21 -18 -37t-26 -41l-158 -227q-32 -50 -56 -76h258v289z" />
    <glyph glyph-name="five" unicode="5" horiz-adv-x="564" 
d="M127 34.5q-61 49.5 -75 133.5l76 8q12 -59 52 -93.5t103 -34.5q75 0 117.5 48t42.5 132t-40.5 133t-115.5 49q-59 0 -99 -33.5t-54 -91.5l-71 7l41 403h379v-64h-324l-27 -261q26 50 69.5 76t103.5 26q99 0 155.5 -64.5t56.5 -176.5q0 -73 -29.5 -128.5t-83 -86.5
t-125.5 -31q-91 0 -152 49.5z" />
    <glyph glyph-name="six" unicode="6" horiz-adv-x="571" 
d="M426 434.5q49 -29.5 76 -83.5t27 -125t-28.5 -125.5t-80 -85t-118.5 -30.5q-124 0 -187 88t-63 261q0 181 66.5 278.5t189.5 97.5q87 0 141 -44.5t70 -129.5l-74 -15q-25 127 -138 127q-90 0 -137 -78t-46 -228q23 57 72.5 89.5t116.5 32.5q64 0 113 -29.5zM413.5 95.5
q41.5 48.5 41.5 129.5q0 82 -42 129.5t-114 47.5q-64 0 -109 -42t-62 -118q11 -92 57 -143.5t118 -51.5q69 0 110.5 48.5z" />
    <glyph glyph-name="seven" unicode="7" horiz-adv-x="498" 
d="M144 11q0 315 251 616h-364v68h447v-59q-123 -134 -188 -292.5t-65 -325.5v-18h-81v11z" />
    <glyph glyph-name="eight" unicode="8" horiz-adv-x="576" 
d="M495 299q37 -45 37 -117q0 -90 -65.5 -143.5t-176.5 -53.5q-113 0 -180 52t-67 141q0 144 152 187q-66 26 -96.5 66.5t-30.5 102.5q0 52 27.5 92t77.5 62t115 22q100 0 159.5 -47.5t59.5 -127.5q0 -62 -34 -103.5t-99 -59.5q84 -28 121 -73zM171.5 454.5
q29.5 -30.5 96.5 -50.5l36 -11q72 25 100.5 55.5t28.5 83.5q0 57 -39 89.5t-108 32.5q-67 0 -105.5 -32t-38.5 -88q0 -49 29.5 -79.5zM414.5 80.5q44.5 36.5 44.5 101.5q0 54 -32 87.5t-103 54.5l-62 19q-75 -24 -109.5 -61t-34.5 -93q0 -67 46.5 -106t125.5 -39
q80 0 124.5 36.5z" />
    <glyph glyph-name="nine" unicode="9" horiz-adv-x="573" 
d="M521 359q0 -170 -60.5 -272t-186.5 -102q-93 0 -149 46.5t-73 135.5l74 15q12 -65 47 -100t102 -35q89 0 130.5 82t41.5 229v10q-24 -54 -72 -81.5t-110 -27.5q-65 0 -115.5 26.5t-79 77t-28.5 120.5q0 64 28.5 116t80.5 81.5t121 29.5q249 0 249 -351zM382.5 362.5
q47.5 41.5 60.5 107.5q-10 80 -51 129t-121 49q-71 0 -113 -45.5t-42 -118.5q0 -75 43.5 -119t112.5 -44q63 0 110.5 41.5z" />
    <glyph glyph-name="colon" unicode=":" horiz-adv-x="238" 
d="M72 470h94v-112h-94v112zM72 112h94v-112h-94v112z" />
    <glyph glyph-name="semicolon" unicode=";" horiz-adv-x="244" 
d="M78 470h94v-112h-94v112zM75 -96q32 16 42.5 36t10.5 57v3h-50v112h95v-106q0 -56 -17 -86.5t-62 -51.5z" />
    <glyph glyph-name="less" unicode="&#x3c;" 
d="M544 157v-67l-468 207v58l468 207v-65l-389 -171z" />
    <glyph glyph-name="equal" unicode="=" 
d="M547 390h-474v66h474v-66zM547 202h-474v66h474v-66z" />
    <glyph glyph-name="greater" unicode="&#x3e;" 
d="M544 297l-468 -207v67l389 169l-389 171v65l468 -207v-58z" />
    <glyph glyph-name="question" unicode="?" horiz-adv-x="464" 
d="M186 226q0 34 12 64t48 64l48 45q34 31 53.5 65t19.5 78q0 56 -36.5 88.5t-98.5 32.5q-64 0 -103.5 -38t-39.5 -106q0 -24 4 -47l-75 8q-3 22 -3 48q0 89 57.5 144t162.5 55q98 0 154 -48.5t56 -135.5q0 -92 -94 -179l-49 -45q-26 -24 -35.5 -46.5t-9.5 -58.5v-27h-71v39
zM265 0h-85v106h85v-106z" />
    <glyph glyph-name="at" unicode="@" horiz-adv-x="837" 
d="M229.5 -55q-85.5 47 -132.5 132.5t-47 198.5q0 112 46.5 199t133 136t201.5 49q112 0 192 -45t122 -127.5t42 -191.5q0 -103 -40 -163.5t-108 -60.5q-42 0 -68.5 22t-36.5 63q-18 -41 -57 -66t-88 -25q-61 0 -101 33t-40 84q0 55 39 85.5t123 42.5l117 15v8
q0 62 -21.5 87t-74.5 25q-47 0 -73 -22t-30 -64h-64q4 64 49 101t119 37q82 0 118.5 -40.5t36.5 -131.5v-112q0 -50 13.5 -72t44.5 -22q39 0 62 47t23 127q0 148 -76.5 232.5t-220.5 84.5q-101 0 -174 -42t-112 -118t-39 -175q0 -97 41 -171t115.5 -115t172.5 -41
q99 0 192 41l22 -45q-49 -24 -103 -35.5t-120 -11.5q-113 0 -198.5 47zM491 155q36 38 36 98v27l-103 -13q-59 -8 -84 -27t-25 -54q0 -30 23 -49.5t60 -19.5q57 0 93 38z" />
    <glyph glyph-name="A" unicode="A" horiz-adv-x="652" 
d="M635 0h-81l-75 207h-306l-75 -207h-81l270 710h78zM197 273h258l-105 291q-10 27 -23 69h-2q-13 -42 -23 -69z" />
    <glyph glyph-name="B" unicode="B" horiz-adv-x="638" 
d="M544.5 311q37.5 -46 37.5 -117q0 -81 -54.5 -137.5t-177.5 -56.5h-260v710h241q125 0 178.5 -55t53.5 -131q0 -56 -31 -99t-94 -58q69 -10 106.5 -56zM167 644v-248h167q152 0 152 122q0 54 -34.5 90t-120.5 36h-164zM345 66q86 0 123 37.5t37 96.5t-36 94.5t-115 35.5
h-187v-264h178z" />
    <glyph glyph-name="C" unicode="C" horiz-adv-x="694" 
d="M190 32.5q-71 49.5 -105.5 134t-34.5 190.5q0 110 37 193.5t108.5 130t173.5 46.5q124 0 194.5 -67.5t84.5 -182.5l-79 -8q-12 88 -64.5 139.5t-139.5 51.5q-73 0 -126 -37.5t-80.5 -105.5t-27.5 -159q0 -89 26.5 -158.5t80 -109t129.5 -39.5q82 0 135.5 49t70.5 136
l75 -12q-21 -109 -91 -175t-191 -66q-105 0 -176 49.5z" />
    <glyph glyph-name="D" unicode="D" horiz-adv-x="701" 
d="M90 0v710h225q101 0 177.5 -44t118 -124.5t41.5 -185.5q0 -103 -42 -184t-119 -126.5t-178 -45.5h-223zM312 66q78 0 136.5 38t89.5 104t31 148q0 85 -30 150t-88 101.5t-137 36.5h-147v-578h145z" />
    <glyph glyph-name="E" unicode="E" horiz-adv-x="587" 
d="M167 331v-265h363v-66h-440v710h433v-66h-356v-247h339v-66h-339z" />
    <glyph glyph-name="F" unicode="F" horiz-adv-x="556" 
d="M523 710v-66h-356v-247h339v-66h-339v-331h-77v710h433z" />
    <glyph glyph-name="G" unicode="G" horiz-adv-x="718" 
d="M192.5 31q-69.5 48 -106 132.5t-36.5 191.5q0 109 37.5 193.5t109.5 131.5t173 47q90 0 148.5 -35t86.5 -84t35 -97l-77 -10q-11 63 -56.5 111.5t-139.5 48.5q-75 0 -128.5 -38.5t-81.5 -108t-28 -160.5q0 -87 26.5 -155.5t80.5 -108.5t132 -40q84 0 132 39t65.5 90.5
t17.5 97.5v25h-220v66h290v-368h-57l-11 129q-24 -66 -85 -106t-144 -40q-94 0 -163.5 48z" />
    <glyph glyph-name="H" unicode="H" horiz-adv-x="719" 
d="M552 710h78v-710h-78v330h-385v-330h-77v710h77v-314h385v314z" />
    <glyph glyph-name="I" unicode="I" horiz-adv-x="257" 
d="M167 710v-710h-77v710h77z" />
    <glyph glyph-name="J" unicode="J" horiz-adv-x="373" 
d="M289 185q0 -107 -55 -152t-141 -45q-57 0 -82 8v72q32 -6 83 -6q53 0 85 28t32 102v518h78v-525z" />
    <glyph glyph-name="K" unicode="K" horiz-adv-x="644" 
d="M623 0h-91l-246 371l-119 -129v-242h-77v710h77v-374l337 374h98l-263 -283z" />
    <glyph glyph-name="L" unicode="L" horiz-adv-x="521" 
d="M504 0h-414v710h77v-644h337v-66z" />
    <glyph glyph-name="M" unicode="M" horiz-adv-x="849" 
d="M90 0v710h109l207 -568q7 -19 11 -32.5t6 -28.5h2q3 16 7 29t11 32l206 568h110v-710h-72v566q0 42 4 71h-4q-7 -38 -20 -75l-205 -562h-75l-205 562q-13 34 -21 75h-3q3 -33 3 -71v-566h-71z" />
    <glyph glyph-name="N" unicode="N" horiz-adv-x="714" 
d="M90 0v710h94l329 -542q29 -50 42 -82h2q-3 41 -3 87v537h70v-710h-94l-329 543q-13 22 -24 42.5t-18 39.5h-2q3 -36 3 -87v-538h-70z" />
    <glyph glyph-name="O" unicode="O" horiz-adv-x="740" 
d="M201.5 29q-72.5 46 -112 130t-39.5 196q0 114 39.5 198t111.5 129t169 45t169 -45t111.5 -129t39.5 -198q0 -113 -39.5 -197t-112 -129.5t-168.5 -45.5t-168.5 46zM498 86q54 37 82.5 106t28.5 163t-28.5 163t-82.5 106t-128 37t-128 -37t-82.5 -106t-28.5 -163
q0 -92 29 -161t83 -107t127 -38q74 0 128 37z" />
    <glyph glyph-name="P" unicode="P" horiz-adv-x="588" 
d="M337 710q107 0 170.5 -55t63.5 -148q0 -95 -63.5 -151.5t-170.5 -56.5h-170v-299h-77v710h247zM330 365q73 0 116 38.5t43 103.5q0 63 -43 100t-116 37h-163v-279h163z" />
    <glyph glyph-name="Q" unicode="Q" horiz-adv-x="740" 
d="M545 -48q31 -13 69 -13q23 0 53 7v-69q-46 -6 -67 -6q-65 0 -112 31t-71 84q-23 -3 -47 -3q-96 0 -168.5 46t-112 130t-39.5 196q0 114 39.5 198t111.5 129t169 45t169 -45t111.5 -129t39.5 -198q0 -134 -54.5 -226t-150.5 -127q29 -37 60 -50zM160 194q29 -69 83 -107
t127 -38q74 0 128 37t82.5 106t28.5 163t-28.5 163t-82.5 106t-128 37t-128 -37t-82.5 -106t-28.5 -163q0 -92 29 -161z" />
    <glyph glyph-name="R" unicode="R" horiz-adv-x="630" 
d="M509 0l-179 303h-163v-303h-77v710h254q126 0 178.5 -57.5t52.5 -145.5q0 -69 -39.5 -123t-123.5 -71l185 -313h-88zM167 644v-275h170q81 0 118.5 37.5t37.5 100.5t-37 100t-119 37h-170z" />
    <glyph glyph-name="S" unicode="S" horiz-adv-x="612" 
d="M115.5 46q-71.5 63 -79.5 167l78 11q8 -78 59 -127.5t146 -49.5q74 0 122.5 34t48.5 100q0 65 -35.5 94.5t-108.5 43.5l-105 21q-175 34 -175 192q0 58 29.5 102t84 68.5t127.5 24.5q110 0 179 -51t78 -155l-78 -15q-15 159 -181 159q-72 0 -115.5 -34.5t-43.5 -93.5
q0 -53 30.5 -84.5t95.5 -45.5l105 -21q91 -18 142 -63t51 -134q0 -59 -29 -105.5t-86.5 -73.5t-138.5 -27q-129 0 -200.5 63z" />
    <glyph glyph-name="T" unicode="T" horiz-adv-x="554" 
d="M9 710h536v-66h-229v-644h-78v644h-229v66z" />
    <glyph glyph-name="U" unicode="U" horiz-adv-x="701" 
d="M85 710h77v-460q0 -92 49 -145t139 -53t139.5 53t49.5 145v460h78v-465q0 -120 -70 -191t-197 -71q-126 0 -195.5 71t-69.5 191v465z" />
    <glyph glyph-name="V" unicode="V" horiz-adv-x="599" 
d="M257 0l-252 710h82l182 -535q18 -49 29 -99h3q11 50 29 99l182 535h82l-252 -710h-85z" />
    <glyph glyph-name="W" unicode="W" horiz-adv-x="899" 
d="M197 0l-177 710h80l137 -591q3 -14 6 -37h3q0 10 7 37l157 591h79l157 -591q6 -24 8 -37h2q3 23 6 37l138 591h79l-176 -710h-95l-151 577q-5 20 -6 33h-3q-1 -13 -6 -33l-150 -577h-95z" />
    <glyph glyph-name="X" unicode="X" horiz-adv-x="618" 
d="M11 0l251 374l-229 336h92l160 -243q14 -21 25 -44h2q7 16 25 43l159 244h87l-228 -343l252 -367h-92l-172 260q-5 8 -16.5 25t-18.5 33h-2q-13 -25 -36 -58l-171 -260h-88z" />
    <glyph glyph-name="Y" unicode="Y" horiz-adv-x="571" 
d="M246 0v285l-245 425h87l173 -307q11 -21 24 -48h2q8 21 23 48l173 307h87l-245 -425v-285h-79z" />
    <glyph glyph-name="Z" unicode="Z" horiz-adv-x="558" 
d="M27 0v72l411 572h-397v66h481v-72l-413 -572h427v-66h-509z" />
    <glyph glyph-name="bracketleft" unicode="[" horiz-adv-x="318" 
d="M276 -114h-186v871h186v-58h-123v-755h123v-58z" />
    <glyph glyph-name="backslash" unicode="\" horiz-adv-x="442" 
d="M395 -117h-66l-282 877h66z" />
    <glyph glyph-name="bracketright" unicode="]" horiz-adv-x="318" 
d="M228 757v-871h-186v58h123v755h-123v58h186z" />
    <glyph glyph-name="asciicircum" unicode="^" horiz-adv-x="388" 
d="M20 447l145 262h58l145 -262h-68l-106 201l-106 -201h-68z" />
    <glyph glyph-name="underscore" unicode="_" horiz-adv-x="422" 
d="M0 -148v49h422v-49h-422z" />
    <glyph glyph-name="grave" unicode="`" horiz-adv-x="600" 
d="M134 723l99 -143h-66l-119 143h86z" />
    <glyph glyph-name="a" unicode="a" horiz-adv-x="532" 
d="M94.5 27.5q-45.5 39.5 -45.5 104.5q0 36 15.5 64.5t45.5 47.5q53 31 165 45l110 13v8q0 77 -28.5 110.5t-92.5 33.5q-57 0 -89.5 -28.5t-35.5 -81.5h-75q5 77 59 122.5t140 45.5q101 0 146.5 -49t45.5 -158v-130q0 -115 16 -175h-73q-6 44 -8 100q-19 -53 -65 -82.5
t-110 -29.5q-75 0 -120.5 39.5zM343.5 93.5q42.5 47.5 42.5 124.5v32l-142 -20q-64 -9 -93 -32t-29 -64t29.5 -64.5t79.5 -23.5q70 0 112.5 47.5z" />
    <glyph glyph-name="b" unicode="b" horiz-adv-x="563" 
d="M209.5 18.5q-44.5 30.5 -63.5 81.5l-13 -100h-53v725h69v-327q20 52 64 83t104 31q61 0 107 -33t71 -92.5t25 -136.5q0 -78 -25.5 -137.5t-73 -92t-109.5 -32.5q-58 0 -102.5 30.5zM405.5 104q40.5 54 40.5 146t-39.5 146t-110.5 54q-68 0 -108 -51.5t-40 -138.5v-24
q0 -84 39.5 -135t106.5 -51q71 0 111.5 54z" />
    <glyph glyph-name="c" unicode="c" horiz-adv-x="520" 
d="M153.5 20q-51.5 32 -79 91t-27.5 139q0 122 60.5 192t165.5 70q86 0 140 -48t63 -133l-71 -8q-7 62 -42 95t-92 33q-70 0 -110 -53t-40 -147q0 -96 40.5 -149t112.5 -53q56 0 90.5 33t44.5 95l67 -10q-14 -85 -67 -132t-136 -47q-68 0 -119.5 32z" />
    <glyph glyph-name="d" unicode="d" horiz-adv-x="563" 
d="M141 21q-47 33 -72.5 92.5t-25.5 136.5q0 76 27 135.5t75.5 93t111.5 33.5q113 0 157 -103v316h70v-725h-66v106q-22 -56 -66 -87t-103 -31q-61 0 -108 33zM374.5 102.5q40.5 52.5 40.5 136.5v21q0 86 -39.5 138t-108.5 52q-70 0 -110 -53t-40 -147q0 -93 39.5 -146.5
t109.5 -53.5q68 0 108.5 52.5z" />
    <glyph glyph-name="e" unicode="e" horiz-adv-x="528" 
d="M480 232h-363q1 -84 44 -133t115 -49q53 0 89.5 28t52.5 79l59 -24q-23 -70 -76 -107.5t-129 -37.5q-107 0 -166 67t-59 192q0 123 59 194t163 71q101 0 156 -59.5t55 -172.5v-48zM409 289v9q0 77 -37 117.5t-105 40.5q-69 0 -108.5 -44.5t-41.5 -122.5h292z" />
    <glyph glyph-name="f" unicode="f" horiz-adv-x="335" 
d="M315 500v-58h-130v-442h-70v442h-93v58h93v83q0 68 38 108t103 40q35 0 59 -7v-60q-28 5 -51 5q-41 0 -60 -23t-19 -72v-74h130z" />
    <glyph glyph-name="g" unicode="g" horiz-adv-x="513" 
d="M386 465q50 -47 50 -121t-49.5 -121.5t-132.5 -47.5q-54 0 -96 22q-20 -8 -31.5 -22t-11.5 -33q0 -26 21 -41.5t64 -15.5h131q80 0 121.5 -35t41.5 -101q0 -73 -60 -114.5t-181 -41.5q-117 0 -170 38t-53 101q0 37 21.5 65t61.5 41q-30 12 -45 34.5t-15 51.5q0 34 19 59
t52 37q-52 49 -52 124q0 74 49.5 121t132.5 47q56 0 98 -22q12 41 41.5 65.5t76.5 24.5q14 0 29 -3v-62q-18 4 -31 4q-62 0 -82 -54zM338 260.5q32 31.5 32 82.5t-32 83t-84 32t-84 -31.5t-32 -82.5t32 -83t84 -32t84 31.5zM198 24q-15 0 -39 2q-30 -12 -45.5 -34t-15.5 -48
q0 -93 163 -93q88 0 125.5 24.5t37.5 69.5q0 39 -27 59t-81 20h-118z" />
    <glyph glyph-name="h" unicode="h" horiz-adv-x="556" 
d="M80 0v725h69v-331q22 58 65.5 88t105.5 30q82 0 124.5 -51t42.5 -151v-310h-70v306q0 72 -30.5 109t-89.5 37q-68 0 -108 -50.5t-40 -138.5v-263h-69z" />
    <glyph glyph-name="i" unicode="i" horiz-adv-x="229" 
d="M149 0h-69v500h69v-500zM154 590h-79v110h79v-110z" />
    <glyph glyph-name="j" unicode="j" horiz-adv-x="235" 
d="M-25 -196v60q39 -3 47 -3q33 0 48.5 19t15.5 68v552h69v-560q0 -64 -29 -103t-93 -39q-35 0 -58 6zM160 590h-79v110h79v-110z" />
    <glyph glyph-name="k" unicode="k" horiz-adv-x="515" 
d="M496 0h-86l-160 258l-101 -101v-157h-69v725h69v-486l242 261h92l-184 -192z" />
    <glyph glyph-name="l" unicode="l" horiz-adv-x="229" 
d="M80 725h69v-725h-69v725z" />
    <glyph glyph-name="m" unicode="m" horiz-adv-x="815" 
d="M80 500h65v-97q19 53 57 81t91 28q54 0 91 -27.5t53 -79.5q22 53 61.5 80t92.5 27q73 0 113.5 -48.5t40.5 -136.5v-327h-70v321q0 64 -26.5 97.5t-78.5 33.5q-57 0 -90 -39.5t-33 -108.5v-304h-69v325q0 61 -27 94t-77 33q-57 0 -91 -43.5t-34 -116.5v-292h-69v500z" />
    <glyph glyph-name="n" unicode="n" horiz-adv-x="556" 
d="M80 0v500h66v-110q45 122 171 122q84 0 127 -51.5t43 -151.5v-309h-70v305q0 73 -31 110t-90 37q-68 0 -107.5 -50.5t-39.5 -138.5v-263h-69z" />
    <glyph glyph-name="o" unicode="o" horiz-adv-x="553" 
d="M155.5 19.5q-51.5 31.5 -80 91t-28.5 139.5t28.5 139.5t80 91t120.5 31.5t121 -31.5t80.5 -91t28.5 -139.5t-28.5 -139.5t-80.5 -91t-121 -31.5t-120.5 31.5zM390.5 101q41.5 52 41.5 149t-41.5 149t-114.5 52t-114 -52t-41 -149t41 -149t114 -52t114.5 52z" />
    <glyph glyph-name="p" unicode="p" horiz-adv-x="563" 
d="M80 -195v695h66v-106q23 56 67.5 87t103.5 31q61 0 107 -32.5t71 -92t25 -137.5t-26 -137.5t-73.5 -92t-108.5 -32.5q-59 0 -102 29.5t-61 76.5v-289h-69zM406 103.5q40 53.5 40 146.5t-38.5 146.5t-107.5 53.5q-70 0 -111 -52t-41 -136v-22q0 -85 40 -137.5t108 -52.5
q70 0 110 53.5z" />
    <glyph glyph-name="q" unicode="q" horiz-adv-x="563" 
d="M414 100q-20 -52 -63.5 -82t-101.5 -30q-61 0 -107.5 32.5t-72.5 91.5t-26 138q0 78 27.5 137.5t75.5 92t110 32.5q117 0 161 -106l15 94h52v-695h-70v295zM374 101.5q41 51.5 41 135.5v25q0 85 -39.5 136.5t-109.5 51.5q-69 0 -109 -53.5t-40 -146.5t39.5 -146.5
t108.5 -53.5q68 0 109 51.5z" />
    <glyph glyph-name="r" unicode="r" horiz-adv-x="335" 
d="M145 378q18 60 58.5 97t96.5 37q12 0 19 -1v-68h-8q-67 0 -107 -38q-32 -32 -43.5 -76.5t-11.5 -99.5v-229h-69v500h65v-122z" />
    <glyph glyph-name="s" unicode="s" horiz-adv-x="480" 
d="M106.5 28.5q-55.5 40.5 -66.5 114.5l70 12q9 -53 45.5 -81t96.5 -28q54 0 84 23.5t30 61.5q0 36 -20 54t-61 26l-97 19q-63 12 -96.5 46.5t-33.5 90.5q0 64 50 104.5t134 40.5q83 0 134.5 -36t58.5 -102l-69 -15q-8 46 -40.5 71t-86.5 25q-51 0 -82 -23t-31 -62
q0 -34 21 -53t62 -27l98 -19q66 -13 97 -46t31 -88q0 -68 -49 -108.5t-136 -40.5q-88 0 -143.5 40.5z" />
    <glyph glyph-name="t" unicode="t" horiz-adv-x="343" 
d="M19 442v58h93v132l70 30v-162h128v-58h-128v-300q0 -44 19.5 -64.5t58.5 -20.5q25 0 50 6v-63q-31 -9 -69 -9q-69 0 -99 38.5t-30 109.5v303h-93z" />
    <glyph glyph-name="u" unicode="u" horiz-adv-x="549" 
d="M110.5 38.5q-40.5 50.5 -40.5 144.5v317h69v-310q0 -71 30.5 -106.5t83.5 -35.5q67 0 106.5 50.5t39.5 128.5v273h70v-500h-66v103q-18 -51 -62 -83t-100 -32q-90 0 -130.5 50.5z" />
    <glyph glyph-name="v" unicode="v" horiz-adv-x="458" 
d="M191 0l-185 500h76l124 -354q15 -47 21 -74h3q4 17 22 74l124 354h76l-185 -500h-76z" />
    <glyph glyph-name="w" unicode="w" horiz-adv-x="713" 
d="M164 0l-144 500h72l99 -369q10 -43 12 -60h2q1 5 9 38l5 22l101 369h74l100 -369q11 -40 14 -60h2q2 17 12 60l99 369h72l-144 -500h-76l-104 374q-8 33 -11 55h-2l-12 -55l-104 -374h-76z" />
    <glyph glyph-name="x" unicode="x" horiz-adv-x="477" 
d="M13 0l183 259l-170 241h82l97 -144q28 -42 34 -56h1q8 16 33 56l93 144h85l-168 -246l181 -254h-83l-110 161q-22 31 -32 54h-1q-7 -15 -33 -55l-109 -160h-83z" />
    <glyph glyph-name="y" unicode="y" horiz-adv-x="466" 
d="M38 -196v62q18 -3 35 -3q47 0 74 25t46 79l13 37l-200 496h78l134 -357q13 -34 22 -68h2q7 28 21 69l122 356h75l-195 -532q-33 -91 -76.5 -129.5t-106.5 -38.5q-24 0 -44 4z" />
    <glyph glyph-name="z" unicode="z" horiz-adv-x="445" 
d="M34 0v54l285 387h-274v59h358v-52l-283 -388h297v-60h-383z" />
    <glyph glyph-name="braceleft" unicode="{" horiz-adv-x="353" 
d="M275 -116q-65 0 -105.5 35.5t-40.5 100.5v179q0 34 -4.5 55t-20 33.5t-47.5 13.5v56q32 1 47.5 12t19.5 30.5t4 55.5v172q0 69 43.5 106.5t115.5 37.5h21v-51h-14q-47 0 -73.5 -25t-26.5 -75v-159q0 -52 -14.5 -85.5t-53.5 -45.5q39 -15 53 -50.5t14 -87.5v-161
q0 -48 27 -72t70 -24h21v-51h-36z" />
    <glyph glyph-name="bar" unicode="|" horiz-adv-x="219" 
d="M139 -117h-59v877h59v-877z" />
    <glyph glyph-name="braceright" unicode="}" horiz-adv-x="353" 
d="M42 -116v51h20q44 0 70.5 23.5t26.5 72.5v161q0 52 14.5 87.5t52.5 50.5q-39 12 -53 45.5t-14 85.5v159q0 49 -27 74.5t-73 25.5h-14v51h21q72 0 115.5 -37.5t43.5 -106.5v-172q0 -37 4 -56t19 -30t48 -12v-56q-32 -1 -47.5 -13.5t-20 -33t-4.5 -55.5v-179
q0 -65 -40.5 -100.5t-105.5 -35.5h-36z" />
    <glyph glyph-name="asciitilde" unicode="~" horiz-adv-x="619" 
d="M350.5 246.5q-24.5 11.5 -58.5 35.5q-27 19 -44.5 28t-37.5 9q-60 0 -77 -74l-58 9q11 59 47 92t89 33q33 0 58.5 -12t57.5 -35q24 -18 42.5 -27t38.5 -9q31 0 50 18.5t27 55.5l58 -10q-11 -59 -46.5 -92t-89.5 -33q-32 0 -56.5 11.5z" />
    <glyph glyph-name="uni00A0" unicode="&#xa0;" horiz-adv-x="265" 
 />
    <glyph glyph-name="exclamdown" unicode="&#xa1;" horiz-adv-x="267" 
d="M177 485v-104h-87v104h87zM89 -225l20 526h50l19 -526h-89z" />
    <glyph glyph-name="cent" unicode="&#xa2;" horiz-adv-x="538" 
d="M303 47q53 5 85.5 36.5t39.5 83.5l65 -12q-14 -75 -63 -118.5t-127 -47.5v-78h-51v79q-96 10 -150.5 78.5t-54.5 182.5t53.5 181.5t151.5 77.5v84h51v-83q80 -4 131 -50t60 -121l-68 -9q-8 54 -39.5 85t-83.5 36v-405zM153 112q35 -53 99 -64v403q-64 -10 -99 -61.5
t-35 -137.5q0 -87 35 -140z" />
    <glyph glyph-name="sterling" unicode="&#xa3;" horiz-adv-x="603" 
d="M584 152q-9 -80 -52 -123.5t-113 -43.5q-45 0 -104 13q-38 8 -63.5 11.5t-59.5 3.5q-63 0 -153 -20l-16 52q71 23 108 71t37 120q0 49 -9 101h-111v53h99q-15 68 -15 117q0 94 54 148.5t150 54.5q82 0 133 -40.5t66 -117.5l-72 -17q-10 56 -42 85t-86 29
q-62 0 -93.5 -35.5t-31.5 -103.5q0 -51 15 -120h189v-53h-178q7 -45 7 -87q0 -67 -25.5 -112.5t-78.5 -71.5q36 9 82 9q35 0 65 -5t35 -6q57 -11 98 -11q43 0 69 29t30 82z" />
    <glyph glyph-name="currency" unicode="&#xa4;" horiz-adv-x="549" 
d="M448 153l54 -57l-34 -31l-53 56q-58 -44 -137 -44q-81 0 -141 46l-55 -59l-34 31l56 61q-48 62 -48 147q0 87 49 147l-58 62l34 30l57 -59q59 46 140 46q77 0 136 -43l54 57l34 -31l-54 -59q24 -29 37.5 -67.5t13.5 -82.5q0 -88 -51 -150zM358.5 157q35.5 21 55.5 59
t20 87t-20 87t-55.5 59t-80.5 21t-81 -21t-56.5 -59t-20.5 -87t20.5 -87t56.5 -59t81 -21t80.5 21z" />
    <glyph glyph-name="yen" unicode="&#xa5;" horiz-adv-x="524" 
d="M523 695l-219 -363h181v-51h-185v-56h185v-50h-185v-175h-75v175h-186v50h186v56h-186v51h182l-220 363h83l130 -221q30 -50 47 -91h3q13 32 28 59t18 32l130 221h83z" />
    <glyph glyph-name="brokenbar" unicode="&#xa6;" horiz-adv-x="218" 
d="M80 760h59v-378h-59v378zM80 261h59v-378h-59v378z" />
    <glyph glyph-name="section" unicode="&#xa7;" horiz-adv-x="497" 
d="M441 214.5q-15 -28.5 -42 -49.5q37 -38 37 -98q0 -72 -51.5 -112.5t-142.5 -40.5q-89 0 -142.5 40.5t-63.5 116.5l64 11q10 -53 47.5 -81t98.5 -28q59 0 89.5 23t30.5 66q0 35 -19.5 56.5t-74.5 44.5l-107 45q-65 27 -94 62t-29 88q0 69 62 105q-45 41 -45 103
q0 68 50.5 108.5t136.5 40.5q80 0 130 -37.5t60 -105.5l-69 -16q-13 102 -125 102q-52 0 -82.5 -22.5t-30.5 -61.5q0 -37 21 -58.5t81 -46.5l100 -39q66 -27 95.5 -63t29.5 -90q0 -34 -15 -62.5zM308 221q28 -11 51 -26q29 31 29 70q0 27 -10.5 45.5t-36 35t-75.5 37.5
l-93 39q-11 4 -29 14q-33 -25 -33 -67q0 -28 9.5 -45.5t35.5 -33.5t79 -38z" />
    <glyph glyph-name="dieresis" unicode="&#xa8;" horiz-adv-x="600" 
d="M129 592h-79v106h79v-106zM332 592h-79v106h79v-106z" />
    <glyph glyph-name="copyright" unicode="&#xa9;" horiz-adv-x="842" 
d="M235 29q-85 46 -135 130.5t-50 195.5q0 112 50 196.5t135 130t186 45.5t186 -45.5t135 -130t50 -196.5q0 -111 -50 -195.5t-135 -130.5t-186 -46t-186 46zM585 64q75 41 119 116t44 175t-44 175.5t-119 116t-164 40.5t-164 -40.5t-119 -116t-44 -175.5t44 -175t119 -116
t164 -41t164 41zM287 199q-50 57 -50 155q0 97 50 155.5t136 58.5q68 0 111.5 -37.5t47.5 -98.5l-59 -6q-5 42 -31.5 67t-70.5 25q-58 0 -92 -44.5t-34 -119.5q0 -74 34.5 -118t93.5 -44q41 0 69 25t33 65l58 -8q-9 -59 -53.5 -95.5t-106.5 -36.5q-86 0 -136 57z" />
    <glyph glyph-name="ordfeminine" unicode="&#xaa;" horiz-adv-x="434" 
d="M81 330q-34 29 -34 76q0 53 39.5 77.5t114.5 33.5l100 13l1 8q0 54 -21 77.5t-67 23.5q-42 0 -66.5 -20.5t-25.5 -59.5h-64q3 59 44.5 92t111.5 33q78 0 114 -36t36 -114v-101q0 -75 10 -123h-62q-6 41 -7 76q-14 -40 -49 -62.5t-84 -22.5q-57 0 -91 29zM272 377.5
q31 32.5 31 83.5v33l-97 -13q-49 -7 -72 -24t-23 -47q0 -29 21.5 -47t58.5 -18q50 0 81 32.5z" />
    <glyph glyph-name="guillemotleft" unicode="&#xab;" horiz-adv-x="500" 
d="M282 67h-75l-170 208l171 208h74l-166 -208zM469 67h-75l-170 208l171 208h74l-166 -208z" />
    <glyph glyph-name="logicalnot" unicode="&#xac;" 
d="M79 301v66h462v-236h-71v170h-391z" />
    <glyph glyph-name="registered" unicode="&#xae;" horiz-adv-x="842" 
d="M607 681.5q85 -45.5 135 -130t50 -196.5q0 -111 -50 -195.5t-135 -130.5t-186 -46t-186 46t-135 130.5t-50 195.5q0 112 50 196.5t135 130t186 45.5t186 -45.5zM585 64q75 41 119 116t44 175t-44 175.5t-119 116t-164 40.5t-164 -40.5t-119 -116t-44 -175.5t44 -175
t119 -116t164 -41t164 41zM549 377.5q-22 -29.5 -64 -41.5l101 -180h-64l-94 175h-80v-175h-55v406h142q66 0 101 -30.5t35 -85.5q0 -39 -22 -68.5zM348 515v-137h84q42 0 63 18t21 50q0 69 -80 69h-88z" />
    <glyph glyph-name="macron" unicode="&#xaf;" horiz-adv-x="600" 
d="M341 619h-291v56h291v-56z" />
    <glyph glyph-name="degree" unicode="&#xb0;" horiz-adv-x="408" 
d="M116.5 395.5q-39.5 21.5 -62 60.5t-22.5 90t22.5 89.5t61.5 60t88 21.5q48 0 87.5 -21.5t62 -60.5t22.5 -89q0 -51 -22.5 -90t-62 -60.5t-87.5 -21.5t-87.5 21.5zM281 466q30 31 30 80t-30 79.5t-77 30.5t-77 -30.5t-30 -79.5t30 -80t77 -31t77 31z" />
    <glyph glyph-name="plusminus" unicode="&#xb1;" 
d="M345 175h-70v161h-200v65h200v161h70v-161h199v-65h-199v-161zM73 48v65h473v-65h-473z" />
    <glyph glyph-name="uni00B2" unicode="&#xb2;" horiz-adv-x="442" 
d="M40 359q130 85 205.5 160.5t75.5 153.5q0 49 -27 76.5t-76 27.5q-51 0 -80 -27t-29 -73q0 -20 6 -44l-64 5q-6 28 -6 43q0 68 47 107.5t129 39.5q79 0 122.5 -40t43.5 -112q0 -84 -75 -165t-186 -148h272v-53h-358v49z" />
    <glyph glyph-name="uni00B3" unicode="&#xb3;" horiz-adv-x="456" 
d="M92 342q-50 43 -52 116l63 6q2 -54 35 -84.5t89 -30.5t86.5 27t30.5 77q0 44 -31.5 69.5t-87.5 25.5h-37v46h31q51 0 79.5 24.5t28.5 66.5q0 44 -27.5 69t-76.5 25q-55 0 -84.5 -30.5t-29.5 -85.5l-62 8q0 74 47 115.5t131 41.5q79 0 122.5 -36t43.5 -101q0 -44 -28 -76
t-75 -40q57 -7 89 -39.5t32 -85.5q0 -71 -49 -111t-134 -40q-84 0 -134 43z" />
    <glyph glyph-name="acute" unicode="&#xb4;" horiz-adv-x="282" 
d="M114 580h-66l99 143h86z" />
    <glyph glyph-name="uni00B5" unicode="&#xb5;" horiz-adv-x="562" 
d="M422 0q-7 34 -10 99q-19 -50 -62.5 -80.5t-98.5 -30.5q-68 0 -109 30v-213h-62v695h69v-310q0 -71 30.5 -106.5t83.5 -35.5q67 0 106.5 50.5t39.5 128.5v273h70v-329q0 -111 16 -171h-73z" />
    <glyph glyph-name="paragraph" unicode="&#xb6;" horiz-adv-x="665" 
d="M279 361q-102 0 -166.5 40t-64.5 138q0 95 66.5 138t169.5 43h312v-48h-100v-772h-55v772h-107v-772h-55v461z" />
    <glyph glyph-name="periodcentered" unicode="&#xb7;" horiz-adv-x="238" 
d="M72 338h94v-112h-94v112z" />
    <glyph glyph-name="cedilla" unicode="&#xb8;" horiz-adv-x="600" 
d="M118 5h46l-37 -61q14 12 42 12q32 0 52 -20t20 -54q0 -37 -27 -59.5t-71 -22.5q-37 0 -62 16.5t-33 46.5l49 7q4 -14 16 -22.5t29 -8.5q20 0 32.5 12t12.5 32q0 19 -11.5 30.5t-31.5 11.5q-21 0 -37 -16l-33 11z" />
    <glyph glyph-name="uni00B9" unicode="&#xb9;" horiz-adv-x="320" 
d="M155 716q-15 -20 -42.5 -32.5t-56.5 -12.5h-19v58h11q44 0 75.5 23t42.5 65h50v-507h-61v406z" />
    <glyph glyph-name="ordmasculine" unicode="&#xba;" horiz-adv-x="444" 
d="M94 352q-48 51 -48 141q0 89 48 140t128 51t128 -51t48 -140q0 -90 -48 -141t-128 -51t-128 51zM305.5 385.5q30.5 37.5 30.5 107.5q0 69 -30.5 106.5t-83.5 37.5t-83.5 -37.5t-30.5 -106.5q0 -70 30.5 -107.5t83.5 -37.5t83.5 37.5z" />
    <glyph glyph-name="guillemotright" unicode="&#xbb;" horiz-adv-x="500" 
d="M277 275l-170 -208h-75l166 208l-167 208h74zM464 275l-171 -208h-74l166 208l-167 208h74z" />
    <glyph glyph-name="onequarter" unicode="&#xbc;" horiz-adv-x="777" 
d="M121 627q-13 -17 -35 -27t-46 -10h-12v54h8q75 0 96 67h47v-378h-58v294zM170 -17h-63l431 744h62zM745 136v-44h-64v-92h-56v92h-196v43l190 243h62v-242h64zM625 136v187l-147 -187h147z" />
    <glyph glyph-name="onehalf" unicode="&#xbd;" horiz-adv-x="804" 
d="M121 627q-13 -17 -35 -27t-46 -10h-12v54h8q75 0 96 67h47v-378h-58v294zM170 -17h-63l431 744h62zM480 44q107 64 163.5 115t56.5 108q0 35 -20 54t-56 19q-38 0 -59.5 -19t-21.5 -53q0 -12 5 -30l-61 5q-3 14 -3 31q0 53 38 83t105 30q63 0 98.5 -30t35.5 -85
q0 -64 -59 -123.5t-142 -103.5h210v-45h-290v44z" />
    <glyph glyph-name="threequarters" unicode="&#xbe;" horiz-adv-x="882" 
d="M73.5 357q-39.5 32 -40.5 88l59 5q2 -38 25.5 -59t63.5 -21q41 0 63 18t22 53q0 30 -22.5 46.5t-63.5 16.5h-37v43h33q37 0 58.5 17t21.5 45q0 32 -20 49.5t-57 17.5q-39 0 -62 -21.5t-23 -59.5l-58 5q0 56 39 88t107 32q63 0 98.5 -28t35.5 -77q0 -33 -23 -57.5
t-60 -28.5q43 -4 69.5 -29t26.5 -64q0 -52 -39.5 -81.5t-108.5 -29.5q-68 0 -107.5 32zM275 -17h-63l431 744h62zM850 136v-44h-64v-92h-56v92h-196v43l190 243h62v-242h64zM730 136v187l-147 -187h147z" />
    <glyph glyph-name="questiondown" unicode="&#xbf;" horiz-adv-x="464" 
d="M199 500h85v-106h-85v106zM278 274q0 -34 -11.5 -64t-48.5 -64l-48 -45q-34 -31 -53.5 -65t-19.5 -78q0 -56 36.5 -88.5t98.5 -32.5q64 0 104 38t40 106q0 24 -5 47l75 -8q4 -22 4 -48q0 -89 -58 -144t-163 -55q-98 0 -153.5 48.5t-55.5 135.5q0 94 94 179l48 45
q26 24 36 46.5t10 58.5v27h70v-39z" />
    <glyph glyph-name="Agrave" unicode="&#xc0;" horiz-adv-x="652" 
d="M635 0h-81l-75 207h-306l-75 -207h-81l270 710h78zM197 273h258l-105 291q-10 27 -23 69h-2q-13 -42 -23 -69zM269 856l91 -103h-68l-102 103h79z" />
    <glyph glyph-name="Aacute" unicode="&#xc1;" horiz-adv-x="652" 
d="M635 0h-81l-75 207h-306l-75 -207h-81l270 710h78zM197 273h258l-105 291q-10 27 -23 69h-2q-13 -42 -23 -69zM360 753h-68l91 103h79z" />
    <glyph glyph-name="Acircumflex" unicode="&#xc2;" horiz-adv-x="652" 
d="M635 0h-81l-75 207h-306l-75 -207h-81l270 710h78zM197 273h258l-105 291q-10 27 -23 69h-2q-13 -42 -23 -69zM369 856l100 -103h-72l-71 73l-71 -73h-73l101 103h86z" />
    <glyph glyph-name="Atilde" unicode="&#xc3;" horiz-adv-x="652" 
d="M635 0h-81l-75 207h-306l-75 -207h-81l270 710h78zM197 273h258l-105 291q-10 27 -23 69h-2q-13 -42 -23 -69zM351 756.5q-17 8.5 -38 23.5q-17 13 -28.5 19t-25.5 6q-20 0 -32.5 -12.5t-17.5 -40.5l-49 9q7 47 33 72.5t68 25.5q24 0 40.5 -8t37.5 -24q19 -14 29.5 -19.5
t25.5 -5.5q20 0 32 13t17 40l49 -8q-6 -48 -32 -73.5t-69 -25.5q-23 0 -40 8.5z" />
    <glyph glyph-name="Adieresis" unicode="&#xc4;" horiz-adv-x="652" 
d="M635 0h-81l-75 207h-306l-75 -207h-81l270 710h78zM197 273h258l-105 291q-10 27 -23 69h-2q-13 -42 -23 -69zM257 753h-79v96h79v-96zM475 753h-79v96h79v-96z" />
    <glyph glyph-name="Aring" unicode="&#xc5;" horiz-adv-x="652" 
d="M635 0h-81l-75 207h-306l-75 -207h-81l270 710h78zM197 273h258l-105 291q-10 27 -23 69h-2q-13 -42 -23 -69zM250.5 765.5q-29.5 27.5 -29.5 71.5t29.5 72t75.5 28q47 0 76 -28t29 -72t-29 -71.5t-76 -27.5q-46 0 -75.5 27.5zM367.5 795q15.5 16 15.5 42t-15.5 42.5
t-41.5 16.5q-25 0 -41 -16.5t-16 -42.5t16 -42t41 -16q26 0 41.5 16z" />
    <glyph glyph-name="AE" unicode="&#xc6;" horiz-adv-x="916" 
d="M518 331v-265h341v-66h-419v177h-262l-100 -177h-83l418 710h439v-66h-334v-247h317v-66h-317zM440 639l-225 -397h225v397z" />
    <glyph glyph-name="Ccedilla" unicode="&#xc7;" horiz-adv-x="694" 
d="M502.5 100q53.5 49 70.5 136l75 -12q-20 -104 -85.5 -169.5t-177.5 -71.5l-24 -39q14 12 42 12q32 0 52 -20t20 -54q0 -37 -27 -59.5t-71 -22.5q-37 0 -62 16.5t-33 46.5l49 7q4 -14 16 -22.5t29 -8.5q20 0 32.5 12t12.5 32q0 19 -11.5 30.5t-31.5 11.5q-21 0 -37 -16
l-33 11l33 64q-97 6 -162.5 56.5t-97 132.5t-31.5 184q0 110 37 193.5t108.5 130t173.5 46.5q124 0 194.5 -67.5t84.5 -182.5l-79 -8q-12 88 -64.5 139.5t-139.5 51.5q-73 0 -126 -37.5t-80.5 -105.5t-27.5 -159q0 -89 26.5 -158.5t80 -109t129.5 -39.5q82 0 135.5 49z" />
    <glyph glyph-name="Egrave" unicode="&#xc8;" horiz-adv-x="587" 
d="M167 331v-265h363v-66h-440v710h433v-66h-356v-247h339v-66h-339zM249 856l91 -103h-68l-102 103h79z" />
    <glyph glyph-name="Eacute" unicode="&#xc9;" horiz-adv-x="587" 
d="M167 331v-265h363v-66h-440v710h433v-66h-356v-247h339v-66h-339zM340 753h-68l91 103h79z" />
    <glyph glyph-name="Ecircumflex" unicode="&#xca;" horiz-adv-x="587" 
d="M167 331v-265h363v-66h-440v710h433v-66h-356v-247h339v-66h-339zM349 856l100 -103h-72l-71 73l-71 -73h-73l101 103h86z" />
    <glyph glyph-name="Edieresis" unicode="&#xcb;" horiz-adv-x="587" 
d="M167 331v-265h363v-66h-440v710h433v-66h-356v-247h339v-66h-339zM237 753h-79v96h79v-96zM455 753h-79v96h79v-96z" />
    <glyph glyph-name="Igrave" unicode="&#xcc;" horiz-adv-x="257" 
d="M167 710v-710h-77v710h77zM72 856l91 -103h-68l-102 103h79z" />
    <glyph glyph-name="Iacute" unicode="&#xcd;" horiz-adv-x="257" 
d="M167 710v-710h-77v710h77zM163 753h-68l91 103h79z" />
    <glyph glyph-name="Icircumflex" unicode="&#xce;" horiz-adv-x="257" 
d="M167 710v-710h-77v710h77zM172 856l100 -103h-72l-71 73l-71 -73h-73l101 103h86z" />
    <glyph glyph-name="Idieresis" unicode="&#xcf;" horiz-adv-x="257" 
d="M167 710v-710h-77v710h77zM60 753h-79v96h79v-96zM278 753h-79v96h79v-96z" />
    <glyph glyph-name="Eth" unicode="&#xd0;" horiz-adv-x="701" 
d="M315 710q101 0 177.5 -44t118 -124.5t41.5 -185.5q0 -103 -42 -184t-119 -126.5t-178 -45.5h-223v341h-72v60h72v309h225zM312 66q78 0 136.5 38t89.5 104t31 148q0 85 -30 150t-88 101.5t-137 36.5h-147v-243h199v-60h-199v-275h145z" />
    <glyph glyph-name="Ntilde" unicode="&#xd1;" horiz-adv-x="714" 
d="M90 0v710h94l329 -542q29 -50 42 -82h2q-3 41 -3 87v537h70v-710h-94l-329 543q-13 22 -24 42.5t-18 39.5h-2q3 -36 3 -87v-538h-70zM382 756.5q-17 8.5 -38 23.5q-17 13 -28.5 19t-25.5 6q-20 0 -32.5 -12.5t-17.5 -40.5l-49 9q7 47 33 72.5t68 25.5q24 0 40.5 -8
t37.5 -24q19 -14 29.5 -19.5t25.5 -5.5q20 0 32 13t17 40l49 -8q-6 -48 -32 -73.5t-69 -25.5q-23 0 -40 8.5z" />
    <glyph glyph-name="Ograve" unicode="&#xd2;" horiz-adv-x="740" 
d="M201.5 29q-72.5 46 -112 130t-39.5 196q0 114 39.5 198t111.5 129t169 45t169 -45t111.5 -129t39.5 -198q0 -113 -39.5 -197t-112 -129.5t-168.5 -45.5t-168.5 46zM498 86q54 37 82.5 106t28.5 163t-28.5 163t-82.5 106t-128 37t-128 -37t-82.5 -106t-28.5 -163
q0 -92 29 -161t83 -107t127 -38q74 0 128 37zM313 856l91 -103h-68l-102 103h79z" />
    <glyph glyph-name="Oacute" unicode="&#xd3;" horiz-adv-x="740" 
d="M201.5 29q-72.5 46 -112 130t-39.5 196q0 114 39.5 198t111.5 129t169 45t169 -45t111.5 -129t39.5 -198q0 -113 -39.5 -197t-112 -129.5t-168.5 -45.5t-168.5 46zM498 86q54 37 82.5 106t28.5 163t-28.5 163t-82.5 106t-128 37t-128 -37t-82.5 -106t-28.5 -163
q0 -92 29 -161t83 -107t127 -38q74 0 128 37zM404 753h-68l91 103h79z" />
    <glyph glyph-name="Ocircumflex" unicode="&#xd4;" horiz-adv-x="740" 
d="M201.5 29q-72.5 46 -112 130t-39.5 196q0 114 39.5 198t111.5 129t169 45t169 -45t111.5 -129t39.5 -198q0 -113 -39.5 -197t-112 -129.5t-168.5 -45.5t-168.5 46zM498 86q54 37 82.5 106t28.5 163t-28.5 163t-82.5 106t-128 37t-128 -37t-82.5 -106t-28.5 -163
q0 -92 29 -161t83 -107t127 -38q74 0 128 37zM414 856l100 -103h-72l-71 73l-71 -73h-73l101 103h86z" />
    <glyph glyph-name="Otilde" unicode="&#xd5;" horiz-adv-x="740" 
d="M201.5 29q-72.5 46 -112 130t-39.5 196q0 114 39.5 198t111.5 129t169 45t169 -45t111.5 -129t39.5 -198q0 -113 -39.5 -197t-112 -129.5t-168.5 -45.5t-168.5 46zM498 86q54 37 82.5 106t28.5 163t-28.5 163t-82.5 106t-128 37t-128 -37t-82.5 -106t-28.5 -163
q0 -92 29 -161t83 -107t127 -38q74 0 128 37zM395 756.5q-17 8.5 -38 23.5q-17 13 -28.5 19t-25.5 6q-20 0 -32.5 -12.5t-17.5 -40.5l-49 9q7 47 33 72.5t68 25.5q24 0 40.5 -8t37.5 -24q19 -14 29.5 -19.5t25.5 -5.5q20 0 32 13t17 40l49 -8q-6 -48 -32 -73.5t-69 -25.5
q-23 0 -40 8.5z" />
    <glyph glyph-name="Odieresis" unicode="&#xd6;" horiz-adv-x="740" 
d="M201.5 29q-72.5 46 -112 130t-39.5 196q0 114 39.5 198t111.5 129t169 45t169 -45t111.5 -129t39.5 -198q0 -113 -39.5 -197t-112 -129.5t-168.5 -45.5t-168.5 46zM498 86q54 37 82.5 106t28.5 163t-28.5 163t-82.5 106t-128 37t-128 -37t-82.5 -106t-28.5 -163
q0 -92 29 -161t83 -107t127 -38q74 0 128 37zM301 753h-79v96h79v-96zM519 753h-79v96h79v-96z" />
    <glyph glyph-name="multiply" unicode="&#xd7;" 
d="M501 565l48 -47l-192 -191l192 -190l-47 -48l-192 191l-193 -191l-47 47l192 191l-192 191l47 47l192 -191z" />
    <glyph glyph-name="Oslash" unicode="&#xd8;" horiz-adv-x="740" 
d="M611 618q79 -99 79 -263q0 -113 -39.5 -197t-112 -129.5t-168.5 -45.5q-119 0 -200 69l-47 -61l-45 33l53 68q-39 48 -60 115t-21 148q0 114 39.5 198t111.5 129t169 45q121 0 202 -69l46 60l45 -33zM180 155l346 445q-59 61 -156 61q-74 0 -128 -37t-82.5 -106
t-28.5 -163q0 -122 49 -200zM498 86q54 37 82.5 106t28.5 163q0 123 -47 200l-347 -445q63 -61 155 -61q74 0 128 37z" />
    <glyph glyph-name="Ugrave" unicode="&#xd9;" horiz-adv-x="701" 
d="M85 710h77v-460q0 -92 49 -145t139 -53t139.5 53t49.5 145v460h78v-465q0 -120 -70 -191t-197 -71q-126 0 -195.5 71t-69.5 191v465zM294 856l91 -103h-68l-102 103h79z" />
    <glyph glyph-name="Uacute" unicode="&#xda;" horiz-adv-x="701" 
d="M85 710h77v-460q0 -92 49 -145t139 -53t139.5 53t49.5 145v460h78v-465q0 -120 -70 -191t-197 -71q-126 0 -195.5 71t-69.5 191v465zM384 753h-68l91 103h79z" />
    <glyph glyph-name="Ucircumflex" unicode="&#xdb;" horiz-adv-x="701" 
d="M85 710h77v-460q0 -92 49 -145t139 -53t139.5 53t49.5 145v460h78v-465q0 -120 -70 -191t-197 -71q-126 0 -195.5 71t-69.5 191v465zM394 856l100 -103h-72l-71 73l-71 -73h-73l101 103h86z" />
    <glyph glyph-name="Udieresis" unicode="&#xdc;" horiz-adv-x="701" 
d="M85 710h77v-460q0 -92 49 -145t139 -53t139.5 53t49.5 145v460h78v-465q0 -120 -70 -191t-197 -71q-126 0 -195.5 71t-69.5 191v465zM282 753h-79v96h79v-96zM500 753h-79v96h79v-96z" />
    <glyph glyph-name="Yacute" unicode="&#xdd;" horiz-adv-x="571" 
d="M246 0v285l-245 425h87l173 -307q11 -21 24 -48h2q8 21 23 48l173 307h87l-245 -425v-285h-79zM319 753h-68l91 103h79z" />
    <glyph glyph-name="Thorn" unicode="&#xde;" horiz-adv-x="549" 
d="M313 568q101 0 160 -51.5t59 -140.5q0 -58 -27 -102.5t-77 -69t-115 -24.5h-146v-180h-77v710h77v-142h146zM309 246q63 0 101.5 36t38.5 94t-38 92t-102 34h-142v-256h142z" />
    <glyph glyph-name="germandbls" unicode="&#xdf;" horiz-adv-x="562" 
d="M86 508q0 99 53 159t146 60q88 0 138.5 -40.5t50.5 -115.5q0 -70 -38 -115.5t-104 -52.5q90 -7 138 -57t48 -135q0 -106 -62.5 -164.5t-170.5 -58.5q-42 0 -69 10v59q27 -10 67 -10q75 0 118.5 42.5t43.5 121.5q0 76 -46.5 116t-138.5 43h-40v59h41q67 3 103 38.5
t36 98.5q0 49 -32 77t-88 28q-61 0 -92.5 -44t-31.5 -122v-505h-70v508z" />
    <glyph glyph-name="agrave" unicode="&#xe0;" horiz-adv-x="532" 
d="M94.5 27.5q-45.5 39.5 -45.5 104.5q0 36 15.5 64.5t45.5 47.5q53 31 165 45l110 13v8q0 77 -28.5 110.5t-92.5 33.5q-57 0 -89.5 -28.5t-35.5 -81.5h-75q5 77 59 122.5t140 45.5q101 0 146.5 -49t45.5 -158v-130q0 -115 16 -175h-73q-6 44 -8 100q-19 -53 -65 -82.5
t-110 -29.5q-75 0 -120.5 39.5zM343.5 93.5q42.5 47.5 42.5 124.5v32l-142 -20q-64 -9 -93 -32t-29 -64t29.5 -64.5t79.5 -23.5q70 0 112.5 47.5zM198 723l99 -143h-66l-119 143h86z" />
    <glyph glyph-name="aacute" unicode="&#xe1;" horiz-adv-x="532" 
d="M94.5 27.5q-45.5 39.5 -45.5 104.5q0 36 15.5 64.5t45.5 47.5q53 31 165 45l110 13v8q0 77 -28.5 110.5t-92.5 33.5q-57 0 -89.5 -28.5t-35.5 -81.5h-75q5 77 59 122.5t140 45.5q101 0 146.5 -49t45.5 -158v-130q0 -115 16 -175h-73q-6 44 -8 100q-19 -53 -65 -82.5
t-110 -29.5q-75 0 -120.5 39.5zM343.5 93.5q42.5 47.5 42.5 124.5v32l-142 -20q-64 -9 -93 -32t-29 -64t29.5 -64.5t79.5 -23.5q70 0 112.5 47.5zM300 580h-66l99 143h86z" />
    <glyph glyph-name="acircumflex" unicode="&#xe2;" horiz-adv-x="532" 
d="M94.5 27.5q-45.5 39.5 -45.5 104.5q0 36 15.5 64.5t45.5 47.5q53 31 165 45l110 13v8q0 77 -28.5 110.5t-92.5 33.5q-57 0 -89.5 -28.5t-35.5 -81.5h-75q5 77 59 122.5t140 45.5q101 0 146.5 -49t45.5 -158v-130q0 -115 16 -175h-73q-6 44 -8 100q-19 -53 -65 -82.5
t-110 -29.5q-75 0 -120.5 39.5zM343.5 93.5q42.5 47.5 42.5 124.5v32l-142 -20q-64 -9 -93 -32t-29 -64t29.5 -64.5t79.5 -23.5q70 0 112.5 47.5zM301 723l112 -143h-66l-82 107l-81 -107h-66l111 143h72z" />
    <glyph glyph-name="atilde" unicode="&#xe3;" horiz-adv-x="532" 
d="M94.5 27.5q-45.5 39.5 -45.5 104.5q0 36 15.5 64.5t45.5 47.5q53 31 165 45l110 13v8q0 77 -28.5 110.5t-92.5 33.5q-57 0 -89.5 -28.5t-35.5 -81.5h-75q5 77 59 122.5t140 45.5q101 0 146.5 -49t45.5 -158v-130q0 -115 16 -175h-73q-6 44 -8 100q-19 -53 -65 -82.5
t-110 -29.5q-75 0 -120.5 39.5zM343.5 93.5q42.5 47.5 42.5 124.5v32l-142 -20q-64 -9 -93 -32t-29 -64t29.5 -64.5t79.5 -23.5q70 0 112.5 47.5zM294.5 599.5q-17.5 9.5 -43.5 29.5q-19 16 -32 23.5t-29 7.5q-21 0 -33 -15t-18 -46l-49 8q7 52 33.5 81t69.5 29
q26 0 44.5 -10t42.5 -30q19 -16 32 -23.5t29 -7.5q21 0 33.5 15t18.5 47l48 -9q-6 -52 -33 -80.5t-70 -28.5q-26 0 -43.5 9.5z" />
    <glyph glyph-name="adieresis" unicode="&#xe4;" horiz-adv-x="532" 
d="M94.5 27.5q-45.5 39.5 -45.5 104.5q0 36 15.5 64.5t45.5 47.5q53 31 165 45l110 13v8q0 77 -28.5 110.5t-92.5 33.5q-57 0 -89.5 -28.5t-35.5 -81.5h-75q5 77 59 122.5t140 45.5q101 0 146.5 -49t45.5 -158v-130q0 -115 16 -175h-73q-6 44 -8 100q-19 -53 -65 -82.5
t-110 -29.5q-75 0 -120.5 39.5zM343.5 93.5q42.5 47.5 42.5 124.5v32l-142 -20q-64 -9 -93 -32t-29 -64t29.5 -64.5t79.5 -23.5q70 0 112.5 47.5zM204 592h-79v106h79v-106zM407 592h-79v106h79v-106z" />
    <glyph glyph-name="aring" unicode="&#xe5;" horiz-adv-x="532" 
d="M94.5 27.5q-45.5 39.5 -45.5 104.5q0 36 15.5 64.5t45.5 47.5q53 31 165 45l110 13v8q0 77 -28.5 110.5t-92.5 33.5q-57 0 -89.5 -28.5t-35.5 -81.5h-75q5 77 59 122.5t140 45.5q101 0 146.5 -49t45.5 -158v-130q0 -115 16 -175h-73q-6 44 -8 100q-19 -53 -65 -82.5
t-110 -29.5q-75 0 -120.5 39.5zM343.5 93.5q42.5 47.5 42.5 124.5v32l-142 -20q-64 -9 -93 -32t-29 -64t29.5 -64.5t79.5 -23.5q70 0 112.5 47.5zM189.5 586.5q-29.5 27.5 -29.5 71.5t29.5 71.5t76.5 27.5t76 -27.5t29 -71.5t-29 -71.5t-76 -27.5t-76.5 27.5zM306.5 615.5
q15.5 16.5 15.5 42.5t-15.5 42.5t-40.5 16.5t-41 -16.5t-16 -42.5t16 -42.5t41 -16.5t40.5 16.5z" />
    <glyph glyph-name="ae" unicode="&#xe6;" horiz-adv-x="842" 
d="M793 233h-342q1 -85 40.5 -134t107.5 -49q49 0 84 28t49 79l58 -24q-22 -70 -72.5 -107.5t-122.5 -37.5q-70 0 -117 32.5t-70 93.5q-24 -61 -75 -93.5t-121 -32.5q-74 0 -118.5 38t-44.5 102q0 63 44 101t133 47l154 16v20q0 72 -30 106.5t-92 34.5q-56 0 -88 -28
t-35 -81h-71q5 79 56 123.5t139 44.5q63 0 103.5 -23t61.5 -70q26 45 69 69t101 24q96 0 147.5 -63.5t51.5 -179.5v-36zM721 290q1 78 -32.5 122t-94.5 44q-62 0 -102 -45.5t-41 -120.5h270zM381 239l-134 -14q-67 -7 -96 -30.5t-29 -67.5q0 -36 28.5 -58.5t74.5 -22.5
q41 0 76.5 18.5t57.5 57t22 96.5v21z" />
    <glyph glyph-name="ccedilla" unicode="&#xe7;" horiz-adv-x="520" 
d="M364.5 82q34.5 33 44.5 95l67 -10q-13 -79 -59.5 -125t-120.5 -53l-27 -45q14 12 42 12q32 0 52 -20t20 -54q0 -37 -27 -59.5t-71 -22.5q-37 0 -62 16.5t-33 46.5l49 7q4 -14 16 -22.5t29 -8.5q20 0 32.5 12t12.5 32q0 19 -11.5 30.5t-31.5 11.5q-21 0 -37 -16l-33 11
l36 69q-95 8 -150 77.5t-55 183.5q0 122 60.5 192t165.5 70q86 0 140 -48t63 -133l-71 -8q-7 62 -42 95t-92 33q-70 0 -110 -53t-40 -147q0 -96 40.5 -149t112.5 -53q56 0 90.5 33z" />
    <glyph glyph-name="egrave" unicode="&#xe8;" horiz-adv-x="528" 
d="M480 232h-363q1 -84 44 -133t115 -49q53 0 89.5 28t52.5 79l59 -24q-23 -70 -76 -107.5t-129 -37.5q-107 0 -166 67t-59 192q0 123 59 194t163 71q101 0 156 -59.5t55 -172.5v-48zM409 289v9q0 77 -37 117.5t-105 40.5q-69 0 -108.5 -44.5t-41.5 -122.5h292zM196 723
l99 -143h-66l-119 143h86z" />
    <glyph glyph-name="eacute" unicode="&#xe9;" horiz-adv-x="528" 
d="M480 232h-363q1 -84 44 -133t115 -49q53 0 89.5 28t52.5 79l59 -24q-23 -70 -76 -107.5t-129 -37.5q-107 0 -166 67t-59 192q0 123 59 194t163 71q101 0 156 -59.5t55 -172.5v-48zM409 289v9q0 77 -37 117.5t-105 40.5q-69 0 -108.5 -44.5t-41.5 -122.5h292zM298 580h-66
l99 143h86z" />
    <glyph glyph-name="ecircumflex" unicode="&#xea;" horiz-adv-x="528" 
d="M480 232h-363q1 -84 44 -133t115 -49q53 0 89.5 28t52.5 79l59 -24q-23 -70 -76 -107.5t-129 -37.5q-107 0 -166 67t-59 192q0 123 59 194t163 71q101 0 156 -59.5t55 -172.5v-48zM409 289v9q0 77 -37 117.5t-105 40.5q-69 0 -108.5 -44.5t-41.5 -122.5h292zM299 723
l112 -143h-66l-82 107l-81 -107h-66l111 143h72z" />
    <glyph glyph-name="edieresis" unicode="&#xeb;" horiz-adv-x="528" 
d="M480 232h-363q1 -84 44 -133t115 -49q53 0 89.5 28t52.5 79l59 -24q-23 -70 -76 -107.5t-129 -37.5q-107 0 -166 67t-59 192q0 123 59 194t163 71q101 0 156 -59.5t55 -172.5v-48zM409 289v9q0 77 -37 117.5t-105 40.5q-69 0 -108.5 -44.5t-41.5 -122.5h292zM202 592h-79
v106h79v-106zM405 592h-79v106h79v-106z" />
    <glyph glyph-name="igrave" unicode="&#xec;" horiz-adv-x="229" 
d="M149 0h-69v500h69v-500zM47 723l99 -143h-66l-119 143h86z" />
    <glyph glyph-name="iacute" unicode="&#xed;" horiz-adv-x="229" 
d="M149 0h-69v500h69v-500zM149 580h-66l99 143h86z" />
    <glyph glyph-name="icircumflex" unicode="&#xee;" horiz-adv-x="229" 
d="M149 0h-69v500h69v-500zM151 723l112 -143h-66l-82 107l-81 -107h-66l111 143h72z" />
    <glyph glyph-name="idieresis" unicode="&#xef;" horiz-adv-x="229" 
d="M149 0h-69v500h69v-500zM53 592h-79v106h79v-106zM256 592h-79v106h79v-106z" />
    <glyph glyph-name="eth" unicode="&#xf0;" horiz-adv-x="528" 
d="M370 623q58 -67 90 -160t32 -200q0 -81 -28.5 -143.5t-80 -97t-118.5 -34.5q-103 0 -162.5 71t-59.5 193q0 79 26.5 137.5t75.5 90.5t114 32q98 0 138 -83h2q-24 98 -91 171l-137 -52l-17 37l122 46q-53 44 -112 61l43 45q75 -27 133 -82l80 30l16 -37zM380.5 103
q40.5 53 40.5 149t-40 148.5t-113 52.5q-70 0 -110.5 -53.5t-40.5 -147.5t40.5 -148t110.5 -54q72 0 112.5 53z" />
    <glyph glyph-name="ntilde" unicode="&#xf1;" horiz-adv-x="556" 
d="M80 0v500h66v-110q45 122 171 122q84 0 127 -51.5t43 -151.5v-309h-70v305q0 73 -31 110t-90 37q-68 0 -107.5 -50.5t-39.5 -138.5v-263h-69zM325.5 599.5q-17.5 9.5 -43.5 29.5q-19 16 -32 23.5t-29 7.5q-21 0 -33 -15t-18 -46l-49 8q7 52 33.5 81t69.5 29
q26 0 44.5 -10t42.5 -30q19 -16 32 -23.5t29 -7.5q21 0 33.5 15t18.5 47l48 -9q-6 -52 -33 -80.5t-70 -28.5q-26 0 -43.5 9.5z" />
    <glyph glyph-name="ograve" unicode="&#xf2;" horiz-adv-x="553" 
d="M155.5 19.5q-51.5 31.5 -80 91t-28.5 139.5t28.5 139.5t80 91t120.5 31.5t121 -31.5t80.5 -91t28.5 -139.5t-28.5 -139.5t-80.5 -91t-121 -31.5t-120.5 31.5zM390.5 101q41.5 52 41.5 149t-41.5 149t-114.5 52t-114 -52t-41 -149t41 -149t114 -52t114.5 52zM209 723
l99 -143h-66l-119 143h86z" />
    <glyph glyph-name="oacute" unicode="&#xf3;" horiz-adv-x="553" 
d="M155.5 19.5q-51.5 31.5 -80 91t-28.5 139.5t28.5 139.5t80 91t120.5 31.5t121 -31.5t80.5 -91t28.5 -139.5t-28.5 -139.5t-80.5 -91t-121 -31.5t-120.5 31.5zM390.5 101q41.5 52 41.5 149t-41.5 149t-114.5 52t-114 -52t-41 -149t41 -149t114 -52t114.5 52zM311 580h-66
l99 143h86z" />
    <glyph glyph-name="ocircumflex" unicode="&#xf4;" horiz-adv-x="553" 
d="M155.5 19.5q-51.5 31.5 -80 91t-28.5 139.5t28.5 139.5t80 91t120.5 31.5t121 -31.5t80.5 -91t28.5 -139.5t-28.5 -139.5t-80.5 -91t-121 -31.5t-120.5 31.5zM390.5 101q41.5 52 41.5 149t-41.5 149t-114.5 52t-114 -52t-41 -149t41 -149t114 -52t114.5 52zM312 723
l112 -143h-66l-82 107l-81 -107h-66l111 143h72z" />
    <glyph glyph-name="otilde" unicode="&#xf5;" horiz-adv-x="553" 
d="M155.5 19.5q-51.5 31.5 -80 91t-28.5 139.5t28.5 139.5t80 91t120.5 31.5t121 -31.5t80.5 -91t28.5 -139.5t-28.5 -139.5t-80.5 -91t-121 -31.5t-120.5 31.5zM390.5 101q41.5 52 41.5 149t-41.5 149t-114.5 52t-114 -52t-41 -149t41 -149t114 -52t114.5 52zM305.5 599.5
q-17.5 9.5 -43.5 29.5q-19 16 -32 23.5t-29 7.5q-21 0 -33 -15t-18 -46l-49 8q7 52 33.5 81t69.5 29q26 0 44.5 -10t42.5 -30q19 -16 32 -23.5t29 -7.5q21 0 33.5 15t18.5 47l48 -9q-6 -52 -33 -80.5t-70 -28.5q-26 0 -43.5 9.5z" />
    <glyph glyph-name="odieresis" unicode="&#xf6;" horiz-adv-x="553" 
d="M155.5 19.5q-51.5 31.5 -80 91t-28.5 139.5t28.5 139.5t80 91t120.5 31.5t121 -31.5t80.5 -91t28.5 -139.5t-28.5 -139.5t-80.5 -91t-121 -31.5t-120.5 31.5zM390.5 101q41.5 52 41.5 149t-41.5 149t-114.5 52t-114 -52t-41 -149t41 -149t114 -52t114.5 52zM215 592h-79
v106h79v-106zM418 592h-79v106h79v-106z" />
    <glyph glyph-name="divide" unicode="&#xf7;" 
d="M274.5 482q-13.5 13 -13.5 34t13 33.5t34 12.5q20 0 33 -12.5t13 -33.5t-13 -34t-33 -13t-33.5 13zM547 294h-474v66h474v-66zM274.5 104q-13.5 13 -13.5 34t13.5 34t33.5 13q21 0 33.5 -12.5t12.5 -34.5q0 -21 -13 -34t-33 -13t-33.5 13z" />
    <glyph glyph-name="oslash" unicode="&#xf8;" horiz-adv-x="553" 
d="M450 434q56 -70 56 -184q0 -80 -28.5 -139.5t-80.5 -91t-121 -31.5q-83 0 -143 47l-37 -47l-36 27l42 52q-55 71 -55 183q0 80 28.5 139.5t80 91t120.5 31.5q85 0 142 -46l37 46l37 -26zM147 125l230 289q-40 37 -101 37q-73 0 -114 -52t-41 -149q0 -76 26 -125z
M390.5 101q41.5 52 41.5 149q0 78 -27 127l-230 -290q40 -38 101 -38q73 0 114.5 52z" />
    <glyph glyph-name="ugrave" unicode="&#xf9;" horiz-adv-x="549" 
d="M110.5 38.5q-40.5 50.5 -40.5 144.5v317h69v-310q0 -71 30.5 -106.5t83.5 -35.5q67 0 106.5 50.5t39.5 128.5v273h70v-500h-66v103q-18 -51 -62 -83t-100 -32q-90 0 -130.5 50.5zM202 723l99 -143h-66l-119 143h86z" />
    <glyph glyph-name="uacute" unicode="&#xfa;" horiz-adv-x="549" 
d="M110.5 38.5q-40.5 50.5 -40.5 144.5v317h69v-310q0 -71 30.5 -106.5t83.5 -35.5q67 0 106.5 50.5t39.5 128.5v273h70v-500h-66v103q-18 -51 -62 -83t-100 -32q-90 0 -130.5 50.5zM304 580h-66l99 143h86z" />
    <glyph glyph-name="ucircumflex" unicode="&#xfb;" horiz-adv-x="549" 
d="M110.5 38.5q-40.5 50.5 -40.5 144.5v317h69v-310q0 -71 30.5 -106.5t83.5 -35.5q67 0 106.5 50.5t39.5 128.5v273h70v-500h-66v103q-18 -51 -62 -83t-100 -32q-90 0 -130.5 50.5zM306 723l112 -143h-66l-82 107l-81 -107h-66l111 143h72z" />
    <glyph glyph-name="udieresis" unicode="&#xfc;" horiz-adv-x="549" 
d="M110.5 38.5q-40.5 50.5 -40.5 144.5v317h69v-310q0 -71 30.5 -106.5t83.5 -35.5q67 0 106.5 50.5t39.5 128.5v273h70v-500h-66v103q-18 -51 -62 -83t-100 -32q-90 0 -130.5 50.5zM208 592h-79v106h79v-106zM411 592h-79v106h79v-106z" />
    <glyph glyph-name="yacute" unicode="&#xfd;" horiz-adv-x="466" 
d="M38 -196v62q18 -3 35 -3q47 0 74 25t46 79l13 37l-200 496h78l134 -357q13 -34 22 -68h2q7 28 21 69l122 356h75l-195 -532q-33 -91 -76.5 -129.5t-106.5 -38.5q-24 0 -44 4zM268 580h-66l99 143h86z" />
    <glyph glyph-name="thorn" unicode="&#xfe;" horiz-adv-x="563" 
d="M80 -195v920h69v-324q24 53 67 82t99 29q63 0 109.5 -34.5t71 -94t24.5 -133.5t-24.5 -133.5t-71 -94t-109.5 -34.5q-56 0 -99 26.5t-67 75.5v-285h-69zM406 106.5q40 56.5 40 143.5t-39.5 143.5t-108.5 56.5q-70 0 -110 -52t-40 -135v-25q0 -85 39.5 -136.5t109.5 -51.5
q69 0 109 56.5z" />
    <glyph glyph-name="ydieresis" unicode="&#xff;" horiz-adv-x="466" 
d="M38 -196v62q18 -3 35 -3q47 0 74 25t46 79l13 37l-200 496h78l134 -357q13 -34 22 -68h2q7 28 21 69l122 356h75l-195 -532q-33 -91 -76.5 -129.5t-106.5 -38.5q-24 0 -44 4zM172 592h-79v106h79v-106zM375 592h-79v106h79v-106z" />
    <glyph glyph-name="Amacron" unicode="&#x100;" horiz-adv-x="652" 
d="M635 0h-81l-75 207h-306l-75 -207h-81l270 710h78zM197 273h258l-105 291q-10 27 -23 69h-2q-13 -42 -23 -69zM475 770h-298v57h298v-57z" />
    <glyph glyph-name="amacron" unicode="&#x101;" horiz-adv-x="532" 
d="M94.5 27.5q-45.5 39.5 -45.5 104.5q0 36 15.5 64.5t45.5 47.5q53 31 165 45l110 13v8q0 77 -28.5 110.5t-92.5 33.5q-57 0 -89.5 -28.5t-35.5 -81.5h-75q5 77 59 122.5t140 45.5q101 0 146.5 -49t45.5 -158v-130q0 -115 16 -175h-73q-6 44 -8 100q-19 -53 -65 -82.5
t-110 -29.5q-75 0 -120.5 39.5zM343.5 93.5q42.5 47.5 42.5 124.5v32l-142 -20q-64 -9 -93 -32t-29 -64t29.5 -64.5t79.5 -23.5q70 0 112.5 47.5zM411 619h-291v56h291v-56z" />
    <glyph glyph-name="Abreve" unicode="&#x102;" horiz-adv-x="652" 
d="M635 0h-81l-75 207h-306l-75 -207h-81l270 710h78zM197 273h258l-105 291q-10 27 -23 69h-2q-13 -42 -23 -69zM242 856q4 -28 25.5 -44t58.5 -16q74 0 84 60h59q-5 -51 -41.5 -79.5t-101.5 -28.5q-66 0 -102.5 28.5t-41.5 79.5h60z" />
    <glyph glyph-name="abreve" unicode="&#x103;" horiz-adv-x="532" 
d="M94.5 27.5q-45.5 39.5 -45.5 104.5q0 36 15.5 64.5t45.5 47.5q53 31 165 45l110 13v8q0 77 -28.5 110.5t-92.5 33.5q-57 0 -89.5 -28.5t-35.5 -81.5h-75q5 77 59 122.5t140 45.5q101 0 146.5 -49t45.5 -158v-130q0 -115 16 -175h-73q-6 44 -8 100q-19 -53 -65 -82.5
t-110 -29.5q-75 0 -120.5 39.5zM343.5 93.5q42.5 47.5 42.5 124.5v32l-142 -20q-64 -9 -93 -32t-29 -64t29.5 -64.5t79.5 -23.5q70 0 112.5 47.5zM179 723q3 -48 26 -72.5t61 -24.5q39 0 61.5 24.5t24.5 72.5h60q-4 -75 -43.5 -111.5t-102.5 -36.5t-103 36.5t-43 111.5h59z
" />
    <glyph glyph-name="Aogonek" unicode="&#x104;" horiz-adv-x="652" 
d="M649 -110q-14 -93 -100 -93q-43 0 -69 23t-26 62q0 37 25 67.5t74 51.5l-74 206h-306l-75 -207h-81l270 710h78l270 -710h-14q-50 -9 -81.5 -42t-31.5 -69q0 -22 12 -34t32 -12q39 0 47 53zM197 273h258l-105 291q-10 27 -23 69h-2q-13 -42 -23 -69z" />
    <glyph glyph-name="aogonek" unicode="&#x105;" horiz-adv-x="532" 
d="M492 -110q-14 -93 -100 -93q-43 0 -69 23t-26 62q0 37 25.5 68.5t75.5 51.5q-6 44 -8 98q-19 -53 -65 -82.5t-110 -29.5q-75 0 -120.5 39.5t-45.5 104.5q0 36 15.5 64.5t45.5 47.5q53 31 165 45l110 13v8q0 77 -28.5 110.5t-92.5 33.5q-57 0 -89.5 -28.5t-35.5 -81.5h-75
q5 77 59 122.5t140 45.5q101 0 146.5 -49t45.5 -158v-130q0 -115 16 -175h-7q-50 -9 -81.5 -42t-31.5 -69q0 -22 12 -34t32 -12q39 0 47 53zM386 250l-142 -20q-64 -9 -93 -32t-29 -64t29.5 -64.5t79.5 -23.5q70 0 112.5 47.5t42.5 124.5v32z" />
    <glyph glyph-name="Cacute" unicode="&#x106;" horiz-adv-x="694" 
d="M190 32.5q-71 49.5 -105.5 134t-34.5 190.5q0 110 37 193.5t108.5 130t173.5 46.5q124 0 194.5 -67.5t84.5 -182.5l-79 -8q-12 88 -64.5 139.5t-139.5 51.5q-73 0 -126 -37.5t-80.5 -105.5t-27.5 -159q0 -89 26.5 -158.5t80 -109t129.5 -39.5q82 0 135.5 49t70.5 136
l75 -12q-21 -109 -91 -175t-191 -66q-105 0 -176 49.5zM400 753h-68l91 103h79z" />
    <glyph glyph-name="cacute" unicode="&#x107;" horiz-adv-x="520" 
d="M153.5 20q-51.5 32 -79 91t-27.5 139q0 122 60.5 192t165.5 70q86 0 140 -48t63 -133l-71 -8q-7 62 -42 95t-92 33q-70 0 -110 -53t-40 -147q0 -96 40.5 -149t112.5 -53q56 0 90.5 33t44.5 95l67 -10q-14 -85 -67 -132t-136 -47q-68 0 -119.5 32zM308 580h-66l99 143h86z
" />
    <glyph glyph-name="Ccircumflex" unicode="&#x108;" horiz-adv-x="694" 
d="M190 32.5q-71 49.5 -105.5 134t-34.5 190.5q0 110 37 193.5t108.5 130t173.5 46.5q124 0 194.5 -67.5t84.5 -182.5l-79 -8q-12 88 -64.5 139.5t-139.5 51.5q-73 0 -126 -37.5t-80.5 -105.5t-27.5 -159q0 -89 26.5 -158.5t80 -109t129.5 -39.5q82 0 135.5 49t70.5 136
l75 -12q-21 -109 -91 -175t-191 -66q-105 0 -176 49.5zM409 856l100 -103h-72l-71 73l-71 -73h-73l101 103h86z" />
    <glyph glyph-name="ccircumflex" unicode="&#x109;" horiz-adv-x="520" 
d="M153.5 20q-51.5 32 -79 91t-27.5 139q0 122 60.5 192t165.5 70q86 0 140 -48t63 -133l-71 -8q-7 62 -42 95t-92 33q-70 0 -110 -53t-40 -147q0 -96 40.5 -149t112.5 -53q56 0 90.5 33t44.5 95l67 -10q-14 -85 -67 -132t-136 -47q-68 0 -119.5 32zM309 723l112 -143h-66
l-82 107l-81 -107h-66l111 143h72z" />
    <glyph glyph-name="Cdotaccent" unicode="&#x10a;" horiz-adv-x="694" 
d="M190 32.5q-71 49.5 -105.5 134t-34.5 190.5q0 110 37 193.5t108.5 130t173.5 46.5q124 0 194.5 -67.5t84.5 -182.5l-79 -8q-12 88 -64.5 139.5t-139.5 51.5q-73 0 -126 -37.5t-80.5 -105.5t-27.5 -159q0 -89 26.5 -158.5t80 -109t129.5 -39.5q82 0 135.5 49t70.5 136
l75 -12q-21 -109 -91 -175t-191 -66q-105 0 -176 49.5zM409 753h-86v103h86v-103z" />
    <glyph glyph-name="cdotaccent" unicode="&#x10b;" horiz-adv-x="520" 
d="M153.5 20q-51.5 32 -79 91t-27.5 139q0 122 60.5 192t165.5 70q86 0 140 -48t63 -133l-71 -8q-7 62 -42 95t-92 33q-70 0 -110 -53t-40 -147q0 -96 40.5 -149t112.5 -53q56 0 90.5 33t44.5 95l67 -10q-14 -85 -67 -132t-136 -47q-68 0 -119.5 32zM312 590h-79v110h79
v-110z" />
    <glyph glyph-name="Ccaron" unicode="&#x10c;" horiz-adv-x="694" 
d="M190 32.5q-71 49.5 -105.5 134t-34.5 190.5q0 110 37 193.5t108.5 130t173.5 46.5q124 0 194.5 -67.5t84.5 -182.5l-79 -8q-12 88 -64.5 139.5t-139.5 51.5q-73 0 -126 -37.5t-80.5 -105.5t-27.5 -159q0 -89 26.5 -158.5t80 -109t129.5 -39.5q82 0 135.5 49t70.5 136
l75 -12q-21 -109 -91 -175t-191 -66q-105 0 -176 49.5zM437 855h72l-100 -103h-86l-101 103h73l71 -72z" />
    <glyph glyph-name="ccaron" unicode="&#x10d;" horiz-adv-x="520" 
d="M153.5 20q-51.5 32 -79 91t-27.5 139q0 122 60.5 192t165.5 70q86 0 140 -48t63 -133l-71 -8q-7 62 -42 95t-92 33q-70 0 -110 -53t-40 -147q0 -96 40.5 -149t112.5 -53q56 0 90.5 33t44.5 95l67 -10q-14 -85 -67 -132t-136 -47q-68 0 -119.5 32zM237 580l-111 143h66
l81 -107l82 107h66l-111 -143h-73z" />
    <glyph glyph-name="Dcaron" unicode="&#x10e;" horiz-adv-x="701" 
d="M90 0v710h225q101 0 177.5 -44t118 -124.5t41.5 -185.5q0 -103 -42 -184t-119 -126.5t-178 -45.5h-223zM312 66q78 0 136.5 38t89.5 104t31 148q0 85 -30 150t-88 101.5t-137 36.5h-147v-578h145zM399 855h72l-100 -103h-86l-101 103h73l71 -72z" />
    <glyph glyph-name="dcaron" unicode="&#x10f;" horiz-adv-x="563" 
d="M141 21q-47 33 -72.5 92.5t-25.5 136.5q0 76 27 135.5t75.5 93t111.5 33.5q113 0 157 -103v316h70v-725h-66v106q-22 -56 -66 -87t-103 -31q-61 0 -108 33zM374.5 102.5q40.5 52.5 40.5 136.5v21q0 86 -39.5 138t-108.5 52q-70 0 -110 -53t-40 -147q0 -93 39.5 -146.5
t109.5 -53.5q68 0 108.5 52.5zM643 727l-64 -167h-43l38 167h69z" />
    <glyph glyph-name="Dcroat" unicode="&#x110;" horiz-adv-x="701" 
d="M315 710q101 0 177.5 -44t118 -124.5t41.5 -185.5q0 -103 -42 -184t-119 -126.5t-178 -45.5h-223v341h-72v60h72v309h225zM312 66q78 0 136.5 38t89.5 104t31 148q0 85 -30 150t-88 101.5t-137 36.5h-147v-243h199v-60h-199v-275h145z" />
    <glyph glyph-name="dcroat" unicode="&#x111;" horiz-adv-x="563" 
d="M586 624v-43h-102v-581h-66v106q-22 -56 -66 -87t-103 -31q-61 0 -108 33t-72.5 92.5t-25.5 136.5q0 76 27 135.5t75.5 93t111.5 33.5q113 0 157 -103v172h-184v43h184v101h70v-101h102zM415 260q0 86 -39.5 138t-108.5 52q-70 0 -110 -53t-40 -147q0 -93 39.5 -146.5
t109.5 -53.5q68 0 108.5 52.5t40.5 136.5v21z" />
    <glyph glyph-name="Emacron" unicode="&#x112;" horiz-adv-x="587" 
d="M167 331v-265h363v-66h-440v710h433v-66h-356v-247h339v-66h-339zM455 770h-298v57h298v-57z" />
    <glyph glyph-name="emacron" unicode="&#x113;" horiz-adv-x="528" 
d="M480 232h-363q1 -84 44 -133t115 -49q53 0 89.5 28t52.5 79l59 -24q-23 -70 -76 -107.5t-129 -37.5q-107 0 -166 67t-59 192q0 123 59 194t163 71q101 0 156 -59.5t55 -172.5v-48zM409 289v9q0 77 -37 117.5t-105 40.5q-69 0 -108.5 -44.5t-41.5 -122.5h292zM409 619
h-291v56h291v-56z" />
    <glyph glyph-name="Ebreve" unicode="&#x114;" horiz-adv-x="587" 
d="M167 331v-265h363v-66h-440v710h433v-66h-356v-247h339v-66h-339zM222 856q4 -28 25.5 -44t58.5 -16q74 0 84 60h59q-5 -51 -41.5 -79.5t-101.5 -28.5q-66 0 -102.5 28.5t-41.5 79.5h60z" />
    <glyph glyph-name="ebreve" unicode="&#x115;" horiz-adv-x="528" 
d="M480 232h-363q1 -84 44 -133t115 -49q53 0 89.5 28t52.5 79l59 -24q-23 -70 -76 -107.5t-129 -37.5q-107 0 -166 67t-59 192q0 123 59 194t163 71q101 0 156 -59.5t55 -172.5v-48zM409 289v9q0 77 -37 117.5t-105 40.5q-69 0 -108.5 -44.5t-41.5 -122.5h292zM177 723
q3 -48 26 -72.5t61 -24.5q39 0 61.5 24.5t24.5 72.5h60q-4 -75 -43.5 -111.5t-102.5 -36.5t-103 36.5t-43 111.5h59z" />
    <glyph glyph-name="Edotaccent" unicode="&#x116;" horiz-adv-x="587" 
d="M167 331v-265h363v-66h-440v710h433v-66h-356v-247h339v-66h-339zM349 753h-86v103h86v-103z" />
    <glyph glyph-name="edotaccent" unicode="&#x117;" horiz-adv-x="528" 
d="M480 232h-363q1 -84 44 -133t115 -49q53 0 89.5 28t52.5 79l59 -24q-23 -70 -76 -107.5t-129 -37.5q-107 0 -166 67t-59 192q0 123 59 194t163 71q101 0 156 -59.5t55 -172.5v-48zM409 289v9q0 77 -37 117.5t-105 40.5q-69 0 -108.5 -44.5t-41.5 -122.5h292zM302 590h-79
v110h79v-110z" />
    <glyph glyph-name="Eogonek" unicode="&#x118;" horiz-adv-x="587" 
d="M480 0q-50 -9 -81.5 -42t-31.5 -69q0 -22 12 -34t32 -12q39 0 47 53l50 -6q-14 -93 -100 -93q-43 0 -69 23t-26 62q0 36 24 66.5t72 51.5h-319v710h433v-66h-356v-247h339v-66h-339v-265h363v-66h-50z" />
    <glyph glyph-name="eogonek" unicode="&#x119;" horiz-adv-x="538" 
d="M480 232h-363q1 -84 44 -133t115 -49q53 0 89.5 28t52.5 79l59 -24q-21 -63 -67 -100q-82 -78 -82 -139q0 -24 11.5 -37.5t32.5 -13.5q40 0 48 53l50 -6q-14 -93 -100 -93q-44 0 -70 24.5t-26 66.5q0 53 58 107q-27 -7 -60 -7q-107 0 -166 67t-59 192q0 123 59 194
t163 71q101 0 156 -59.5t55 -172.5v-48zM409 289v9q0 77 -37 117.5t-105 40.5q-69 0 -108.5 -44.5t-41.5 -122.5h292z" />
    <glyph glyph-name="Ecaron" unicode="&#x11a;" horiz-adv-x="587" 
d="M167 331v-265h363v-66h-440v710h433v-66h-356v-247h339v-66h-339zM377 855h72l-100 -103h-86l-101 103h73l71 -72z" />
    <glyph glyph-name="ecaron" unicode="&#x11b;" horiz-adv-x="528" 
d="M480 232h-363q1 -84 44 -133t115 -49q53 0 89.5 28t52.5 79l59 -24q-23 -70 -76 -107.5t-129 -37.5q-107 0 -166 67t-59 192q0 123 59 194t163 71q101 0 156 -59.5t55 -172.5v-48zM409 289v9q0 77 -37 117.5t-105 40.5q-69 0 -108.5 -44.5t-41.5 -122.5h292zM227 580
l-111 143h66l81 -107l82 107h66l-111 -143h-73z" />
    <glyph glyph-name="Gcircumflex" unicode="&#x11c;" horiz-adv-x="718" 
d="M192.5 31q-69.5 48 -106 132.5t-36.5 191.5q0 109 37.5 193.5t109.5 131.5t173 47q90 0 148.5 -35t86.5 -84t35 -97l-77 -10q-11 63 -56.5 111.5t-139.5 48.5q-75 0 -128.5 -38.5t-81.5 -108t-28 -160.5q0 -87 26.5 -155.5t80.5 -108.5t132 -40q84 0 132 39t65.5 90.5
t17.5 97.5v25h-220v66h290v-368h-57l-11 129q-24 -66 -85 -106t-144 -40q-94 0 -163.5 48zM409 856l100 -103h-72l-71 73l-71 -73h-73l101 103h86z" />
    <glyph glyph-name="gcircumflex" unicode="&#x11d;" horiz-adv-x="513" 
d="M335 590l-82 97l-81 -97h-66l111 133h72l112 -133h-66zM386 465q50 -47 50 -121t-49.5 -121.5t-132.5 -47.5q-54 0 -96 22q-20 -8 -31.5 -22t-11.5 -33q0 -26 21 -41.5t64 -15.5h131q80 0 121.5 -35t41.5 -101q0 -73 -60 -114.5t-181 -41.5q-117 0 -170 38t-53 101
q0 37 21.5 65t61.5 41q-30 12 -45 34.5t-15 51.5q0 34 19 59t52 37q-52 49 -52 124q0 74 49.5 121t132.5 47q56 0 98 -22q12 41 41.5 65.5t76.5 24.5q14 0 29 -3v-62q-18 4 -31 4q-62 0 -82 -54zM338 260.5q32 31.5 32 82.5t-32 83t-84 32t-84 -31.5t-32 -82.5t32 -83
t84 -32t84 31.5zM198 24q-15 0 -39 2q-30 -12 -45.5 -34t-15.5 -48q0 -93 163 -93q88 0 125.5 24.5t37.5 69.5q0 39 -27 59t-81 20h-118z" />
    <glyph glyph-name="Gbreve" unicode="&#x11e;" horiz-adv-x="718" 
d="M192.5 31q-69.5 48 -106 132.5t-36.5 191.5q0 109 37.5 193.5t109.5 131.5t173 47q90 0 148.5 -35t86.5 -84t35 -97l-77 -10q-11 63 -56.5 111.5t-139.5 48.5q-75 0 -128.5 -38.5t-81.5 -108t-28 -160.5q0 -87 26.5 -155.5t80.5 -108.5t132 -40q84 0 132 39t65.5 90.5
t17.5 97.5v25h-220v66h290v-368h-57l-11 129q-24 -66 -85 -106t-144 -40q-94 0 -163.5 48zM282 856q4 -28 25.5 -44t58.5 -16q74 0 84 60h59q-5 -51 -41.5 -79.5t-101.5 -28.5q-66 0 -102.5 28.5t-41.5 79.5h60z" />
    <glyph glyph-name="gbreve" unicode="&#x11f;" horiz-adv-x="513" 
d="M386 465q50 -47 50 -121t-49.5 -121.5t-132.5 -47.5q-54 0 -96 22q-20 -8 -31.5 -22t-11.5 -33q0 -26 21 -41.5t64 -15.5h131q80 0 121.5 -35t41.5 -101q0 -73 -60 -114.5t-181 -41.5q-117 0 -170 38t-53 101q0 37 21.5 65t61.5 41q-30 12 -45 34.5t-15 51.5q0 34 19 59
t52 37q-52 49 -52 124q0 74 49.5 121t132.5 47q56 0 98 -22q12 41 41.5 65.5t76.5 24.5q14 0 29 -3v-62q-18 4 -31 4q-62 0 -82 -54zM338 260.5q32 31.5 32 82.5t-32 83t-84 32t-84 -31.5t-32 -82.5t32 -83t84 -32t84 31.5zM198 24q-15 0 -39 2q-30 -12 -45.5 -34t-15.5 -48
q0 -93 163 -93q88 0 125.5 24.5t37.5 69.5q0 39 -27 59t-81 20h-118zM167 723q3 -48 26 -72.5t61 -24.5q39 0 61.5 24.5t24.5 72.5h60q-4 -75 -43.5 -111.5t-102.5 -36.5t-103 36.5t-43 111.5h59z" />
    <glyph glyph-name="Gdotaccent" unicode="&#x120;" horiz-adv-x="718" 
d="M192.5 31q-69.5 48 -106 132.5t-36.5 191.5q0 109 37.5 193.5t109.5 131.5t173 47q90 0 148.5 -35t86.5 -84t35 -97l-77 -10q-11 63 -56.5 111.5t-139.5 48.5q-75 0 -128.5 -38.5t-81.5 -108t-28 -160.5q0 -87 26.5 -155.5t80.5 -108.5t132 -40q84 0 132 39t65.5 90.5
t17.5 97.5v25h-220v66h290v-368h-57l-11 129q-24 -66 -85 -106t-144 -40q-94 0 -163.5 48zM409 753h-86v103h86v-103z" />
    <glyph glyph-name="gdotaccent" unicode="&#x121;" horiz-adv-x="513" 
d="M386 465q50 -47 50 -121t-49.5 -121.5t-132.5 -47.5q-54 0 -96 22q-20 -8 -31.5 -22t-11.5 -33q0 -26 21 -41.5t64 -15.5h131q80 0 121.5 -35t41.5 -101q0 -73 -60 -114.5t-181 -41.5q-117 0 -170 38t-53 101q0 37 21.5 65t61.5 41q-30 12 -45 34.5t-15 51.5q0 34 19 59
t52 37q-52 49 -52 124q0 74 49.5 121t132.5 47q56 0 98 -22q12 41 41.5 65.5t76.5 24.5q14 0 29 -3v-62q-18 4 -31 4q-62 0 -82 -54zM338 260.5q32 31.5 32 82.5t-32 83t-84 32t-84 -31.5t-32 -82.5t32 -83t84 -32t84 31.5zM198 24q-15 0 -39 2q-30 -12 -45.5 -34t-15.5 -48
q0 -93 163 -93q88 0 125.5 24.5t37.5 69.5q0 39 -27 59t-81 20h-118zM292 590h-79v110h79v-110z" />
    <glyph glyph-name="uni0122" unicode="&#x122;" horiz-adv-x="718" 
d="M192.5 31q-69.5 48 -106 132.5t-36.5 191.5q0 109 37.5 193.5t109.5 131.5t173 47q90 0 148.5 -35t86.5 -84t35 -97l-77 -10q-11 63 -56.5 111.5t-139.5 48.5q-75 0 -128.5 -38.5t-81.5 -108t-28 -160.5q0 -87 26.5 -155.5t80.5 -108.5t132 -40q84 0 132 39t65.5 90.5
t17.5 97.5v25h-220v66h290v-368h-57l-11 129q-24 -66 -85 -106t-144 -40q-94 0 -163.5 48zM328 -198q25 10 32.5 23t7.5 40h-42v85h80v-78q0 -38 -13 -62.5t-47 -38.5z" />
    <glyph glyph-name="uni0123" unicode="&#x123;" horiz-adv-x="513" 
d="M386 465q50 -47 50 -121t-49.5 -121.5t-132.5 -47.5q-54 0 -96 22q-20 -8 -31.5 -22t-11.5 -33q0 -26 21 -41.5t64 -15.5h131q80 0 121.5 -35t41.5 -101q0 -73 -60 -114.5t-181 -41.5q-117 0 -170 38t-53 101q0 37 21.5 65t61.5 41q-30 12 -45 34.5t-15 51.5q0 34 19 59
t52 37q-52 49 -52 124q0 74 49.5 121t132.5 47q56 0 98 -22q12 41 41.5 65.5t76.5 24.5q14 0 29 -3v-62q-18 4 -31 4q-62 0 -82 -54zM338 260.5q32 31.5 32 82.5t-32 83t-84 32t-84 -31.5t-32 -82.5t32 -83t84 -32t84 31.5zM198 24q-15 0 -39 2q-30 -12 -45.5 -34t-15.5 -48
q0 -93 163 -93q88 0 125.5 24.5t37.5 69.5q0 39 -27 59t-81 20h-118zM292 728q-25 -10 -32.5 -23t-7.5 -39h42v-86h-80v78q0 39 13 63.5t47 38.5z" />
    <glyph glyph-name="Hcircumflex" unicode="&#x124;" horiz-adv-x="719" 
d="M552 710h78v-710h-78v330h-385v-330h-77v710h77v-314h385v314zM403 856l100 -103h-72l-71 73l-71 -73h-73l101 103h86z" />
    <glyph glyph-name="hcircumflex" unicode="&#x125;" horiz-adv-x="556" 
d="M80 0v725h69v-331q22 58 65.5 88t105.5 30q82 0 124.5 -51t42.5 -151v-310h-70v306q0 72 -30.5 109t-89.5 37q-68 0 -108 -50.5t-40 -138.5v-263h-69zM158 856l100 -103h-72l-71 73l-71 -73h-73l101 103h86z" />
    <glyph glyph-name="Hbar" unicode="&#x126;" horiz-adv-x="719" 
d="M630 574h78v-49h-78v-525h-78v330h-385v-330h-77v525h-78v49h78v136h77v-136h385v136h78v-136zM167 396h385v129h-385v-129z" />
    <glyph glyph-name="hbar" unicode="&#x127;" horiz-adv-x="556" 
d="M444.5 461q42.5 -51 42.5 -151v-310h-70v306q0 72 -30.5 109t-89.5 37q-68 0 -108 -50.5t-40 -138.5v-263h-69v581h-103v43h103v101h69v-101h184v-43h-184v-187q22 58 65.5 88t105.5 30q82 0 124.5 -51z" />
    <glyph glyph-name="Itilde" unicode="&#x128;" horiz-adv-x="257" 
d="M167 710v-710h-77v710h77zM154 756.5q-17 8.5 -38 23.5q-17 13 -28.5 19t-25.5 6q-20 0 -32.5 -12.5t-17.5 -40.5l-49 9q7 47 33 72.5t68 25.5q24 0 40.5 -8t37.5 -24q19 -14 29.5 -19.5t25.5 -5.5q20 0 32 13t17 40l49 -8q-6 -48 -32 -73.5t-69 -25.5q-23 0 -40 8.5z
" />
    <glyph glyph-name="itilde" unicode="&#x129;" horiz-adv-x="229" 
d="M149 0h-69v500h69v-500zM143.5 599.5q-17.5 9.5 -43.5 29.5q-19 16 -32 23.5t-29 7.5q-21 0 -33 -15t-18 -46l-49 8q7 52 33.5 81t69.5 29q26 0 44.5 -10t42.5 -30q19 -16 32 -23.5t29 -7.5q21 0 33.5 15t18.5 47l48 -9q-6 -52 -33 -80.5t-70 -28.5q-26 0 -43.5 9.5z" />
    <glyph glyph-name="Imacron" unicode="&#x12a;" horiz-adv-x="257" 
d="M167 710v-710h-77v710h77zM278 770h-298v57h298v-57z" />
    <glyph glyph-name="imacron" unicode="&#x12b;" horiz-adv-x="229" 
d="M149 0h-69v500h69v-500zM260 619h-291v56h291v-56z" />
    <glyph glyph-name="Ibreve" unicode="&#x12c;" horiz-adv-x="257" 
d="M167 710v-710h-77v710h77zM45 856q4 -28 25.5 -44t58.5 -16q74 0 84 60h59q-5 -51 -41.5 -79.5t-101.5 -28.5q-66 0 -102.5 28.5t-41.5 79.5h60z" />
    <glyph glyph-name="ibreve" unicode="&#x12d;" horiz-adv-x="229" 
d="M149 0h-69v500h69v-500zM28 723q3 -48 26 -72.5t61 -24.5q39 0 61.5 24.5t24.5 72.5h60q-4 -75 -43.5 -111.5t-102.5 -36.5t-103 36.5t-43 111.5h59z" />
    <glyph glyph-name="Iogonek" unicode="&#x12e;" horiz-adv-x="257" 
d="M184 -110q-14 -93 -100 -93q-43 0 -69 23t-26 62q0 37 25.5 68.5t75.5 51.5v708h77v-710h-11q-50 -9 -81.5 -42t-31.5 -69q0 -22 12 -34t32 -12q39 0 47 53z" />
    <glyph glyph-name="iogonek" unicode="&#x12f;" horiz-adv-x="229" 
d="M75 700h79v-110h-79v110zM174 -110q-14 -93 -100 -93q-43 0 -69 23t-26 62q0 37 25.5 68.5t75.5 51.5v498h69v-500h-3q-50 -9 -81.5 -42t-31.5 -69q0 -22 12 -34t32 -12q39 0 47 53z" />
    <glyph glyph-name="Idotaccent" unicode="&#x130;" horiz-adv-x="257" 
d="M167 710v-710h-77v710h77zM172 753h-86v103h86v-103z" />
    <glyph glyph-name="dotlessi" unicode="&#x131;" horiz-adv-x="229" 
d="M149 0h-69v500h69v-500z" />
    <glyph glyph-name="IJ" unicode="&#x132;" horiz-adv-x="630" 
d="M167 710v-710h-77v710h77zM546 185q0 -107 -55 -152t-141 -45q-57 0 -82 8v72q32 -6 83 -6q53 0 85 28t32 102v518h78v-525z" />
    <glyph glyph-name="ij" unicode="&#x133;" horiz-adv-x="464" 
d="M149 0h-69v500h69v-500zM154 590h-79v110h79v-110zM204 -196v60q39 -3 47 -3q33 0 48.5 19t15.5 68v552h69v-560q0 -64 -29 -103t-93 -39q-35 0 -58 6zM389 590h-79v110h79v-110z" />
    <glyph glyph-name="Jcircumflex" unicode="&#x134;" horiz-adv-x="373" 
d="M289 185q0 -107 -55 -152t-141 -45q-57 0 -82 8v72q32 -6 83 -6q53 0 85 28t32 102v518h78v-525zM293 856l100 -103h-72l-71 73l-71 -73h-73l101 103h86z" />
    <glyph glyph-name="jcircumflex" unicode="&#x135;" horiz-adv-x="235" 
d="M-25 -196v60q39 -3 47 -3q33 0 48.5 19t15.5 68v552h69v-560q0 -64 -29 -103t-93 -39q-35 0 -58 6zM157 723l112 -143h-66l-82 107l-81 -107h-66l111 143h72z" />
    <glyph glyph-name="uni0136" unicode="&#x136;" horiz-adv-x="644" 
d="M623 0h-91l-246 371l-119 -129v-242h-77v710h77v-374l337 374h98l-263 -283zM289 -198q25 10 32.5 23t7.5 40h-42v85h80v-78q0 -38 -13 -62.5t-47 -38.5z" />
    <glyph glyph-name="uni0137" unicode="&#x137;" horiz-adv-x="515" 
d="M496 0h-86l-160 258l-101 -101v-157h-69v725h69v-486l242 261h92l-184 -192zM212 -198q25 10 32.5 23t7.5 40h-42v85h80v-78q0 -38 -13 -62.5t-47 -38.5z" />
    <glyph glyph-name="kgreenlandic" unicode="&#x138;" horiz-adv-x="515" 
d="M496 0h-86l-160 258l-101 -101v-157h-69v500h69v-261l242 261h92l-184 -192z" />
    <glyph glyph-name="Lacute" unicode="&#x139;" horiz-adv-x="521" 
d="M504 0h-414v710h77v-644h337v-66zM163 753h-68l91 103h79z" />
    <glyph glyph-name="lacute" unicode="&#x13a;" horiz-adv-x="229" 
d="M80 725h69v-725h-69v725zM149 753h-68l91 103h79z" />
    <glyph glyph-name="uni013B" unicode="&#x13b;" horiz-adv-x="521" 
d="M504 0h-414v710h77v-644h337v-66zM252 -198q25 10 32.5 23t7.5 40h-42v85h80v-78q0 -38 -13 -62.5t-47 -38.5z" />
    <glyph glyph-name="uni013C" unicode="&#x13c;" horiz-adv-x="229" 
d="M80 725h69v-725h-69v725zM77 -198q25 10 32.5 23t7.5 40h-42v85h80v-78q0 -38 -13 -62.5t-47 -38.5z" />
    <glyph glyph-name="Lcaron" unicode="&#x13d;" horiz-adv-x="521" 
d="M504 0h-414v710h77v-644h337v-66zM372 727l-64 -167h-43l38 167h69z" />
    <glyph glyph-name="lcaron" unicode="&#x13e;" horiz-adv-x="229" 
d="M80 725h69v-725h-69v725zM307 727l-64 -167h-43l38 167h69z" />
    <glyph glyph-name="Ldot" unicode="&#x13f;" horiz-adv-x="521" 
d="M504 0h-414v710h77v-644h337v-66zM339 423h94v-112h-94v112z" />
    <glyph glyph-name="ldot" unicode="&#x140;" horiz-adv-x="241" 
d="M80 725h69v-725h-69v725zM188 425h94v-112h-94v112z" />
    <glyph glyph-name="Lslash" unicode="&#x141;" horiz-adv-x="521" 
d="M167 320v-254h337v-66h-414v280l-97 -51v62l97 51v368h77v-328l221 115v-62z" />
    <glyph glyph-name="lslash" unicode="&#x142;" horiz-adv-x="229" 
d="M149 458l51 48v-53l-51 -49v-404h-69v339l-52 -50v54l52 49v333h69v-267z" />
    <glyph glyph-name="Nacute" unicode="&#x143;" horiz-adv-x="714" 
d="M90 0v710h94l329 -542q29 -50 42 -82h2q-3 41 -3 87v537h70v-710h-94l-329 543q-13 22 -24 42.5t-18 39.5h-2q3 -36 3 -87v-538h-70zM391 753h-68l91 103h79z" />
    <glyph glyph-name="nacute" unicode="&#x144;" horiz-adv-x="556" 
d="M80 0v500h66v-110q45 122 171 122q84 0 127 -51.5t43 -151.5v-309h-70v305q0 73 -31 110t-90 37q-68 0 -107.5 -50.5t-39.5 -138.5v-263h-69zM331 580h-66l99 143h86z" />
    <glyph glyph-name="uni0145" unicode="&#x145;" horiz-adv-x="714" 
d="M90 0v710h94l329 -542q29 -50 42 -82h2q-3 41 -3 87v537h70v-710h-94l-329 543q-13 22 -24 42.5t-18 39.5h-2q3 -36 3 -87v-538h-70zM319 -198q25 10 32.5 23t7.5 40h-42v85h80v-78q0 -38 -13 -62.5t-47 -38.5z" />
    <glyph glyph-name="uni0146" unicode="&#x146;" horiz-adv-x="556" 
d="M80 0v500h66v-110q45 122 171 122q84 0 127 -51.5t43 -151.5v-309h-70v305q0 73 -31 110t-90 37q-68 0 -107.5 -50.5t-39.5 -138.5v-263h-69zM238 -198q25 10 32.5 23t7.5 40h-42v85h80v-78q0 -38 -13 -62.5t-47 -38.5z" />
    <glyph glyph-name="Ncaron" unicode="&#x147;" horiz-adv-x="714" 
d="M90 0v710h94l329 -542q29 -50 42 -82h2q-3 41 -3 87v537h70v-710h-94l-329 543q-13 22 -24 42.5t-18 39.5h-2q3 -36 3 -87v-538h-70zM428 855h72l-100 -103h-86l-101 103h73l71 -72z" />
    <glyph glyph-name="ncaron" unicode="&#x148;" horiz-adv-x="556" 
d="M80 0v500h66v-110q45 122 171 122q84 0 127 -51.5t43 -151.5v-309h-70v305q0 73 -31 110t-90 37q-68 0 -107.5 -50.5t-39.5 -138.5v-263h-69zM260 580l-111 143h66l81 -107l82 107h66l-111 -143h-73z" />
    <glyph glyph-name="napostrophe" unicode="&#x149;" horiz-adv-x="769" 
d="M70 502q32 16 42.5 36t10.5 57v3h-50v112h95v-106q0 -56 -17 -86.5t-62 -51.5zM292 0v500h66v-110q45 122 171 122q84 0 127 -51.5t43 -151.5v-309h-70v305q0 73 -31 110t-90 37q-68 0 -107.5 -50.5t-39.5 -138.5v-263h-69z" />
    <glyph glyph-name="Eng" unicode="&#x14a;" horiz-adv-x="714" 
d="M554 710h70v-726q0 -106 -39.5 -149t-110.5 -43q-23 0 -58 5v68q27 -4 60 -4q39 0 58.5 24.5t19.5 90.5v24h-24l-329 543q-13 22 -24 42.5t-18 39.5h-2q3 -36 3 -87v-538h-70v710h94l329 -542q29 -50 42 -82h2q-3 41 -3 87v537z" />
    <glyph glyph-name="eng" unicode="&#x14b;" horiz-adv-x="556" 
d="M487 0h-1v-40q0 -162 -121 -162q-32 0 -58 6v60q5 0 17 -1.5t25 -1.5q36 0 52 21.5t16 68.5v354q0 73 -31 110t-90 37q-68 0 -107.5 -50.5t-39.5 -138.5v-263h-69v500h66v-110q45 122 171 122q84 0 127 -51.5t43 -151.5v-309z" />
    <glyph glyph-name="Omacron" unicode="&#x14c;" horiz-adv-x="740" 
d="M201.5 29q-72.5 46 -112 130t-39.5 196q0 114 39.5 198t111.5 129t169 45t169 -45t111.5 -129t39.5 -198q0 -113 -39.5 -197t-112 -129.5t-168.5 -45.5t-168.5 46zM498 86q54 37 82.5 106t28.5 163t-28.5 163t-82.5 106t-128 37t-128 -37t-82.5 -106t-28.5 -163
q0 -92 29 -161t83 -107t127 -38q74 0 128 37zM520 770h-298v57h298v-57z" />
    <glyph glyph-name="omacron" unicode="&#x14d;" horiz-adv-x="553" 
d="M155.5 19.5q-51.5 31.5 -80 91t-28.5 139.5t28.5 139.5t80 91t120.5 31.5t121 -31.5t80.5 -91t28.5 -139.5t-28.5 -139.5t-80.5 -91t-121 -31.5t-120.5 31.5zM390.5 101q41.5 52 41.5 149t-41.5 149t-114.5 52t-114 -52t-41 -149t41 -149t114 -52t114.5 52zM422 619h-291
v56h291v-56z" />
    <glyph glyph-name="Obreve" unicode="&#x14e;" horiz-adv-x="740" 
d="M201.5 29q-72.5 46 -112 130t-39.5 196q0 114 39.5 198t111.5 129t169 45t169 -45t111.5 -129t39.5 -198q0 -113 -39.5 -197t-112 -129.5t-168.5 -45.5t-168.5 46zM498 86q54 37 82.5 106t28.5 163t-28.5 163t-82.5 106t-128 37t-128 -37t-82.5 -106t-28.5 -163
q0 -92 29 -161t83 -107t127 -38q74 0 128 37zM287 856q4 -28 25.5 -44t58.5 -16q74 0 84 60h59q-5 -51 -41.5 -79.5t-101.5 -28.5q-66 0 -102.5 28.5t-41.5 79.5h60z" />
    <glyph glyph-name="obreve" unicode="&#x14f;" horiz-adv-x="553" 
d="M155.5 19.5q-51.5 31.5 -80 91t-28.5 139.5t28.5 139.5t80 91t120.5 31.5t121 -31.5t80.5 -91t28.5 -139.5t-28.5 -139.5t-80.5 -91t-121 -31.5t-120.5 31.5zM390.5 101q41.5 52 41.5 149t-41.5 149t-114.5 52t-114 -52t-41 -149t41 -149t114 -52t114.5 52zM190 723
q3 -48 26 -72.5t61 -24.5q39 0 61.5 24.5t24.5 72.5h60q-4 -75 -43.5 -111.5t-102.5 -36.5t-103 36.5t-43 111.5h59z" />
    <glyph glyph-name="Ohungarumlaut" unicode="&#x150;" horiz-adv-x="740" 
d="M201.5 29q-72.5 46 -112 130t-39.5 196q0 114 39.5 198t111.5 129t169 45t169 -45t111.5 -129t39.5 -198q0 -113 -39.5 -197t-112 -129.5t-168.5 -45.5t-168.5 46zM498 86q54 37 82.5 106t28.5 163t-28.5 163t-82.5 106t-128 37t-128 -37t-82.5 -106t-28.5 -163
q0 -92 29 -161t83 -107t127 -38q74 0 128 37zM335 753h-70l91 103h75zM477 753h-69l91 103h75z" />
    <glyph glyph-name="ohungarumlaut" unicode="&#x151;" horiz-adv-x="553" 
d="M155.5 19.5q-51.5 31.5 -80 91t-28.5 139.5t28.5 139.5t80 91t120.5 31.5t121 -31.5t80.5 -91t28.5 -139.5t-28.5 -139.5t-80.5 -91t-121 -31.5t-120.5 31.5zM390.5 101q41.5 52 41.5 149t-41.5 149t-114.5 52t-114 -52t-41 -149t41 -149t114 -52t114.5 52zM236 580h-62
l87 143h68zM378 580h-63l87 143h69z" />
    <glyph glyph-name="OE" unicode="&#x152;" horiz-adv-x="970" 
d="M550 66h362v-66h-511q-108 0 -187.5 44.5t-121.5 125t-42 186.5q0 108 42 188t122 123t189 43h502v-66h-355v-247h338v-66h-338v-265zM472 66v578h-70q-86 0 -147 -36t-92.5 -101t-31.5 -151q0 -84 33 -150t93.5 -103t141.5 -37h73z" />
    <glyph glyph-name="oe" unicode="&#x153;" horiz-adv-x="911" 
d="M863 232h-362q1 -85 43.5 -133.5t115.5 -48.5q52 0 89 28t52 79l59 -24q-23 -70 -76 -107.5t-129 -37.5q-68 0 -116.5 27t-75.5 79q-27 -51 -75 -78.5t-112 -27.5q-68 0 -120 32.5t-80.5 92t-28.5 137.5q0 79 28.5 138t80.5 91.5t120 32.5q65 0 113.5 -28.5t75.5 -80.5
q27 53 75 81t112 28q101 0 156 -59.5t55 -172.5v-48zM792 289v9q0 77 -37 117.5t-104 40.5q-69 0 -108.5 -44.5t-41.5 -122.5h291zM385.5 96q41.5 47 45.5 132v19q0 15 1 22q-4 85 -46 133.5t-110 48.5q-72 0 -113.5 -53.5t-41.5 -147.5t41.5 -147.5t113.5 -53.5
q68 0 109.5 47z" />
    <glyph glyph-name="Racute" unicode="&#x154;" horiz-adv-x="630" 
d="M509 0l-179 303h-163v-303h-77v710h254q126 0 178.5 -57.5t52.5 -145.5q0 -69 -39.5 -123t-123.5 -71l185 -313h-88zM167 644v-275h170q81 0 118.5 37.5t37.5 100.5t-37 100t-119 37h-170zM341 753h-68l91 103h79z" />
    <glyph glyph-name="racute" unicode="&#x155;" horiz-adv-x="335" 
d="M145 378q18 60 58.5 97t96.5 37q12 0 19 -1v-68h-8q-67 0 -107 -38q-32 -32 -43.5 -76.5t-11.5 -99.5v-229h-69v500h65v-122zM224 580h-66l99 143h86z" />
    <glyph glyph-name="uni0156" unicode="&#x156;" horiz-adv-x="630" 
d="M509 0l-179 303h-163v-303h-77v710h254q126 0 178.5 -57.5t52.5 -145.5q0 -69 -39.5 -123t-123.5 -71l185 -313h-88zM167 644v-275h170q81 0 118.5 37.5t37.5 100.5t-37 100t-119 37h-170zM280 -198q25 10 32.5 23t7.5 40h-42v85h80v-78q0 -38 -13 -62.5t-47 -38.5z" />
    <glyph glyph-name="uni0157" unicode="&#x157;" horiz-adv-x="335" 
d="M145 378q18 60 58.5 97t96.5 37q12 0 19 -1v-68h-8q-67 0 -107 -38q-32 -32 -43.5 -76.5t-11.5 -99.5v-229h-69v500h65v-122zM77 -198q25 10 32.5 23t7.5 40h-42v85h80v-78q0 -38 -13 -62.5t-47 -38.5z" />
    <glyph glyph-name="Rcaron" unicode="&#x158;" horiz-adv-x="630" 
d="M509 0l-179 303h-163v-303h-77v710h254q126 0 178.5 -57.5t52.5 -145.5q0 -69 -39.5 -123t-123.5 -71l185 -313h-88zM167 644v-275h170q81 0 118.5 37.5t37.5 100.5t-37 100t-119 37h-170zM378 855h72l-100 -103h-86l-101 103h73l71 -72z" />
    <glyph glyph-name="rcaron" unicode="&#x159;" horiz-adv-x="335" 
d="M145 378q18 60 58.5 97t96.5 37q12 0 19 -1v-68h-8q-67 0 -107 -38q-32 -32 -43.5 -76.5t-11.5 -99.5v-229h-69v500h65v-122zM153 580l-111 143h66l81 -107l82 107h66l-111 -143h-73z" />
    <glyph glyph-name="Sacute" unicode="&#x15a;" horiz-adv-x="612" 
d="M115.5 46q-71.5 63 -79.5 167l78 11q8 -78 59 -127.5t146 -49.5q74 0 122.5 34t48.5 100q0 65 -35.5 94.5t-108.5 43.5l-105 21q-175 34 -175 192q0 58 29.5 102t84 68.5t127.5 24.5q110 0 179 -51t78 -155l-78 -15q-15 159 -181 159q-72 0 -115.5 -34.5t-43.5 -93.5
q0 -53 30.5 -84.5t95.5 -45.5l105 -21q91 -18 142 -63t51 -134q0 -59 -29 -105.5t-86.5 -73.5t-138.5 -27q-129 0 -200.5 63zM344 753h-68l91 103h79z" />
    <glyph glyph-name="sacute" unicode="&#x15b;" horiz-adv-x="480" 
d="M106.5 28.5q-55.5 40.5 -66.5 114.5l70 12q9 -53 45.5 -81t96.5 -28q54 0 84 23.5t30 61.5q0 36 -20 54t-61 26l-97 19q-63 12 -96.5 46.5t-33.5 90.5q0 64 50 104.5t134 40.5q83 0 134.5 -36t58.5 -102l-69 -15q-8 46 -40.5 71t-86.5 25q-51 0 -82 -23t-31 -62
q0 -34 21 -53t62 -27l98 -19q66 -13 97 -46t31 -88q0 -68 -49 -108.5t-136 -40.5q-88 0 -143.5 40.5zM272 580h-66l99 143h86z" />
    <glyph glyph-name="Scircumflex" unicode="&#x15c;" horiz-adv-x="612" 
d="M115.5 46q-71.5 63 -79.5 167l78 11q8 -78 59 -127.5t146 -49.5q74 0 122.5 34t48.5 100q0 65 -35.5 94.5t-108.5 43.5l-105 21q-175 34 -175 192q0 58 29.5 102t84 68.5t127.5 24.5q110 0 179 -51t78 -155l-78 -15q-15 159 -181 159q-72 0 -115.5 -34.5t-43.5 -93.5
q0 -53 30.5 -84.5t95.5 -45.5l105 -21q91 -18 142 -63t51 -134q0 -59 -29 -105.5t-86.5 -73.5t-138.5 -27q-129 0 -200.5 63zM354 856l100 -103h-72l-71 73l-71 -73h-73l101 103h86z" />
    <glyph glyph-name="scircumflex" unicode="&#x15d;" horiz-adv-x="480" 
d="M106.5 28.5q-55.5 40.5 -66.5 114.5l70 12q9 -53 45.5 -81t96.5 -28q54 0 84 23.5t30 61.5q0 36 -20 54t-61 26l-97 19q-63 12 -96.5 46.5t-33.5 90.5q0 64 50 104.5t134 40.5q83 0 134.5 -36t58.5 -102l-69 -15q-8 46 -40.5 71t-86.5 25q-51 0 -82 -23t-31 -62
q0 -34 21 -53t62 -27l98 -19q66 -13 97 -46t31 -88q0 -68 -49 -108.5t-136 -40.5q-88 0 -143.5 40.5zM274 723l112 -143h-66l-82 107l-81 -107h-66l111 143h72z" />
    <glyph glyph-name="Scedilla" unicode="&#x15e;" horiz-adv-x="612" 
d="M510.5 47.5q-59.5 -56.5 -168.5 -63.5l-24 -40q14 12 42 12q32 0 52 -20t20 -54q0 -37 -27 -59.5t-71 -22.5q-37 0 -62 16.5t-33 46.5l49 7q4 -14 16 -22.5t29 -8.5q20 0 32.5 12t12.5 32q0 19 -11.5 30.5t-31.5 11.5q-21 0 -37 -16l-33 11l33 63q-121 5 -187.5 67.5
t-74.5 162.5l78 11q8 -78 59 -127.5t146 -49.5q74 0 122.5 34t48.5 100q0 65 -35.5 94.5t-108.5 43.5l-105 21q-175 34 -175 192q0 58 29.5 102t84 68.5t127.5 24.5q110 0 179 -51t78 -155l-78 -15q-15 159 -181 159q-72 0 -115.5 -34.5t-43.5 -93.5q0 -53 30.5 -84.5
t95.5 -45.5l105 -21q91 -18 142 -63t51 -134q0 -85 -59.5 -141.5z" />
    <glyph glyph-name="scedilla" unicode="&#x15f;" horiz-adv-x="480" 
d="M307 271q66 -13 97 -46t31 -88q0 -63 -42.5 -103t-119.5 -45l-27 -45q14 12 42 12q32 0 52 -20t20 -54q0 -37 -27 -59.5t-71 -22.5q-37 0 -62 16.5t-33 46.5l49 7q4 -14 16 -22.5t29 -8.5q20 0 32.5 12t12.5 32q0 19 -11.5 30.5t-31.5 11.5q-21 0 -37 -16l-33 11l36 69
q-80 5 -129.5 44.5t-59.5 109.5l70 12q9 -53 45.5 -81t96.5 -28q54 0 84 23.5t30 61.5q0 36 -20 54t-61 26l-97 19q-63 12 -96.5 46.5t-33.5 90.5q0 64 50 104.5t134 40.5q83 0 134.5 -36t58.5 -102l-69 -15q-8 46 -40.5 71t-86.5 25q-51 0 -82 -23t-31 -62q0 -34 21 -53
t62 -27z" />
    <glyph glyph-name="Scaron" unicode="&#x160;" horiz-adv-x="612" 
d="M115.5 46q-71.5 63 -79.5 167l78 11q8 -78 59 -127.5t146 -49.5q74 0 122.5 34t48.5 100q0 65 -35.5 94.5t-108.5 43.5l-105 21q-175 34 -175 192q0 58 29.5 102t84 68.5t127.5 24.5q110 0 179 -51t78 -155l-78 -15q-15 159 -181 159q-72 0 -115.5 -34.5t-43.5 -93.5
q0 -53 30.5 -84.5t95.5 -45.5l105 -21q91 -18 142 -63t51 -134q0 -59 -29 -105.5t-86.5 -73.5t-138.5 -27q-129 0 -200.5 63zM382 855h72l-100 -103h-86l-101 103h73l71 -72z" />
    <glyph glyph-name="scaron" unicode="&#x161;" horiz-adv-x="480" 
d="M106.5 28.5q-55.5 40.5 -66.5 114.5l70 12q9 -53 45.5 -81t96.5 -28q54 0 84 23.5t30 61.5q0 36 -20 54t-61 26l-97 19q-63 12 -96.5 46.5t-33.5 90.5q0 64 50 104.5t134 40.5q83 0 134.5 -36t58.5 -102l-69 -15q-8 46 -40.5 71t-86.5 25q-51 0 -82 -23t-31 -62
q0 -34 21 -53t62 -27l98 -19q66 -13 97 -46t31 -88q0 -68 -49 -108.5t-136 -40.5q-88 0 -143.5 40.5zM202 580l-111 143h66l81 -107l82 107h66l-111 -143h-73z" />
    <glyph glyph-name="uni0162" unicode="&#x162;" horiz-adv-x="554" 
d="M316 0h-17l-34 -56q14 12 42 12q32 0 52 -20t20 -54q0 -37 -27 -59.5t-71 -22.5q-37 0 -62 16.5t-33 46.5l49 7q4 -14 16 -22.5t29 -8.5q20 0 32.5 12t12.5 32q0 19 -11.5 30.5t-31.5 11.5q-21 0 -37 -16l-33 11l41 80h-15v644h-229v66h536v-66h-229v-644z" />
    <glyph glyph-name="uni0163" unicode="&#x163;" horiz-adv-x="343" 
d="M313 -64q20 -20 20 -54q0 -37 -27 -59.5t-71 -22.5q-37 0 -62 16.5t-33 46.5l49 7q4 -14 16 -22.5t29 -8.5q20 0 32.5 12t12.5 32q0 19 -11.5 30.5t-31.5 11.5q-21 0 -37 -16l-33 11l38 74q-49 10 -70.5 47t-21.5 98v303h-93v58h93v132l70 30v-162h128v-58h-128v-300
q0 -44 19.5 -64.5t58.5 -20.5q25 0 50 6v-63q-28 -9 -62 -9l-29 -47q14 12 42 12q32 0 52 -20z" />
    <glyph glyph-name="Tcaron" unicode="&#x164;" horiz-adv-x="554" 
d="M9 710h536v-66h-229v-644h-78v644h-229v66zM349 855h72l-100 -103h-86l-101 103h73l71 -72z" />
    <glyph glyph-name="tcaron" unicode="&#x165;" horiz-adv-x="343" 
d="M19 442v58h93v132l70 30v-162h128v-58h-128v-300q0 -44 19.5 -64.5t58.5 -20.5q25 0 50 6v-63q-31 -9 -69 -9q-69 0 -99 38.5t-30 109.5v303h-93zM347 727l-64 -167h-43l38 167h69z" />
    <glyph glyph-name="Tbar" unicode="&#x166;" horiz-adv-x="554" 
d="M545 710v-66h-229v-200h163v-49h-163v-395h-78v395h-163v49h163v200h-229v66h536z" />
    <glyph glyph-name="tbar" unicode="&#x167;" horiz-adv-x="343" 
d="M310 442h-128v-137h121v-58h-121v-105q0 -44 19.5 -64.5t58.5 -20.5q25 0 50 6v-63q-31 -9 -69 -9q-69 0 -99 38.5t-30 109.5v108h-82v58h82v137h-93v58h93v132l70 30v-162h128v-58z" />
    <glyph glyph-name="Utilde" unicode="&#x168;" horiz-adv-x="701" 
d="M85 710h77v-460q0 -92 49 -145t139 -53t139.5 53t49.5 145v460h78v-465q0 -120 -70 -191t-197 -71q-126 0 -195.5 71t-69.5 191v465zM375 756.5q-17 8.5 -38 23.5q-17 13 -28.5 19t-25.5 6q-20 0 -32.5 -12.5t-17.5 -40.5l-49 9q7 47 33 72.5t68 25.5q24 0 40.5 -8
t37.5 -24q19 -14 29.5 -19.5t25.5 -5.5q20 0 32 13t17 40l49 -8q-6 -48 -32 -73.5t-69 -25.5q-23 0 -40 8.5z" />
    <glyph glyph-name="utilde" unicode="&#x169;" horiz-adv-x="549" 
d="M110.5 38.5q-40.5 50.5 -40.5 144.5v317h69v-310q0 -71 30.5 -106.5t83.5 -35.5q67 0 106.5 50.5t39.5 128.5v273h70v-500h-66v103q-18 -51 -62 -83t-100 -32q-90 0 -130.5 50.5zM298.5 599.5q-17.5 9.5 -43.5 29.5q-19 16 -32 23.5t-29 7.5q-21 0 -33 -15t-18 -46l-49 8
q7 52 33.5 81t69.5 29q26 0 44.5 -10t42.5 -30q19 -16 32 -23.5t29 -7.5q21 0 33.5 15t18.5 47l48 -9q-6 -52 -33 -80.5t-70 -28.5q-26 0 -43.5 9.5z" />
    <glyph glyph-name="Umacron" unicode="&#x16a;" horiz-adv-x="701" 
d="M85 710h77v-460q0 -92 49 -145t139 -53t139.5 53t49.5 145v460h78v-465q0 -120 -70 -191t-197 -71q-126 0 -195.5 71t-69.5 191v465zM500 770h-298v57h298v-57z" />
    <glyph glyph-name="umacron" unicode="&#x16b;" horiz-adv-x="549" 
d="M110.5 38.5q-40.5 50.5 -40.5 144.5v317h69v-310q0 -71 30.5 -106.5t83.5 -35.5q67 0 106.5 50.5t39.5 128.5v273h70v-500h-66v103q-18 -51 -62 -83t-100 -32q-90 0 -130.5 50.5zM415 619h-291v56h291v-56z" />
    <glyph glyph-name="Ubreve" unicode="&#x16c;" horiz-adv-x="701" 
d="M85 710h77v-460q0 -92 49 -145t139 -53t139.5 53t49.5 145v460h78v-465q0 -120 -70 -191t-197 -71q-126 0 -195.5 71t-69.5 191v465zM267 856q4 -28 25.5 -44t58.5 -16q74 0 84 60h59q-5 -51 -41.5 -79.5t-101.5 -28.5q-66 0 -102.5 28.5t-41.5 79.5h60z" />
    <glyph glyph-name="ubreve" unicode="&#x16d;" horiz-adv-x="549" 
d="M110.5 38.5q-40.5 50.5 -40.5 144.5v317h69v-310q0 -71 30.5 -106.5t83.5 -35.5q67 0 106.5 50.5t39.5 128.5v273h70v-500h-66v103q-18 -51 -62 -83t-100 -32q-90 0 -130.5 50.5zM183 723q3 -48 26 -72.5t61 -24.5q39 0 61.5 24.5t24.5 72.5h60q-4 -75 -43.5 -111.5
t-102.5 -36.5t-103 36.5t-43 111.5h59z" />
    <glyph glyph-name="Uring" unicode="&#x16e;" horiz-adv-x="701" 
d="M85 710h77v-460q0 -92 49 -145t139 -53t139.5 53t49.5 145v460h78v-465q0 -120 -70 -191t-197 -71q-126 0 -195.5 71t-69.5 191v465zM274.5 765.5q-29.5 27.5 -29.5 71.5t29.5 72t75.5 28q47 0 76 -28t29 -72t-29 -71.5t-76 -27.5q-46 0 -75.5 27.5zM391.5 795
q15.5 16 15.5 42t-15.5 42.5t-41.5 16.5q-25 0 -41 -16.5t-16 -42.5t16 -42t41 -16q26 0 41.5 16z" />
    <glyph glyph-name="uring" unicode="&#x16f;" horiz-adv-x="549" 
d="M110.5 38.5q-40.5 50.5 -40.5 144.5v317h69v-310q0 -71 30.5 -106.5t83.5 -35.5q67 0 106.5 50.5t39.5 128.5v273h70v-500h-66v103q-18 -51 -62 -83t-100 -32q-90 0 -130.5 50.5zM193.5 586.5q-29.5 27.5 -29.5 71.5t29.5 71.5t76.5 27.5t76 -27.5t29 -71.5t-29 -71.5
t-76 -27.5t-76.5 27.5zM310.5 615.5q15.5 16.5 15.5 42.5t-15.5 42.5t-40.5 16.5t-41 -16.5t-16 -42.5t16 -42.5t41 -16.5t40.5 16.5z" />
    <glyph glyph-name="Uhungarumlaut" unicode="&#x170;" horiz-adv-x="701" 
d="M85 710h77v-460q0 -92 49 -145t139 -53t139.5 53t49.5 145v460h78v-465q0 -120 -70 -191t-197 -71q-126 0 -195.5 71t-69.5 191v465zM315 753h-70l91 103h75zM457 753h-69l91 103h75z" />
    <glyph glyph-name="uhungarumlaut" unicode="&#x171;" horiz-adv-x="549" 
d="M110.5 38.5q-40.5 50.5 -40.5 144.5v317h69v-310q0 -71 30.5 -106.5t83.5 -35.5q67 0 106.5 50.5t39.5 128.5v273h70v-500h-66v103q-18 -51 -62 -83t-100 -32q-90 0 -130.5 50.5zM230 580h-62l87 143h68zM372 580h-63l87 143h69z" />
    <glyph glyph-name="Uogonek" unicode="&#x172;" horiz-adv-x="711" 
d="M440 -106q0 -24 11.5 -37.5t32.5 -13.5q40 0 48 53l49 -6q-6 -45 -31 -69t-68 -24q-44 0 -70 24t-26 67q0 53 58 107q-42 -12 -94 -12q-126 0 -195.5 71t-69.5 191v465h77v-460q0 -92 49 -145t139 -53t139.5 53t49.5 145v460h78v-465q0 -69 -24.5 -123.5t-70.5 -88.5
q-82 -78 -82 -139z" />
    <glyph glyph-name="uogonek" unicode="&#x173;" horiz-adv-x="549" 
d="M498 -110q-14 -93 -100 -93q-43 0 -69 23t-26 62q0 37 25 68.5t75 51.5v101q-18 -51 -62 -83t-100 -32q-90 0 -130.5 50.5t-40.5 144.5v317h69v-310q0 -71 30.5 -106.5t83.5 -35.5q67 0 106.5 50.5t39.5 128.5v273h70v-500h1q-50 -9 -81.5 -42t-31.5 -69q0 -22 12 -34
t32 -12q39 0 47 53z" />
    <glyph glyph-name="Wcircumflex" unicode="&#x174;" horiz-adv-x="899" 
d="M197 0l-177 710h80l137 -591q3 -14 6 -37h3q0 10 7 37l157 591h79l157 -591q6 -24 8 -37h2q3 23 6 37l138 591h79l-176 -710h-95l-151 577q-5 20 -6 33h-3q-1 -13 -6 -33l-150 -577h-95zM493 856l100 -103h-72l-71 73l-71 -73h-73l101 103h86z" />
    <glyph glyph-name="wcircumflex" unicode="&#x175;" horiz-adv-x="713" 
d="M164 0l-144 500h72l99 -369q10 -43 12 -60h2q1 5 9 38l5 22l101 369h74l100 -369q11 -40 14 -60h2q2 17 12 60l99 369h72l-144 -500h-76l-104 374q-8 33 -11 55h-2l-12 -55l-104 -374h-76zM393 723l112 -143h-66l-82 107l-81 -107h-66l111 143h72z" />
    <glyph glyph-name="Ycircumflex" unicode="&#x176;" horiz-adv-x="571" 
d="M246 0v285l-245 425h87l173 -307q11 -21 24 -48h2q8 21 23 48l173 307h87l-245 -425v-285h-79zM329 856l100 -103h-72l-71 73l-71 -73h-73l101 103h86z" />
    <glyph glyph-name="ycircumflex" unicode="&#x177;" horiz-adv-x="466" 
d="M38 -196v62q18 -3 35 -3q47 0 74 25t46 79l13 37l-200 496h78l134 -357q13 -34 22 -68h2q7 28 21 69l122 356h75l-195 -532q-33 -91 -76.5 -129.5t-106.5 -38.5q-24 0 -44 4zM269 723l112 -143h-66l-82 107l-81 -107h-66l111 143h72z" />
    <glyph glyph-name="Ydieresis" unicode="&#x178;" horiz-adv-x="571" 
d="M246 0v285l-245 425h87l173 -307q11 -21 24 -48h2q8 21 23 48l173 307h87l-245 -425v-285h-79zM216 753h-79v96h79v-96zM434 753h-79v96h79v-96z" />
    <glyph glyph-name="Zacute" unicode="&#x179;" horiz-adv-x="558" 
d="M27 0v72l411 572h-397v66h481v-72l-413 -572h427v-66h-509zM316 753h-68l91 103h79z" />
    <glyph glyph-name="zacute" unicode="&#x17a;" horiz-adv-x="445" 
d="M34 0v54l285 387h-274v59h358v-52l-283 -388h297v-60h-383zM257 580h-66l99 143h86z" />
    <glyph glyph-name="Zdotaccent" unicode="&#x17b;" horiz-adv-x="558" 
d="M27 0v72l411 572h-397v66h481v-72l-413 -572h427v-66h-509zM325 753h-86v103h86v-103z" />
    <glyph glyph-name="zdotaccent" unicode="&#x17c;" horiz-adv-x="445" 
d="M34 0v54l285 387h-274v59h358v-52l-283 -388h297v-60h-383zM262 590h-79v110h79v-110z" />
    <glyph glyph-name="Zcaron" unicode="&#x17d;" horiz-adv-x="558" 
d="M27 0v72l411 572h-397v66h481v-72l-413 -572h427v-66h-509zM353 855h72l-100 -103h-86l-101 103h73l71 -72z" />
    <glyph glyph-name="zcaron" unicode="&#x17e;" horiz-adv-x="445" 
d="M34 0v54l285 387h-274v59h358v-52l-283 -388h297v-60h-383zM187 580l-111 143h66l81 -107l82 107h66l-111 -143h-73z" />
    <glyph glyph-name="uni018F" unicode="&#x18f;" horiz-adv-x="740" 
d="M539 682q73 -45 112 -128.5t39 -198.5q0 -112 -39.5 -196.5t-111.5 -130t-169 -45.5q-96 0 -168.5 45.5t-112 129t-39.5 194.5v31h558q-6 132 -69.5 205t-172.5 73q-77 0 -136.5 -39t-93.5 -116l-77 7q36 104 116.5 159t190.5 55q100 0 173 -45zM536 120q63 71 72 197
h-476q10 -125 73 -196.5t165 -71.5q103 0 166 71z" />
    <glyph glyph-name="florin" unicode="&#x192;" horiz-adv-x="409" 
d="M290.5 631q-19.5 -14 -27.5 -37t-15 -65l-14 -107h133v-55h-140l-68 -517h-70l68 517h-115v55h122l11 84q10 71 23 111t47.5 65t99.5 25q25 0 53 -6v-61q-27 5 -51 5q-37 0 -56.5 -14z" />
    <glyph glyph-name="uni019D" unicode="&#x19d;" horiz-adv-x="714" 
d="M554 710h70v-710h-94l-329 543q-13 22 -24 42.5t-18 39.5h-2q3 -36 3 -87v-554q0 -106 -39.5 -149t-110.5 -43q-23 0 -58 5v68q27 -4 60 -4q39 0 58.5 24.5t19.5 90.5v734h94l329 -542q29 -50 42 -82h2q-3 41 -3 87v537z" />
    <glyph glyph-name="Gcaron" unicode="&#x1e6;" horiz-adv-x="718" 
d="M192.5 31q-69.5 48 -106 132.5t-36.5 191.5q0 109 37.5 193.5t109.5 131.5t173 47q90 0 148.5 -35t86.5 -84t35 -97l-77 -10q-11 63 -56.5 111.5t-139.5 48.5q-75 0 -128.5 -38.5t-81.5 -108t-28 -160.5q0 -87 26.5 -155.5t80.5 -108.5t132 -40q84 0 132 39t65.5 90.5
t17.5 97.5v25h-220v66h290v-368h-57l-11 129q-24 -66 -85 -106t-144 -40q-94 0 -163.5 48zM437 855h72l-100 -103h-86l-101 103h73l71 -72z" />
    <glyph glyph-name="gcaron" unicode="&#x1e7;" horiz-adv-x="513" 
d="M386 465q50 -47 50 -121t-49.5 -121.5t-132.5 -47.5q-54 0 -96 22q-20 -8 -31.5 -22t-11.5 -33q0 -26 21 -41.5t64 -15.5h131q80 0 121.5 -35t41.5 -101q0 -73 -60 -114.5t-181 -41.5q-117 0 -170 38t-53 101q0 37 21.5 65t61.5 41q-30 12 -45 34.5t-15 51.5q0 34 19 59
t52 37q-52 49 -52 124q0 74 49.5 121t132.5 47q56 0 98 -22q12 41 41.5 65.5t76.5 24.5q14 0 29 -3v-62q-18 4 -31 4q-62 0 -82 -54zM338 260.5q32 31.5 32 82.5t-32 83t-84 32t-84 -31.5t-32 -82.5t32 -83t84 -32t84 31.5zM198 24q-15 0 -39 2q-30 -12 -45.5 -34t-15.5 -48
q0 -93 163 -93q88 0 125.5 24.5t37.5 69.5q0 39 -27 59t-81 20h-118zM217 580l-111 143h66l81 -107l82 107h66l-111 -143h-73z" />
    <glyph glyph-name="AEacute" unicode="&#x1fc;" horiz-adv-x="916" 
d="M518 331v-265h341v-66h-419v177h-262l-100 -177h-83l418 710h439v-66h-334v-247h317v-66h-317zM440 639l-225 -397h225v397zM672 753h-68l91 103h79z" />
    <glyph glyph-name="aeacute" unicode="&#x1fd;" horiz-adv-x="842" 
d="M793 233h-342q1 -85 40.5 -134t107.5 -49q49 0 84 28t49 79l58 -24q-22 -70 -72.5 -107.5t-122.5 -37.5q-70 0 -117 32.5t-70 93.5q-24 -61 -75 -93.5t-121 -32.5q-74 0 -118.5 38t-44.5 102q0 63 44 101t133 47l154 16v20q0 72 -30 106.5t-92 34.5q-56 0 -88 -28
t-35 -81h-71q5 79 56 123.5t139 44.5q63 0 103.5 -23t61.5 -70q26 45 69 69t101 24q96 0 147.5 -63.5t51.5 -179.5v-36zM721 290q1 78 -32.5 122t-94.5 44q-62 0 -102 -45.5t-41 -120.5h270zM381 239l-134 -14q-67 -7 -96 -30.5t-29 -67.5q0 -36 28.5 -58.5t74.5 -22.5
q41 0 76.5 18.5t57.5 57t22 96.5v21zM458 580h-66l99 143h86z" />
    <glyph glyph-name="Oslashacute" unicode="&#x1fe;" horiz-adv-x="740" 
d="M611 618q79 -99 79 -263q0 -113 -39.5 -197t-112 -129.5t-168.5 -45.5q-119 0 -200 69l-47 -61l-45 33l53 68q-39 48 -60 115t-21 148q0 114 39.5 198t111.5 129t169 45q121 0 202 -69l46 60l45 -33zM180 155l346 445q-59 61 -156 61q-74 0 -128 -37t-82.5 -106
t-28.5 -163q0 -122 49 -200zM498 86q54 37 82.5 106t28.5 163q0 123 -47 200l-347 -445q63 -61 155 -61q74 0 128 37zM404 753h-68l91 103h79z" />
    <glyph glyph-name="oslashacute" unicode="&#x1ff;" horiz-adv-x="553" 
d="M450 434q56 -70 56 -184q0 -80 -28.5 -139.5t-80.5 -91t-121 -31.5q-83 0 -143 47l-37 -47l-36 27l42 52q-55 71 -55 183q0 80 28.5 139.5t80 91t120.5 31.5q85 0 142 -46l37 46l37 -26zM147 125l230 289q-40 37 -101 37q-73 0 -114 -52t-41 -149q0 -76 26 -125z
M390.5 101q41.5 52 41.5 149q0 78 -27 127l-230 -290q40 -38 101 -38q73 0 114.5 52zM311 580h-66l99 143h86z" />
    <glyph glyph-name="uni0218" unicode="&#x218;" horiz-adv-x="612" 
d="M115.5 46q-71.5 63 -79.5 167l78 11q8 -78 59 -127.5t146 -49.5q74 0 122.5 34t48.5 100q0 65 -35.5 94.5t-108.5 43.5l-105 21q-175 34 -175 192q0 58 29.5 102t84 68.5t127.5 24.5q110 0 179 -51t78 -155l-78 -15q-15 159 -181 159q-72 0 -115.5 -34.5t-43.5 -93.5
q0 -53 30.5 -84.5t95.5 -45.5l105 -21q91 -18 142 -63t51 -134q0 -59 -29 -105.5t-86.5 -73.5t-138.5 -27q-129 0 -200.5 63zM294 -198q25 10 32.5 23t7.5 40h-42v85h80v-78q0 -38 -13 -62.5t-47 -38.5z" />
    <glyph glyph-name="uni0219" unicode="&#x219;" horiz-adv-x="480" 
d="M106.5 28.5q-55.5 40.5 -66.5 114.5l70 12q9 -53 45.5 -81t96.5 -28q54 0 84 23.5t30 61.5q0 36 -20 54t-61 26l-97 19q-63 12 -96.5 46.5t-33.5 90.5q0 64 50 104.5t134 40.5q83 0 134.5 -36t58.5 -102l-69 -15q-8 46 -40.5 71t-86.5 25q-51 0 -82 -23t-31 -62
q0 -34 21 -53t62 -27l98 -19q66 -13 97 -46t31 -88q0 -68 -49 -108.5t-136 -40.5q-88 0 -143.5 40.5zM222 -198q25 10 32.5 23t7.5 40h-42v85h80v-78q0 -38 -13 -62.5t-47 -38.5z" />
    <glyph glyph-name="uni021A" unicode="&#x21a;" horiz-adv-x="554" 
d="M9 710h536v-66h-229v-644h-78v644h-229v66zM240 -198q25 10 32.5 23t7.5 40h-42v85h80v-78q0 -38 -13 -62.5t-47 -38.5z" />
    <glyph glyph-name="uni021B" unicode="&#x21b;" horiz-adv-x="343" 
d="M19 442v58h93v132l70 30v-162h128v-58h-128v-300q0 -44 19.5 -64.5t58.5 -20.5q25 0 50 6v-63q-31 -9 -69 -9q-69 0 -99 38.5t-30 109.5v303h-93zM195 -198q25 10 32.5 23t7.5 40h-42v85h80v-78q0 -38 -13 -62.5t-47 -38.5z" />
    <glyph glyph-name="uni0232" unicode="&#x232;" horiz-adv-x="571" 
d="M246 0v285l-245 425h87l173 -307q11 -21 24 -48h2q8 21 23 48l173 307h87l-245 -425v-285h-79zM435 770h-298v57h298v-57z" />
    <glyph glyph-name="uni0233" unicode="&#x233;" horiz-adv-x="466" 
d="M38 -196v62q18 -3 35 -3q47 0 74 25t46 79l13 37l-200 496h78l134 -357q13 -34 22 -68h2q7 28 21 69l122 356h75l-195 -532q-33 -91 -76.5 -129.5t-106.5 -38.5q-24 0 -44 4zM379 619h-291v56h291v-56z" />
    <glyph glyph-name="uni0237" unicode="&#x237;" horiz-adv-x="235" 
d="M-25 -196v60q39 -3 47 -3q33 0 48.5 19t15.5 68v552h69v-560q0 -64 -29 -103t-93 -39q-35 0 -58 6z" />
    <glyph glyph-name="uni0243" unicode="&#x243;" horiz-adv-x="634" 
d="M534.5 65.5q-43.5 -53.5 -145.5 -63.5v-109h-45v107h-78v-107h-46v107h-130v695h130v90h46v-90h61h17v90h45v-94q93 -13 132 -61.5t39 -111.5q0 -58 -30 -100t-96 -57q71 -10 107.5 -54t36.5 -114q0 -74 -43.5 -127.5zM164 631v-244h166q152 0 152 125q0 119 -155 119
h-163zM341 64q86 0 123 37.5t37 97.5q0 57 -36.5 92.5t-114.5 35.5h-186v-263h177z" />
    <glyph glyph-name="uni0259" unicode="&#x259;" horiz-adv-x="528" 
d="M422 445q59 -67 59 -192q0 -123 -59 -194t-163 -71q-101 0 -156 59.5t-55 172.5v48h363q-1 84 -44 133t-115 49q-53 0 -89.5 -28t-52.5 -79l-59 24q23 70 76 107.5t129 37.5q107 0 166 -67zM369.5 88.5q39.5 44.5 41.5 122.5h-292v-9q0 -77 37 -117.5t105 -40.5
q69 0 108.5 44.5z" />
    <glyph glyph-name="uni0272" unicode="&#x272;" horiz-adv-x="556" 
d="M444 460.5q43 -51.5 43 -151.5v-309h-70v305q0 73 -31 110t-90 37q-68 0 -107.5 -50.5t-39.5 -138.5v-303q0 -162 -121 -162q-33 0 -58 6v60q5 0 17 -1.5t25 -1.5q36 0 52 21.5t16 68.5v549h66v-110q45 122 171 122q84 0 127 -51.5z" />
    <glyph glyph-name="uni02BC" unicode="&#x2bc;" horiz-adv-x="239" 
d="M70 502q32 16 42.5 36t10.5 57v3h-50v112h95v-106q0 -56 -17 -86.5t-62 -51.5z" />
    <glyph glyph-name="circumflex" unicode="&#x2c6;" horiz-adv-x="390" 
d="M231 723l112 -143h-66l-82 107l-81 -107h-66l111 143h72z" />
    <glyph glyph-name="caron" unicode="&#x2c7;" horiz-adv-x="600" 
d="M161 580l-111 143h66l81 -107l82 107h66l-111 -143h-73z" />
    <glyph glyph-name="breve" unicode="&#x2d8;" horiz-adv-x="600" 
d="M113 723q3 -48 26 -72.5t61 -24.5q39 0 61.5 24.5t24.5 72.5h60q-4 -75 -43.5 -111.5t-102.5 -36.5t-103 36.5t-43 111.5h59z" />
    <glyph glyph-name="dotaccent" unicode="&#x2d9;" horiz-adv-x="600" 
d="M128 590h-79v110h79v-110z" />
    <glyph glyph-name="ring" unicode="&#x2da;" horiz-adv-x="600" 
d="M77.5 586.5q-29.5 27.5 -29.5 71.5t29.5 71.5t76.5 27.5t76 -27.5t29 -71.5t-29 -71.5t-76 -27.5t-76.5 27.5zM194.5 615.5q15.5 16.5 15.5 42.5t-15.5 42.5t-40.5 16.5t-41 -16.5t-16 -42.5t16 -42.5t41 -16.5t40.5 16.5z" />
    <glyph glyph-name="ogonek" unicode="&#x2db;" horiz-adv-x="600" 
d="M244 -110q-14 -93 -100 -93q-43 0 -69 23t-26 62q0 37 25.5 68.5t75.5 51.5l66 -2q-50 -9 -81.5 -42t-31.5 -69q0 -22 12 -34t32 -12q39 0 47 53z" />
    <glyph glyph-name="tilde" unicode="&#x2dc;" horiz-adv-x="600" 
d="M260.5 599.5q-17.5 9.5 -43.5 29.5q-19 16 -32 23.5t-29 7.5q-21 0 -33 -15t-18 -46l-49 8q7 52 33.5 81t69.5 29q26 0 44.5 -10t42.5 -30q19 -16 32 -23.5t29 -7.5q21 0 33.5 15t18.5 47l48 -9q-6 -52 -33 -80.5t-70 -28.5q-26 0 -43.5 9.5z" />
    <glyph glyph-name="hungarumlaut" unicode="&#x2dd;" horiz-adv-x="600" 
d="M123 580h-62l87 143h68zM265 580h-63l87 143h69z" />
    <glyph glyph-name="gravecomb" unicode="&#x300;" horiz-adv-x="0" 
d="M-131 723l99 -143h-66l-119 143h86z" />
    <glyph glyph-name="acutecomb" unicode="&#x301;" horiz-adv-x="0" 
d="M-167 580h-66l99 143h86z" />
    <glyph glyph-name="uni0302" unicode="&#x302;" horiz-adv-x="0" 
d="M-159 723l112 -143h-66l-82 107l-81 -107h-66l111 143h72z" />
    <glyph glyph-name="tildecomb" unicode="&#x303;" horiz-adv-x="0" 
d="M-201.5 599.5q-17.5 9.5 -43.5 29.5q-19 16 -32 23.5t-29 7.5q-21 0 -33 -15t-18 -46l-49 8q7 52 33.5 81t69.5 29q26 0 44.5 -10t42.5 -30q19 -16 32 -23.5t29 -7.5q21 0 33.5 15t18.5 47l48 -9q-6 -52 -33 -80.5t-70 -28.5q-26 0 -43.5 9.5z" />
    <glyph glyph-name="uni0304" unicode="&#x304;" horiz-adv-x="0" 
d="M-42 619h-291v56h291v-56z" />
    <glyph glyph-name="uni0306" unicode="&#x306;" horiz-adv-x="0" 
d="M-286 723q3 -48 26 -72.5t61 -24.5q39 0 61.5 24.5t24.5 72.5h60q-4 -75 -43.5 -111.5t-102.5 -36.5t-103 36.5t-43 111.5h59z" />
    <glyph glyph-name="uni0307" unicode="&#x307;" horiz-adv-x="0" 
d="M-50 590h-79v110h79v-110z" />
    <glyph glyph-name="uni0308" unicode="&#x308;" horiz-adv-x="0" 
d="M-253 592h-79v106h79v-106zM-50 592h-79v106h79v-106z" />
    <glyph glyph-name="uni030A" unicode="&#x30a;" horiz-adv-x="0" 
d="M-229.5 586.5q-29.5 27.5 -29.5 71.5t29.5 71.5t76.5 27.5t76 -27.5t29 -71.5t-29 -71.5t-76 -27.5t-76.5 27.5zM-112.5 615.5q15.5 16.5 15.5 42.5t-15.5 42.5t-40.5 16.5t-41 -16.5t-16 -42.5t16 -42.5t41 -16.5t40.5 16.5z" />
    <glyph glyph-name="uni030B" unicode="&#x30b;" horiz-adv-x="0" 
d="M-286 580h-62l87 143h68zM-144 580h-63l87 143h69z" />
    <glyph glyph-name="uni030C" unicode="&#x30c;" horiz-adv-x="0" 
d="M-234 580l-111 143h66l81 -107l82 107h66l-111 -143h-73z" />
    <glyph glyph-name="uni0312" unicode="&#x312;" horiz-adv-x="0" 
d="M-53 728q-25 -10 -32.5 -23t-7.5 -39h42v-86h-80v78q0 39 13 63.5t47 38.5z" />
    <glyph glyph-name="dotbelowcomb" unicode="&#x323;" horiz-adv-x="0" 
d="M-86 -151h-79v100h79v-100z" />
    <glyph glyph-name="uni0326" unicode="&#x326;" horiz-adv-x="0" 
d="M-128 -198q25 10 32.5 23t7.5 40h-42v85h80v-78q0 -38 -13 -62.5t-47 -38.5z" />
    <glyph glyph-name="uni0327" unicode="&#x327;" horiz-adv-x="0" 
d="M-173 5h46l-37 -61q14 12 42 12q32 0 52 -20t20 -54q0 -37 -27 -59.5t-71 -22.5q-37 0 -62 16.5t-33 46.5l49 7q4 -14 16 -22.5t29 -8.5q20 0 32.5 12t12.5 32q0 19 -11.5 30.5t-31.5 11.5q-21 0 -37 -16l-33 11z" />
    <glyph glyph-name="uni0328" unicode="&#x328;" horiz-adv-x="0" 
d="M-53 -110q-14 -93 -100 -93q-43 0 -69 23t-26 62q0 37 25.5 68.5t75.5 51.5l66 -2q-50 -9 -81.5 -42t-31.5 -69q0 -22 12 -34t32 -12q39 0 47 53z" />
    <glyph glyph-name="uni0394" unicode="&#x394;" horiz-adv-x="608" 
d="M591 0h-574l247 710h83zM495 62l-190 566l-196 -566h386z" />
    <glyph glyph-name="uni03A9" unicode="&#x3a9;" horiz-adv-x="766" 
d="M254.5 626q-53.5 -35 -82 -98.5t-28.5 -147.5q0 -105 45.5 -188.5t129.5 -125.5v-66h-257l1 66h163v3q-76 50 -119.5 130t-43.5 185q0 99 39 177t111.5 122t169.5 44t170 -44t112 -122t39 -177q0 -105 -44 -185t-120 -130v-3h164v-66h-256v66q84 42 129 125.5t45 188.5
q0 128 -63 204.5t-176 76.5q-75 0 -128.5 -35z" />
    <glyph glyph-name="uni03BC" unicode="&#x3bc;" horiz-adv-x="562" 
d="M422 0q-7 34 -10 99q-19 -50 -62.5 -80.5t-98.5 -30.5q-68 0 -109 30v-213h-62v695h69v-310q0 -71 30.5 -106.5t83.5 -35.5q67 0 106.5 50.5t39.5 128.5v273h70v-329q0 -111 16 -171h-73z" />
    <glyph glyph-name="pi" unicode="&#x3c0;" horiz-adv-x="613" 
d="M560 438h-88v-321q0 -61 52 -61q15 0 35 4v-61q-6 -2 -19 -4t-26 -2q-64 0 -88 34t-24 90v321h-206v-438h-70v438h-19q-40 0 -72 -11v60q12 7 30 10t49 3h446v-62z" />
    <glyph glyph-name="uni0E3F" unicode="&#xe3f;" horiz-adv-x="634" 
d="M541 307q37 -43 37 -114q0 -92 -61 -142.5t-171 -50.5h-12v-107h-45v107h-199v695h199v91h45v-91q107 -2 166.5 -48.5t59.5 -128.5q0 -62 -32.5 -102.5t-93.5 -54.5q70 -11 107 -54zM289 631h-125v-244h125v244zM444 599q-38 30 -110 32v-244q71 1 109.5 33t38.5 92
q0 57 -38 87zM164 327v-263h125v263h-125zM341 64q78 0 119 34.5t41 100.5q0 62 -39 95t-112 33h-16v-263h7z" />
    <glyph glyph-name="Wgrave" unicode="&#x1e80;" horiz-adv-x="899" 
d="M197 0l-177 710h80l137 -591q3 -14 6 -37h3q0 10 7 37l157 591h79l157 -591q6 -24 8 -37h2q3 23 6 37l138 591h79l-176 -710h-95l-151 577q-5 20 -6 33h-3q-1 -13 -6 -33l-150 -577h-95zM393 856l91 -103h-68l-102 103h79z" />
    <glyph glyph-name="wgrave" unicode="&#x1e81;" horiz-adv-x="713" 
d="M164 0l-144 500h72l99 -369q10 -43 12 -60h2q1 5 9 38l5 22l101 369h74l100 -369q11 -40 14 -60h2q2 17 12 60l99 369h72l-144 -500h-76l-104 374q-8 33 -11 55h-2l-12 -55l-104 -374h-76zM289 723l99 -143h-66l-119 143h86z" />
    <glyph glyph-name="Wacute" unicode="&#x1e82;" horiz-adv-x="899" 
d="M197 0l-177 710h80l137 -591q3 -14 6 -37h3q0 10 7 37l157 591h79l157 -591q6 -24 8 -37h2q3 23 6 37l138 591h79l-176 -710h-95l-151 577q-5 20 -6 33h-3q-1 -13 -6 -33l-150 -577h-95zM484 753h-68l91 103h79z" />
    <glyph glyph-name="wacute" unicode="&#x1e83;" horiz-adv-x="713" 
d="M164 0l-144 500h72l99 -369q10 -43 12 -60h2q1 5 9 38l5 22l101 369h74l100 -369q11 -40 14 -60h2q2 17 12 60l99 369h72l-144 -500h-76l-104 374q-8 33 -11 55h-2l-12 -55l-104 -374h-76zM391 580h-66l99 143h86z" />
    <glyph glyph-name="Wdieresis" unicode="&#x1e84;" horiz-adv-x="899" 
d="M197 0l-177 710h80l137 -591q3 -14 6 -37h3q0 10 7 37l157 591h79l157 -591q6 -24 8 -37h2q3 23 6 37l138 591h79l-176 -710h-95l-151 577q-5 20 -6 33h-3q-1 -13 -6 -33l-150 -577h-95zM381 753h-79v96h79v-96zM599 753h-79v96h79v-96z" />
    <glyph glyph-name="wdieresis" unicode="&#x1e85;" horiz-adv-x="713" 
d="M164 0l-144 500h72l99 -369q10 -43 12 -60h2q1 5 9 38l5 22l101 369h74l100 -369q11 -40 14 -60h2q2 17 12 60l99 369h72l-144 -500h-76l-104 374q-8 33 -11 55h-2l-12 -55l-104 -374h-76zM295 592h-79v106h79v-106zM498 592h-79v106h79v-106z" />
    <glyph glyph-name="uni1E9E" unicode="&#x1e9e;" horiz-adv-x="719" 
d="M426 399q108 -4 167 -56t59 -145q0 -100 -65 -157.5t-178 -57.5q-61 0 -138 19v67q66 -24 131 -24q83 0 128 39.5t45 113.5q0 66 -45 100.5t-129 34.5h-63v66l201 207q-34 32 -73.5 45.5t-97.5 13.5q-103 0 -152 -46t-49 -147v-472h-77v472q0 125 72.5 190t205.5 65
q92 0 159 -32t103 -90z" />
    <glyph glyph-name="uni1EA0" unicode="&#x1ea0;" horiz-adv-x="652" 
d="M635 0h-81l-75 207h-306l-75 -207h-81l270 710h78zM197 273h258l-105 291q-10 27 -23 69h-2q-13 -42 -23 -69zM365 -151h-79v100h79v-100z" />
    <glyph glyph-name="uni1EA1" unicode="&#x1ea1;" horiz-adv-x="532" 
d="M94.5 27.5q-45.5 39.5 -45.5 104.5q0 36 15.5 64.5t45.5 47.5q53 31 165 45l110 13v8q0 77 -28.5 110.5t-92.5 33.5q-57 0 -89.5 -28.5t-35.5 -81.5h-75q5 77 59 122.5t140 45.5q101 0 146.5 -49t45.5 -158v-130q0 -115 16 -175h-73q-6 44 -8 100q-19 -53 -65 -82.5
t-110 -29.5q-75 0 -120.5 39.5zM343.5 93.5q42.5 47.5 42.5 124.5v32l-142 -20q-64 -9 -93 -32t-29 -64t29.5 -64.5t79.5 -23.5q70 0 112.5 47.5zM307 -151h-79v100h79v-100z" />
    <glyph glyph-name="uni1EB8" unicode="&#x1eb8;" horiz-adv-x="587" 
d="M167 331v-265h363v-66h-440v710h433v-66h-356v-247h339v-66h-339zM332 -151h-79v100h79v-100z" />
    <glyph glyph-name="uni1EB9" unicode="&#x1eb9;" horiz-adv-x="528" 
d="M480 232h-363q1 -84 44 -133t115 -49q53 0 89.5 28t52.5 79l59 -24q-23 -70 -76 -107.5t-129 -37.5q-107 0 -166 67t-59 192q0 123 59 194t163 71q101 0 156 -59.5t55 -172.5v-48zM409 289v9q0 77 -37 117.5t-105 40.5q-69 0 -108.5 -44.5t-41.5 -122.5h292zM302 -151
h-79v100h79v-100z" />
    <glyph glyph-name="uni1EBC" unicode="&#x1ebc;" horiz-adv-x="587" 
d="M167 331v-265h363v-66h-440v710h433v-66h-356v-247h339v-66h-339zM331 756.5q-17 8.5 -38 23.5q-17 13 -28.5 19t-25.5 6q-20 0 -32.5 -12.5t-17.5 -40.5l-49 9q7 47 33 72.5t68 25.5q24 0 40.5 -8t37.5 -24q19 -14 29.5 -19.5t25.5 -5.5q20 0 32 13t17 40l49 -8
q-6 -48 -32 -73.5t-69 -25.5q-23 0 -40 8.5z" />
    <glyph glyph-name="uni1EBD" unicode="&#x1ebd;" horiz-adv-x="528" 
d="M480 232h-363q1 -84 44 -133t115 -49q53 0 89.5 28t52.5 79l59 -24q-23 -70 -76 -107.5t-129 -37.5q-107 0 -166 67t-59 192q0 123 59 194t163 71q101 0 156 -59.5t55 -172.5v-48zM409 289v9q0 77 -37 117.5t-105 40.5q-69 0 -108.5 -44.5t-41.5 -122.5h292zM292.5 599.5
q-17.5 9.5 -43.5 29.5q-19 16 -32 23.5t-29 7.5q-21 0 -33 -15t-18 -46l-49 8q7 52 33.5 81t69.5 29q26 0 44.5 -10t42.5 -30q19 -16 32 -23.5t29 -7.5q21 0 33.5 15t18.5 47l48 -9q-6 -52 -33 -80.5t-70 -28.5q-26 0 -43.5 9.5z" />
    <glyph glyph-name="uni1ECA" unicode="&#x1eca;" horiz-adv-x="257" 
d="M167 710v-710h-77v710h77zM168 -151h-79v100h79v-100z" />
    <glyph glyph-name="uni1ECB" unicode="&#x1ecb;" horiz-adv-x="229" 
d="M149 0h-69v500h69v-500zM154 590h-79v110h79v-110zM154 -151h-79v100h79v-100z" />
    <glyph glyph-name="uni1ECC" unicode="&#x1ecc;" horiz-adv-x="740" 
d="M201.5 29q-72.5 46 -112 130t-39.5 196q0 114 39.5 198t111.5 129t169 45t169 -45t111.5 -129t39.5 -198q0 -113 -39.5 -197t-112 -129.5t-168.5 -45.5t-168.5 46zM498 86q54 37 82.5 106t28.5 163t-28.5 163t-82.5 106t-128 37t-128 -37t-82.5 -106t-28.5 -163
q0 -92 29 -161t83 -107t127 -38q74 0 128 37zM409 -151h-79v100h79v-100z" />
    <glyph glyph-name="uni1ECD" unicode="&#x1ecd;" horiz-adv-x="553" 
d="M155.5 19.5q-51.5 31.5 -80 91t-28.5 139.5t28.5 139.5t80 91t120.5 31.5t121 -31.5t80.5 -91t28.5 -139.5t-28.5 -139.5t-80.5 -91t-121 -31.5t-120.5 31.5zM390.5 101q41.5 52 41.5 149t-41.5 149t-114.5 52t-114 -52t-41 -149t41 -149t114 -52t114.5 52zM315 -151h-79
v100h79v-100z" />
    <glyph glyph-name="uni1EE4" unicode="&#x1ee4;" horiz-adv-x="701" 
d="M85 710h77v-460q0 -92 49 -145t139 -53t139.5 53t49.5 145v460h78v-465q0 -120 -70 -191t-197 -71q-126 0 -195.5 71t-69.5 191v465zM390 -151h-79v100h79v-100z" />
    <glyph glyph-name="uni1EE5" unicode="&#x1ee5;" horiz-adv-x="549" 
d="M110.5 38.5q-40.5 50.5 -40.5 144.5v317h69v-310q0 -71 30.5 -106.5t83.5 -35.5q67 0 106.5 50.5t39.5 128.5v273h70v-500h-66v103q-18 -51 -62 -83t-100 -32q-90 0 -130.5 50.5zM315 -151h-79v100h79v-100z" />
    <glyph glyph-name="Ygrave" unicode="&#x1ef2;" horiz-adv-x="571" 
d="M246 0v285l-245 425h87l173 -307q11 -21 24 -48h2q8 21 23 48l173 307h87l-245 -425v-285h-79zM228 856l91 -103h-68l-102 103h79z" />
    <glyph glyph-name="ygrave" unicode="&#x1ef3;" horiz-adv-x="466" 
d="M38 -196v62q18 -3 35 -3q47 0 74 25t46 79l13 37l-200 496h78l134 -357q13 -34 22 -68h2q7 28 21 69l122 356h75l-195 -532q-33 -91 -76.5 -129.5t-106.5 -38.5q-24 0 -44 4zM166 723l99 -143h-66l-119 143h86z" />
    <glyph glyph-name="uni1EF8" unicode="&#x1ef8;" horiz-adv-x="571" 
d="M246 0v285l-245 425h87l173 -307q11 -21 24 -48h2q8 21 23 48l173 307h87l-245 -425v-285h-79zM310 756.5q-17 8.5 -38 23.5q-17 13 -28.5 19t-25.5 6q-20 0 -32.5 -12.5t-17.5 -40.5l-49 9q7 47 33 72.5t68 25.5q24 0 40.5 -8t37.5 -24q19 -14 29.5 -19.5t25.5 -5.5
q20 0 32 13t17 40l49 -8q-6 -48 -32 -73.5t-69 -25.5q-23 0 -40 8.5z" />
    <glyph glyph-name="uni1EF9" unicode="&#x1ef9;" horiz-adv-x="466" 
d="M38 -196v62q18 -3 35 -3q47 0 74 25t46 79l13 37l-200 496h78l134 -357q13 -34 22 -68h2q7 28 21 69l122 356h75l-195 -532q-33 -91 -76.5 -129.5t-106.5 -38.5q-24 0 -44 4zM262.5 599.5q-17.5 9.5 -43.5 29.5q-19 16 -32 23.5t-29 7.5q-21 0 -33 -15t-18 -46l-49 8
q7 52 33.5 81t69.5 29q26 0 44.5 -10t42.5 -30q19 -16 32 -23.5t29 -7.5q21 0 33.5 15t18.5 47l48 -9q-6 -52 -33 -80.5t-70 -28.5q-26 0 -43.5 9.5z" />
    <glyph glyph-name="uni2002" unicode="&#x2002;" horiz-adv-x="494" 
 />
    <glyph glyph-name="uni2003" unicode="&#x2003;" horiz-adv-x="988" 
 />
    <glyph glyph-name="uni2004" unicode="&#x2004;" horiz-adv-x="329" 
 />
    <glyph glyph-name="uni2005" unicode="&#x2005;" horiz-adv-x="247" 
 />
    <glyph glyph-name="uni2007" unicode="&#x2007;" 
 />
    <glyph glyph-name="uni2008" unicode="&#x2008;" horiz-adv-x="238" 
 />
    <glyph glyph-name="uni2009" unicode="&#x2009;" horiz-adv-x="124" 
 />
    <glyph glyph-name="uni200A" unicode="&#x200a;" horiz-adv-x="41" 
 />
    <glyph glyph-name="uni200B" unicode="&#x200b;" horiz-adv-x="0" 
 />
    <glyph glyph-name="endash" unicode="&#x2013;" horiz-adv-x="605" 
d="M52 245v66h500v-66h-500z" />
    <glyph glyph-name="emdash" unicode="&#x2014;" horiz-adv-x="1105" 
d="M52 245v66h1000v-66h-1000z" />
    <glyph glyph-name="quoteleft" unicode="&#x2018;" horiz-adv-x="239" 
d="M170 685q-33 -16 -43.5 -36t-10.5 -57v-3h50v-112h-94v106q0 56 17 86.5t61 51.5z" />
    <glyph glyph-name="quoteright" unicode="&#x2019;" horiz-adv-x="239" 
d="M70 502q32 16 42.5 36t10.5 57v3h-50v112h95v-106q0 -56 -17 -86.5t-62 -51.5z" />
    <glyph glyph-name="quotesinglbase" unicode="&#x201a;" horiz-adv-x="239" 
d="M70 -96q32 16 42.5 36t10.5 57v3h-50v112h95v-106q0 -56 -17 -86.5t-62 -51.5z" />
    <glyph glyph-name="quotedblleft" unicode="&#x201c;" horiz-adv-x="387" 
d="M170 686q-33 -16 -43.5 -36.5t-10.5 -57.5v-2h50v-112h-94v106q0 56 17 86.5t61 51.5zM318 686q-33 -16 -43.5 -36.5t-10.5 -57.5v-2h50v-112h-95v106q0 56 17 86.5t62 51.5z" />
    <glyph glyph-name="quotedblright" unicode="&#x201d;" horiz-adv-x="387" 
d="M70 502q32 16 42.5 36.5t10.5 57.5v2h-50v112h95v-106q0 -56 -17 -86.5t-62 -51.5zM217 502q33 16 43.5 36.5t10.5 57.5v2h-50v112h95v-106q0 -56 -17 -86.5t-62 -51.5z" />
    <glyph glyph-name="quotedblbase" unicode="&#x201e;" horiz-adv-x="387" 
d="M70 -96q32 16 42.5 36.5t10.5 57.5v2h-50v112h95v-106q0 -56 -17 -86.5t-62 -51.5zM217 -96q33 16 43.5 36.5t10.5 57.5v2h-50v112h95v-106q0 -56 -17 -86.5t-62 -51.5z" />
    <glyph glyph-name="dagger" unicode="&#x2020;" horiz-adv-x="488" 
d="M415 442h-137v-542h-69v542h-136v58h136v220h69v-220h137v-58z" />
    <glyph glyph-name="daggerdbl" unicode="&#x2021;" horiz-adv-x="488" 
d="M415 500v-58h-137v-264h136v-58h-136v-220h-69v220h-135v58h135v264h-136v58h136v220h69v-220h137z" />
    <glyph glyph-name="bullet" unicode="&#x2022;" horiz-adv-x="342" 
d="M99.5 194q-27.5 27 -27.5 71q0 45 27.5 72t70.5 27q45 0 72.5 -27t27.5 -72t-27.5 -71.5t-72.5 -26.5q-43 0 -70.5 27z" />
    <glyph glyph-name="ellipsis" unicode="&#x2026;" horiz-adv-x="802" 
d="M72 109h94v-109h-94v109zM354 109h94v-109h-94v109zM636 109h94v-109h-94v109z" />
    <glyph glyph-name="perthousand" unicode="&#x2030;" horiz-adv-x="1125" 
d="M67.5 412.5q-45.5 48.5 -45.5 131.5q0 80 45.5 128t120.5 48q73 0 119 -49t46 -130q0 -80 -45.5 -128.5t-118.5 -48.5q-76 0 -121.5 48.5zM196 -15h-69l439 730h68zM264 450q28 33 28 91t-28.5 92t-75.5 34q-48 0 -77 -33t-29 -90q0 -60 29 -93.5t78 -33.5q47 0 75 33z
M454.5 34.5q-45.5 48.5 -45.5 131.5q0 79 45.5 127.5t119.5 48.5t120 -49t46 -130q0 -80 -46 -128.5t-119 -48.5q-75 0 -120.5 48.5zM816.5 34.5q-45.5 48.5 -45.5 131.5q0 79 46 127.5t120 48.5q73 0 119 -49t46 -130q0 -80 -45.5 -128.5t-118.5 -48.5q-76 0 -121.5 48.5z
M650.5 72q28.5 33 28.5 91t-28.5 92t-76.5 34t-76.5 -33t-28.5 -90q0 -60 28.5 -93.5t77.5 -33.5q47 0 75.5 33zM1013 72q28 33 28 91t-28.5 92t-75.5 34q-48 0 -77 -33t-29 -90q0 -60 29 -93.5t78 -33.5q47 0 75 33z" />
    <glyph glyph-name="guilsinglleft" unicode="&#x2039;" horiz-adv-x="314" 
d="M282 67h-75l-170 208l171 208h74l-166 -208z" />
    <glyph glyph-name="guilsinglright" unicode="&#x203a;" horiz-adv-x="314" 
d="M277 275l-170 -208h-75l166 208l-167 208h74z" />
    <glyph glyph-name="fraction" unicode="&#x2044;" horiz-adv-x="186" 
d="M-90 -17h-63l431 744h62z" />
    <glyph glyph-name="uni2070" unicode="&#x2070;" horiz-adv-x="505" 
d="M102 368.5q-53 69.5 -53 194.5q0 126 53 195.5t151 69.5q97 0 150 -70.5t53 -194.5q0 -125 -52.5 -194.5t-150.5 -69.5t-151 69.5zM355.5 405q35.5 56 35.5 158t-35.5 158.5t-102.5 56.5t-103 -56.5t-36 -158.5t35.5 -158t103.5 -56q67 0 102.5 56z" />
    <glyph glyph-name="uni2074" unicode="&#x2074;" horiz-adv-x="452" 
d="M420 488v-48h-85v-130h-61v130h-254v44l246 333h69v-329h85zM274 488v269l-194 -269h194z" />
    <glyph glyph-name="uni2075" unicode="&#x2075;" horiz-adv-x="454" 
d="M104.5 335.5q-47.5 36.5 -57.5 98.5l63 8q8 -43 38 -67.5t77 -24.5q56 0 89 34.5t33 93.5t-31 93t-86 34q-43 0 -74 -24t-40 -64l-60 6l30 294h297v-51h-249l-20 -185q40 73 133 73q76 0 119.5 -46.5t43.5 -126.5q0 -83 -50.5 -132.5t-135.5 -49.5q-72 0 -119.5 36.5z
" />
    <glyph glyph-name="uni2076" unicode="&#x2076;" horiz-adv-x="460" 
d="M375 603.5q45 -47.5 45 -126.5q0 -51 -22.5 -91.5t-63 -63.5t-93.5 -23q-94 0 -145 64.5t-51 193.5q0 126 51 198.5t146 72.5q72 0 114.5 -33t53.5 -97l-61 -10q-19 91 -108 91q-67 0 -101.5 -58t-33.5 -164v-7q16 49 56 75t94 26q74 0 119 -47.5zM326.5 383.5
q31.5 34.5 31.5 90.5q0 58 -32 92.5t-86 34.5q-48 0 -83 -29.5t-46 -82.5q23 -140 131 -140q53 0 84.5 34.5z" />
    <glyph glyph-name="uni2077" unicode="&#x2077;" horiz-adv-x="407" 
d="M122 318q0 240 195 445h-283v54h349v-50q-191 -193 -191 -441v-16h-70v8z" />
    <glyph glyph-name="uni2078" unicode="&#x2078;" horiz-adv-x="464" 
d="M392.5 530.5q29.5 -33.5 29.5 -88.5q0 -66 -51 -104.5t-139 -38.5t-139 37.5t-51 102.5q0 103 118 133q-54 19 -78 48.5t-24 77.5q0 58 47 94t124 36q79 0 126 -34.5t47 -91.5q0 -46 -25.5 -75.5t-79.5 -42.5q66 -20 95.5 -53.5zM143 640q23 -22 75 -35l29 -8
q52 16 73 37.5t21 59.5q0 42 -29.5 65t-82.5 23q-50 0 -79.5 -23t-29.5 -62q0 -35 23 -57zM325.5 373q33.5 26 33.5 71q0 39 -25.5 63.5t-81.5 39.5l-40 10q-54 -16 -79.5 -42t-25.5 -66q0 -48 33.5 -75t92.5 -27t92.5 26z" />
    <glyph glyph-name="uni2079" unicode="&#x2079;" horiz-adv-x="460" 
d="M364.5 764.5q50.5 -63.5 50.5 -194.5q0 -126 -48.5 -198.5t-145.5 -72.5q-73 0 -116.5 34.5t-54.5 99.5l61 10q19 -94 112 -94q65 0 98 58.5t33 165.5v1q-19 -39 -57.5 -58.5t-86.5 -19.5q-76 0 -123 44.5t-47 119.5q0 74 48.5 121t130.5 47q95 0 145.5 -63.5zM300 568.5
q36 23.5 51 64.5q-9 71 -40 108.5t-91 37.5q-54 0 -86.5 -32.5t-32.5 -84.5q0 -53 33 -85t85 -32q45 0 81 23.5z" />
    <glyph glyph-name="uni207A" unicode="&#x207a;" horiz-adv-x="451" 
d="M250 572h153v-44h-153v-153h-50v153h-152v44h152v145h50v-145z" />
    <glyph glyph-name="uni207B" unicode="&#x207b;" horiz-adv-x="451" 
d="M403 527h-355v46h355v-46z" />
    <glyph glyph-name="uni207D" unicode="&#x207d;" horiz-adv-x="256" 
d="M196 214q-60 69 -93.5 157t-33.5 179t33.5 174.5t93.5 149.5l48 -17q-59 -72 -87 -146.5t-28 -160.5q0 -87 28 -164t87 -153z" />
    <glyph glyph-name="uni207E" unicode="&#x207e;" horiz-adv-x="256" 
d="M12 233q59 76 87 153t28 164q0 86 -28 160.5t-87 146.5l48 17q60 -66 93.5 -149.5t33.5 -174.5t-33 -179t-93 -157z" />
    <glyph glyph-name="uni2080" unicode="&#x2080;" horiz-adv-x="505" 
d="M102 -81.5q-53 69.5 -53 194.5q0 126 53 195.5t151 69.5q97 0 150 -70.5t53 -194.5q0 -125 -52.5 -194.5t-150.5 -69.5t-151 69.5zM355.5 -45q35.5 56 35.5 158t-35.5 158.5t-102.5 56.5t-103 -56.5t-36 -158.5t35.5 -158t103.5 -56q67 0 102.5 56z" />
    <glyph glyph-name="uni2081" unicode="&#x2081;" horiz-adv-x="320" 
d="M155 266q-15 -20 -42.5 -32.5t-56.5 -12.5h-19v58h11q44 0 75.5 23t42.5 65h50v-507h-61v406z" />
    <glyph glyph-name="uni2082" unicode="&#x2082;" horiz-adv-x="442" 
d="M40 -91q130 85 205.5 160.5t75.5 153.5q0 49 -27 76.5t-76 27.5q-51 0 -80 -27t-29 -73q0 -20 6 -44l-64 5q-6 28 -6 43q0 68 47 107.5t129 39.5q79 0 122.5 -40t43.5 -112q0 -84 -75 -165t-186 -148h272v-53h-358v49z" />
    <glyph glyph-name="uni2083" unicode="&#x2083;" horiz-adv-x="456" 
d="M92 -108q-50 43 -52 116l63 6q2 -54 35 -84.5t89 -30.5t86.5 27t30.5 77q0 44 -31.5 69.5t-87.5 25.5h-37v46h31q51 0 79.5 24.5t28.5 66.5q0 44 -27.5 69t-76.5 25q-55 0 -84.5 -30.5t-29.5 -85.5l-62 8q0 74 47 115.5t131 41.5q79 0 122.5 -36t43.5 -101q0 -44 -28 -76
t-75 -40q57 -7 89 -39.5t32 -85.5q0 -71 -49 -111t-134 -40q-84 0 -134 43z" />
    <glyph glyph-name="uni2084" unicode="&#x2084;" horiz-adv-x="452" 
d="M420 38v-48h-85v-130h-61v130h-254v44l246 333h69v-329h85zM274 38v269l-194 -269h194z" />
    <glyph glyph-name="uni2085" unicode="&#x2085;" horiz-adv-x="454" 
d="M104.5 -114.5q-47.5 36.5 -57.5 98.5l63 8q8 -43 38 -67.5t77 -24.5q56 0 89 34.5t33 93.5t-31 93t-86 34q-43 0 -74 -24t-40 -64l-60 6l30 294h297v-51h-249l-20 -185q40 73 133 73q76 0 119.5 -46.5t43.5 -126.5q0 -83 -50.5 -132.5t-135.5 -49.5q-72 0 -119.5 36.5z
" />
    <glyph glyph-name="uni2086" unicode="&#x2086;" horiz-adv-x="460" 
d="M375 153.5q45 -47.5 45 -126.5q0 -51 -22.5 -91.5t-63 -63.5t-93.5 -23q-94 0 -145 64.5t-51 193.5q0 126 51 198.5t146 72.5q72 0 114.5 -33t53.5 -97l-61 -10q-19 91 -108 91q-67 0 -101.5 -58t-33.5 -164v-7q16 49 56 75t94 26q74 0 119 -47.5zM326.5 -66.5
q31.5 34.5 31.5 90.5q0 58 -32 92.5t-86 34.5q-48 0 -83 -29.5t-46 -82.5q23 -140 131 -140q53 0 84.5 34.5z" />
    <glyph glyph-name="uni2087" unicode="&#x2087;" horiz-adv-x="407" 
d="M122 -132q0 240 195 445h-283v54h349v-50q-191 -193 -191 -441v-16h-70v8z" />
    <glyph glyph-name="uni2088" unicode="&#x2088;" horiz-adv-x="464" 
d="M392.5 80.5q29.5 -33.5 29.5 -88.5q0 -66 -51 -104.5t-139 -38.5t-139 37.5t-51 102.5q0 103 118 133q-54 19 -78 48.5t-24 77.5q0 58 47 94t124 36q79 0 126 -34.5t47 -91.5q0 -46 -25.5 -75.5t-79.5 -42.5q66 -20 95.5 -53.5zM143 190q23 -22 75 -35l29 -8
q52 16 73 37.5t21 59.5q0 42 -29.5 65t-82.5 23q-50 0 -79.5 -23t-29.5 -62q0 -35 23 -57zM325.5 -77q33.5 26 33.5 71q0 39 -25.5 63.5t-81.5 39.5l-40 10q-54 -16 -79.5 -42t-25.5 -66q0 -48 33.5 -75t92.5 -27t92.5 26z" />
    <glyph glyph-name="uni2089" unicode="&#x2089;" horiz-adv-x="460" 
d="M364.5 314.5q50.5 -63.5 50.5 -194.5q0 -126 -48.5 -198.5t-145.5 -72.5q-73 0 -116.5 34.5t-54.5 99.5l61 10q19 -94 112 -94q65 0 98 58.5t33 165.5v1q-19 -39 -57.5 -58.5t-86.5 -19.5q-76 0 -123 44.5t-47 119.5q0 74 48.5 121t130.5 47q95 0 145.5 -63.5zM300 118.5
q36 23.5 51 64.5q-9 71 -40 108.5t-91 37.5q-54 0 -86.5 -32.5t-32.5 -84.5q0 -53 33 -85t85 -32q45 0 81 23.5z" />
    <glyph glyph-name="uni208A" unicode="&#x208a;" horiz-adv-x="451" 
d="M250 122h153v-44h-153v-153h-50v153h-152v44h152v145h50v-145z" />
    <glyph glyph-name="uni208B" unicode="&#x208b;" horiz-adv-x="451" 
d="M403 77h-355v46h355v-46z" />
    <glyph glyph-name="uni208D" unicode="&#x208d;" horiz-adv-x="256" 
d="M196 -236q-60 69 -93.5 157t-33.5 179t33.5 174.5t93.5 149.5l48 -17q-59 -72 -87 -146.5t-28 -160.5q0 -87 28 -164.5t87 -153.5z" />
    <glyph glyph-name="uni208E" unicode="&#x208e;" horiz-adv-x="256" 
d="M12 -217q59 76 87 153t28 164q0 86 -28 160.5t-87 146.5l48 17q60 -66 93.5 -149.5t33.5 -174.5t-33 -179t-93 -157z" />
    <glyph glyph-name="uni20A9" unicode="&#x20a9;" horiz-adv-x="882" 
d="M781 695h76l-61 -243h61v-48h-73l-23 -91h96v-48h-108l-66 -265h-87l-68 265h-174l-68 -265h-87l-66 265h-108v48h96l-23 91h-73v48h61l-61 243h76l56 -243h184l64 243h72l64 -243h184zM401 452h80l-14 54q-16 61 -24 129h-4q-8 -68 -24 -129zM329 404h-161l21 -91h116z
M389 404l-23 -91h150l-23 91h-104zM578 313h115l21 91h-160zM293 265h-93l22 -95l5 -22q12 -57 15 -87h2q4 32 9 52.5t14 53.5zM682 265h-92l26 -98q7 -26 12.5 -50.5t9.5 -55.5h3q3 30 8 55.5t11 53.5z" />
    <glyph glyph-name="dong" unicode="&#x20ab;" horiz-adv-x="563" 
d="M484 624h102v-43h-102v-581h-66v106q-22 -56 -66 -87t-103 -31q-61 0 -108 33t-72.5 92.5t-25.5 136.5q0 76 27 135.5t75.5 93t111.5 33.5q113 0 157 -103v172h-184v43h184v101h70v-101zM415 260q0 86 -39.5 138t-108.5 52q-70 0 -110 -53t-40 -147q0 -93 39.5 -146.5
t109.5 -53.5q68 0 108.5 52.5t40.5 136.5v21zM531 -125h-471v43h471v-43z" />
    <glyph glyph-name="Euro" unicode="&#x20ac;" horiz-adv-x="655" 
d="M624 135q-35 -71 -100 -110.5t-152 -39.5q-125 0 -199 75.5t-95 202.5h-64v51h59q-2 30 -2 45q0 26 1 39h-58v50h64q19 124 94.5 193t201.5 69q87 0 147.5 -34.5t97.5 -104.5l-60 -39q-56 113 -191 113q-89 0 -143 -51.5t-71 -145.5h351v-50h-357q-1 -12 -1 -38
q0 -16 2 -46h356v-51h-349q18 -98 74.5 -155.5t143.5 -57.5q60 0 111 30t83 91z" />
    <glyph glyph-name="uni20AE" unicode="&#x20ae;" horiz-adv-x="554" 
d="M545 695v-66h-229v-201l189 40v-50l-189 -40v-85l189 41v-51l-189 -40v-243h-78v226l-178 -38v50l178 38v85l-178 -38v50l178 38v218h-229v66h536z" />
    <glyph glyph-name="uni20B4" unicode="&#x20b4;" horiz-adv-x="582" 
d="M564 185q-19 -94 -92.5 -147t-186.5 -53q-110 0 -174.5 48.5t-64.5 132.5q0 56 32 97h-62v51h118q40 26 95 50l78 34h-291v50h388q51 38 51 93q0 52 -40 79.5t-109 27.5q-76 0 -122.5 -32.5t-67.5 -102.5l-69 19q16 83 85.5 130.5t172.5 47.5t165 -46.5t62 -123.5
q0 -53 -33 -92h62v-50h-123q-36 -20 -79 -39l-78 -33l-27 -12h307v-51h-393q-23 -20 -34 -42.5t-11 -51.5q0 -59 43 -89.5t120 -30.5q85 0 137 35t73 112z" />
    <glyph glyph-name="uni20B8" unicode="&#x20b8;" horiz-adv-x="554" 
d="M9 645v50h536v-50h-536zM238 527h-229v66h536v-66h-229v-527h-78v527z" />
    <glyph glyph-name="uni20B9" unicode="&#x20b9;" horiz-adv-x="552" 
d="M540 695v-54h-192q71 -39 81 -123h111v-51h-111q-8 -84 -71.5 -130t-172.5 -46h-20l255 -291h-89l-259 301v47h122q72 0 112.5 30t48.5 89h-283v51h282q-7 59 -48 91t-111 32h-123v54h468z" />
    <glyph glyph-name="uni20BA" unicode="&#x20ba;" horiz-adv-x="560" 
d="M544 224q-20 -96 -83 -160t-190 -64h-161v276l-78 -23v57l78 23v88l-78 -23v57l78 23v217h74v-195l256 75v-57l-256 -75v-88l256 75v-57l-256 -75v-232h76q98 0 147.5 48t69.5 125z" />
    <glyph glyph-name="uni20BD" unicode="&#x20bd;" horiz-adv-x="565" 
d="M185 292v-95h209v-53h-209v-144h-74v144h-71v53h71v95h-71v54h71v349h202q108 0 171.5 -54t63.5 -145q0 -94 -63.5 -149t-171.5 -55h-128zM185 629v-283h125q74 0 117.5 39.5t43.5 106.5q0 63 -43.5 100t-117.5 37h-125z" />
    <glyph glyph-name="uni2105" unicode="&#x2105;" horiz-adv-x="875" 
d="M736 735l-536 -748h-69l536 748h69zM88.5 683.5q42.5 50.5 126.5 50.5q62 0 102 -34t44 -95l-58 -10q-6 40 -29 62t-62 22q-50 0 -76.5 -35.5t-26.5 -95.5q0 -63 27 -99.5t78 -36.5q39 0 62.5 22.5t28.5 63.5l57 -11q-9 -59 -46 -95t-102 -36q-81 0 -124.5 53t-43.5 138
q0 86 42.5 136.5zM543.5 39.5q-45.5 51.5 -45.5 138.5q0 85 45.5 137t120.5 52t120.5 -52t45.5 -137q0 -87 -45.5 -138.5t-120.5 -51.5t-120.5 51.5zM741 276.5q-28 36.5 -77 36.5t-76.5 -36t-27.5 -99q0 -64 27.5 -100t76.5 -36t77 36t28 100q0 62 -28 98.5z" />
    <glyph glyph-name="uni2113" unicode="&#x2113;" horiz-adv-x="396" 
d="M164 143q0 -44 19 -65t59 -21q24 0 55 7v-64q-33 -9 -73 -9q-72 0 -100.5 39.5t-28.5 113.5v77q-32 -17 -89 -41l-24 52q73 32 113 54v291q0 77 36 113.5t88 36.5q61 0 92.5 -42t31.5 -114q0 -101 -45.5 -176t-133.5 -134v-118zM164 332q52 42 80.5 97.5t28.5 131.5
q0 60 -14 85t-42 25q-25 0 -39 -20.5t-14 -59.5v-259z" />
    <glyph glyph-name="uni2116" unicode="&#x2116;" horiz-adv-x="1194" 
d="M90 0v710h94l329 -542q29 -50 42 -82h2q-3 41 -3 87v537h70v-710h-94l-329 543q-13 22 -24 42.5t-18 39.5h-2q3 -36 3 -87v-538h-70zM819 205.5q-48 28.5 -74 79.5t-26 118t26 118t74 79t110 28t110 -28t74.5 -79t26.5 -118t-26.5 -118t-74.5 -79.5t-110 -28.5t-110 28.5
zM1030 283q37 44 37 120q0 75 -37 119t-101 44t-100.5 -44t-36.5 -119q0 -76 36.5 -120t100.5 -44t101 44zM1140 0h-421v64h421v-64z" />
    <glyph glyph-name="trademark" unicode="&#x2122;" horiz-adv-x="845" 
d="M189 304h-56v359h-128v47h321v-47h-137v-359zM369 304v406h78l115 -304q12 -33 16 -54h2q2 14 16 54l114 304h78v-406h-52v298q0 38 2 62h-1q-5 -18 -20 -59l-114 -301h-50l-112 301q-15 41 -20 59h-1q2 -24 2 -62v-298h-53z" />
    <glyph glyph-name="uni2126" unicode="&#x2126;" horiz-adv-x="766" 
d="M254.5 626q-53.5 -35 -82 -98.5t-28.5 -147.5q0 -105 45.5 -188.5t129.5 -125.5v-66h-257l1 66h163v3q-76 50 -119.5 130t-43.5 185q0 99 39 177t111.5 122t169.5 44t170 -44t112 -122t39 -177q0 -105 -44 -185t-120 -130v-3h164v-66h-256v66q84 42 129 125.5t45 188.5
q0 128 -63 204.5t-176 76.5q-75 0 -128.5 -35z" />
    <glyph glyph-name="estimated" unicode="&#x212e;" horiz-adv-x="877" 
d="M237.5 43.5q-88.5 43.5 -138 124t-49.5 186.5q0 105 49.5 186t138 125.5t201.5 44.5q115 0 200.5 -42.5t134.5 -124.5t54 -198h-619q-8 0 -11.5 -3t-3.5 -15v-174q0 -20 32.5 -50t88.5 -52.5t124 -22.5q71 0 136.5 31.5t109.5 81.5h72q-70 -78 -140 -109.5t-178 -31.5
q-113 0 -201.5 43.5zM666 367q11 0 14 3.5t3 12.5v171q0 27 -38.5 58t-96 52t-110.5 21q-64 0 -120 -23t-90 -53.5t-34 -47.5v-185q0 -9 15 -9h457z" />
    <glyph glyph-name="uni2153" unicode="&#x2153;" horiz-adv-x="811" 
d="M121 627q-13 -17 -35 -27t-46 -10h-12v54h8q75 0 96 67h47v-378h-58v294zM170 -17h-63l431 744h62zM519.5 24q-39.5 32 -40.5 88l59 5q2 -38 25.5 -59t63.5 -21q41 0 63 18t22 53q0 30 -22.5 46.5t-63.5 16.5h-37v43h33q37 0 58.5 17t21.5 45q0 32 -20 49.5t-57 17.5
q-39 0 -62 -21.5t-23 -59.5l-58 5q0 56 39 88t107 32q63 0 98.5 -28t35.5 -77q0 -33 -23 -57.5t-60 -28.5q43 -4 69.5 -29t26.5 -64q0 -52 -39.5 -81.5t-108.5 -29.5q-68 0 -107.5 32z" />
    <glyph glyph-name="uni2154" unicode="&#x2154;" horiz-adv-x="910" 
d="M34 377q107 64 163.5 115t56.5 108q0 35 -20 54t-56 19q-38 0 -59.5 -19t-21.5 -53q0 -12 5 -30l-61 5q-3 14 -3 31q0 53 38 83t105 30q63 0 98.5 -30t35.5 -85q0 -64 -59 -123.5t-142 -103.5h210v-45h-290v44zM268 -17h-63l431 744h62zM618.5 24q-39.5 32 -40.5 88l59 5
q2 -38 25.5 -59t63.5 -21q41 0 63 18t22 53q0 30 -22.5 46.5t-63.5 16.5h-37v43h33q37 0 58.5 17t21.5 45q0 32 -20 49.5t-57 17.5q-39 0 -62 -21.5t-23 -59.5l-58 5q0 56 39 88t107 32q63 0 98.5 -28t35.5 -77q0 -33 -23 -57.5t-60 -28.5q43 -4 69.5 -29t26.5 -64
q0 -52 -39.5 -81.5t-108.5 -29.5q-68 0 -107.5 32z" />
    <glyph glyph-name="oneeighth" unicode="&#x215b;" horiz-adv-x="818" 
d="M121 627q-13 -17 -35 -27t-46 -10h-12v54h8q75 0 96 67h47v-378h-58v294zM170 -17h-63l431 744h62zM760 168q25 -25 25 -69q0 -50 -41.5 -78.5t-113.5 -28.5q-71 0 -111 27.5t-40 76.5q0 37 22.5 60.5t70.5 34.5q-40 13 -61 35.5t-21 59.5q0 45 38 73t100 28
q64 0 102 -25t38 -69q0 -34 -19 -54.5t-61 -32.5q47 -13 72 -38zM564.5 244q19.5 -15 57.5 -23l27 -6q35 10 49.5 26t14.5 42q0 29 -22.5 46.5t-62.5 17.5q-37 0 -60 -16.5t-23 -44.5q0 -27 19.5 -42zM700.5 52.5q24.5 17.5 24.5 48.5q0 32 -21.5 48.5t-61.5 24.5l-28 7
q-75 -21 -75 -77q0 -33 24 -51t69 -18q44 0 68.5 17.5z" />
    <glyph glyph-name="threeeighths" unicode="&#x215c;" horiz-adv-x="923" 
d="M73.5 357q-39.5 32 -40.5 88l59 5q2 -38 25.5 -59t63.5 -21q41 0 63 18t22 53q0 30 -22.5 46.5t-63.5 16.5h-37v43h33q37 0 58.5 17t21.5 45q0 32 -20 49.5t-57 17.5q-39 0 -62 -21.5t-23 -59.5l-58 5q0 56 39 88t107 32q63 0 98.5 -28t35.5 -77q0 -33 -23 -57.5
t-60 -28.5q43 -4 69.5 -29t26.5 -64q0 -52 -39.5 -81.5t-108.5 -29.5q-68 0 -107.5 32zM275 -17h-63l431 744h62zM865 168q25 -25 25 -69q0 -50 -41.5 -78.5t-113.5 -28.5q-71 0 -111 27.5t-40 76.5q0 37 22.5 60.5t70.5 34.5q-40 13 -61 35.5t-21 59.5q0 45 38 73t100 28
q64 0 102 -25t38 -69q0 -34 -19 -54.5t-61 -32.5q47 -13 72 -38zM669.5 244q19.5 -15 57.5 -23l27 -6q35 10 49.5 26t14.5 42q0 29 -22.5 46.5t-62.5 17.5q-37 0 -60 -16.5t-23 -44.5q0 -27 19.5 -42zM805.5 52.5q24.5 17.5 24.5 48.5q0 32 -21.5 48.5t-61.5 24.5l-28 7
q-75 -21 -75 -77q0 -33 24 -51t69 -18q44 0 68.5 17.5z" />
    <glyph glyph-name="fiveeighths" unicode="&#x215d;" horiz-adv-x="920" 
d="M82 352q-39 27 -46 74l56 9q6 -31 28.5 -48t56.5 -17q43 0 67 24.5t24 66.5q0 40 -23 63.5t-63 23.5q-31 0 -55 -17t-31 -44l-52 4l24 220h238v-46h-196l-14 -128q29 52 104 52q58 0 92 -34t34 -93q0 -64 -39 -100.5t-107 -36.5q-59 0 -98 27zM271 -17h-63l431 744h62z
M862 168q25 -25 25 -69q0 -50 -41.5 -78.5t-113.5 -28.5q-71 0 -111 27.5t-40 76.5q0 37 22.5 60.5t70.5 34.5q-40 13 -61 35.5t-21 59.5q0 45 38 73t100 28q64 0 102 -25t38 -69q0 -34 -19 -54.5t-61 -32.5q47 -13 72 -38zM666.5 244q19.5 -15 57.5 -23l27 -6
q35 10 49.5 26t14.5 42q0 29 -22.5 46.5t-62.5 17.5q-37 0 -60 -16.5t-23 -44.5q0 -27 19.5 -42zM802.5 52.5q24.5 17.5 24.5 48.5q0 32 -21.5 48.5t-61.5 24.5l-28 7q-75 -21 -75 -77q0 -33 24 -51t69 -18q44 0 68.5 17.5z" />
    <glyph glyph-name="seveneighths" unicode="&#x215e;" horiz-adv-x="854" 
d="M32 664v47h279v-46q-69 -65 -107 -143.5t-40 -180.5v-8h-64v4q3 96 43 179t110 148h-221zM205 -17h-63l431 744h62zM796 168q25 -25 25 -69q0 -50 -41.5 -78.5t-113.5 -28.5q-71 0 -111 27.5t-40 76.5q0 37 22.5 60.5t70.5 34.5q-40 13 -61 35.5t-21 59.5q0 45 38 73
t100 28q64 0 102 -25t38 -69q0 -34 -19 -54.5t-61 -32.5q47 -13 72 -38zM600.5 244q19.5 -15 57.5 -23l27 -6q35 10 49.5 26t14.5 42q0 29 -22.5 46.5t-62.5 17.5q-37 0 -60 -16.5t-23 -44.5q0 -27 19.5 -42zM736.5 52.5q24.5 17.5 24.5 48.5q0 32 -21.5 48.5t-61.5 24.5
l-28 7q-75 -21 -75 -77q0 -33 24 -51t69 -18q44 0 68.5 17.5z" />
    <glyph glyph-name="arrowleft" unicode="&#x2190;" horiz-adv-x="1055" 
d="M966 353v-46h-726v-90l-150 113l150 113v-90h726z" />
    <glyph glyph-name="arrowup" unicode="&#x2191;" horiz-adv-x="405" 
d="M178 -35v634h-88l112 151l113 -151h-88v-634h-49z" />
    <glyph glyph-name="arrowright" unicode="&#x2192;" horiz-adv-x="1055" 
d="M90 307v46h725v90l151 -113l-151 -113v90h-725z" />
    <glyph glyph-name="arrowdown" unicode="&#x2193;" horiz-adv-x="405" 
d="M226 745v-634h89l-113 -151l-112 151h88v634h48z" />
    <glyph glyph-name="arrowboth" unicode="&#x2194;" horiz-adv-x="1055" 
d="M815 217v89h-575v-89l-150 113l150 113v-89h575v89l151 -113z" />
    <glyph glyph-name="arrowupdn" unicode="&#x2195;" horiz-adv-x="405" 
d="M202 -40l-112 151h88v488h-88l112 151l113 -151h-88v-488h88z" />
    <glyph glyph-name="uni2196" unicode="&#x2196;" horiz-adv-x="896" 
d="M772 -9l-608 608l-74 -74v185h184l-75 -75l608 -608z" />
    <glyph glyph-name="uni2197" unicode="&#x2197;" horiz-adv-x="896" 
d="M807 526l-74 74l-609 -608l-34 36l607 608l-75 75h185v-185z" />
    <glyph glyph-name="uni2198" unicode="&#x2198;" horiz-adv-x="896" 
d="M124 730l609 -608l74 74v-185h-185l75 75l-607 608z" />
    <glyph glyph-name="uni2199" unicode="&#x2199;" horiz-adv-x="896" 
d="M90 196l74 -74l608 608l35 -36l-608 -608l75 -75h-184v185z" />
    <glyph glyph-name="uni21A9" unicode="&#x21a9;" horiz-adv-x="970" 
d="M240 217l-150 113l150 113v-90h428q76 0 117.5 36.5t41.5 105.5q0 68 -41.5 103t-117.5 35h-223v47h233q95 0 148.5 -48t53.5 -137t-54 -138.5t-148 -49.5h-438v-90z" />
    <glyph glyph-name="uni21AA" unicode="&#x21aa;" horiz-adv-x="970" 
d="M730 217v90h-438q-95 0 -148.5 49.5t-53.5 138.5t53.5 137t148.5 48h233v-47h-223q-76 0 -117.5 -35t-41.5 -103q0 -69 41.5 -105.5t117.5 -36.5h428v90l150 -113z" />
    <glyph glyph-name="uni21B0" unicode="&#x21b0;" horiz-adv-x="813" 
d="M723 0h-49v577h-434v-90l-150 113l150 113v-90h483v-623z" />
    <glyph glyph-name="uni21B1" unicode="&#x21b1;" horiz-adv-x="813" 
d="M139 577v-577h-49v623h483v90l150 -113l-150 -113v90h-434z" />
    <glyph glyph-name="uni21B2" unicode="&#x21b2;" horiz-adv-x="813" 
d="M674 133v577h49v-623h-483v-90l-150 113l150 113v-90h434z" />
    <glyph glyph-name="uni21B3" unicode="&#x21b3;" horiz-adv-x="813" 
d="M90 710h49v-577h434v90l150 -113l-150 -113v90h-483v623z" />
    <glyph glyph-name="uni21B4" unicode="&#x21b4;" horiz-adv-x="892" 
d="M802 138l-112 -150l-113 150h88v525h-575v47h625v-572h87z" />
    <glyph glyph-name="uni21BB" unicode="&#x21bb;" horiz-adv-x="992" 
d="M677 352h89v1q0 94 -41.5 165.5t-112.5 110t-157 38.5q-87 0 -158 -38.5t-112 -109.5t-41 -164t41 -164.5t112 -111t157 -39.5q65 0 125.5 24.5t103.5 68.5l33 -40q-50 -50 -117.5 -77t-144.5 -27q-99 0 -182.5 45.5t-132.5 128.5t-49 190t49 190.5t132.5 129t183.5 45.5
t183 -45.5t131.5 -128.5t48.5 -191v-1h84l-112 -151z" />
    <glyph glyph-name="uni21C4" unicode="&#x21c4;" horiz-adv-x="1055" 
d="M240 423v-90l-150 113l150 113v-90h653v-46h-653zM966 214l-151 -113v90h-652v46h652v90z" />
    <glyph glyph-name="uni21C5" unicode="&#x21c5;" horiz-adv-x="637" 
d="M459 62h-49v537h-88l112 151l113 -151h-88v-537zM315 111l-113 -151l-112 151h88v541h48v-541h89z" />
    <glyph glyph-name="partialdiff" unicode="&#x2202;" horiz-adv-x="601" 
d="M471 624q68 -97 68 -288q0 -170 -66 -261.5t-189 -91.5q-70 0 -123 30t-82 84.5t-29 126.5q0 68 28 121t79 82.5t118 29.5q61 0 110.5 -26t82.5 -75q0 151 -50 227t-147 76q-54 0 -115 -26l-26 56q68 32 142 32q131 0 199 -97zM418.5 103.5q46.5 60.5 49.5 173.5
q-33 60 -77 90t-104 30q-77 0 -121.5 -46.5t-44.5 -126.5q0 -83 45 -132t121 -49q85 0 131.5 60.5z" />
    <glyph glyph-name="emptyset" unicode="&#x2205;" horiz-adv-x="549" 
d="M502 513l-55 -59q50 -61 50 -150q0 -66 -28 -117.5t-78.5 -80t-115.5 -28.5q-81 0 -139 44l-55 -58l-33 31l55 59q-50 61 -50 150q0 66 28 117.5t78.5 80t115.5 28.5q81 0 139 -44l54 57zM147 201l224 239q-39 31 -96 31q-70 0 -114 -46.5t-44 -120.5q0 -60 30 -103z
M403 407l-225 -239q40 -31 97 -31q70 0 113.5 46.5t43.5 120.5q0 58 -29 103z" />
    <glyph glyph-name="uni2206" unicode="&#x2206;" horiz-adv-x="608" 
d="M591 0h-574l247 710h83zM495 62l-190 566l-196 -566h386z" />
    <glyph glyph-name="product" unicode="&#x220f;" horiz-adv-x="623" 
d="M544 -88h-71v727h-323v-727h-70v793h464v-793z" />
    <glyph glyph-name="summation" unicode="&#x2211;" horiz-adv-x="590" 
d="M545 -88h-495v52l288 363l-275 327v51h470v-63h-377l270 -315l-287 -352h406v-63z" />
    <glyph glyph-name="minus" unicode="&#x2212;" 
d="M547 295h-474v66h474v-66z" />
    <glyph glyph-name="radical" unicode="&#x221a;" horiz-adv-x="627" 
d="M47 239v57h132l92 -293l235 731h68l-270 -828h-65l-111 333h-81z" />
    <glyph glyph-name="infinity" unicode="&#x221e;" 
d="M527 425.5q34 -37.5 34 -96.5q0 -58 -34.5 -96.5t-88.5 -38.5q-42 0 -74 22.5t-54 60.5q-26 -42 -56 -62.5t-73 -20.5q-54 0 -88 37t-34 96q0 58 35 97t89 39q41 0 73 -22.5t54 -60.5q26 42 56 62.5t73 20.5q54 0 88 -37.5zM241 271.5q19 17.5 40 56.5q-22 38 -43 56.5
t-52 18.5t-49.5 -20.5t-18.5 -54.5t19 -54t52 -20t52 17.5zM483.5 274q18.5 20 18.5 54t-18.5 54.5t-51.5 20.5t-52 -17.5t-40 -56.5q21 -38 41.5 -56.5t52.5 -18.5q31 0 49.5 20z" />
    <glyph glyph-name="integral" unicode="&#x222b;" horiz-adv-x="593" 
d="M111 -115v60q11 -1 28 -1q48 0 74.5 13t38 43t11.5 82v439q0 90 42 141t135 51q19 0 43 -3v-60q-24 3 -43 3q-59 0 -82.5 -34.5t-23.5 -105.5v-439q0 -94 -45 -142t-148 -48q-19 0 -30 1z" />
    <glyph glyph-name="approxequal" unicode="&#x2248;" 
d="M370 375.5q-26 6.5 -65 19.5q-36 12 -59.5 18t-46.5 6q-36 0 -69.5 -11t-56.5 -29v65q21 17 55.5 28.5t70.5 11.5q31 0 58.5 -7t66.5 -20q31 -11 53 -17t44 -6q37 0 70 11t55 29v-65q-18 -17 -53 -28.5t-72 -11.5q-25 0 -51 6.5zM370 190.5q-26 6.5 -65 19.5
q-36 12 -59.5 18t-46.5 6q-36 0 -69.5 -11t-56.5 -29v65q21 17 55.5 28.5t70.5 11.5q31 0 58.5 -7t66.5 -20q31 -11 53 -17t44 -6q37 0 70 11t55 29v-65q-18 -17 -53 -28.5t-72 -11.5q-25 0 -51 6.5z" />
    <glyph glyph-name="notequal" unicode="&#x2260;" 
d="M547 456v-66h-189l-48 -122h237v-66h-262l-51 -130h-47l50 130h-164v66h190l47 122h-237v66h263l49 126h48l-49 -126h163z" />
    <glyph glyph-name="lessequal" unicode="&#x2264;" 
d="M77 401l466 165v-66l-373 -127l373 -127v-68l-466 165v58zM541 48h-464v65h464v-65z" />
    <glyph glyph-name="greaterequal" unicode="&#x2265;" 
d="M77 500v66l466 -165v-58l-466 -165v68l373 127zM543 48h-464v65h464v-65z" />
    <glyph glyph-name="uni2460" unicode="&#x2460;" horiz-adv-x="842" 
d="M403 460q-13 -17 -35 -27t-46 -10h-12v54h8q75 0 96 67h47v-378h-58v294zM235 29q-85 46 -135 130.5t-50 195.5q0 112 50 196.5t135 130t186 45.5t186 -45.5t135 -130t50 -196.5q0 -111 -50 -195.5t-135 -130.5t-186 -46t-186 46zM585 64q75 41 119 116t44 175t-44 175.5
t-119 116t-164 40.5t-164 -40.5t-119 -116t-44 -175.5t44 -175t119 -116t164 -41t164 41z" />
    <glyph glyph-name="uni2461" unicode="&#x2461;" horiz-adv-x="842" 
d="M276 221q107 64 163.5 115t56.5 108q0 35 -20 54t-56 19q-38 0 -59.5 -19t-21.5 -53q0 -12 5 -30l-61 5q-3 14 -3 31q0 53 38 83t105 30q63 0 98.5 -30t35.5 -85q0 -64 -59 -123.5t-142 -103.5h210v-45h-290v44zM235 29q-85 46 -135 130.5t-50 195.5q0 112 50 196.5
t135 130t186 45.5t186 -45.5t135 -130t50 -196.5q0 -111 -50 -195.5t-135 -130.5t-186 -46t-186 46zM585 64q75 41 119 116t44 175t-44 175.5t-119 116t-164 40.5t-164 -40.5t-119 -116t-44 -175.5t44 -175t119 -116t164 -41t164 41z" />
    <glyph glyph-name="uni2462" unicode="&#x2462;" horiz-adv-x="842" 
d="M313.5 190q-39.5 32 -40.5 88l59 5q2 -38 25.5 -59t63.5 -21q41 0 63 18t22 53q0 30 -22.5 46.5t-63.5 16.5h-37v43h33q37 0 58.5 17t21.5 45q0 32 -20 49.5t-57 17.5q-39 0 -62 -21.5t-23 -59.5l-58 5q0 56 39 88t107 32q63 0 98.5 -28t35.5 -77q0 -33 -23 -57.5
t-60 -28.5q43 -4 69.5 -29t26.5 -64q0 -52 -39.5 -81.5t-108.5 -29.5q-68 0 -107.5 32zM235 29q-85 46 -135 130.5t-50 195.5q0 112 50 196.5t135 130t186 45.5t186 -45.5t135 -130t50 -196.5q0 -111 -50 -195.5t-135 -130.5t-186 -46t-186 46zM585 64q75 41 119 116t44 175
t-44 175.5t-119 116t-164 40.5t-164 -40.5t-119 -116t-44 -175.5t44 -175t119 -116t164 -41t164 41z" />
    <glyph glyph-name="uni2463" unicode="&#x2463;" horiz-adv-x="842" 
d="M560 307v-44h-64v-92h-56v92h-196v43l190 243h62v-242h64zM440 307v187l-147 -187h147zM235 29q-85 46 -135 130.5t-50 195.5q0 112 50 196.5t135 130t186 45.5t186 -45.5t135 -130t50 -196.5q0 -111 -50 -195.5t-135 -130.5t-186 -46t-186 46zM585 64q75 41 119 116
t44 175t-44 175.5t-119 116t-164 40.5t-164 -40.5t-119 -116t-44 -175.5t44 -175t119 -116t164 -41t164 41z" />
    <glyph glyph-name="uni2464" unicode="&#x2464;" horiz-adv-x="842" 
d="M323 189q-39 27 -46 74l56 9q6 -31 28.5 -48t56.5 -17q43 0 67 24.5t24 66.5q0 40 -23 63.5t-63 23.5q-31 0 -55 -17t-31 -44l-52 4l24 220h238v-46h-196l-14 -128q29 52 104 52q58 0 92 -34t34 -93q0 -64 -39 -100.5t-107 -36.5q-59 0 -98 27zM235 29q-85 46 -135 130.5
t-50 195.5q0 112 50 196.5t135 130t186 45.5t186 -45.5t135 -130t50 -196.5q0 -111 -50 -195.5t-135 -130.5t-186 -46t-186 46zM585 64q75 41 119 116t44 175t-44 175.5t-119 116t-164 40.5t-164 -40.5t-119 -116t-44 -175.5t44 -175t119 -116t164 -41t164 41z" />
    <glyph glyph-name="uni2465" unicode="&#x2465;" horiz-adv-x="842" 
d="M537 386.5q35 -34.5 35 -94.5q0 -58 -39 -96t-104 -38q-74 0 -116 48.5t-42 144.5q0 92 40.5 147t115.5 55q117 0 136 -102l-54 -7q-15 65 -83 65q-48 0 -74 -41.5t-26 -115.5v-11q12 40 43.5 60t75.5 20q57 0 92 -34.5zM493 225.5q24 24.5 24 63.5q0 41 -24.5 66
t-64.5 25q-36 0 -62.5 -21.5t-36.5 -57.5q16 -100 99 -100q41 0 65 24.5zM235 29q-85 46 -135 130.5t-50 195.5q0 112 50 196.5t135 130t186 45.5t186 -45.5t135 -130t50 -196.5q0 -111 -50 -195.5t-135 -130.5t-186 -46t-186 46zM585 64q75 41 119 116t44 175t-44 175.5
t-119 116t-164 40.5t-164 -40.5t-119 -116t-44 -175.5t44 -175t119 -116t164 -41t164 41z" />
    <glyph glyph-name="uni2466" unicode="&#x2466;" horiz-adv-x="842" 
d="M283 497v47h279v-46q-69 -65 -107 -143.5t-40 -180.5v-8h-64v4q3 96 43 179t110 148h-221zM235 29q-85 46 -135 130.5t-50 195.5q0 112 50 196.5t135 130t186 45.5t186 -45.5t135 -130t50 -196.5q0 -111 -50 -195.5t-135 -130.5t-186 -46t-186 46zM585 64q75 41 119 116
t44 175t-44 175.5t-119 116t-164 40.5t-164 -40.5t-119 -116t-44 -175.5t44 -175t119 -116t164 -41t164 41z" />
    <glyph glyph-name="uni2467" unicode="&#x2467;" horiz-adv-x="842" 
d="M549 334q25 -25 25 -69q0 -50 -41.5 -78.5t-113.5 -28.5q-71 0 -111 27.5t-40 76.5q0 37 22.5 60.5t70.5 34.5q-40 13 -61 35.5t-21 59.5q0 45 38 73t100 28q64 0 102 -25t38 -69q0 -34 -19 -54.5t-61 -32.5q47 -13 72 -38zM353.5 410q19.5 -15 57.5 -23l27 -6
q35 10 49.5 26t14.5 42q0 29 -22.5 46.5t-62.5 17.5q-37 0 -60 -16.5t-23 -44.5q0 -27 19.5 -42zM489.5 218.5q24.5 17.5 24.5 48.5q0 32 -21.5 48.5t-61.5 24.5l-28 7q-75 -21 -75 -77q0 -33 24 -51t69 -18q44 0 68.5 17.5zM235 29q-85 46 -135 130.5t-50 195.5
q0 112 50 196.5t135 130t186 45.5t186 -45.5t135 -130t50 -196.5q0 -111 -50 -195.5t-135 -130.5t-186 -46t-186 46zM585 64q75 41 119 116t44 175t-44 175.5t-119 116t-164 40.5t-164 -40.5t-119 -116t-44 -175.5t44 -175t119 -116t164 -41t164 41z" />
    <glyph glyph-name="uni2468" unicode="&#x2468;" horiz-adv-x="842" 
d="M530.5 505.5q40.5 -47.5 40.5 -146.5q0 -96 -39 -148.5t-118 -52.5q-57 0 -92 25.5t-43 74.5l55 9q13 -64 84 -64q95 0 98 155q-17 -28 -47 -42.5t-66 -14.5q-60 0 -96 34.5t-36 90.5q0 55 38.5 91t105.5 36q75 0 115.5 -47.5zM474 358.5q26 16.5 40 47.5
q-12 104 -99 104q-41 0 -65 -23t-24 -60q0 -38 24.5 -61.5t64.5 -23.5q33 0 59 16.5zM235 29q-85 46 -135 130.5t-50 195.5q0 112 50 196.5t135 130t186 45.5t186 -45.5t135 -130t50 -196.5q0 -111 -50 -195.5t-135 -130.5t-186 -46t-186 46zM585 64q75 41 119 116t44 175
t-44 175.5t-119 116t-164 40.5t-164 -40.5t-119 -116t-44 -175.5t44 -175t119 -116t164 -41t164 41z" />
    <glyph glyph-name="uni24EA" unicode="&#x24ea;" horiz-adv-x="842" 
d="M301 210q-43 52 -43 146q0 93 43 145t119 52q77 0 120 -52.5t43 -146.5q0 -93 -42.5 -144.5t-119.5 -51.5t-120 52zM495.5 243q26.5 39 26.5 111q0 73 -26.5 113t-75.5 40q-48 0 -74.5 -39.5t-26.5 -111.5q0 -74 26.5 -113t75.5 -39q48 0 74.5 39zM235 29
q-85 46 -135 130.5t-50 195.5q0 112 50 196.5t135 130t186 45.5t186 -45.5t135 -130t50 -196.5q0 -111 -50 -195.5t-135 -130.5t-186 -46t-186 46zM585 64q75 41 119 116t44 175t-44 175.5t-119 116t-164 40.5t-164 -40.5t-119 -116t-44 -175.5t44 -175t119 -116t164 -41
t164 41z" />
    <glyph glyph-name="uni24FF" unicode="&#x24ff;" horiz-adv-x="842" 
d="M235 29q-85 46 -135 130.5t-50 195.5t50 195.5t135 130.5t186 46t186 -46t135 -130.5t50 -195.5t-50 -195.5t-135 -130.5t-186 -46t-186 46zM541.5 209.5q43.5 51.5 43.5 144.5q0 94 -43.5 146.5t-121.5 52.5q-77 0 -120.5 -52t-43.5 -145q0 -94 43.5 -146t121.5 -52
q77 0 120.5 51.5zM348 245q-25 38 -25 111q0 71 25.5 109.5t71.5 38.5t72 -38.5t26 -111.5q0 -71 -25.5 -109t-71.5 -38q-48 0 -73 38z" />
    <glyph glyph-name="lozenge" unicode="&#x25ca;" horiz-adv-x="527" 
d="M498 355l-204 -372h-62l-202 372l202 372h62zM426 355l-163 303l-161 -303l161 -303z" />
    <glyph glyph-name="circle" unicode="&#x25cb;" horiz-adv-x="842" 
d="M235 29q-85 46 -135 130.5t-50 195.5q0 112 50 196.5t135 130t186 45.5t186 -45.5t135 -130t50 -196.5q0 -111 -50 -195.5t-135 -130.5t-186 -46t-186 46zM585 64q75 41 119 116t44 175t-44 175.5t-119 116t-164 40.5t-164 -40.5t-119 -116t-44 -175.5t44 -175t119 -116
t164 -41t164 41z" />
    <glyph glyph-name="uni25CF" unicode="&#x25cf;" horiz-adv-x="842" 
d="M235 29q-85 46 -135 130.5t-50 195.5t50 195.5t135 130.5t186 46t186 -46t135 -130.5t50 -195.5t-50 -195.5t-135 -130.5t-186 -46t-186 46z" />
    <glyph glyph-name="uni2776" unicode="&#x2776;" horiz-adv-x="842" 
d="M235 29q-85 46 -135 130.5t-50 195.5t50 195.5t135 130.5t186 46t186 -46t135 -130.5t50 -195.5t-50 -195.5t-135 -130.5t-186 -46t-186 46zM400 166h65v378h-52q-23 -67 -98 -67h-8v-58h12q25 0 46.5 9.5t34.5 26.5v-289z" />
    <glyph glyph-name="uni2777" unicode="&#x2777;" horiz-adv-x="842" 
d="M235 29q-85 46 -135 130.5t-50 195.5t50 195.5t135 130.5t186 46t186 -46t135 -130.5t50 -195.5t-50 -195.5t-135 -130.5t-186 -46t-186 46zM273 177h296v49h-208q84 43 142 101t58 122q0 55 -37 85.5t-102 30.5q-67 0 -106.5 -30.5t-39.5 -83.5q0 -19 3 -31l67 -6
q-5 20 -5 30q0 33 21 51.5t58 18.5q35 0 53.5 -18.5t18.5 -52.5q0 -39 -28.5 -75t-73 -68t-117.5 -76v-47z" />
    <glyph glyph-name="uni2778" unicode="&#x2778;" horiz-adv-x="842" 
d="M235 29q-85 46 -135 130.5t-50 195.5t50 195.5t135 130.5t186 46t186 -46t135 -130.5t50 -195.5t-50 -195.5t-135 -130.5t-186 -46t-186 46zM531 187.5q40 29.5 40 81.5q0 38 -26 63t-70 29q38 5 62 29t24 57q0 50 -36.5 78t-101.5 28q-69 0 -109 -32t-40 -87l65 -6
q0 36 21.5 56.5t58.5 20.5q35 0 54.5 -17t19.5 -47q0 -28 -20.5 -45t-55.5 -17h-27v-42h30q39 0 61 -16t22 -46q0 -33 -21.5 -51t-60.5 -18q-38 0 -60.5 21.5t-23.5 56.5l-66 -4q1 -56 41 -89t109 -33q70 0 110 29.5z" />
    <glyph glyph-name="uni2779" unicode="&#x2779;" horiz-adv-x="842" 
d="M235 29q-85 46 -135 130.5t-50 195.5t50 195.5t135 130.5t186 46t186 -46t135 -130.5t50 -195.5t-50 -195.5t-135 -130.5t-186 -46t-186 46zM436 267v-91h63v91h63v47h-63v240h-69l-190 -241v-46h196zM436 314h-142l142 181v-181z" />
    <glyph glyph-name="uni277A" unicode="&#x277a;" horiz-adv-x="842" 
d="M235 29q-85 46 -135 130.5t-50 195.5t50 195.5t135 130.5t186 46t186 -46t135 -130.5t50 -195.5t-50 -195.5t-135 -130.5t-186 -46t-186 46zM529 199q40 37 40 101q0 59 -34 93t-93 34q-74 0 -103 -50l14 122h196v49h-243l-24 -220l57 -5q7 26 30.5 42.5t52.5 16.5
q39 0 61.5 -22.5t22.5 -61.5q0 -40 -24 -64t-64 -24q-33 0 -55 17t-28 47l-62 -11q8 -47 47.5 -74t100.5 -27q68 0 108 37z" />
    <glyph glyph-name="uni277B" unicode="&#x277b;" horiz-adv-x="842" 
d="M235 29q-85 46 -135 130.5t-50 195.5t50 195.5t135 130.5t186 46t186 -46t135 -130.5t50 -195.5t-50 -195.5t-135 -130.5t-186 -46t-186 46zM535 196.5q40 38.5 40 96.5q0 60 -35 94.5t-92 34.5q-43 0 -74.5 -19.5t-43.5 -57.5q-2 74 23 117t73 43q66 0 80 -61l60 6
q-18 103 -138 103q-76 0 -118 -55t-42 -146q0 -96 43.5 -145t118.5 -49q65 0 105 38.5zM333 302q9 35 34.5 55t60.5 20q39 0 62.5 -24t23.5 -64q0 -37 -23 -60.5t-63 -23.5q-79 0 -95 97z" />
    <glyph glyph-name="uni277C" unicode="&#x277c;" horiz-adv-x="842" 
d="M235 29q-85 46 -135 130.5t-50 195.5t50 195.5t135 130.5t186 46t186 -46t135 -130.5t50 -195.5t-50 -195.5t-135 -130.5t-186 -46t-186 46zM419 166q1 103 35.5 180.5t108.5 146.5v51h-283v-51h222q-150 -134 -154 -327h71z" />
    <glyph glyph-name="uni277D" unicode="&#x277d;" horiz-adv-x="842" 
d="M235 29q-85 46 -135 130.5t-50 195.5t50 195.5t135 130.5t186 46t186 -46t135 -130.5t50 -195.5t-50 -195.5t-135 -130.5t-186 -46t-186 46zM535 186.5q42 28.5 42 78.5q0 44 -24.5 70t-73.5 38q43 12 62 32.5t19 54.5q0 43 -39.5 68t-104.5 25q-63 0 -102 -28t-39 -73
q0 -39 21 -61.5t62 -34.5q-48 -12 -70.5 -35t-22.5 -59q0 -49 41 -76.5t114 -27.5t115 28.5zM413 389q-39 8 -57.5 22t-18.5 41t22 42.5t59 15.5q38 0 60 -17t22 -45q0 -25 -13.5 -40t-45.5 -25zM354.5 221.5q-23.5 17.5 -23.5 48.5q0 53 70 75l27 -6q42 -9 62.5 -25
t20.5 -47q0 -29 -24 -46t-66 -17q-43 0 -66.5 17.5z" />
    <glyph glyph-name="uni277E" unicode="&#x277e;" horiz-adv-x="842" 
d="M235 29q-85 46 -135 130.5t-50 195.5t50 195.5t135 130.5t186 46t186 -46t135 -130.5t50 -195.5t-50 -195.5t-135 -130.5t-186 -46t-186 46zM534 210q40 52 40 149q0 99 -41.5 146.5t-117.5 47.5q-68 0 -107.5 -36t-39.5 -92q0 -55 36.5 -90t96.5 -35q35 0 64.5 13.5
t47.5 39.5q-2 -72 -26 -109.5t-69 -37.5q-34 0 -54.5 16.5t-26.5 44.5l-60 -9q8 -49 43.5 -74.5t93.5 -25.5q80 0 120 52zM352.5 367.5q-23.5 22.5 -23.5 59.5q0 36 23.5 58.5t63.5 22.5q84 0 96 -100q-13 -30 -39 -46.5t-58 -16.5q-39 0 -62.5 22.5z" />
    <glyph glyph-name="uniE000" unicode="&#xe000;" horiz-adv-x="892" 
d="M315 138l-113 -150l-112 150h87v572h625v-47h-575v-525h88z" />
    <glyph glyph-name="uniF8FF" unicode="&#xf8ff;" horiz-adv-x="1018" 
d="M998 710v-47h-552v-47h552v-48h-552v-47h552v-48h-552v-47h552v-47h-552v-48h552v-47h-978v426h978zM72 652l-5 15l13 9h-16l-5 15l-4 -15h-16l13 -9l-5 -15l12 9zM146 691l-4 -15h-16l13 -9l-5 -15l12 10l13 -10l-5 15l12 9h-15zM233 691l-4 -15h-16l13 -9l-5 -15l12 10
l13 -10l-5 15l12 9h-15zM320 691l-5 -15h-15l13 -9l-5 -15l12 10l13 -10l-5 15l12 9h-15zM420 652l-5 15l12 9h-15l-5 15l-5 -15h-15l12 -9l-4 -15l12 10zM103 647l-5 -15h-15l12 -9l-4 -14l12 9l12 -9l-4 14l12 9h-15zM376 609l-5 14l13 9h-16l-4 15l-5 -15h-15l12 -9
l-5 -14l13 9zM193 364h80v93h94v80h-94v94h-80v-94h-93v-80h93v-93zM72 565l-5 15l13 9h-16l-5 14l-4 -14h-16l13 -9l-5 -15l12 9zM146 603l-4 -14h-16l13 -9l-5 -15l12 9l13 -9l-5 15l12 9h-15zM320 603l-5 -14h-15l13 -9l-5 -15l12 9l13 -9l-5 15l12 9h-15zM420 565l-5 15
l12 9h-15l-5 14l-5 -14h-15l12 -9l-4 -15l12 9zM72 478l-5 14l13 10h-16l-5 14l-4 -14h-16l13 -10l-5 -14l12 9zM420 478l-5 14l12 10h-15l-5 14l-5 -14h-15l12 -10l-4 -14l12 9zM72 391l-5 14l13 9h-16l-5 15l-4 -15h-16l13 -9l-5 -14l12 9zM159 391l-5 14l12 9h-15l-5 15
l-4 -15h-16l13 -9l-5 -14l12 9zM333 391l-5 14l12 9h-15l-5 15l-5 -15h-15l13 -9l-5 -14l12 9zM420 391l-5 14l12 9h-15l-5 15l-5 -15h-15l12 -9l-4 -14l12 9zM103 356l12 -9l-4 15l12 9h-15l-5 14l-5 -14h-15l12 -9l-4 -15zM364 356l12 -9l-5 15l13 9h-16l-4 14l-5 -14h-15
l12 -9l-5 -15zM59 312l13 -9l-5 15l13 9h-16l-5 15l-4 -15h-16l13 -9l-5 -15zM146 312l13 -9l-5 15l12 9h-15l-5 15l-4 -15h-16l13 -9l-5 -15zM233 312l13 -9l-5 15l12 9h-15l-5 15l-4 -15h-16l13 -9l-5 -15zM320 312l13 -9l-5 15l12 9h-15l-5 15l-5 -15h-15l13 -9l-5 -15z
M407 312l13 -9l-5 15l12 9h-15l-5 15l-5 -15h-15l12 -9l-4 -15zM997 189h-977v48h977v-48zM998 95h-978v47h978v-47zM998 0h-978v47h978v-47z" />
    <glyph glyph-name="uniFEFF" unicode="&#xfeff;" horiz-adv-x="0" 
 />
    <glyph glyph-name="uni004A0301" horiz-adv-x="373" 
d="M289 185q0 -107 -55 -152t-141 -45q-57 0 -82 8v72q32 -6 83 -6q53 0 85 28t32 102v518h78v-525zM284 753h-68l91 103h79z" />
    <glyph glyph-name="i.loclTRK" horiz-adv-x="229" 
d="M149 0h-69v500h69v-500zM154 590h-79v110h79v-110z" />
    <glyph glyph-name="uni006A0301" horiz-adv-x="235" 
d="M-25 -196v60q39 -3 47 -3q33 0 48.5 19t15.5 68v552h69v-560q0 -64 -29 -103t-93 -39q-35 0 -58 6zM155 580h-66l99 143h86z" />
    <glyph glyph-name="zero.zero" horiz-adv-x="634" 
d="M512 613.5q68 -96.5 68 -266.5q0 -169 -68 -265.5t-195 -96.5q-128 0 -196 96.5t-68 266.5q0 169 68.5 265.5t195.5 96.5t195 -96.5zM175.5 568.5q-48.5 -79.5 -48.5 -220.5q0 -93 21 -159l312 376q-50 83 -143 83t-141.5 -79.5zM458.5 126.5q48.5 79.5 48.5 220.5
q0 93 -21 159l-313 -376q50 -83 144 -83q93 0 141.5 79.5z" />
    <glyph glyph-name="zero.tf" 
d="M63 347q1 363 247 363t247 -363q-1 -185 -64.5 -273.5t-182.5 -88.5q-246 0 -247 362zM438.5 118q44.5 71 45.5 229q-1 161 -45.5 231t-128.5 70t-128.5 -70.5t-45.5 -230.5q1 -159 45.5 -229.5t128.5 -70.5t128.5 71z" />
    <glyph glyph-name="one.tf" 
d="M368 66h172v-66h-443v66h197v505q-21 -28 -61 -44.5t-96 -16.5h-31v66h25q71 0 115.5 32.5t59.5 86.5h62v-629z" />
    <glyph glyph-name="two.tf" 
d="M79 61q135 102 252 216q61 59 87 111t26 114q0 68 -37 106t-104 38t-104.5 -37t-37.5 -99q0 -22 8 -64l-74 7q-7 28 -7 58q0 91 58 145t161 54q101 0 157.5 -54.5t56.5 -152.5q0 -71 -34.5 -135.5t-108.5 -134.5q-105 -101 -201 -167h355v-66h-453v61z" />
    <glyph glyph-name="three.tf" 
d="M186 12q-53 27 -82 75t-31 110l73 9q3 -73 46.5 -116t119.5 -43q77 0 118.5 38.5t41.5 109.5q0 61 -41.5 98.5t-116.5 37.5h-47v61h42q67 0 103 36t36 93q0 61 -35.5 94t-103.5 33q-73 0 -114 -45t-41 -124l-69 14q0 100 61.5 158.5t166.5 58.5q99 0 154 -50.5t55 -138.5
q0 -55 -34.5 -97t-89.5 -54q69 -11 108.5 -57.5t39.5 -117.5q0 -63 -29 -110.5t-82 -73.5t-125 -26q-71 0 -124 27z" />
    <glyph glyph-name="four.tf" 
d="M446 0h-70v182h-326v51l318 462h78v-455h119v-58h-119v-182zM376 240v284q0 48 2 93h-1q-10 -22 -22.5 -43.5t-30.5 -48.5l-152 -218q-13 -20 -25 -37t-24 -30h253z" />
    <glyph glyph-name="five.tf" 
d="M155 34.5q-61 49.5 -74 134.5l76 9q12 -60 50.5 -95t101.5 -35q74 0 116.5 47t42.5 131q0 83 -39.5 133.5t-115.5 50.5q-60 0 -98 -33.5t-52 -90.5l-71 8l40 401h376v-64h-320l-27 -259q52 100 171 100q97 0 153 -65.5t56 -176.5q0 -72 -29 -127.5t-82 -86.5t-124 -31
q-90 0 -151 49.5z" />
    <glyph glyph-name="six.tf" 
d="M441 434.5q48 -29.5 74.5 -83.5t26.5 -125q0 -70 -27.5 -125t-78.5 -85.5t-118 -30.5q-121 0 -184 87.5t-63 261.5q0 179 65 277.5t188 98.5q86 0 139.5 -44.5t69.5 -129.5l-74 -15q-25 127 -136 127q-89 0 -134.5 -78.5t-45.5 -225.5q23 58 72.5 89t113.5 31t112 -29.5z
M428.5 96q40.5 49 40.5 129q0 81 -41.5 129t-111.5 48q-63 0 -108 -41t-61 -117q11 -91 55.5 -144t116.5 -53q69 0 109.5 49z" />
    <glyph glyph-name="seven.tf" 
d="M210 9q-1 161 62 317.5t182 300.5h-368v68h452v-59q-122 -133 -184.5 -293.5t-63.5 -327.5v-15h-80v9z" />
    <glyph glyph-name="eight.tf" 
d="M508 301q36 -44 36 -119q0 -90 -62.5 -143.5t-168.5 -53.5q-109 0 -173 52t-64 141q0 144 143 187q-61 25 -90 65.5t-29 103.5q0 52 26 92t74 62t110 22q95 0 152 -47.5t57 -127.5q0 -63 -31.5 -104t-93.5 -58q78 -28 114 -72zM202 453.5q28 -30.5 88 -49.5l36 -11
q67 24 93 55.5t26 83.5q0 57 -36.5 89.5t-100.5 32.5q-62 0 -98 -32t-36 -88q0 -50 28 -80.5zM429 80.5q42 36.5 42 101.5q0 55 -30.5 88.5t-94.5 53.5l-61 18q-71 -23 -103 -59.5t-32 -93.5q0 -66 44 -105.5t119 -39.5q74 0 116 36.5z" />
    <glyph glyph-name="nine.tf" 
d="M543 359q0 -170 -60 -272t-184 -102q-92 0 -147.5 46.5t-72.5 135.5l74 15q12 -65 46.5 -100t100.5 -35q87 0 128 82.5t41 228.5v13q-24 -55 -71.5 -83.5t-108.5 -28.5q-64 0 -113.5 26.5t-77.5 77t-28 120.5q0 65 27.5 116.5t78.5 81t118 29.5q249 0 249 -351z
M404.5 362.5q47.5 41.5 60.5 107.5q-11 79 -52 128.5t-120 49.5q-68 0 -109 -45.5t-41 -118.5q0 -75 42.5 -119t110.5 -44q61 0 108.5 41.5z" />
    <glyph glyph-name="zero.tf.zero" 
d="M557 347q-1 -185 -64.5 -273.5t-182.5 -88.5q-246 0 -247 362q1 363 247 363t247 -363zM181.5 577.5q-44.5 -70.5 -45.5 -230.5q0 -94 18 -163l290 385q-42 79 -134 79q-84 0 -128.5 -70.5zM438.5 118q44.5 71 45.5 229q0 95 -18 165l-290 -385q42 -80 134 -80
q84 0 128.5 71z" />
    <glyph glyph-name="dollar.tf" 
d="M494 38q-59 -50 -159 -53v-92h-39v93q-99 7 -158.5 64.5t-70.5 155.5l73 14q24 -156 156 -171v275l-37 10q-83 21 -126.5 70t-43.5 121q0 83 55.5 131.5t151.5 53.5v90h39v-91q91 -5 146 -55.5t62 -145.5l-73 -20q-10 147 -135 161v-263l38 -10q92 -25 136 -69.5
t44 -129.5q0 -89 -59 -139zM296 396v254q-63 -2 -100 -32.5t-37 -86.5q0 -53 32.5 -85t93.5 -47zM335 47q70 2 108.5 34t38.5 93q0 58 -32 88.5t-102 48.5l-13 3v-267z" />
    <glyph glyph-name="cent.tf" 
d="M337 51q50 4 80 37.5t38 90.5l67 -10q-12 -77 -58.5 -126t-126.5 -54v-78h-42v78q-97 9 -149 81t-52 183q0 109 51 179t150 79v83h42v-82q78 -5 128 -51.5t57 -126.5l-71 -8q-7 55 -36 87t-78 37v-399zM199 114.5q33 -53.5 96 -62.5v398q-63 -8 -96 -60.5t-33 -135.5
q0 -86 33 -139.5z" />
    <glyph glyph-name="sterling.tf" 
d="M573 152q-10 -88 -56.5 -127.5t-109.5 -39.5q-39 0 -91 13q-34 8 -56.5 11.5t-52.5 3.5q-70 0 -152 -20l-16 52q144 46 144 191q0 51 -10 101h-110v53h98q-9 40 -13.5 66.5t-4.5 57.5q0 94 54.5 145t143.5 51q79 0 128 -41.5t63 -118.5l-72 -17q-9 57 -39.5 86.5
t-80.5 29.5q-56 0 -87.5 -31.5t-31.5 -100.5q0 -31 4.5 -58t13.5 -69h174v-53h-163q8 -43 8 -87q0 -73 -27 -116.5t-76 -67.5q36 9 82 9q30 0 56.5 -5t31.5 -6q48 -11 82 -11q40 0 67.5 26.5t32.5 84.5z" />
    <glyph glyph-name="florin.tf" 
d="M372.5 622.5q-20.5 -25.5 -28.5 -90.5l-13 -104h116v-54h-123l-68 -524h-71l67 524h-99v54h106l12 94q9 72 27.5 112.5t51 58t87.5 17.5q29 0 47 -5v-62q-19 5 -47 5q-44 0 -64.5 -25.5z" />
    <glyph glyph-name="yen.tf" 
d="M567 695l-219 -369h188v-50h-189v-81h189v-50h-189v-145h-74v145h-189v50h189v81h-189v50h188l-219 369h83l145 -253q19 -33 28 -61h2q9 28 28 61l145 253h83z" />
    <glyph glyph-name="Euro.tf" 
d="M581 131q-30 -70 -88 -108t-135 -38q-112 0 -180 74t-86 204h-89v51h84q-1 13 -1 41q0 29 1 43h-84v50h89q20 127 90.5 194.5t184.5 67.5q149 0 213 -134l-59 -43q-22 52 -62 82t-97 30q-78 0 -127.5 -49.5t-65.5 -147.5h273v-50h-279q-1 -13 -1 -42t1 -42h279v-51h-274
q16 -104 66.5 -158.5t125.5 -54.5q51 0 95 29.5t71 87.5z" />
    <glyph glyph-name="percent.tf" 
d="M141 -16h-59l389 746h59zM65 437.5q-36 44.5 -36 120.5q0 74 36 118.5t95 44.5q58 0 94.5 -45.5t36.5 -119.5t-36 -118.5t-94 -44.5q-60 0 -96 44.5zM214 472.5q20 30.5 20 83.5t-20 84t-54 31q-35 0 -55.5 -30.5t-20.5 -82.5q0 -55 20.5 -85.5t56.5 -30.5q33 0 53 30.5z
M365 34.5q-36 44.5 -36 120.5q0 74 36 118.5t95 44.5t95 -45t36 -120q0 -74 -36 -118.5t-94 -44.5q-60 0 -96 44.5zM514.5 69.5q19.5 30.5 19.5 83.5t-20 84.5t-54 31.5q-35 0 -55 -31t-20 -83q0 -55 20.5 -85.5t55.5 -30.5q34 0 53.5 30.5z" />
    <glyph glyph-name="perthousand.tf" 
d="M72 468.5q-32 38.5 -32 101.5q0 64 31.5 102t85.5 38t86 -38t32 -102q0 -63 -32.5 -101.5t-85.5 -38.5t-85 38.5zM51 241l482 431v-65l-482 -430v64zM110 639q-17 -25 -17 -69t17 -69t47 -25t47 25t17 69t-17 69t-47 25t-47 -25zM551 230q32 -38 32 -102
q0 -63 -32 -101.5t-86 -38.5q-57 0 -87 47q-28 -47 -87 -47q-53 0 -85 38.5t-32 101.5q0 64 32 102t85 38q59 0 87 -47q30 47 87 47q54 0 86 -38zM339 59q17 25 17 69t-17 69t-48 25q-30 0 -47 -25t-17 -69t17 -69t47 -25q31 0 48 25zM513 59q17 25 17 69t-17 69t-48 25
q-30 0 -47 -25t-17 -69t17 -69t47 -25q31 0 48 25z" />
    <glyph glyph-name="Adieresis.ss05" horiz-adv-x="652" 
d="M635 0h-81l-75 207h-306l-75 -207h-81l270 710h78zM197 273h258l-105 291q-10 27 -23 69h-2q-13 -42 -23 -69zM182 764.5q-15 15.5 -15 37.5t15 37t37 15t37 -15t15 -37t-15 -37.5t-37 -15.5t-37 15.5zM396 764.5q-15 15.5 -15 37.5t15 37t37 15t37 -15t15 -37t-15 -37.5
t-37 -15.5t-37 15.5z" />
    <glyph glyph-name="uni1EA0.ss05" horiz-adv-x="652" 
d="M635 0h-81l-75 207h-306l-75 -207h-81l270 710h78zM197 273h258l-105 291q-10 27 -23 69h-2q-13 -42 -23 -69zM288 -143q-15 15 -15 38q0 22 15.5 37t37.5 15t37.5 -15t15.5 -37t-15.5 -37.5t-37.5 -15.5q-23 0 -38 15z" />
    <glyph glyph-name="Cdotaccent.ss05" horiz-adv-x="694" 
d="M190 32.5q-71 49.5 -105.5 134t-34.5 190.5q0 110 37 193.5t108.5 130t173.5 46.5q124 0 194.5 -67.5t84.5 -182.5l-79 -8q-12 88 -64.5 139.5t-139.5 51.5q-73 0 -126 -37.5t-80.5 -105.5t-27.5 -159q0 -89 26.5 -158.5t80 -109t129.5 -39.5q82 0 135.5 49t70.5 136
l75 -12q-21 -109 -91 -175t-191 -66q-105 0 -176 49.5zM328.5 771q-15.5 15 -15.5 37t15.5 37t37.5 15t37.5 -15t15.5 -37t-15.5 -37t-37.5 -15t-37.5 15z" />
    <glyph glyph-name="Edieresis.ss05" horiz-adv-x="587" 
d="M167 331v-265h363v-66h-440v710h433v-66h-356v-247h339v-66h-339zM162 764.5q-15 15.5 -15 37.5t15 37t37 15t37 -15t15 -37t-15 -37.5t-37 -15.5t-37 15.5zM376 764.5q-15 15.5 -15 37.5t15 37t37 15t37 -15t15 -37t-15 -37.5t-37 -15.5t-37 15.5z" />
    <glyph glyph-name="Edotaccent.ss05" horiz-adv-x="587" 
d="M167 331v-265h363v-66h-440v710h433v-66h-356v-247h339v-66h-339zM268.5 771q-15.5 15 -15.5 37t15.5 37t37.5 15t37.5 -15t15.5 -37t-15.5 -37t-37.5 -15t-37.5 15z" />
    <glyph glyph-name="uni1EB8.ss05" horiz-adv-x="587" 
d="M167 331v-265h363v-66h-440v710h433v-66h-356v-247h339v-66h-339zM255 -143q-15 15 -15 38q0 22 15.5 37t37.5 15t37.5 -15t15.5 -37t-15.5 -37.5t-37.5 -15.5q-23 0 -38 15z" />
    <glyph glyph-name="uni0122.ss05" horiz-adv-x="718" 
d="M192.5 31q-69.5 48 -106 132.5t-36.5 191.5q0 109 37.5 193.5t109.5 131.5t173 47q90 0 148.5 -35t86.5 -84t35 -97l-77 -10q-11 63 -56.5 111.5t-139.5 48.5q-75 0 -128.5 -38.5t-81.5 -108t-28 -160.5q0 -87 26.5 -155.5t80.5 -108.5t132 -40q84 0 132 39t65.5 90.5
t17.5 97.5v25h-220v66h290v-368h-57l-11 129q-24 -66 -85 -106t-144 -40q-94 0 -163.5 48zM405.5 -70.5q15.5 -18.5 15.5 -49.5q0 -22 -10.5 -46.5t-30.5 -40.5h-39q44 32 48 77q-12 -12 -31 -12q-17 0 -29 12.5t-12 30.5q0 21 13.5 34t34.5 13q25 0 40.5 -18.5z" />
    <glyph glyph-name="Gdotaccent.ss05" horiz-adv-x="718" 
d="M192.5 31q-69.5 48 -106 132.5t-36.5 191.5q0 109 37.5 193.5t109.5 131.5t173 47q90 0 148.5 -35t86.5 -84t35 -97l-77 -10q-11 63 -56.5 111.5t-139.5 48.5q-75 0 -128.5 -38.5t-81.5 -108t-28 -160.5q0 -87 26.5 -155.5t80.5 -108.5t132 -40q84 0 132 39t65.5 90.5
t17.5 97.5v25h-220v66h290v-368h-57l-11 129q-24 -66 -85 -106t-144 -40q-94 0 -163.5 48zM328.5 771q-15.5 15 -15.5 37t15.5 37t37.5 15t37.5 -15t15.5 -37t-15.5 -37t-37.5 -15t-37.5 15z" />
    <glyph glyph-name="Idieresis.ss05" horiz-adv-x="257" 
d="M167 710v-710h-77v710h77zM-15 764.5q-15 15.5 -15 37.5t15 37t37 15t37 -15t15 -37t-15 -37.5t-37 -15.5t-37 15.5zM199 764.5q-15 15.5 -15 37.5t15 37t37 15t37 -15t15 -37t-15 -37.5t-37 -15.5t-37 15.5z" />
    <glyph glyph-name="Idotaccent.ss05" horiz-adv-x="257" 
d="M167 710v-710h-77v710h77zM91.5 771q-15.5 15 -15.5 37t15.5 37t37.5 15t37.5 -15t15.5 -37t-15.5 -37t-37.5 -15t-37.5 15z" />
    <glyph glyph-name="uni1ECA.ss05" horiz-adv-x="257" 
d="M167 710v-710h-77v710h77zM91 -143q-15 15 -15 38q0 22 15.5 37t37.5 15t37.5 -15t15.5 -37t-15.5 -37.5t-37.5 -15.5q-23 0 -38 15z" />
    <glyph glyph-name="uni0136.ss05" horiz-adv-x="644" 
d="M623 0h-91l-246 371l-119 -129v-242h-77v710h77v-374l337 374h98l-263 -283zM366.5 -70.5q15.5 -18.5 15.5 -49.5q0 -22 -10.5 -46.5t-30.5 -40.5h-39q44 32 48 77q-12 -12 -31 -12q-17 0 -29 12.5t-12 30.5q0 21 13.5 34t34.5 13q25 0 40.5 -18.5z" />
    <glyph glyph-name="uni013B.ss05" horiz-adv-x="521" 
d="M504 0h-414v710h77v-644h337v-66zM329.5 -70.5q15.5 -18.5 15.5 -49.5q0 -22 -10.5 -46.5t-30.5 -40.5h-39q44 32 48 77q-12 -12 -31 -12q-17 0 -29 12.5t-12 30.5q0 21 13.5 34t34.5 13q25 0 40.5 -18.5z" />
    <glyph glyph-name="Ldot.ss05" horiz-adv-x="521" 
d="M504 0h-414v710h77v-644h337v-66zM355.5 324q-16.5 17 -16.5 41t16.5 41t40.5 17t40.5 -17t16.5 -41t-16.5 -41t-40.5 -17t-40.5 17z" />
    <glyph glyph-name="uni0145.ss05" horiz-adv-x="714" 
d="M90 0v710h94l329 -542q29 -50 42 -82h2q-3 41 -3 87v537h70v-710h-94l-329 543q-13 22 -24 42.5t-18 39.5h-2q3 -36 3 -87v-538h-70zM397.5 -70.5q15.5 -18.5 15.5 -49.5q0 -22 -10.5 -46.5t-30.5 -40.5h-39q44 32 48 77q-12 -12 -31 -12q-17 0 -29 12.5t-12 30.5
q0 21 13.5 34t34.5 13q25 0 40.5 -18.5z" />
    <glyph glyph-name="Odieresis.ss05" horiz-adv-x="740" 
d="M201.5 29q-72.5 46 -112 130t-39.5 196q0 114 39.5 198t111.5 129t169 45t169 -45t111.5 -129t39.5 -198q0 -113 -39.5 -197t-112 -129.5t-168.5 -45.5t-168.5 46zM498 86q54 37 82.5 106t28.5 163t-28.5 163t-82.5 106t-128 37t-128 -37t-82.5 -106t-28.5 -163
q0 -92 29 -161t83 -107t127 -38q74 0 128 37zM226 764.5q-15 15.5 -15 37.5t15 37t37 15t37 -15t15 -37t-15 -37.5t-37 -15.5t-37 15.5zM440 764.5q-15 15.5 -15 37.5t15 37t37 15t37 -15t15 -37t-15 -37.5t-37 -15.5t-37 15.5z" />
    <glyph glyph-name="uni1ECC.ss05" horiz-adv-x="740" 
d="M201.5 29q-72.5 46 -112 130t-39.5 196q0 114 39.5 198t111.5 129t169 45t169 -45t111.5 -129t39.5 -198q0 -113 -39.5 -197t-112 -129.5t-168.5 -45.5t-168.5 46zM498 86q54 37 82.5 106t28.5 163t-28.5 163t-82.5 106t-128 37t-128 -37t-82.5 -106t-28.5 -163
q0 -92 29 -161t83 -107t127 -38q74 0 128 37zM333 -143q-15 15 -15 38q0 22 15.5 37t37.5 15t37.5 -15t15.5 -37t-15.5 -37.5t-37.5 -15.5q-23 0 -38 15z" />
    <glyph glyph-name="uni0156.ss05" horiz-adv-x="630" 
d="M509 0l-179 303h-163v-303h-77v710h254q126 0 178.5 -57.5t52.5 -145.5q0 -69 -39.5 -123t-123.5 -71l185 -313h-88zM167 644v-275h170q81 0 118.5 37.5t37.5 100.5t-37 100t-119 37h-170zM357.5 -70.5q15.5 -18.5 15.5 -49.5q0 -22 -10.5 -46.5t-30.5 -40.5h-39
q44 32 48 77q-12 -12 -31 -12q-17 0 -29 12.5t-12 30.5q0 21 13.5 34t34.5 13q25 0 40.5 -18.5z" />
    <glyph glyph-name="uni0218.ss05" horiz-adv-x="612" 
d="M115.5 46q-71.5 63 -79.5 167l78 11q8 -78 59 -127.5t146 -49.5q74 0 122.5 34t48.5 100q0 65 -35.5 94.5t-108.5 43.5l-105 21q-175 34 -175 192q0 58 29.5 102t84 68.5t127.5 24.5q110 0 179 -51t78 -155l-78 -15q-15 159 -181 159q-72 0 -115.5 -34.5t-43.5 -93.5
q0 -53 30.5 -84.5t95.5 -45.5l105 -21q91 -18 142 -63t51 -134q0 -59 -29 -105.5t-86.5 -73.5t-138.5 -27q-129 0 -200.5 63zM371.5 -70.5q15.5 -18.5 15.5 -49.5q0 -22 -10.5 -46.5t-30.5 -40.5h-39q44 32 48 77q-12 -12 -31 -12q-17 0 -29 12.5t-12 30.5q0 21 13.5 34
t34.5 13q25 0 40.5 -18.5z" />
    <glyph glyph-name="uni021A.ss05" horiz-adv-x="554" 
d="M9 710h536v-66h-229v-644h-78v644h-229v66zM317.5 -70.5q15.5 -18.5 15.5 -49.5q0 -22 -10.5 -46.5t-30.5 -40.5h-39q44 32 48 77q-12 -12 -31 -12q-17 0 -29 12.5t-12 30.5q0 21 13.5 34t34.5 13q25 0 40.5 -18.5z" />
    <glyph glyph-name="Udieresis.ss05" horiz-adv-x="701" 
d="M85 710h77v-460q0 -92 49 -145t139 -53t139.5 53t49.5 145v460h78v-465q0 -120 -70 -191t-197 -71q-126 0 -195.5 71t-69.5 191v465zM207 764.5q-15 15.5 -15 37.5t15 37t37 15t37 -15t15 -37t-15 -37.5t-37 -15.5t-37 15.5zM421 764.5q-15 15.5 -15 37.5t15 37t37 15
t37 -15t15 -37t-15 -37.5t-37 -15.5t-37 15.5z" />
    <glyph glyph-name="uni1EE4.ss05" horiz-adv-x="701" 
d="M85 710h77v-460q0 -92 49 -145t139 -53t139.5 53t49.5 145v460h78v-465q0 -120 -70 -191t-197 -71q-126 0 -195.5 71t-69.5 191v465zM313 -143q-15 15 -15 38q0 22 15.5 37t37.5 15t37.5 -15t15.5 -37t-15.5 -37.5t-37.5 -15.5q-23 0 -38 15z" />
    <glyph glyph-name="Wdieresis.ss05" horiz-adv-x="899" 
d="M197 0l-177 710h80l137 -591q3 -14 6 -37h3q0 10 7 37l157 591h79l157 -591q6 -24 8 -37h2q3 23 6 37l138 591h79l-176 -710h-95l-151 577q-5 20 -6 33h-3q-1 -13 -6 -33l-150 -577h-95zM306 764.5q-15 15.5 -15 37.5t15 37t37 15t37 -15t15 -37t-15 -37.5t-37 -15.5
t-37 15.5zM520 764.5q-15 15.5 -15 37.5t15 37t37 15t37 -15t15 -37t-15 -37.5t-37 -15.5t-37 15.5z" />
    <glyph glyph-name="Ydieresis.ss05" horiz-adv-x="571" 
d="M246 0v285l-245 425h87l173 -307q11 -21 24 -48h2q8 21 23 48l173 307h87l-245 -425v-285h-79zM141 764.5q-15 15.5 -15 37.5t15 37t37 15t37 -15t15 -37t-15 -37.5t-37 -15.5t-37 15.5zM355 764.5q-15 15.5 -15 37.5t15 37t37 15t37 -15t15 -37t-15 -37.5t-37 -15.5
t-37 15.5z" />
    <glyph glyph-name="Zdotaccent.ss05" horiz-adv-x="558" 
d="M27 0v72l411 572h-397v66h481v-72l-413 -572h427v-66h-509zM244.5 771q-15.5 15 -15.5 37t15.5 37t37.5 15t37.5 -15t15.5 -37t-15.5 -37t-37.5 -15t-37.5 15z" />
    <glyph glyph-name="g.ss01" horiz-adv-x="563" 
d="M126 -168.5q-53 38.5 -63 114.5h72q10 -50 44.5 -72t93.5 -22q71 0 106 39t35 119v98q-19 -56 -61 -87t-101 -31q-61 0 -108.5 33.5t-74 93.5t-26.5 138q0 75 27.5 133.5t76 91t109.5 32.5q57 0 98.5 -28t61.5 -80l16 96h52v-490q0 -217 -213 -217q-92 0 -145 38.5z
M343 74.5q34 24.5 53 68.5t19 100v25q0 82 -40.5 132t-107.5 50q-69 0 -109.5 -52.5t-40.5 -142.5q0 -93 41 -149t108 -56q43 0 77 24.5z" />
    <glyph glyph-name="gbreve.ss01" horiz-adv-x="563" 
d="M126 -168.5q-53 38.5 -63 114.5h72q10 -50 44.5 -72t93.5 -22q71 0 106 39t35 119v98q-19 -56 -61 -87t-101 -31q-61 0 -108.5 33.5t-74 93.5t-26.5 138q0 75 27.5 133.5t76 91t109.5 32.5q57 0 98.5 -28t61.5 -80l16 96h52v-490q0 -217 -213 -217q-92 0 -145 38.5z
M343 74.5q34 24.5 53 68.5t19 100v25q0 82 -40.5 132t-107.5 50q-69 0 -109.5 -52.5t-40.5 -142.5q0 -93 41 -149t108 -56q43 0 77 24.5zM200 723q3 -48 26 -72.5t61 -24.5q39 0 61.5 24.5t24.5 72.5h60q-4 -75 -43.5 -111.5t-102.5 -36.5t-103 36.5t-43 111.5h59z" />
    <glyph glyph-name="gcircumflex.ss01" horiz-adv-x="563" 
d="M126 -168.5q-53 38.5 -63 114.5h72q10 -50 44.5 -72t93.5 -22q71 0 106 39t35 119v98q-19 -56 -61 -87t-101 -31q-61 0 -108.5 33.5t-74 93.5t-26.5 138q0 75 27.5 133.5t76 91t109.5 32.5q57 0 98.5 -28t61.5 -80l16 96h52v-490q0 -217 -213 -217q-92 0 -145 38.5z
M343 74.5q34 24.5 53 68.5t19 100v25q0 82 -40.5 132t-107.5 50q-69 0 -109.5 -52.5t-40.5 -142.5q0 -93 41 -149t108 -56q43 0 77 24.5zM322 723l112 -143h-66l-82 107l-81 -107h-66l111 143h72z" />
    <glyph glyph-name="uni0123.ss01" horiz-adv-x="563" 
d="M126 -168.5q-53 38.5 -63 114.5h72q10 -50 44.5 -72t93.5 -22q71 0 106 39t35 119v98q-19 -56 -61 -87t-101 -31q-61 0 -108.5 33.5t-74 93.5t-26.5 138q0 75 27.5 133.5t76 91t109.5 32.5q57 0 98.5 -28t61.5 -80l16 96h52v-490q0 -217 -213 -217q-92 0 -145 38.5z
M343 74.5q34 24.5 53 68.5t19 100v25q0 82 -40.5 132t-107.5 50q-69 0 -109.5 -52.5t-40.5 -142.5q0 -93 41 -149t108 -56q43 0 77 24.5zM325 728q-25 -10 -32.5 -23t-7.5 -39h42v-86h-80v78q0 39 13 63.5t47 38.5z" />
    <glyph glyph-name="gdotaccent.ss01" horiz-adv-x="563" 
d="M126 -168.5q-53 38.5 -63 114.5h72q10 -50 44.5 -72t93.5 -22q71 0 106 39t35 119v98q-19 -56 -61 -87t-101 -31q-61 0 -108.5 33.5t-74 93.5t-26.5 138q0 75 27.5 133.5t76 91t109.5 32.5q57 0 98.5 -28t61.5 -80l16 96h52v-490q0 -217 -213 -217q-92 0 -145 38.5z
M343 74.5q34 24.5 53 68.5t19 100v25q0 82 -40.5 132t-107.5 50q-69 0 -109.5 -52.5t-40.5 -142.5q0 -93 41 -149t108 -56q43 0 77 24.5zM325 590h-79v110h79v-110z" />
    <glyph glyph-name="adieresis.ss05" horiz-adv-x="532" 
d="M94.5 27.5q-45.5 39.5 -45.5 104.5q0 36 15.5 64.5t45.5 47.5q53 31 165 45l110 13v8q0 77 -28.5 110.5t-92.5 33.5q-57 0 -89.5 -28.5t-35.5 -81.5h-75q5 77 59 122.5t140 45.5q101 0 146.5 -49t45.5 -158v-130q0 -115 16 -175h-73q-6 44 -8 100q-19 -53 -65 -82.5
t-110 -29.5q-75 0 -120.5 39.5zM343.5 93.5q42.5 47.5 42.5 124.5v32l-142 -20q-64 -9 -93 -32t-29 -64t29.5 -64.5t79.5 -23.5q70 0 112.5 47.5zM127.5 616q-15.5 15 -15.5 37t15.5 37t37.5 15t37.5 -15t15.5 -37t-15.5 -37t-37.5 -15t-37.5 15zM328.5 616
q-15.5 15 -15.5 37t15 37t38 15q21 0 36.5 -15t15.5 -37t-15.5 -37t-36.5 -15q-22 0 -37.5 15z" />
    <glyph glyph-name="uni1EA1.ss05" horiz-adv-x="532" 
d="M94.5 27.5q-45.5 39.5 -45.5 104.5q0 36 15.5 64.5t45.5 47.5q53 31 165 45l110 13v8q0 77 -28.5 110.5t-92.5 33.5q-57 0 -89.5 -28.5t-35.5 -81.5h-75q5 77 59 122.5t140 45.5q101 0 146.5 -49t45.5 -158v-130q0 -115 16 -175h-73q-6 44 -8 100q-19 -53 -65 -82.5
t-110 -29.5q-75 0 -120.5 39.5zM343.5 93.5q42.5 47.5 42.5 124.5v32l-142 -20q-64 -9 -93 -32t-29 -64t29.5 -64.5t79.5 -23.5q70 0 112.5 47.5zM230 -143q-15 15 -15 38q0 22 15.5 37t37.5 15t37.5 -15t15.5 -37t-15.5 -37.5t-37.5 -15.5q-23 0 -38 15z" />
    <glyph glyph-name="cdotaccent.ss05" horiz-adv-x="520" 
d="M153.5 20q-51.5 32 -79 91t-27.5 139q0 122 60.5 192t165.5 70q86 0 140 -48t63 -133l-71 -8q-7 62 -42 95t-92 33q-70 0 -110 -53t-40 -147q0 -96 40.5 -149t112.5 -53q56 0 90.5 33t44.5 95l67 -10q-14 -85 -67 -132t-136 -47q-68 0 -119.5 32zM234 614q-16 16 -16 39
t16 39t40 16q22 0 38.5 -16t16.5 -39q0 -22 -16.5 -38.5t-38.5 -16.5q-24 0 -40 16z" />
    <glyph glyph-name="edieresis.ss05" horiz-adv-x="528" 
d="M480 232h-363q1 -84 44 -133t115 -49q53 0 89.5 28t52.5 79l59 -24q-23 -70 -76 -107.5t-129 -37.5q-107 0 -166 67t-59 192q0 123 59 194t163 71q101 0 156 -59.5t55 -172.5v-48zM409 289v9q0 77 -37 117.5t-105 40.5q-69 0 -108.5 -44.5t-41.5 -122.5h292zM125.5 616
q-15.5 15 -15.5 37t15.5 37t37.5 15t37.5 -15t15.5 -37t-15.5 -37t-37.5 -15t-37.5 15zM326.5 616q-15.5 15 -15.5 37t15 37t38 15q21 0 36.5 -15t15.5 -37t-15.5 -37t-36.5 -15q-22 0 -37.5 15z" />
    <glyph glyph-name="edotaccent.ss05" horiz-adv-x="528" 
d="M480 232h-363q1 -84 44 -133t115 -49q53 0 89.5 28t52.5 79l59 -24q-23 -70 -76 -107.5t-129 -37.5q-107 0 -166 67t-59 192q0 123 59 194t163 71q101 0 156 -59.5t55 -172.5v-48zM409 289v9q0 77 -37 117.5t-105 40.5q-69 0 -108.5 -44.5t-41.5 -122.5h292zM224 614
q-16 16 -16 39t16 39t40 16q22 0 38.5 -16t16.5 -39q0 -22 -16.5 -38.5t-38.5 -16.5q-24 0 -40 16z" />
    <glyph glyph-name="uni1EB9.ss05" horiz-adv-x="528" 
d="M480 232h-363q1 -84 44 -133t115 -49q53 0 89.5 28t52.5 79l59 -24q-23 -70 -76 -107.5t-129 -37.5q-107 0 -166 67t-59 192q0 123 59 194t163 71q101 0 156 -59.5t55 -172.5v-48zM409 289v9q0 77 -37 117.5t-105 40.5q-69 0 -108.5 -44.5t-41.5 -122.5h292zM226 -143
q-15 15 -15 38q0 22 15.5 37t37.5 15t37.5 -15t15.5 -37t-15.5 -37.5t-37.5 -15.5q-23 0 -38 15z" />
    <glyph glyph-name="uni0123.ss05" horiz-adv-x="513" 
d="M386 465q50 -47 50 -121t-49.5 -121.5t-132.5 -47.5q-54 0 -96 22q-20 -8 -31.5 -22t-11.5 -33q0 -26 21 -41.5t64 -15.5h131q80 0 121.5 -35t41.5 -101q0 -73 -60 -114.5t-181 -41.5q-117 0 -170 38t-53 101q0 37 21.5 65t61.5 41q-30 12 -45 34.5t-15 51.5q0 34 19 59
t52 37q-52 49 -52 124q0 74 49.5 121t132.5 47q56 0 98 -22q12 41 41.5 65.5t76.5 24.5q14 0 29 -3v-62q-18 4 -31 4q-62 0 -82 -54zM338 260.5q32 31.5 32 82.5t-32 83t-84 32t-84 -31.5t-32 -82.5t32 -83t84 -32t84 31.5zM198 24q-15 0 -39 2q-30 -12 -45.5 -34t-15.5 -48
q0 -93 163 -93q88 0 125.5 24.5t37.5 69.5q0 39 -27 59t-81 20h-118zM291.5 649q11.5 -12 11.5 -30q0 -20 -13 -33t-34 -13q-25 0 -40 18.5t-15 48.5q0 22 10 46t30 40h39q-44 -33 -48 -77q12 12 31 12q17 0 28.5 -12z" />
    <glyph glyph-name="gdotaccent.ss05" horiz-adv-x="513" 
d="M386 465q50 -47 50 -121t-49.5 -121.5t-132.5 -47.5q-54 0 -96 22q-20 -8 -31.5 -22t-11.5 -33q0 -26 21 -41.5t64 -15.5h131q80 0 121.5 -35t41.5 -101q0 -73 -60 -114.5t-181 -41.5q-117 0 -170 38t-53 101q0 37 21.5 65t61.5 41q-30 12 -45 34.5t-15 51.5q0 34 19 59
t52 37q-52 49 -52 124q0 74 49.5 121t132.5 47q56 0 98 -22q12 41 41.5 65.5t76.5 24.5q14 0 29 -3v-62q-18 4 -31 4q-62 0 -82 -54zM338 260.5q32 31.5 32 82.5t-32 83t-84 32t-84 -31.5t-32 -82.5t32 -83t84 -32t84 31.5zM198 24q-15 0 -39 2q-30 -12 -45.5 -34t-15.5 -48
q0 -93 163 -93q88 0 125.5 24.5t37.5 69.5q0 39 -27 59t-81 20h-118zM214 614q-16 16 -16 39t16 39t40 16q22 0 38.5 -16t16.5 -39q0 -22 -16.5 -38.5t-38.5 -16.5q-24 0 -40 16z" />
    <glyph glyph-name="i.ss05" horiz-adv-x="229" 
d="M149 0h-69v500h69v-500zM75 614q-16 16 -16 39t16 39t40 16q22 0 38.5 -16t16.5 -39q0 -22 -16.5 -38.5t-38.5 -16.5q-24 0 -40 16z" />
    <glyph glyph-name="idieresis.ss05" horiz-adv-x="229" 
d="M149 0h-69v500h69v-500zM-22.5 616q-15.5 15 -15.5 37t15.5 37t37.5 15t37.5 -15t15.5 -37t-15.5 -37t-37.5 -15t-37.5 15zM178.5 616q-15.5 15 -15.5 37t15 37t38 15q21 0 36.5 -15t15.5 -37t-15.5 -37t-36.5 -15q-22 0 -37.5 15z" />
    <glyph glyph-name="i.loclTRK.ss05" horiz-adv-x="229" 
d="M149 0h-69v500h69v-500zM75 614q-16 16 -16 39t16 39t40 16q22 0 38.5 -16t16.5 -39q0 -22 -16.5 -38.5t-38.5 -16.5q-24 0 -40 16z" />
    <glyph glyph-name="uni1ECB.ss05" horiz-adv-x="229" 
d="M149 0h-69v500h69v-500zM75 614q-16 16 -16 39t16 39t40 16q22 0 38.5 -16t16.5 -39q0 -22 -16.5 -38.5t-38.5 -16.5q-24 0 -40 16zM77 -143q-15 15 -15 38q0 22 15.5 37t37.5 15t37.5 -15t15.5 -37t-15.5 -37.5t-37.5 -15.5q-23 0 -38 15z" />
    <glyph glyph-name="ij.ss05" horiz-adv-x="464" 
d="M149 0h-69v500h69v-500zM75 614q-16 16 -16 39t16 39t40 16q22 0 38.5 -16t16.5 -39q0 -22 -16.5 -38.5t-38.5 -16.5q-24 0 -40 16zM204 -196v60q39 -3 47 -3q33 0 48.5 19t15.5 68v552h69v-560q0 -64 -29 -103t-93 -39q-35 0 -58 6zM310 614q-16 16 -16 39t16 39t40 16
q22 0 38.5 -16t16.5 -39q0 -22 -16.5 -38.5t-38.5 -16.5q-24 0 -40 16z" />
    <glyph glyph-name="iogonek.ss05" horiz-adv-x="229" 
d="M75 614q-16 16 -16 39t16 39t40 16q23 0 39 -16t16 -39q0 -22 -16 -38.5t-39 -16.5q-24 0 -40 16zM174 -110q-14 -93 -100 -93q-43 0 -69 23t-26 62q0 37 25.5 68.5t75.5 51.5v498h69v-500h-3q-50 -9 -81.5 -42t-31.5 -69q0 -22 12 -34t32 -12q39 0 47 53z" />
    <glyph glyph-name="j.ss05" horiz-adv-x="235" 
d="M-25 -196v60q39 -3 47 -3q33 0 48.5 19t15.5 68v552h69v-560q0 -64 -29 -103t-93 -39q-35 0 -58 6zM81 614q-16 16 -16 39t16 39t40 16q22 0 38.5 -16t16.5 -39q0 -22 -16.5 -38.5t-38.5 -16.5q-24 0 -40 16z" />
    <glyph glyph-name="uni0137.ss05" horiz-adv-x="515" 
d="M496 0h-86l-160 258l-101 -101v-157h-69v725h69v-486l242 261h92l-184 -192zM290.5 -70.5q15.5 -18.5 15.5 -49.5q0 -22 -10.5 -46.5t-30.5 -40.5h-39q44 32 48 77q-12 -12 -31 -12q-17 0 -29 12.5t-12 30.5q0 21 13.5 34t34.5 13q25 0 40.5 -18.5z" />
    <glyph glyph-name="uni013C.ss05" horiz-adv-x="229" 
d="M80 725h69v-725h-69v725zM155.5 -70.5q15.5 -18.5 15.5 -49.5q0 -22 -10.5 -46.5t-30.5 -40.5h-39q44 32 48 77q-12 -12 -31 -12q-17 0 -29 12.5t-12 30.5q0 21 13.5 34t34.5 13q25 0 40.5 -18.5z" />
    <glyph glyph-name="ldot.ss05" horiz-adv-x="241" 
d="M80 725h69v-725h-69v725zM194.5 324q-16.5 17 -16.5 41t16.5 41t40.5 17t40.5 -17t16.5 -41t-16.5 -41t-40.5 -17t-40.5 17z" />
    <glyph glyph-name="napostrophe.ss05" horiz-adv-x="769" 
d="M165 686.5q19 -23.5 19 -63.5q0 -112 -114 -153l-13 34q86 32 87 108q-15 -16 -39 -16q-22 0 -36.5 16t-14.5 41q0 24 17 40.5t43 16.5q32 0 51 -23.5zM292 0v500h66v-110q45 122 171 122q84 0 127 -51.5t43 -151.5v-309h-70v305q0 73 -31 110t-90 37q-68 0 -107.5 -50.5
t-39.5 -138.5v-263h-69z" />
    <glyph glyph-name="uni0146.ss05" horiz-adv-x="556" 
d="M80 0v500h66v-110q45 122 171 122q84 0 127 -51.5t43 -151.5v-309h-70v305q0 73 -31 110t-90 37q-68 0 -107.5 -50.5t-39.5 -138.5v-263h-69zM316.5 -70.5q15.5 -18.5 15.5 -49.5q0 -22 -10.5 -46.5t-30.5 -40.5h-39q44 32 48 77q-12 -12 -31 -12q-17 0 -29 12.5
t-12 30.5q0 21 13.5 34t34.5 13q25 0 40.5 -18.5z" />
    <glyph glyph-name="odieresis.ss05" horiz-adv-x="553" 
d="M155.5 19.5q-51.5 31.5 -80 91t-28.5 139.5t28.5 139.5t80 91t120.5 31.5t121 -31.5t80.5 -91t28.5 -139.5t-28.5 -139.5t-80.5 -91t-121 -31.5t-120.5 31.5zM390.5 101q41.5 52 41.5 149t-41.5 149t-114.5 52t-114 -52t-41 -149t41 -149t114 -52t114.5 52zM138.5 616
q-15.5 15 -15.5 37t15.5 37t37.5 15t37.5 -15t15.5 -37t-15.5 -37t-37.5 -15t-37.5 15zM339.5 616q-15.5 15 -15.5 37t15 37t38 15q21 0 36.5 -15t15.5 -37t-15.5 -37t-36.5 -15q-22 0 -37.5 15z" />
    <glyph glyph-name="uni1ECD.ss05" horiz-adv-x="553" 
d="M155.5 19.5q-51.5 31.5 -80 91t-28.5 139.5t28.5 139.5t80 91t120.5 31.5t121 -31.5t80.5 -91t28.5 -139.5t-28.5 -139.5t-80.5 -91t-121 -31.5t-120.5 31.5zM390.5 101q41.5 52 41.5 149t-41.5 149t-114.5 52t-114 -52t-41 -149t41 -149t114 -52t114.5 52zM239 -143
q-15 15 -15 38q0 22 15.5 37t37.5 15t37.5 -15t15.5 -37t-15.5 -37.5t-37.5 -15.5q-23 0 -38 15z" />
    <glyph glyph-name="uni0157.ss05" horiz-adv-x="335" 
d="M145 378q18 60 58.5 97t96.5 37q12 0 19 -1v-68h-8q-67 0 -107 -38q-32 -32 -43.5 -76.5t-11.5 -99.5v-229h-69v500h65v-122zM155.5 -70.5q15.5 -18.5 15.5 -49.5q0 -22 -10.5 -46.5t-30.5 -40.5h-39q44 32 48 77q-12 -12 -31 -12q-17 0 -29 12.5t-12 30.5q0 21 13.5 34
t34.5 13q25 0 40.5 -18.5z" />
    <glyph glyph-name="uni0219.ss05" horiz-adv-x="480" 
d="M106.5 28.5q-55.5 40.5 -66.5 114.5l70 12q9 -53 45.5 -81t96.5 -28q54 0 84 23.5t30 61.5q0 36 -20 54t-61 26l-97 19q-63 12 -96.5 46.5t-33.5 90.5q0 64 50 104.5t134 40.5q83 0 134.5 -36t58.5 -102l-69 -15q-8 46 -40.5 71t-86.5 25q-51 0 -82 -23t-31 -62
q0 -34 21 -53t62 -27l98 -19q66 -13 97 -46t31 -88q0 -68 -49 -108.5t-136 -40.5q-88 0 -143.5 40.5zM299.5 -70.5q15.5 -18.5 15.5 -49.5q0 -22 -10.5 -46.5t-30.5 -40.5h-39q44 32 48 77q-12 -12 -31 -12q-17 0 -29 12.5t-12 30.5q0 21 13.5 34t34.5 13q25 0 40.5 -18.5z
" />
    <glyph glyph-name="uni0123.ss01.ss05" horiz-adv-x="563" 
d="M126 -168.5q-53 38.5 -63 114.5h72q10 -50 44.5 -72t93.5 -22q71 0 106 39t35 119v98q-19 -56 -61 -87t-101 -31q-61 0 -108.5 33.5t-74 93.5t-26.5 138q0 75 27.5 133.5t76 91t109.5 32.5q57 0 98.5 -28t61.5 -80l16 96h52v-490q0 -217 -213 -217q-92 0 -145 38.5z
M343 74.5q34 24.5 53 68.5t19 100v25q0 82 -40.5 132t-107.5 50q-69 0 -109.5 -52.5t-40.5 -142.5q0 -93 41 -149t108 -56q43 0 77 24.5zM324.5 649q11.5 -12 11.5 -30q0 -20 -13 -33t-34 -13q-25 0 -40 18.5t-15 48.5q0 22 10 46t30 40h39q-44 -33 -48 -77q12 12 31 12
q17 0 28.5 -12z" />
    <glyph glyph-name="gdotaccent.ss01.ss05" horiz-adv-x="563" 
d="M126 -168.5q-53 38.5 -63 114.5h72q10 -50 44.5 -72t93.5 -22q71 0 106 39t35 119v98q-19 -56 -61 -87t-101 -31q-61 0 -108.5 33.5t-74 93.5t-26.5 138q0 75 27.5 133.5t76 91t109.5 32.5q57 0 98.5 -28t61.5 -80l16 96h52v-490q0 -217 -213 -217q-92 0 -145 38.5z
M343 74.5q34 24.5 53 68.5t19 100v25q0 82 -40.5 132t-107.5 50q-69 0 -109.5 -52.5t-40.5 -142.5q0 -93 41 -149t108 -56q43 0 77 24.5zM247 614q-16 16 -16 39t16 39t40 16q22 0 38.5 -16t16.5 -39q0 -22 -16.5 -38.5t-38.5 -16.5q-24 0 -40 16z" />
    <glyph glyph-name="uni021B.ss05" horiz-adv-x="343" 
d="M19 442v58h93v132l70 30v-162h128v-58h-128v-300q0 -44 19.5 -64.5t58.5 -20.5q25 0 50 6v-63q-31 -9 -69 -9q-69 0 -99 38.5t-30 109.5v303h-93zM272.5 -70.5q15.5 -18.5 15.5 -49.5q0 -22 -10.5 -46.5t-30.5 -40.5h-39q44 32 48 77q-12 -12 -31 -12q-17 0 -29 12.5
t-12 30.5q0 21 13.5 34t34.5 13q25 0 40.5 -18.5z" />
    <glyph glyph-name="udieresis.ss05" horiz-adv-x="549" 
d="M110.5 38.5q-40.5 50.5 -40.5 144.5v317h69v-310q0 -71 30.5 -106.5t83.5 -35.5q67 0 106.5 50.5t39.5 128.5v273h70v-500h-66v103q-18 -51 -62 -83t-100 -32q-90 0 -130.5 50.5zM132.5 616q-15.5 15 -15.5 37t15.5 37t37.5 15t37.5 -15t15.5 -37t-15.5 -37t-37.5 -15
t-37.5 15zM333.5 616q-15.5 15 -15.5 37t15 37t38 15q21 0 36.5 -15t15.5 -37t-15.5 -37t-36.5 -15q-22 0 -37.5 15z" />
    <glyph glyph-name="uni1EE5.ss05" horiz-adv-x="549" 
d="M110.5 38.5q-40.5 50.5 -40.5 144.5v317h69v-310q0 -71 30.5 -106.5t83.5 -35.5q67 0 106.5 50.5t39.5 128.5v273h70v-500h-66v103q-18 -51 -62 -83t-100 -32q-90 0 -130.5 50.5zM238 -143q-15 15 -15 38q0 22 15.5 37t37.5 15t37.5 -15t15.5 -37t-15.5 -37.5
t-37.5 -15.5q-23 0 -38 15z" />
    <glyph glyph-name="wdieresis.ss05" horiz-adv-x="713" 
d="M164 0l-144 500h72l99 -369q10 -43 12 -60h2q1 5 9 38l5 22l101 369h74l100 -369q11 -40 14 -60h2q2 17 12 60l99 369h72l-144 -500h-76l-104 374q-8 33 -11 55h-2l-12 -55l-104 -374h-76zM219.5 616q-15.5 15 -15.5 37t15.5 37t37.5 15t37.5 -15t15.5 -37t-15.5 -37
t-37.5 -15t-37.5 15zM420.5 616q-15.5 15 -15.5 37t15 37t38 15q21 0 36.5 -15t15.5 -37t-15.5 -37t-36.5 -15q-22 0 -37.5 15z" />
    <glyph glyph-name="ydieresis.ss05" horiz-adv-x="466" 
d="M38 -196v62q18 -3 35 -3q47 0 74 25t46 79l13 37l-200 496h78l134 -357q13 -34 22 -68h2q7 28 21 69l122 356h75l-195 -532q-33 -91 -76.5 -129.5t-106.5 -38.5q-24 0 -44 4zM95.5 616q-15.5 15 -15.5 37t15.5 37t37.5 15t37.5 -15t15.5 -37t-15.5 -37t-37.5 -15
t-37.5 15zM296.5 616q-15.5 15 -15.5 37t15 37t38 15q21 0 36.5 -15t15.5 -37t-15.5 -37t-36.5 -15q-22 0 -37.5 15z" />
    <glyph glyph-name="zdotaccent.ss05" horiz-adv-x="445" 
d="M34 0v54l285 387h-274v59h358v-52l-283 -388h297v-60h-383zM183 614q-16 16 -16 39t16 39t40 16q22 0 38.5 -16t16.5 -39q0 -22 -16.5 -38.5t-38.5 -16.5q-24 0 -40 16z" />
    <glyph glyph-name="g_g.liga.ss01" horiz-adv-x="1126" 
d="M126 -168.5q-53 38.5 -63 114.5h72q10 -50 44.5 -72t93.5 -22q71 0 106 39t35 119v98q-19 -56 -61 -87t-101 -31q-61 0 -108.5 33.5t-74 93.5t-26.5 138q0 75 27.5 133.5t76 91t109.5 32.5q57 0 98.5 -28t61.5 -80l16 96h52v-490q0 -217 -213 -217q-92 0 -145 38.5z
M343 74.5q34 24.5 53 68.5t19 100v25q0 82 -40.5 132t-107.5 50q-69 0 -109.5 -52.5t-40.5 -142.5q0 -93 41 -149t108 -56q43 0 77 24.5zM689 -168.5q-53 38.5 -63 114.5h72q10 -50 44.5 -72t93.5 -22q71 0 106 39t35 119v98q-19 -56 -61 -87t-101 -31q-61 0 -108.5 33.5
t-74 93.5t-26.5 138q0 75 27.5 133.5t76 91t109.5 32.5q57 0 98.5 -28t61.5 -80l16 96h52v-490q0 -217 -213 -217q-92 0 -145 38.5zM906 74.5q34 24.5 53 68.5t19 100v25q0 82 -40.5 132t-107.5 50q-69 0 -109.5 -52.5t-40.5 -142.5q0 -93 41 -149t108 -56q43 0 77 24.5z
" />
    <glyph glyph-name="fi.ss05" horiz-adv-x="564" 
d="M315 500v-58h-130v-442h-70v442h-93v58h93v83q0 68 38 108t103 40q35 0 59 -7v-60q-28 5 -51 5q-41 0 -60 -23t-19 -72v-74h130zM484 0h-69v500h69v-500zM410 614q-16 16 -16 39t16 39t40 16q22 0 38.5 -16t16.5 -39q0 -22 -16.5 -38.5t-38.5 -16.5q-24 0 -40 16z" />
    <glyph glyph-name="g.sups.ss01" horiz-adv-x="470" 
d="M59 269h61q16 -67 102 -67q107 0 107 112v72q-13 -38 -46 -59t-79 -21q-71 0 -115 52.5t-44 137.5t44.5 136.5t116.5 51.5q46 0 79 -21.5t47 -59.5l7 72h53v-355q0 -161 -171 -161q-147 0 -162 110zM299.5 386.5q30.5 37.5 30.5 97.5v21q0 60 -29.5 96t-78.5 36
q-52 0 -82 -38t-30 -104t30 -106t80 -40q49 0 79.5 37.5z" />
    <glyph glyph-name="i.sups.ss05" horiz-adv-x="222" 
d="M76 750.5q-14 13.5 -14 32.5t14 32.5t34 13.5t33 -13t13 -33q0 -19 -13 -32.5t-33 -13.5t-34 13.5zM142 310h-62v365h62v-365z" />
    <glyph glyph-name="j.sups.ss05" horiz-adv-x="234" 
d="M75.5 750q-13.5 13 -13.5 33t13.5 33t33.5 13t33.5 -13.5t13.5 -32.5t-13.5 -32.5t-33.5 -13.5t-33.5 13zM-10 167v48q21 -3 33 -3q27 0 41 15.5t14 50.5v397h63v-403q0 -109 -106 -109q-30 0 -45 4z" />
    <glyph glyph-name="a.sups" horiz-adv-x="434" 
d="M81 330q-34 29 -34 76q0 53 39.5 77.5t114.5 33.5l100 13l1 8q0 54 -21 77.5t-67 23.5q-42 0 -66.5 -20.5t-25.5 -59.5h-64q3 59 44.5 92t111.5 33q78 0 114 -36t36 -114v-101q0 -75 10 -123h-62q-6 41 -7 76q-14 -40 -49 -62.5t-84 -22.5q-57 0 -91 29zM272 377.5
q31 32.5 31 83.5v33l-97 -13q-49 -7 -72 -24t-23 -47q0 -29 21.5 -47t58.5 -18q50 0 81 32.5z" />
    <glyph glyph-name="b.sups" horiz-adv-x="473" 
d="M191.5 322.5q-34.5 21.5 -48.5 57.5l-6 -70h-53v529h62v-234q14 36 48 57.5t80 21.5q71 0 112.5 -52.5t41.5 -139.5t-43 -139t-115 -52q-44 0 -78.5 21.5zM333.5 386.5q29.5 38.5 29.5 105.5t-28.5 105.5t-80.5 38.5q-49 0 -79 -37t-30 -97v-21q0 -60 29.5 -96.5
t78.5 -36.5q51 0 80.5 38.5z" />
    <glyph glyph-name="c.sups" horiz-adv-x="425" 
d="M93 352q-47 51 -47 140q0 90 46.5 141t129.5 51q67 0 109 -34.5t49 -96.5l-61 -10q-5 45 -31 68.5t-68 23.5q-52 0 -81.5 -37.5t-29.5 -102.5q0 -68 30 -106.5t83 -38.5q41 0 67 24t32 68l59 -11q-10 -61 -52 -95.5t-106 -34.5q-82 0 -129 51z" />
    <glyph glyph-name="d.sups" horiz-adv-x="473" 
d="M87.5 353.5q-42.5 52.5 -42.5 138.5t44 139t117 53q44 0 75.5 -19t46.5 -57v231h62v-529h-60v75q-14 -39 -49 -61.5t-80 -22.5q-71 0 -113.5 52.5zM299.5 386q29.5 38 29.5 95v21q0 60 -29 97.5t-79 37.5q-52 0 -81.5 -38.5t-29.5 -105.5t29.5 -106t81.5 -39
q49 0 78.5 38z" />
    <glyph glyph-name="e.sups" horiz-adv-x="431" 
d="M382 480h-274q1 -61 32 -95t84 -34q40 1 66.5 21t37.5 57l51 -20q-16 -51 -57.5 -79.5t-98.5 -28.5q-85 0 -131 50.5t-46 142.5q0 88 46 139t125 51t122 -48t43 -135v-21zM318 522q0 56 -27 87.5t-75 31.5q-47 0 -77 -32.5t-31 -86.5h210z" />
    <glyph glyph-name="f.sups" horiz-adv-x="288" 
d="M259 675v-46h-98v-319h-62v319h-68v46h68v55q0 54 30 84t85 30q24 0 45 -6v-48q-15 4 -35 4q-32 0 -47.5 -16.5t-15.5 -51.5v-51h98z" />
    <glyph glyph-name="g.sups" horiz-adv-x="428" 
d="M314 653q21 -16 32.5 -39.5t11.5 -51.5q0 -55 -40 -88.5t-108 -33.5q-42 0 -76 14q-12 -5 -19.5 -14.5t-7.5 -21.5q0 -18 15.5 -29t44.5 -11h107q61 0 93 -25.5t32 -73.5q0 -57 -48 -88.5t-142 -31.5q-87 0 -130.5 26t-43.5 71q0 27 17 46t50 28q-25 9 -37.5 25.5
t-12.5 38.5q0 26 15.5 45t42.5 29q-23 16 -35.5 40t-12.5 54q0 54 40.5 88t107.5 34q44 0 79 -16q8 31 33 48.5t62 17.5q11 0 16 -1v-49q-8 1 -23 1q-45 0 -63 -32zM271.5 502.5q23.5 22.5 23.5 58.5q0 37 -23.5 60t-61.5 23t-61 -22.5t-23 -59.5q0 -36 23 -59t61 -23
t61.5 22.5zM157 322q-12 0 -28 2q-36 -19 -36 -55q0 -67 120 -67q126 0 126 66q0 26 -18.5 40t-55.5 14h-108z" />
    <glyph glyph-name="h.sups" horiz-adv-x="473" 
d="M84 310v529h62v-235q16 39 50 60t81 21q62 0 94 -37.5t32 -110.5v-227h-62v221q0 51 -22.5 77.5t-65.5 26.5q-49 0 -78 -35.5t-29 -94.5v-195h-62z" />
    <glyph glyph-name="i.sups" horiz-adv-x="222" 
d="M145 733h-67v93h67v-93zM142 310h-62v365h62v-365z" />
    <glyph glyph-name="j.sups" horiz-adv-x="221" 
d="M143 733h-66v93h66v-93zM-10 167v48q21 -3 33 -3q27 0 41 15.5t14 50.5v397h63v-403q0 -109 -106 -109q-30 0 -45 4z" />
    <glyph glyph-name="k.sups" horiz-adv-x="430" 
d="M409 310h-72l-119 185l-72 -72v-113h-62v529h62v-351l178 187h76l-138 -141z" />
    <glyph glyph-name="l.sups" horiz-adv-x="230" 
d="M84 839h62v-529h-62v529z" />
    <glyph glyph-name="m.sups" horiz-adv-x="671" 
d="M78 675h60v-66q14 36 44 56t73 20q41 0 69 -18.5t40 -53.5q34 72 120 72q56 0 86.5 -36t30.5 -102v-237h-62v226q0 48 -20 73t-59 25q-41 0 -65.5 -27t-24.5 -73v-224h-61v229q0 46 -19.5 70.5t-57.5 24.5q-42 0 -66.5 -30.5t-24.5 -83.5v-210h-63v365z" />
    <glyph glyph-name="n.sups" horiz-adv-x="467" 
d="M78 310v365h60v-74q34 84 132 84q63 0 95.5 -38.5t32.5 -112.5v-224h-63v218q0 106 -89 106q-49 0 -76.5 -34.5t-27.5 -94.5v-195h-64z" />
    <glyph glyph-name="o.sups" horiz-adv-x="444" 
d="M94 352q-48 51 -48 141q0 89 48 140t128 51t128 -51t48 -140q0 -90 -48 -141t-128 -51t-128 51zM305.5 385.5q30.5 37.5 30.5 107.5q0 69 -30.5 106.5t-83.5 37.5t-83.5 -37.5t-30.5 -106.5q0 -70 30.5 -107.5t83.5 -37.5t83.5 37.5z" />
    <glyph glyph-name="p.sups" horiz-adv-x="468" 
d="M78 168v507h60v-74q16 39 51 61t81 22q70 0 111.5 -52.5t41.5 -138.5q0 -87 -43 -139.5t-114 -52.5q-44 0 -77.5 20t-47.5 54v-207h-63zM328.5 387q29.5 39 29.5 106t-28 105.5t-79 38.5q-52 0 -82 -38.5t-30 -97.5v-16q0 -59 29.5 -98t80.5 -39q50 0 79.5 39z" />
    <glyph glyph-name="q.sups" horiz-adv-x="468" 
d="M328 381q-14 -37 -48.5 -58.5t-80.5 -21.5q-70 0 -112 52.5t-42 138.5t43.5 139t115.5 53q47 0 79 -19.5t47 -58.5l8 69h52v-507h-62v213zM299 385.5q30 37.5 30 95.5v23q0 59 -29.5 96t-80.5 37t-80 -38.5t-29 -105.5t29 -106t80 -39q50 0 80 37.5z" />
    <glyph glyph-name="r.sups" horiz-adv-x="301" 
d="M137 586q13 45 45 71.5t78 26.5q7 0 12 -1v-60l-15 1q-45 0 -75 -25q-41 -40 -41 -116v-173h-63v365h59v-89z" />
    <glyph glyph-name="s.sups" horiz-adv-x="390" 
d="M95.5 329q-41.5 28 -56.5 81l46 24q12 -41 42 -62.5t76 -21.5q41 0 62.5 14.5t21.5 42.5q0 27 -16 41t-55 19l-50 8q-111 16 -111 105q0 48 38 76t103 28q59 0 98 -23.5t54 -69.5l-45 -26q-24 72 -109 72q-38 0 -59.5 -14.5t-21.5 -40.5q0 -24 16.5 -37t54.5 -19l55 -8
q55 -8 80.5 -34.5t25.5 -73.5q0 -51 -37.5 -80t-105.5 -29q-65 0 -106.5 28z" />
    <glyph glyph-name="t.sups" horiz-adv-x="291" 
d="M25 630v45h69v95l61 24v-119h96v-45h-96v-211q0 -64 61 -64q11 0 35 4v-49q-24 -7 -51 -7q-106 0 -106 104v223h-69z" />
    <glyph glyph-name="u.sups" horiz-adv-x="466" 
d="M329 381q-15 -36 -49 -58t-79 -22q-67 0 -99 37t-32 105v232h62v-223q0 -52 24 -76.5t63 -24.5q50 0 79 34t29 84v206h61v-365h-59v71z" />
    <glyph glyph-name="v.sups" horiz-adv-x="388" 
d="M160 310l-141 365h66l92 -258q12 -35 15 -50h3q4 23 15 51l93 257h65l-140 -365h-68z" />
    <glyph glyph-name="w.sups" horiz-adv-x="577" 
d="M138 310l-108 365h60l73 -262q6 -18 9 -42h2q3 24 9 42l77 262h55l78 -262q3 -11 10 -42h2q3 24 9 42l72 262h61l-109 -365h-61l-79 264q-8 30 -9 35h-1q-2 -14 -10 -35l-78 -264h-62z" />
    <glyph glyph-name="x.sups" horiz-adv-x="406" 
d="M27 310l139 191l-130 174h72l69 -96q4 -7 13 -20t13 -23h2q10 19 27 43l68 96h68l-127 -176l138 -189h-70l-80 111q-22 30 -27 41h-1q-12 -23 -26 -42l-81 -110h-67z" />
    <glyph glyph-name="y.sups" horiz-adv-x="389" 
d="M40 167v48q18 -3 30 -3q36 0 56 19t35 57l8 22l-150 365h69l95 -254q8 -20 17 -55h1q3 9 18 56l87 253h63l-142 -386q-26 -68 -60.5 -97t-89.5 -29q-20 0 -37 4z" />
    <glyph glyph-name="z.sups" horiz-adv-x="370" 
d="M38 310v41l213 277h-203v47h278v-40l-213 -277h222v-48h-297z" />
    <glyph glyph-name="zero.case" horiz-adv-x="634" 
d="M121 84q-68 99 -68 274q0 172 68.5 270.5t195.5 98.5t195 -98.5t68 -271.5q0 -174 -68 -273t-195 -99q-128 0 -196 99zM458.5 129q48.5 82 48.5 228q0 145 -48.5 226.5t-141.5 81.5t-141.5 -81.5t-48.5 -225.5q0 -147 48.5 -229t141.5 -82t141.5 82z" />
    <glyph glyph-name="one.case" horiz-adv-x="389" 
d="M190 581q-16 -26 -51.5 -40.5t-70.5 -14.5h-32v66h20q53 0 93 31.5t52 86.5h62v-710h-73v581z" />
    <glyph glyph-name="two.case" horiz-adv-x="542" 
d="M38 61q128 93 250 212q63 65 89.5 119.5t26.5 119.5q0 71 -37 111t-103 40t-104.5 -38.5t-38.5 -104.5q0 -24 8 -64l-74 7q-7 27 -7 58q0 95 58.5 150.5t161.5 55.5q100 0 156.5 -56t56.5 -158q0 -73 -35 -140.5t-111 -143.5q-92 -90 -198 -163h355v-66h-454v61z" />
    <glyph glyph-name="three.case" horiz-adv-x="567" 
d="M108.5 45.5q-65.5 60.5 -68.5 162.5l72 8q3 -79 48.5 -124t122.5 -45t117 38.5t40 112.5q0 68 -42 105.5t-121 37.5h-44v61h38q71 0 108 35.5t37 97.5t-37.5 96t-104.5 34q-73 0 -113 -44t-40 -125l-70 14q0 101 60.5 159t166.5 58q100 0 156 -49t56 -135q0 -63 -35 -108
t-95 -58q74 -11 114 -56t40 -121q0 -101 -62 -158t-171 -57q-107 0 -172.5 60.5z" />
    <glyph glyph-name="four.case" horiz-adv-x="553" 
d="M529 250v-58h-115v-192h-70v192h-332v51l321 467h81v-460h115zM344 544q0 60 2 92h-2q-7 -20 -18 -38.5t-25 -39.5l-158 -232q-38 -56 -56 -76h257v294z" />
    <glyph glyph-name="five.case" horiz-adv-x="564" 
d="M127 37q-61 52 -75 141l76 8q12 -63 52 -100.5t103 -37.5q75 0 117.5 49.5t42.5 135.5t-40.5 136.5t-115.5 50.5q-59 0 -99 -33.5t-54 -91.5l-71 7l41 408h379v-64h-324l-27 -266q26 50 69.5 76t103.5 26q99 0 155.5 -66t56.5 -179q0 -75 -29.5 -132t-83 -88.5
t-125.5 -31.5q-91 0 -152 52z" />
    <glyph glyph-name="six.case" horiz-adv-x="567" 
d="M422 444q49 -30 76 -84.5t27 -127.5t-28.5 -129t-80 -87t-118.5 -31q-124 0 -187 90.5t-63 268.5q0 184 67 283.5t189 99.5q87 0 141 -46.5t70 -134.5l-74 -15q-13 68 -47 101t-91 33q-90 0 -137 -80t-46 -233q23 57 72.5 89.5t116.5 32.5q64 0 113 -30zM409.5 97
q41.5 50 41.5 134q0 83 -42 132t-114 49q-64 0 -109 -42t-62 -117q11 -97 57 -151.5t118 -54.5q69 0 110.5 50z" />
    <glyph glyph-name="seven.case" horiz-adv-x="498" 
d="M144 11q0 164 65.5 325.5t185.5 305.5h-364v68h447v-59q-121 -133 -187 -298.5t-66 -334.5v-18h-81v11z" />
    <glyph glyph-name="eight.case" horiz-adv-x="576" 
d="M495 306q37 -48 37 -124q0 -90 -65.5 -143.5t-176.5 -53.5q-113 0 -180 52t-67 141q0 76 39 125.5t114 70.5q-67 27 -97.5 69.5t-30.5 107.5q0 52 27.5 92t77.5 62t115 22q100 0 159.5 -47.5t59.5 -127.5q0 -64 -33.5 -107.5t-98.5 -62.5q83 -28 120 -76zM172 466
q30 -33 96 -52l36 -10q72 25 100.5 57.5t28.5 87.5q0 57 -39 89.5t-108 32.5q-67 0 -105.5 -32t-38.5 -88q0 -52 30 -85zM414.5 80.5q44.5 36.5 44.5 101.5q0 58 -32 94.5t-103 57.5l-61 18q-76 -25 -110.5 -64t-34.5 -100q0 -66 46.5 -105t125.5 -39q80 0 124.5 36.5z" />
    <glyph glyph-name="nine.case" horiz-adv-x="573" 
d="M521 369q0 -178 -59.5 -281t-192.5 -103q-90 0 -147 50t-70 142l74 15q9 -68 44 -106.5t100 -38.5q97 0 137 82.5t40 237.5v11q-24 -54 -72 -81.5t-110 -27.5q-65 0 -115.5 27t-79 78.5t-28.5 123.5q0 65 28.5 117t80.5 82t121 30q249 0 249 -358zM383 372.5
q48 41.5 60 107.5q-10 83 -51 134t-121 51q-71 0 -113 -46t-42 -121q0 -77 43.5 -122t112.5 -45q63 0 111 41.5z" />
    <glyph glyph-name="one.case.ss02" horiz-adv-x="504" 
d="M315 66h173v-66h-444v66h197v520q-21 -28 -61 -44.5t-96 -16.5h-31v66h25q71 0 115.5 32.5t59.5 86.5h62v-644z" />
    <glyph glyph-name="zero.case.zero" horiz-adv-x="634" 
d="M512 628.5q68 -98.5 68 -271.5q0 -174 -68 -273t-195 -99q-128 0 -196 99t-68 274q0 172 68.5 270.5t195.5 98.5t195 -98.5zM175.5 583.5q-48.5 -81.5 -48.5 -225.5q0 -92 20 -161l315 380q-50 88 -145 88q-93 0 -141.5 -81.5zM458.5 129q48.5 82 48.5 228q0 91 -20 160
l-316 -380q50 -90 146 -90q93 0 141.5 82z" />
    <glyph glyph-name="zero.osf" horiz-adv-x="606" 
d="M167 19.5q-58 34.5 -89 98.5t-31 151q0 85 31 148.5t89 98t136 34.5q77 0 135 -35t89.5 -100t31.5 -151q0 -84 -31 -147t-89 -97.5t-135 -34.5q-79 0 -137 34.5zM437.5 104.5q49.5 58.5 49.5 158.5q0 103 -49.5 163.5t-134.5 60.5t-134.5 -59t-49.5 -160
q0 -104 49.5 -163t135.5 -59q84 0 133.5 58.5z" />
    <glyph glyph-name="one.osf" horiz-adv-x="552" 
d="M328 64h175v-64h-429v64h184v356q-18 -27 -67.5 -45.5t-90.5 -18.5h-23v67h15q36 0 74 14.5t66.5 40.5t37.5 57h58v-471z" />
    <glyph glyph-name="two.osf" horiz-adv-x="567" 
d="M42 45q95 55 163 102q76 49 118 86t60 70.5t18 73.5q0 52 -32.5 81.5t-90.5 29.5q-63 0 -99.5 -33.5t-36.5 -91.5q0 -29 3 -43l-74 8q-3 23 -3 35q0 55 26.5 97.5t74 66t108.5 23.5q93 0 145 -44.5t52 -123.5q0 -48 -21 -89.5t-65 -82.5q-73 -67 -222 -147h341v-63h-465
v45z" />
    </font>
</defs>
</svg>
