<svg id="Layer_1" data-name="Layer 1" xmlns="http://www.w3.org/2000/svg" xmlns:xlink="http://www.w3.org/1999/xlink" viewBox="0 0 65.23 81.54"><defs><style>.cls-1{fill:none;}.cls-2{fill:#717486;}.cls-3{clip-path:url(#clip-path);}</style><clipPath id="clip-path"><path class="cls-1" d="M29.72,78.69V76h5.8v2.71l0,0a.46.46,0,0,1-.44.44H30.15a.44.44,0,0,1-.43-.44M22.84,72.9V71.2a.73.73,0,0,1,.72-.72h18.1a.72.72,0,0,1,.72.72l0,1.7a.73.73,0,0,1-.72.72H23.56a.73.73,0,0,1-.72-.72m0-5.54v-1.7a.73.73,0,0,1,.72-.72H41.62a.73.73,0,0,1,.74.72h0v1.7a.73.73,0,0,1-.72.72H23.56a.73.73,0,0,1-.72-.72M29.65,8.69h0A24,24,0,0,0,20,53a5.48,5.48,0,0,1,2.56,4.62v5.2a3.11,3.11,0,0,0-2.12,2.93v1.71a3.06,3.06,0,0,0,.67,1.9,3.08,3.08,0,0,0-.67,1.91v1.7A3.12,3.12,0,0,0,23.54,76h3.78v2.7a2.83,2.83,0,0,0,2.83,2.81h4.93a2.82,2.82,0,0,0,2.83-2.82V76h3.76a3.1,3.1,0,0,0,3.1-3.1V71.2a3.05,3.05,0,0,0-.66-1.91,3.05,3.05,0,0,0,.66-1.91V65.66a3.09,3.09,0,0,0-2.11-2.93V57.65a5.65,5.65,0,0,1,2.68-4.81A23.89,23.89,0,0,0,56.41,35.55a1.19,1.19,0,1,0-2.36-.29v0a21.49,21.49,0,0,1-10,15.55,8,8,0,0,0-3.85,6.82v4.92H24.94v-5a7.86,7.86,0,0,0-3.68-6.65A21.61,21.61,0,0,1,30,11.07a1.2,1.2,0,0,0-.16-2.39h-.16"/></clipPath></defs><path class="cls-2" d="M38,23.86a1.19,1.19,0,0,0,1.47-.17L42.22,21l2,2-2.71,2.71a1.2,1.2,0,0,0-.17,1.47,10.41,10.41,0,0,1,1.28,3.08,1.19,1.19,0,0,0,1.16.92h3.85V34H43.8a1.19,1.19,0,0,0-1.16.92A10.47,10.47,0,0,1,41.36,38a1.19,1.19,0,0,0,.17,1.47l2.71,2.71-2,2-2.71-2.71A1.19,1.19,0,0,0,38,41.35,10.47,10.47,0,0,1,35,42.63a1.19,1.19,0,0,0-.92,1.16v3.87H31.19V43.8a1.19,1.19,0,0,0-.92-1.16,10.41,10.41,0,0,1-3.08-1.28,1.2,1.2,0,0,0-1.47.17L23,44.25l-2-2,2.71-2.71A1.19,1.19,0,0,0,23.87,38,10.18,10.18,0,0,1,22.6,35a1.2,1.2,0,0,0-1.17-.92H17.6V31.19h3.83a1.2,1.2,0,0,0,1.17-.92,10,10,0,0,1,1.27-3.07,1.21,1.21,0,0,0-.17-1.48L21,23l2-2,2.71,2.71a1.2,1.2,0,0,0,1.47.17,10.13,10.13,0,0,1,3.08-1.27,1.2,1.2,0,0,0,.92-1.17V17.6h2.86v3.83A1.2,1.2,0,0,0,35,22.6,10.16,10.16,0,0,1,38,23.86m-3.29-8.65H30.51a1.69,1.69,0,0,0-1.69,1.69v3.62a12.15,12.15,0,0,0-2,.84L24.22,18.8a1.69,1.69,0,0,0-2.39,0l-3,3a1.69,1.69,0,0,0,0,2.39l2.56,2.56a12.15,12.15,0,0,0-.84,2H16.94a1.69,1.69,0,0,0-1.69,1.69v4.24a1.69,1.69,0,0,0,1.69,1.69h3.63a11.54,11.54,0,0,0,.83,2L18.84,41a1.69,1.69,0,0,0,0,2.39l3,3a1.69,1.69,0,0,0,2.39,0l2.56-2.57a12.5,12.5,0,0,0,2,.84v3.62A1.69,1.69,0,0,0,30.53,50h4.24a1.7,1.7,0,0,0,1.69-1.7V44.71a12.4,12.4,0,0,0,2-.84l2.57,2.57a1.69,1.69,0,0,0,2.39,0l3-3a1.69,1.69,0,0,0,0-2.39l-2.57-2.57a12.4,12.4,0,0,0,.84-2h3.62A1.7,1.7,0,0,0,50,34.74V30.5a1.69,1.69,0,0,0-1.7-1.69H44.71a12.15,12.15,0,0,0-.84-2l2.57-2.56a1.69,1.69,0,0,0,0-2.39l-3-3a1.69,1.69,0,0,0-2.39,0l-2.57,2.56a12.4,12.4,0,0,0-2-.84V16.94a1.69,1.69,0,0,0-1.65-1.73h0"/><path class="cls-2" d="M38,23.86a1.19,1.19,0,0,0,1.47-.17L42.22,21l2,2-2.71,2.71a1.2,1.2,0,0,0-.17,1.47,10.41,10.41,0,0,1,1.28,3.08,1.19,1.19,0,0,0,1.16.92h3.85V34H43.8a1.19,1.19,0,0,0-1.16.92A10.47,10.47,0,0,1,41.36,38a1.19,1.19,0,0,0,.17,1.47l2.71,2.71-2,2-2.71-2.71A1.19,1.19,0,0,0,38,41.35,10.47,10.47,0,0,1,35,42.63a1.19,1.19,0,0,0-.92,1.16v3.87H31.19V43.8a1.19,1.19,0,0,0-.92-1.16,10.41,10.41,0,0,1-3.08-1.28,1.2,1.2,0,0,0-1.47.17L23,44.25l-2-2,2.71-2.71A1.19,1.19,0,0,0,23.87,38,10.18,10.18,0,0,1,22.6,35a1.2,1.2,0,0,0-1.17-.92H17.6V31.19h3.83a1.2,1.2,0,0,0,1.17-.92,10,10,0,0,1,1.27-3.07,1.21,1.21,0,0,0-.17-1.48L21,23l2-2,2.71,2.71a1.2,1.2,0,0,0,1.47.17,10.13,10.13,0,0,1,3.08-1.27,1.2,1.2,0,0,0,.92-1.17V17.6h2.86v3.83A1.2,1.2,0,0,0,35,22.6,10.16,10.16,0,0,1,38,23.86m-3.29-8.65H30.51a1.69,1.69,0,0,0-1.69,1.69v3.62a12.15,12.15,0,0,0-2,.84L24.22,18.8a1.69,1.69,0,0,0-2.39,0l-3,3a1.69,1.69,0,0,0,0,2.39l2.56,2.56a12.15,12.15,0,0,0-.84,2H16.94a1.69,1.69,0,0,0-1.69,1.69v4.24a1.69,1.69,0,0,0,1.69,1.69h3.63a11.54,11.54,0,0,0,.83,2L18.84,41a1.69,1.69,0,0,0,0,2.39l3,3a1.69,1.69,0,0,0,2.39,0l2.56-2.57a12.5,12.5,0,0,0,2,.84v3.62A1.69,1.69,0,0,0,30.53,50h4.24a1.7,1.7,0,0,0,1.69-1.7V44.71a12.4,12.4,0,0,0,2-.84l2.57,2.57a1.69,1.69,0,0,0,2.39,0l3-3a1.69,1.69,0,0,0,0-2.39l-2.57-2.57a12.4,12.4,0,0,0,.84-2h3.62A1.7,1.7,0,0,0,50,34.74V30.5a1.69,1.69,0,0,0-1.7-1.69H44.71a12.15,12.15,0,0,0-.84-2l2.57-2.56a1.69,1.69,0,0,0,0-2.39l-3-3a1.69,1.69,0,0,0-2.39,0l-2.57,2.56a12.4,12.4,0,0,0-2-.84V16.94a1.69,1.69,0,0,0-1.65-1.73h0"/><path class="cls-2" d="M38,23.86a1.19,1.19,0,0,0,1.47-.17L42.22,21l2,2-2.71,2.71a1.2,1.2,0,0,0-.17,1.47,10.41,10.41,0,0,1,1.28,3.08,1.19,1.19,0,0,0,1.16.92h3.85V34H43.8a1.19,1.19,0,0,0-1.16.92A10.47,10.47,0,0,1,41.36,38a1.19,1.19,0,0,0,.17,1.47l2.71,2.71-2,2-2.71-2.71A1.19,1.19,0,0,0,38,41.35,10.47,10.47,0,0,1,35,42.63a1.19,1.19,0,0,0-.92,1.16v3.87H31.19V43.8a1.19,1.19,0,0,0-.92-1.16,10.41,10.41,0,0,1-3.08-1.28,1.2,1.2,0,0,0-1.47.17L23,44.25l-2-2,2.71-2.71A1.19,1.19,0,0,0,23.87,38,10.18,10.18,0,0,1,22.6,35a1.2,1.2,0,0,0-1.17-.92H17.6V31.19h3.83a1.2,1.2,0,0,0,1.17-.92,10,10,0,0,1,1.27-3.07,1.21,1.21,0,0,0-.17-1.48L21,23l2-2,2.71,2.71a1.2,1.2,0,0,0,1.47.17,10.13,10.13,0,0,1,3.08-1.27,1.2,1.2,0,0,0,.92-1.17V17.6h2.86v3.83A1.2,1.2,0,0,0,35,22.6,10.16,10.16,0,0,1,38,23.86m-3.29-8.65H30.51a1.69,1.69,0,0,0-1.69,1.69v3.62a12.15,12.15,0,0,0-2,.84L24.22,18.8a1.69,1.69,0,0,0-2.39,0l-3,3a1.69,1.69,0,0,0,0,2.39l2.56,2.56a12.15,12.15,0,0,0-.84,2H16.94a1.69,1.69,0,0,0-1.69,1.69v4.24a1.69,1.69,0,0,0,1.69,1.69h3.63a11.54,11.54,0,0,0,.83,2L18.84,41a1.69,1.69,0,0,0,0,2.39l3,3a1.69,1.69,0,0,0,2.39,0l2.56-2.57a12.5,12.5,0,0,0,2,.84v3.62A1.69,1.69,0,0,0,30.53,50h4.24a1.7,1.7,0,0,0,1.69-1.7V44.71a12.4,12.4,0,0,0,2-.84l2.57,2.57a1.69,1.69,0,0,0,2.39,0l3-3a1.69,1.69,0,0,0,0-2.39l-2.57-2.57a12.4,12.4,0,0,0,.84-2h3.62A1.7,1.7,0,0,0,50,34.74V30.5a1.69,1.69,0,0,0-1.7-1.69H44.71a12.15,12.15,0,0,0-.84-2l2.57-2.56a1.69,1.69,0,0,0,0-2.39l-3-3a1.69,1.69,0,0,0-2.39,0l-2.57,2.56a12.4,12.4,0,0,0-2-.84V16.94a1.69,1.69,0,0,0-1.65-1.73h0"/><path class="cls-1" d="M27.19,23.87a10.13,10.13,0,0,1,3.08-1.27,1.2,1.2,0,0,0,.92-1.17V17.6h2.86v3.83A1.2,1.2,0,0,0,35,22.6,10.16,10.16,0,0,1,38,23.86a1.19,1.19,0,0,0,1.47-.17L42.22,21l2,2-2.72,2.71a1.21,1.21,0,0,0-.17,1.48,10.25,10.25,0,0,1,1.28,3.07,1.19,1.19,0,0,0,1.16.92h3.86V34H43.8a1.19,1.19,0,0,0-1.16.92A10.47,10.47,0,0,1,41.36,38a1.19,1.19,0,0,0,.17,1.47l2.72,2.71-2,2-2.71-2.71A1.19,1.19,0,0,0,38,41.35,10.47,10.47,0,0,1,35,42.63a1.18,1.18,0,0,0-.92,1.16v3.87H31.19V43.8a1.19,1.19,0,0,0-.92-1.16,10.41,10.41,0,0,1-3.08-1.28,1.2,1.2,0,0,0-1.47.17L23,44.25l-2-2,2.71-2.71A1.19,1.19,0,0,0,23.87,38,10.18,10.18,0,0,1,22.6,35a1.2,1.2,0,0,0-1.17-.92H17.6V31.19h3.83a1.2,1.2,0,0,0,1.17-.92,10,10,0,0,1,1.27-3.07,1.21,1.21,0,0,0-.17-1.48L21,23l2-2,2.71,2.71a1.2,1.2,0,0,0,.85.35,1.17,1.17,0,0,0,.62-.18m7.56-8.66H30.51a1.69,1.69,0,0,0-1.69,1.69v3.62a12.15,12.15,0,0,0-2,.84L24.22,18.8a1.69,1.69,0,0,0-2.39,0l-3,3a1.69,1.69,0,0,0,0,2.39l2.56,2.56a12.15,12.15,0,0,0-.84,2H16.94a1.69,1.69,0,0,0-1.69,1.69v4.24a1.69,1.69,0,0,0,1.69,1.69h3.63a12.36,12.36,0,0,0,.83,2L18.84,41a1.69,1.69,0,0,0,0,2.39l3,3a1.69,1.69,0,0,0,2.39,0l2.56-2.57a12.5,12.5,0,0,0,2,.84v3.62A1.7,1.7,0,0,0,30.53,50h4.24a1.7,1.7,0,0,0,1.69-1.7V44.71a12.4,12.4,0,0,0,2-.84l2.57,2.57a1.69,1.69,0,0,0,2.39,0l3-3a1.69,1.69,0,0,0,0-2.39l-2.57-2.57a12.4,12.4,0,0,0,.84-2h3.62A1.7,1.7,0,0,0,50,34.74V30.5a1.69,1.69,0,0,0-1.7-1.69H44.71a12.15,12.15,0,0,0-.84-2l2.57-2.56a1.69,1.69,0,0,0,0-2.39l-3-3a1.69,1.69,0,0,0-2.39,0l-2.57,2.56a12.4,12.4,0,0,0-2-.84V16.94a1.69,1.69,0,0,0-1.65-1.73h0"/><path class="cls-2" d="M36.63,32.62a4,4,0,1,1-4-4,4,4,0,0,1,4,4Zm-10.41,0a6.36,6.36,0,1,0,6.35-6.36,6.35,6.35,0,0,0-6.35,6.36"/><path class="cls-2" d="M5.16,31.42h-4a1.2,1.2,0,1,0,0,2.39h4a1.2,1.2,0,0,0,0-2.39"/><path class="cls-2" d="M64,31.42h-4a1.2,1.2,0,1,0,0,2.39h4a1.2,1.2,0,0,0,0-2.39"/><path class="cls-2" d="M12.36,51.18,9.53,54a1.2,1.2,0,1,0,1.52,1.85.87.87,0,0,0,.16-.17L14,52.89a1.2,1.2,0,0,0,.17-1.69A1.19,1.19,0,0,0,12.51,51a.91.91,0,0,0-.17.17Z"/><path class="cls-2" d="M52.88,14l2.8-2.8A1.2,1.2,0,0,0,54,9.53L51.2,12.34A1.2,1.2,0,0,0,52.9,14Z"/><path class="cls-2" d="M32.62,6.35a1.19,1.19,0,0,0,1.19-1.19v-4a1.2,1.2,0,1,0-2.39,0v4a1.19,1.19,0,0,0,1.2,1.19"/><path class="cls-2" d="M52.88,51.18a1.2,1.2,0,0,0-1.8,1.58l.1.11L54,55.67a1.2,1.2,0,1,0,2-1.35,1.18,1.18,0,0,0-.32-.31Z"/><path class="cls-2" d="M12.36,14A1.19,1.19,0,0,0,14,12.36L11.25,9.53a1.22,1.22,0,0,0-1.72,1.72Z"/><path class="cls-2" d="M35.55,8.69a1.2,1.2,0,1,0-.42,2.36l.13,0A21.49,21.49,0,0,1,54.07,30,1.2,1.2,0,0,0,55.26,31h.14a1.2,1.2,0,0,0,1.06-1.32h0a24,24,0,0,0-20.91-21"/><path class="cls-2" d="M35.11,79.23h-5a.44.44,0,0,1-.45-.44h0V76h5.84v2.78A.44.44,0,0,1,35.11,79.23Z"/><path class="cls-2" d="M42.36,72.9a.73.73,0,0,1-.72.72H23.56a.73.73,0,0,1-.72-.72V71.2a.73.73,0,0,1,.72-.72h18.1a.72.72,0,0,1,.72.72Zm-6.88,5.79a.46.46,0,0,1-.44.44H30.15a.44.44,0,0,1-.43-.44V76h5.8v2.71Zm6.14-13.76h0a.73.73,0,0,1,.74.72h0v1.7a.73.73,0,0,1-.72.72H23.56a.73.73,0,0,1-.72-.72v-1.7a.73.73,0,0,1,.72-.72H41.62ZM55.39,34.22a1.2,1.2,0,0,0-1.34,1v0a21.49,21.49,0,0,1-10,15.55,8,8,0,0,0-3.85,6.82v4.92H24.94v-5a7.86,7.86,0,0,0-3.68-6.65A21.61,21.61,0,0,1,30,11.07a1.2,1.2,0,0,0-.32-2.38h0A24,24,0,0,0,20,53a5.48,5.48,0,0,1,2.56,4.62v5.2a3.11,3.11,0,0,0-2.12,2.93v1.71a3.06,3.06,0,0,0,.67,1.9,3.08,3.08,0,0,0-.67,1.91v1.7A3.12,3.12,0,0,0,23.54,76h3.78v2.7a2.83,2.83,0,0,0,2.83,2.81h4.93a2.82,2.82,0,0,0,2.83-2.82V76h3.76a3.1,3.1,0,0,0,3.1-3.1V71.2a3.05,3.05,0,0,0-.66-1.91,3.05,3.05,0,0,0,.66-1.91V65.66a3.11,3.11,0,0,0-2.11-2.94V57.65a5.65,5.65,0,0,1,2.68-4.81A23.89,23.89,0,0,0,56.41,35.55a1.18,1.18,0,0,0-1-1.33"/><path class="cls-2" d="M42.36,72.9a.73.73,0,0,1-.72.72H23.56a.73.73,0,0,1-.72-.72V71.2a.73.73,0,0,1,.72-.72h18.1a.72.72,0,0,1,.72.72Zm-6.88,5.79a.46.46,0,0,1-.44.44H30.15a.44.44,0,0,1-.43-.44V76h5.8v2.71Zm6.14-13.76h0a.73.73,0,0,1,.74.72h0v1.7a.73.73,0,0,1-.72.72H23.56a.73.73,0,0,1-.72-.72v-1.7a.73.73,0,0,1,.72-.72H41.62ZM55.39,34.22a1.2,1.2,0,0,0-1.34,1v0a21.49,21.49,0,0,1-10,15.55,8,8,0,0,0-3.85,6.82v4.92H24.94v-5a7.86,7.86,0,0,0-3.68-6.65A21.61,21.61,0,0,1,30,11.07a1.2,1.2,0,0,0-.32-2.38h0A24,24,0,0,0,20,53a5.48,5.48,0,0,1,2.56,4.62v5.2a3.11,3.11,0,0,0-2.12,2.93v1.71a3.06,3.06,0,0,0,.67,1.9,3.08,3.08,0,0,0-.67,1.91v1.7A3.12,3.12,0,0,0,23.54,76h3.78v2.7a2.83,2.83,0,0,0,2.83,2.81h4.93a2.82,2.82,0,0,0,2.83-2.82V76h3.76a3.1,3.1,0,0,0,3.1-3.1V71.2a3.05,3.05,0,0,0-.66-1.91,3.05,3.05,0,0,0,.66-1.91V65.66a3.11,3.11,0,0,0-2.11-2.94V57.65a5.65,5.65,0,0,1,2.68-4.81A23.89,23.89,0,0,0,56.41,35.55a1.18,1.18,0,0,0-1-1.33"/><path class="cls-2" d="M42.36,72.9a.73.73,0,0,1-.72.72H23.56a.73.73,0,0,1-.72-.72V71.2a.73.73,0,0,1,.72-.72h18.1a.72.72,0,0,1,.72.72Zm-6.88,5.79a.46.46,0,0,1-.44.44H30.15a.44.44,0,0,1-.43-.44V76h5.8v2.71Zm6.14-13.76h0a.73.73,0,0,1,.74.72h0v1.7a.73.73,0,0,1-.72.72H23.56a.73.73,0,0,1-.72-.72v-1.7a.73.73,0,0,1,.72-.72H41.62ZM55.39,34.22a1.2,1.2,0,0,0-1.34,1v0a21.49,21.49,0,0,1-10,15.55,8,8,0,0,0-3.85,6.82v4.92H24.94v-5a7.86,7.86,0,0,0-3.68-6.65A21.61,21.61,0,0,1,30,11.07a1.2,1.2,0,0,0-.32-2.38h0A24,24,0,0,0,20,53a5.48,5.48,0,0,1,2.56,4.62v5.2a3.11,3.11,0,0,0-2.12,2.93v1.71a3.06,3.06,0,0,0,.67,1.9,3.08,3.08,0,0,0-.67,1.91v1.7A3.12,3.12,0,0,0,23.54,76h3.78v2.7a2.83,2.83,0,0,0,2.83,2.81h4.93a2.82,2.82,0,0,0,2.83-2.82V76h3.76a3.1,3.1,0,0,0,3.1-3.1V71.2a3.05,3.05,0,0,0-.66-1.91,3.05,3.05,0,0,0,.66-1.91V65.66a3.11,3.11,0,0,0-2.11-2.94V57.65a5.65,5.65,0,0,1,2.68-4.81A23.89,23.89,0,0,0,56.41,35.55a1.18,1.18,0,0,0-1-1.33"/><g class="cls-3"><path d="M10.7,10.38a1.76,1.76,0,1,1-1.76,1.76,1.76,1.76,0,0,1,1.76-1.76"/></g><path class="cls-2" d="M32.73,30a2.63,2.63,0,1,1-2.62,2.63A2.63,2.63,0,0,1,32.73,30"/><path class="cls-2" d="M31.17,57.07a1.51,1.51,0,0,1,0,3,1.51,1.51,0,1,1,0-3"/><path class="cls-2" d="M33.49,54.89A1.06,1.06,0,1,1,32.43,56a1.05,1.05,0,0,1,1.06-1.06"/><path class="cls-2" d="M34.47,57.67a.9.9,0,1,1-.9.9.9.9,0,0,1,.9-.9"/><path class="cls-2" d="M40.1,35a.61.61,0,1,1-.6.6.6.6,0,0,1,.6-.6"/><path class="cls-2" d="M40.71,33.05a.61.61,0,1,1-.61.61.6.6,0,0,1,.61-.61"/><path class="cls-2" d="M40.94,31.12a.61.61,0,1,1-.6.61.6.6,0,0,1,.6-.61"/><path class="cls-2" d="M27.11,26.12a.6.6,0,0,1,.8-.31.61.61,0,0,1,.31.8.61.61,0,0,1-1.11-.49"/><path class="cls-2" d="M25.79,27.63a.6.6,0,1,1,.3.8.61.61,0,0,1-.3-.8"/><path class="cls-2" d="M24.79,29.29a.61.61,0,0,1,1.11.49.61.61,0,0,1-.8.31.62.62,0,0,1-.31-.8"/></svg>