<svg id="Layer_1" data-name="Layer 1" xmlns="http://www.w3.org/2000/svg" width="145.74" height="30.95" viewBox="0 0 145.74 30.95"><defs><style>.cls-1{fill:#707485;}</style></defs><polygon class="cls-1" points="21.13 20.38 32.68 0.01 9.55 0 11.16 2.84 27.82 2.83 19.44 17.42 21.13 20.38"/><polygon class="cls-1" points="8.96 10.48 20.34 30.95 32.68 10.48 29.41 10.48 20.47 25.33 12.37 10.48 8.96 10.48"/><polygon class="cls-1" points="23.42 4.99 0 5.18 11.56 25.21 13.22 22.39 4.87 7.97 21.7 7.93 23.42 4.99"/><polygon class="cls-1" points="51.2 5.99 54.8 5.99 46.92 25.09 43.99 25.09 36.11 5.99 39.79 5.99 45.51 20.57 51.2 5.99"/><polygon class="cls-1" points="72.11 8.97 61.38 8.97 61.38 13.9 70.89 13.9 70.89 16.88 61.38 16.88 61.38 21.98 72.25 21.98 72.25 24.95 58.05 24.95 58.05 5.99 72.11 5.99 72.11 8.97"/><path class="cls-1" d="M83.52,14c4,1,6.09,2.41,6.09,5.58,0,3.57-2.79,5.69-6.77,5.69a11.68,11.68,0,0,1-7.91-3l2-2.38a8.74,8.74,0,0,0,6,2.46c2.06,0,3.36-.95,3.36-2.41s-.76-2.11-4.28-2.92c-4-1-6.31-2.17-6.31-5.69,0-3.31,2.71-5.53,6.47-5.53A10.53,10.53,0,0,1,89,8.1l-1.79,2.52a8.61,8.61,0,0,0-5.14-1.95c-2,0-3.09,1-3.09,2.28,0,1.49.87,2.14,4.5,3"/><polygon class="cls-1" points="101.15 24.95 97.79 24.95 97.79 9.08 91.78 9.08 91.78 5.99 107.17 5.99 107.17 9.08 101.15 9.08 101.15 24.95"/><path class="cls-1" d="M116.46,9.84l-3.25,7.58h6.52ZM126.4,25h-3.52L121,20.38h-9L110,25h-3.42L115,5.85h3.08Z"/><path class="cls-1" d="M137.83,9H133v6.37h4.88c2.38,0,3.9-1.25,3.9-3.2S140.3,9,137.83,9m4,15.93-4.66-6.61H133V25h-3.33V6h8.45c4.36,0,7,2.3,7,6a5.68,5.68,0,0,1-4.52,5.78L145.74,25Z"/></svg>