<svg id="Layer_1" data-name="Layer 1" xmlns="http://www.w3.org/2000/svg" viewBox="0 0 61.06 69.01"><defs><style>.cls-1{fill:#717486;}</style></defs><path class="cls-1" d="M43,24.35h6.25V66.51H43ZM27.76,33.1H34V66.51H27.76Zm-14.85,9h6.25V66.51H12.91ZM0,69H61.06v-2.5H51.78V23.1a1.25,1.25,0,0,0-1.25-1.25H41.78a1.25,1.25,0,0,0-1.25,1.25V66.51h-4V31.85a1.25,1.25,0,0,0-1.25-1.25H26.51a1.25,1.25,0,0,0-1.25,1.25V66.51H21.67V40.85a1.25,1.25,0,0,0-1.25-1.25H11.66a1.25,1.25,0,0,0-1.25,1.25V66.51H0Z"/><path class="cls-1" d="M56.6,2.39a1.23,1.23,0,0,0-1.16-1L50,0a1.36,1.36,0,0,0-.29,0,1.25,1.25,0,0,0-.29,2.46l2.87.7L1,37.55a1.25,1.25,0,1,0,1.39,2.08L53.42,5.4l-.65,2.72a1.25,1.25,0,1,0,2.43.58l1.39-5.79s0,0,0-.06a1.11,1.11,0,0,0,0-.26,1.33,1.33,0,0,0,0-.2"/></svg>