<svg id="Layer_1" data-name="Layer 1" xmlns="http://www.w3.org/2000/svg" viewBox="0 0 87.36 54.08"><defs><style>.cls-1{fill:#717486;}</style></defs><path class="cls-1" d="M84.59,25.54l-5.15,2.95a.4.4,0,0,1-.34,0,.49.49,0,0,1-.28-.23L77.6,26v-.08l-2.45-4.59-8-15a.45.45,0,0,1,.17-.6l5-2.95a.48.48,0,0,1,.23-.07h.11a.49.49,0,0,1,.28.23L84.74,24.94a.48.48,0,0,1-.22.6ZM69.27,31.27h-.06a1.29,1.29,0,0,1-.48,0l-.23-.12L68.25,31,63,27.27,44.73,14.56a1.62,1.62,0,0,0-.4-.19h-.4l-5.11.34a1.16,1.16,0,0,0-.45.12l-.15.1a.71.71,0,0,0-.23.19.53.53,0,0,0-.12.14.66.66,0,0,0-.12.17c-.69,1.33-3.21,5.3-5.71,5.67a2.79,2.79,0,0,1-2.25-.77l5.52-8.7a14.58,14.58,0,0,1,7.85-3l9.18.06c1.64.47,9.8,2.72,14.14,1.89L73.1,22.87,75,26.48c-1.62,1.9-4.09,4.55-5.81,4.79Zm-2.94,6.28a7,7,0,0,1-1.94.13l-10.69-7a1.32,1.32,0,1,0-1.49,2.19l0,0,10.65,7a2.42,2.42,0,0,1-.16,2c-.78,1.06-3,1-4,.8l-9-5.46a1.32,1.32,0,0,0-1.38,2.26h0l9,5.48a1.52,1.52,0,0,1,0,1.85c-.53.74-2.35,1-3.59.93L46.13,43a1.33,1.33,0,1,0-1.4,2.25l6.91,4.27a3.87,3.87,0,0,1-2.16,1.69c-3.09,1-7.22-1.7-7.26-1.73l-.18-.1c-.39-.16-.81-.37-1.26-.61a4.67,4.67,0,0,0,.34-2.12,4.29,4.29,0,0,0-2.07-3.22,6.69,6.69,0,0,0-3.13-.78,4.6,4.6,0,0,0-1.32-4.45,5,5,0,0,0-3.84-1.41,3.81,3.81,0,0,0-1.17-4.31,4.65,4.65,0,0,0-3.43-1,6.49,6.49,0,0,0-3.65,1.75,4.7,4.7,0,0,0-.69-1,3.64,3.64,0,0,0-2.34-1.47,4.57,4.57,0,0,0-2.65.43,26.9,26.9,0,0,1-4.53-5l9.8-16a46.48,46.48,0,0,0,8.75,3.32l-4,6.33A1.32,1.32,0,0,0,27,21.38a5.88,5.88,0,0,0,5.3,2.32c3.53-.47,6.22-4.47,7.28-6.28a18.79,18.79,0,0,0,4.1-.37L63.16,30.7l3.45,2.42a3.75,3.75,0,0,0,.72.44l.19.12a5.28,5.28,0,0,0,.77.24,3.93,3.93,0,0,1,0,.84,2.85,2.85,0,0,1-2,2.79ZM37.07,49.69c-1.53,2.33-3,1.77-3.4,1.57a2.65,2.65,0,0,1-1.06-2.65,11.39,11.39,0,0,0,1.32-1.78,9.5,9.5,0,0,0,.85-1.18,3.09,3.09,0,0,1,2.95,0c.8.54.85,1,.87,1.2A3.05,3.05,0,0,1,38,48.64a6.85,6.85,0,0,1-.68.85,1.94,1.94,0,0,0-.21.2m-8.39-1.53a1.75,1.75,0,0,1-1.33-.28l-.23-.15c-1.55-.8-.88-3-.68-3.51l.61-.86a15.86,15.86,0,0,0,1.58-2c.15-.24.45-.7.78-1.32A2.31,2.31,0,0,1,32.68,40l.08.08c1.19,1.1.54,2.79-.12,4l-2.19,2.9a1,1,0,0,0-.13.22v.08a3.05,3.05,0,0,1-1.64.93ZM22,43.32a1.53,1.53,0,0,1-1.61-1.08,5.47,5.47,0,0,1,1.19-3.66,10.59,10.59,0,0,0,1-1.33c1.68-2.42,3-3.07,3.86-3.17a2.06,2.06,0,0,1,1.49.35l.16.14c.59.39.06,2.23-.86,4l-2.23,3.12a4.65,4.65,0,0,1-3,1.64Zm-2.51-6.38a2.74,2.74,0,0,1-1.41.78,2.64,2.64,0,0,1-1.8-.71c-.91-1.11,1.33-3.16,1.33-3.16a2.59,2.59,0,0,1,1.55-.48,1,1,0,0,1,.68.49,2,2,0,0,0,.19.22,1.71,1.71,0,0,1,.3,1.77,7.67,7.67,0,0,0-.84,1.07ZM7.81,27.67,2.87,25a.4.4,0,0,1-.22-.22.43.43,0,0,1,0-.35l13-21.32a.44.44,0,0,1,.37-.21.42.42,0,0,1,.24.07l4.93,2.65a.41.41,0,0,1,.22.26.53.53,0,0,1,0,.35l-1,1.61-12,19.69a.47.47,0,0,1-.62.14Zm79.2-4L75.3,1.64A3.11,3.11,0,0,0,71,.43l-5,3A3.07,3.07,0,0,0,64.8,7.5l.3.6c-3.1.24-8.84-1-12.27-2a1.09,1.09,0,0,0-.36,0L43.07,6a17.3,17.3,0,0,0-9.68,3.72,1.38,1.38,0,0,0-.28.31l-.66,1a34.85,34.85,0,0,1-8.9-3.16l.16-.27a3.1,3.1,0,0,0-1-4.29l-.24-.14L17.57.58a3.07,3.07,0,0,0-4.13,1.1L.45,23.09a3.09,3.09,0,0,0,1,4.25l.13.08,4.93,2.64a3.28,3.28,0,0,0,1.5.39A3.1,3.1,0,0,0,10.7,29l.18-.31a28.81,28.81,0,0,0,4,4.28c-1.33,1.56-2.23,3.85-.56,5.86a5.29,5.29,0,0,0,3.51,1.5,5.51,5.51,0,0,0,0,2.49,4.14,4.14,0,0,0,4.08,3.12h.25a5.9,5.9,0,0,0,1.32-.24A4.5,4.5,0,0,0,25.77,50a4.43,4.43,0,0,0,2.56.82,4.77,4.77,0,0,0,.76-.07,4.24,4.24,0,0,0,1-.29,5.62,5.62,0,0,0,2,2.9l.13.09a4.37,4.37,0,0,0,2.34.65,5.66,5.66,0,0,0,4.66-2.86l.27-.28c.53.28,1,.53,1.48.73A15.06,15.06,0,0,0,48.09,54a7.89,7.89,0,0,0,2.22-.26,6.59,6.59,0,0,0,4-3.34c1.43,0,4.08-.28,5.3-2a4.54,4.54,0,0,0,.81-2.94,5.76,5.76,0,0,0,4.49-2,5.3,5.3,0,0,0,.75-3,8.77,8.77,0,0,0,1.25-.19A5.46,5.46,0,0,0,71,34.74a7.44,7.44,0,0,0-.09-1.33,16.31,16.31,0,0,0,5.29-4.48l.31.55A3,3,0,0,0,78.42,31a2.92,2.92,0,0,0,.83.12,3.22,3.22,0,0,0,1.58-.42l5-3A3.08,3.08,0,0,0,87,23.7"/></svg>